<svg width="256" height="256" viewBox="0 0 256 256" fill="none" xmlns="http://www.w3.org/2000/svg">
<path fill-rule="evenodd" clip-rule="evenodd" d="M128 256C198.692 256 256 198.692 256 128C256 57.3076 198.692 0 128 0C57.3076 0 0 57.3076 0 128C0 198.692 57.3076 256 128 256ZM159.616 159.531C161.408 162.859 162.304 166.827 162.304 171.435C162.304 176.213 161.365 180.352 159.488 183.851C157.611 187.349 155.136 190.293 152.064 192.683C148.992 195.072 145.451 196.864 141.44 198.059C137.429 199.253 133.291 199.851 129.024 199.851C124.075 199.851 119.509 199.083 115.328 197.547C111.147 196.011 107.435 193.963 104.192 191.403C100.949 188.843 98.0907 185.899 95.616 182.571C93.1413 179.243 91.136 175.787 89.6 172.203L71.68 182.955C73.728 187.563 76.4587 192.128 79.872 196.651C83.2854 201.173 87.3813 205.184 92.16 208.683C96.9387 212.181 102.4 214.997 108.544 217.131C114.688 219.264 121.6 220.331 129.28 220.331C136.96 220.331 144.171 219.179 150.912 216.875C157.653 214.571 163.499 211.243 168.448 206.891C173.397 202.539 177.28 197.248 180.096 191.019C182.912 184.789 184.32 177.749 184.32 169.899C184.32 163.243 183.296 157.44 181.248 152.491C179.2 147.541 176.256 143.104 172.416 139.179C168.576 135.253 163.883 131.627 158.336 128.299C152.789 124.971 146.603 121.771 139.776 118.699C133.632 115.968 128.085 113.323 123.136 110.763C118.187 108.203 114.005 105.557 110.592 102.827C107.179 100.096 104.533 97.152 102.656 93.9947C100.779 90.8373 99.84 87.1254 99.84 82.8587C99.84 79.4453 100.48 76.0747 101.76 72.7467C103.04 69.4187 104.96 66.4747 107.52 63.9147C110.08 61.3547 113.195 59.3067 116.864 57.7707C120.533 56.2347 124.843 55.4667 129.792 55.4667C133.888 55.4667 137.728 56.0213 141.312 57.1307C144.896 58.24 148.181 59.6907 151.168 61.4827C154.155 63.2747 156.8 65.28 159.104 67.4987C161.408 69.7173 163.328 71.936 164.864 74.1547L180.992 61.0987C178.944 58.1973 176.299 55.2107 173.056 52.1387C169.813 49.0667 166.059 46.2507 161.792 43.6907C157.525 41.1307 152.704 39.04 147.328 37.4187C141.952 35.7973 136.107 34.9867 129.792 34.9867C121.259 34.9867 113.792 36.4373 107.392 39.3387C100.992 42.24 95.6587 45.9946 91.392 50.6027C87.1253 55.2107 83.8827 60.4586 81.664 66.3467C79.4453 72.2347 78.336 78.1653 78.336 84.1387C78.336 91.3067 79.7867 97.5786 82.688 102.955C85.5894 108.331 89.3866 113.067 94.08 117.163C98.7734 121.259 104.064 124.843 109.952 127.915C115.84 130.987 121.685 133.888 127.488 136.619C132.437 139.008 137.045 141.269 141.312 143.403C145.579 145.536 149.248 147.925 152.32 150.571C155.392 153.216 157.824 156.203 159.616 159.531Z" fill="#6332F6"/>
</svg>
