<svg width="444" height="444" viewBox="0 0 444 444" xmlns="http://www.w3.org/2000/svg"><path d="M225.082452,3.00304613 C347.551568,3.00304613 446.832402,102.283881 446.832402,224.752996 C446.832402,347.222112 347.551568,446.502946 225.082452,446.502946 C102.613336,446.502946 3.33250191,347.222112 3.33250191,224.752996 C3.33250191,102.283881 102.613336,3.00304613 225.082452,3.00304613 Z M328.475893,56.9036104 L327.591199,57.137002 C326.785038,57.3501323 325.982204,57.5636063 325.182697,57.7774219 L320.425579,59.0643985 L318.076969,59.7109296 L318.076969,59.7109296 L313.439659,61.0100129 L311.150963,61.6625394 L311.150963,61.6625394 L306.633506,62.9734982 L302.195975,64.2922454 L297.838393,65.6186784 L293.560778,66.9526943 L289.363153,68.2941904 L285.245536,69.6430639 L283.216737,70.3202351 L283.216737,70.3202351 L279.219173,71.6799821 C277.899994,72.1344235 276.594158,72.5900517 275.301669,73.0468495 L271.464245,74.4207347 L269.57557,75.1102768 L269.57557,75.1102768 L265.858305,76.4944959 L262.221173,77.8854758 L260.432662,78.5834689 L260.432662,78.5834689 L256.915765,79.9843973 L255.187384,80.6873068 L255.187384,80.6873068 L251.790769,82.0979525 L250.122541,82.8056629 L250.122541,82.8056629 L246.846254,84.2257945 C246.306892,84.4630023 245.770874,84.7004682 245.2382,84.9381901 L242.082287,86.3675766 C238.966508,87.8000009 235.971141,89.2414873 233.096279,90.6915734 L230.261587,92.1445088 C228.864329,92.8723927 227.497204,93.602388 226.160225,94.3344368 L223.526463,95.8012553 L220.973109,97.2734473 C219.297681,98.2566769 217.67587,99.2434203 216.107706,100.23354 L213.795697,101.721236 C200.92235,110.165668 191.925907,118.849118 186.823102,127.687434 C177.182935,144.384694 181.924632,163.708689 203.158968,186.281757 L204.941438,188.144407 C205.548003,188.767738 206.166991,189.39352 206.798445,190.021767 L208.730251,191.913912 C209.386682,192.5471 210.055622,193.182766 210.737115,193.820921 L212.819299,195.74287 C213.879263,196.707592 214.96757,197.677945 216.084366,198.653973 L218.355986,200.613607 C219.125884,201.269349 219.908486,201.927626 220.703837,202.58845 L223.128179,204.578578 L225.629272,206.584069 L228.207377,208.604998 L230.862754,210.641444 L233.595664,212.693482 C288.568688,253.547159 307.879287,293.631176 286.237384,331.116052 C277.953939,345.463398 263.675327,358.777072 243.373041,371.206018 L241.778852,372.17272 C239.637011,373.459274 237.43014,374.73632 235.158206,376.004025 L233.442057,376.953055 C232.577882,377.426697 231.704557,377.899031 230.822079,378.370066 L229.044921,379.310407 L229.044921,379.310407 L225.705418,381.034561 C224.578428,381.607337 223.437615,382.178178 222.282976,382.747099 L218.777576,384.448119 C216.412986,385.578315 213.993078,386.700898 211.517828,387.815998 L207.763442,389.483053 C202.702244,391.698354 197.419625,393.883987 191.915385,396.040997 L187.745648,397.653404 L185.629608,398.455614 L185.629608,398.455614 L181.335174,400.052105 L176.957585,401.638107 L172.496823,403.21372 L167.952868,404.77904 C166.424349,405.299109 164.881962,405.817479 163.325702,406.334166 L158.615307,407.879197 C157.420321,408.266463 156.217438,408.652781 155.006657,409.038158 C176.778163,417.327543 200.400527,421.864063 225.082452,421.864063 C333.943888,421.864063 422.193519,333.614432 422.193519,224.752996 C422.193519,153.809461 384.714309,91.6196647 328.475893,56.9036104 Z M225.082452,27.6419295 C116.221016,27.6419295 27.9713853,115.89156 27.9713853,224.752996 C27.9713853,296.026008 65.7995262,358.463784 122.473772,393.084288 L121.701344,393.298788 L124.142776,392.606567 L124.142776,392.606567 L128.965235,391.216759 L133.707139,389.819874 L138.368469,388.416012 L140.668913,387.711495 L140.668913,387.711495 L145.209347,386.29735 L149.66916,384.876473 L154.048333,383.448961 C154.771474,383.210495 155.491255,382.971757 156.207674,382.732748 L160.465853,381.295468 L162.564686,380.574426 L162.564686,380.574426 L166.701827,379.1276 L170.758254,377.67453 L174.733947,376.215317 L178.628888,374.750058 L182.443058,373.27885 C183.700984,372.787467 184.945445,372.295109 186.176437,371.801792 L189.829009,370.318983 C190.431036,370.071374 191.029695,369.823529 191.624985,369.575451 L195.156309,368.084198 C196.319941,367.58619 197.470098,367.087264 198.606776,366.587437 L201.97637,365.085268 L203.630833,364.332185 L203.630833,364.332185 L206.879079,362.822087 L210.046405,361.306824 L213.13279,359.786497 C215.671048,358.517473 218.124974,357.243275 220.494518,355.964158 L223.297466,354.426873 L226.01939,352.884963 C245.236124,341.818275 258.209156,330.402873 264.907397,318.801178 C274.954648,301.398829 270.435455,281.688456 249.291887,258.958361 L247.516582,257.08332 C247.214444,256.769675 246.909177,256.455459 246.600773,256.140672 L244.712686,254.245066 C243.107855,252.659649 241.424373,251.059836 239.661578,249.4454 L237.508111,247.501042 L236.402746,246.523571 L236.402746,246.523571 L234.134593,244.55799 C232.981344,243.571643 231.799305,242.579948 230.588332,241.582857 L228.127765,239.581466 C227.711227,239.246697 227.291463,238.911324 226.868469,238.575347 L224.291693,236.552205 L221.637126,234.514454 C221.188202,234.173607 220.736025,233.832147 220.280592,233.490073 L218.904515,232.462006 C163.932241,191.608886 144.319803,152.045814 165.493116,115.37256 C177.502996,94.5708387 202.617717,76.2597513 240.93875,59.9290263 L244.688467,58.3547986 L246.594252,57.5722893 L246.594252,57.5722893 L250.467688,56.0164155 L254.423628,54.4726492 L256.432544,53.7052742 L256.432544,53.7052742 L260.51228,52.1794764 C261.199115,51.9261671 261.88939,51.6733517 262.583105,51.4210278 L266.786682,49.9129672 L271.072845,48.416603 L275.441616,46.9318325 C276.911643,46.4388298 278.395441,45.9477422 279.893013,45.4585527 L284.427058,43.996661 L286.72508,43.2699536 L286.72508,43.2699536 L291.383136,41.8249513 L293.743174,41.1066308 L293.743174,41.1066308 L295.479662,40.5846436 C273.617122,32.2228054 249.884747,27.6419295 225.082452,27.6419295 Z" transform="translate(-3.329 -2.98)" fill="#0080FF"/></svg>