<svg width="412" height="412" viewBox="0 0 412 412" fill="none" xmlns="http://www.w3.org/2000/svg">
<path fill-rule="evenodd" clip-rule="evenodd" d="M77.8947 20H333.105C365.632 20 392 46.3681 392 78.8947V334.105C392 366.632 365.632 393 333.105 393H77.8947C45.3681 393 19 366.632 19 334.105V78.8947C19 46.3681 45.3681 20 77.8947 20Z" fill="#003366"/>
<path fill-rule="evenodd" clip-rule="evenodd" d="M11.2623 229.462L128.95 25.6212C139.783 6.85811 163.775 0.429422 182.538 11.2623L386.379 128.95C405.142 139.783 411.571 163.775 400.738 182.538L283.05 386.379C272.217 405.142 248.225 411.571 229.462 400.738L25.6212 283.05C6.85811 272.217 0.429422 248.225 11.2623 229.462Z" fill="#004D99"/>
<path fill-rule="evenodd" clip-rule="evenodd" d="M61.8049 152.646L231.575 54.6296C240.951 49.2163 252.94 52.4288 258.354 61.8049L356.37 231.575C361.784 240.951 358.571 252.94 349.195 258.354L179.425 356.37C170.049 361.784 158.06 358.571 152.646 349.195L54.6296 179.425C49.2163 170.049 52.4288 158.06 61.8049 152.646Z" fill="#0067CC"/>
<path fill-rule="evenodd" clip-rule="evenodd" d="M126.833 117H284.167C289.597 117 294 121.403 294 126.833V284.167C294 289.597 289.597 294 284.167 294H126.833C121.403 294 117 289.597 117 284.167V126.833C117 121.403 121.403 117 126.833 117Z" fill="#0080FF"/>
</svg>
