<svg width="512" height="512" viewBox="0 0 512 512" fill="none" xmlns="http://www.w3.org/2000/svg">
<path fill-rule="evenodd" clip-rule="evenodd" d="M504 8H8V504H504V8ZM512 0V512H0V0H512Z" fill="url(#paint0_linear_3_8)"/>
<path d="M205.341 112H248.937V228.578C248.937 242.051 245.73 253.788 239.318 263.79C232.905 273.732 223.962 281.44 212.49 286.911C201.017 292.324 187.692 295.03 172.513 295.03C157.157 295.03 143.743 292.324 132.271 286.911C120.798 281.44 111.885 273.732 105.531 263.79C99.177 253.788 96 242.051 96 228.578V112H139.684V224.783C139.684 231.02 141.037 236.579 143.743 241.462C146.508 246.346 150.362 250.17 155.304 252.935C160.246 255.7 165.982 257.083 172.513 257.083C179.043 257.083 184.75 255.7 189.633 252.935C194.575 250.17 198.429 246.346 201.194 241.462C203.959 236.579 205.341 231.02 205.341 224.783V112Z" fill="white"/>
<path d="M320 112V292.736H276.316V112H320Z" fill="white"/>
<path d="M105.841 349.818V396.364H96V349.818H105.841Z" fill="white"/>
<path d="M151.589 349.818V396.364H143.089L122.839 367.068H122.498V396.364H112.657V349.818H121.294L141.385 379.091H141.794V349.818H151.589Z" fill="white"/>
<path d="M168.281 349.818V396.364H158.44V349.818H168.281Z" fill="white"/>
<path d="M173.325 357.932V349.818H211.552V357.932H197.302V396.364H187.575V357.932H173.325Z" fill="white"/>
<path d="M226.408 349.818V396.364H216.567V349.818H226.408Z" fill="white"/>
<path d="M241.248 396.364H230.702L246.77 349.818H259.452L275.498 396.364H264.952L253.293 360.455H252.93L241.248 396.364ZM240.589 378.068H265.498V385.75H240.589V378.068Z" fill="white"/>
<path d="M272.36 357.932V349.818H310.587V357.932H296.337V396.364H286.61V357.932H272.36Z" fill="white"/>
<path d="M325.443 349.818V396.364H315.602V349.818H325.443Z" fill="white"/>
<path d="M340.669 349.818L351.919 385.182H352.351L363.624 349.818H374.533L358.487 396.364H345.805L329.737 349.818H340.669Z" fill="white"/>
<path d="M378.855 396.364V349.818H410.219V357.932H388.696V369.023H408.605V377.137H388.696V388.25H410.31V396.364H378.855Z" fill="white"/>
<path fill-rule="evenodd" clip-rule="evenodd" d="M384 0H32H0V32V192H32V32H384V0Z" fill="url(#paint1_linear_3_8)"/>
<path fill-rule="evenodd" clip-rule="evenodd" d="M512 320H480V480H128V512H480H512V480V320Z" fill="url(#paint2_linear_3_8)"/>
<defs>
<linearGradient id="paint0_linear_3_8" x1="8.00001" y1="260" x2="500" y2="260" gradientUnits="userSpaceOnUse">
<stop stop-color="#114DF1"/>
<stop offset="1" stop-color="#B605E6"/>
</linearGradient>
<linearGradient id="paint1_linear_3_8" x1="6.00001" y1="97.5" x2="375" y2="97.5" gradientUnits="userSpaceOnUse">
<stop stop-color="#114DF1"/>
<stop offset="1" stop-color="#B605E6"/>
</linearGradient>
<linearGradient id="paint2_linear_3_8" x1="134" y1="417.5" x2="503" y2="417.5" gradientUnits="userSpaceOnUse">
<stop stop-color="#114DF1"/>
<stop offset="1" stop-color="#B605E6"/>
</linearGradient>
</defs>
</svg>
