<svg xmlns="http://www.w3.org/2000/svg" width="388" height="220" viewBox="0 0 388 220">
  <path fill="#B53DF5" d="M5.84615385,169 L8.26373626,162.07052 L19.9120879,162.07052 L22.1538462,168.914451 L28,167.460116 L15.032967,132 L13.7142857,132 L0,167.417341 L5.84615385,169 Z M18,156 L10,156 L14.1304348,144 L18,156 Z M43.3478261,168 L43.3478261,137.365385 L52,137.365385 L52,132 L29,132 L29,137.365385 L37.6521739,137.365385 L37.6521739,168 L43.3478261,168 Z M75.7306338,169 L80,165.391304 L69.8767606,154.086957 L79.2517606,147.478261 L56.3644366,131 L55.0440141,131 L55,168.086957 L60.721831,168.086957 L60.721831,160.652174 L65.2552817,157.304348 L75.7306338,169 Z M61,155 L61,141 L70,147.8 L61,155 Z M99.5609137,169 L116,149.934708 L99.5609137,131 L98.4822335,131 L82,149.934708 L98.4822335,169 L99.5609137,169 Z M99.5211581,161 L90,149.478261 L99.5211581,138 L109,149.478261 L99.5211581,161 Z M125.591398,168 L125.591398,159.705399 L144,147.45892 L121.333333,131 L120.043011,131 L120,168 L125.591398,168 Z M126,154 L126,141 L135,147.826087 L126,154 Z M163.560914,169 L180,149.934708 L163.560914,131 L162.482234,131 L146,149.934708 L162.482234,169 L163.560914,169 Z M162.521158,161 L153,149.478261 L162.521158,138 L172,149.478261 L162.521158,161 Z M188.863388,169 L206,157.114155 L190.786885,143.015982 L202.415301,135.424658 L198.874317,131 L182,142.495434 L197.213115,156.593607 L185.497268,164.488584 L188.863388,169 Z M238.559165,169 L239,132 L233.225058,132 L233.225058,158.329426 L223.835267,150.087925 L220,154.425557 L236.795824,169 L238.559165,169 Z M249.863388,169 L267,157.114155 L251.786885,143.015982 L263.415301,135.424658 L259.874317,131 L243,142.495434 L258.213115,156.593607 L246.497268,164.488584 L249.863388,169 Z" transform="translate(61 26)"/>
</svg>
