<svg width="388" height="220" viewBox="0 0 388 220" fill="none" xmlns="http://www.w3.org/2000/svg">
<g id="Artboard">
<g id="Group 2">
<g id="Group">
<g id="Group_2">
<g id="Group 2_2">
<path id="Back" d="M152.617 55.7442L153.13 55.7143H230.122L152.617 55.7442ZM230.122 55.7143L230.635 55.7442L231.133 55.8316L230.122 55.7143ZM152.617 55.7442L230.122 55.7143L231.133 55.8316L152.617 55.7442ZM151.639 55.9725L152.119 55.8316L152.617 55.7442L151.639 55.9725ZM231.133 55.8316L231.613 55.9725L232.069 56.1632L231.133 55.8316ZM150.756 56.3998L152.617 55.7442L231.133 55.8316L150.756 56.3998ZM150.756 56.3998L151.639 55.9725L152.617 55.7442L150.756 56.3998ZM150.756 56.3998L151.183 56.1632L151.639 55.9725L150.756 56.3998ZM231.133 55.8316L232.069 56.1632L232.89 56.6787L231.133 55.8316ZM232.069 56.1632L232.496 56.3998L232.89 56.6787L232.069 56.1632ZM150.007 56.9961L150.362 56.6787L150.756 56.3998L150.007 56.9961ZM150.756 56.3998L231.133 55.8316L234.032 58.1417L150.756 56.3998ZM231.133 55.8316L232.89 56.6787L234.032 58.1417L231.133 55.8316ZM232.89 56.6787L233.245 56.9961L233.557 57.3482L232.89 56.6787ZM149.431 57.7314L150.007 56.9961L150.756 56.3998L149.431 57.7314ZM149.431 57.7314L149.695 57.3482L150.007 56.9961L149.431 57.7314ZM232.89 56.6787L233.557 57.3482L234.032 58.1417L232.89 56.6787ZM233.557 57.3482L233.821 57.7314L234.032 58.1417L233.557 57.3482ZM149.068 58.5755L149.22 58.1417L149.431 57.7314L149.068 58.5755ZM234.032 58.1417L234.184 58.5755L234.273 59.0289L234.032 58.1417ZM143.076 108.543L149.431 57.7314L150.756 56.3998L143.076 108.543ZM143.076 108.543L149.068 58.5755L149.431 57.7314L143.076 108.543ZM143.076 108.543L148.979 59.0289L149.068 58.5755L143.076 108.543ZM234.032 58.1417L234.273 59.0289L240.207 109.132L234.032 58.1417ZM150.756 56.3998L234.032 58.1417L146.915 112.925L150.756 56.3998ZM143.406 110.743L143.076 108.543L150.756 56.3998L143.406 110.743ZM234.273 59.0289L240.176 108.543L240.207 109.132L234.273 59.0289ZM234.032 58.1417L240.207 109.132L239.589 111.21L234.032 58.1417ZM146.915 112.925L143.406 110.743L150.756 56.3998L146.915 112.925ZM234.032 58.1417L239.589 111.21L146.915 112.925L234.032 58.1417ZM143.093 109.699L143.045 109.132L143.076 108.543L143.093 109.699ZM143.406 110.743L143.093 109.699L143.076 108.543L143.406 110.743ZM240.207 109.132L240.159 109.699L240.038 110.238L240.207 109.132ZM240.207 109.132L240.038 110.238L239.589 111.21L240.207 109.132ZM143.406 110.743L143.214 110.238L143.093 109.699L143.406 110.743ZM240.038 110.238L239.846 110.743L239.589 111.21L240.038 110.238ZM143.981 111.632L143.663 111.21L143.406 110.743L143.981 111.632ZM144.783 112.322L143.981 111.632L143.406 110.743L144.783 112.322ZM239.589 111.21L239.271 111.632L238.896 112.004L239.589 111.21ZM239.589 111.21L238.896 112.004L237.995 112.578L239.589 111.21ZM144.783 112.322L144.356 112.004L143.981 111.632L144.783 112.322ZM146.915 112.925L144.783 112.322L143.406 110.743L146.915 112.925ZM239.589 111.21L237.995 112.578L146.915 112.925L239.589 111.21ZM238.896 112.004L238.469 112.322L237.995 112.578L238.896 112.004ZM145.773 112.767L145.257 112.578L144.783 112.322L145.773 112.767ZM146.915 112.925L145.773 112.767L144.783 112.322L146.915 112.925ZM237.995 112.578L237.479 112.767L236.924 112.885L237.995 112.578ZM237.995 112.578L236.924 112.885L146.915 112.925L237.995 112.578ZM146.915 112.925L146.328 112.885L145.773 112.767L146.915 112.925ZM236.924 112.885L236.337 112.925H146.915L236.924 112.885Z" fill="#6F03A8"/>
<path id="Front" d="M152.295 48.8931L152.816 48.8661H230.704L152.295 48.8931ZM230.704 48.8661L231.224 48.8931L231.732 48.9721L230.704 48.8661ZM152.295 48.8931L230.704 48.8661L231.732 48.9721L152.295 48.8931ZM151.295 49.0994L151.787 48.9721L152.295 48.8931L151.295 49.0994ZM231.732 48.9721L232.224 49.0994L232.695 49.2718L231.732 48.9721ZM150.381 49.4859L152.295 48.8931L231.732 48.9721L150.381 49.4859ZM150.381 49.4859L151.295 49.0994L152.295 48.8931L150.381 49.4859ZM150.381 49.4859L150.825 49.2718L151.295 49.0994L150.381 49.4859ZM231.732 48.9721L232.695 49.2718L233.551 49.7383L231.732 48.9721ZM232.695 49.2718L233.139 49.4859L233.551 49.7383L232.695 49.2718ZM149.592 50.0257L149.968 49.7383L150.381 49.4859L149.592 50.0257ZM150.381 49.4859L231.732 48.9721L234.782 51.0651L150.381 49.4859ZM231.732 48.9721L233.551 49.7383L234.782 51.0651L231.732 48.9721ZM233.551 49.7383L233.927 50.0257L234.261 50.3449L233.551 49.7383ZM148.972 50.6925L149.592 50.0257L150.381 49.4859L148.972 50.6925ZM148.972 50.6925L149.259 50.3449L149.592 50.0257L148.972 50.6925ZM233.551 49.7383L234.261 50.3449L234.782 51.0651L233.551 49.7383ZM234.261 50.3449L234.548 50.6925L234.782 51.0651L234.261 50.3449ZM148.561 51.4594L148.737 51.0651L148.972 50.6925L148.561 51.4594ZM234.782 51.0651L234.958 51.4594L235.072 51.872L234.782 51.0651ZM139.393 99.7465L148.972 50.6925L150.381 49.4859L139.393 99.7465ZM139.393 99.7465L148.561 51.4594L148.972 50.6925L139.393 99.7465ZM139.393 99.7465L148.448 51.872L148.561 51.4594L139.393 99.7465ZM234.782 51.0651L235.072 51.872L244.198 100.352L234.782 51.0651ZM150.381 49.4859L234.782 51.0651L143.268 104.272L150.381 49.4859ZM139.606 102.012L139.393 99.7465L150.381 49.4859L139.606 102.012ZM235.072 51.872L244.126 99.7465L244.198 100.352L235.072 51.872ZM234.782 51.0651L244.198 100.352L243.666 102.494L234.782 51.0651ZM143.268 104.272L139.606 102.012L150.381 49.4859L143.268 104.272ZM234.782 51.0651L243.666 102.494L143.268 104.272L234.782 51.0651ZM139.336 100.935L139.321 100.352L139.393 99.7465L139.336 100.935ZM139.606 102.012L139.336 100.935L139.393 99.7465L139.606 102.012ZM244.198 100.352L244.184 100.935L244.088 101.491L244.198 100.352ZM244.198 100.352L244.088 101.491L243.666 102.494L244.198 100.352ZM139.606 102.012L139.432 101.491L139.336 100.935L139.606 102.012ZM244.088 101.491L243.914 102.012L243.666 102.494L244.088 101.491ZM140.17 102.931L139.853 102.494L139.606 102.012L140.17 102.931ZM140.994 103.645L140.17 102.931L139.606 102.012L140.994 103.645ZM243.666 102.494L243.349 102.931L242.967 103.317L243.666 102.494ZM243.666 102.494L242.967 103.317L242.028 103.911L243.666 102.494ZM140.994 103.645L140.552 103.317L140.17 102.931L140.994 103.645ZM143.268 104.272L140.994 103.645L139.606 102.012L143.268 104.272ZM243.666 102.494L242.028 103.911L143.268 104.272L243.666 102.494ZM242.967 103.317L242.525 103.645L242.028 103.911L242.967 103.317ZM142.04 104.108L141.491 103.911L140.994 103.645L142.04 104.108ZM143.268 104.272L142.04 104.108L140.994 103.645L143.268 104.272ZM242.028 103.911L241.479 104.108L240.885 104.23L242.028 103.911ZM242.028 103.911L240.885 104.23L143.268 104.272L242.028 103.911ZM143.268 104.272L142.634 104.23L142.04 104.108L143.268 104.272ZM240.885 104.23L240.251 104.272H143.268L240.885 104.23Z" fill="white"/>
<path id="Vector" d="M201.078 81.0218L191.807 67.1149V57.8214L201.078 81.0218ZM191.807 67.1149L169.348 88.6289L191.807 57.8214V67.1149ZM191.807 57.8214L214.265 88.6289L201.078 81.0218L191.807 57.8214ZM191.807 67.1149L182.535 81.0218L169.348 88.6289L191.807 67.1149ZM214.265 88.6289L182.535 81.0218H201.078L214.265 88.6289ZM214.265 88.6289H169.348L182.535 81.0218L214.265 88.6289Z" fill="#6F03A8"/>
<path id="Vector_2" d="M189.733 61.7026L166.187 88.5119L189.733 50.9732V61.7026ZM200.351 76.632L189.733 61.7026V50.9732L200.351 76.632ZM189.733 61.7026L179.658 78.8266L166.187 88.5119L189.733 61.7026ZM189.733 50.9732L216.482 84.3013L200.351 76.632L189.733 50.9732ZM216.482 84.3013L166.187 88.5119L179.658 78.8266L216.482 84.3013ZM216.482 84.3013L179.658 78.8266L200.351 76.632L216.482 84.3013Z" fill="#B53DF5"/>
</g>
</g>
</g>
</g>
</g>
</svg>
