<svg xmlns="http://www.w3.org/2000/svg" xmlns:xlink="http://www.w3.org/1999/xlink" width="512" height="512" viewBox="0 0 512 512"><defs><linearGradient id="a" x1="50%" x2="50%" y1="0%" y2="100%"><stop offset="0%" stop-color="#191919"/><stop offset="55.226%"/><stop offset="100%"/></linearGradient><linearGradient id="b" x1="50%" x2="50%" y1="0%" y2="100%"><stop offset="0%" stop-color="#292929"/><stop offset="53.761%"/><stop offset="100%"/></linearGradient><linearGradient id="e" x1="50%" x2="50%" y1="0%" y2="100%"><stop offset="0%" stop-color="#DEFF5A"/><stop offset="51.743%" stop-color="#D7FF37"/><stop offset="100%" stop-color="#D7FF37"/></linearGradient><filter id="d" width="189.8%" height="215.3%" x="-44.9%" y="-57.7%" filterUnits="objectBoundingBox"><feOffset in="SourceAlpha" result="shadowOffsetOuter1"/><feGaussianBlur in="shadowOffsetOuter1" result="shadowBlurOuter1" stdDeviation="50"/><feColorMatrix in="shadowBlurOuter1" values="0 0 0 0 0.843137255 0 0 0 0 1 0 0 0 0 0.215686275 0 0 0 0.178895323 0"/></filter><path id="c" d="M167.170213,126 C210.34243,126 245.340426,161.099419 245.340426,204.396733 L245.340426,307.73788 C245.340426,351.035201 210.34243,386.134613 167.170213,386.134613 C123.997999,386.134613 89,351.035201 89,307.73788 L89,204.396726 C89,161.099409 123.997999,126 167.170213,126 Z M167.170213,147.380927 C135.772236,147.380927 110.319149,172.907771 110.319149,204.396726 L110.319149,307.73788 C110.319149,339.226838 135.772239,364.753686 167.170213,364.753686 C198.568186,364.753686 224.021277,339.226838 224.021277,307.73788 L224.021277,204.396733 C224.021277,172.907775 198.568186,147.380927 167.170213,147.380927 Z M167.170213,216.86894 C188.756321,216.86894 206.255319,234.418646 206.255319,256.067307 C206.255319,277.715967 188.756321,295.265673 167.170213,295.265673 C145.584104,295.265673 128.085106,277.715967 128.085106,256.067307 C128.085106,234.418646 145.584104,216.86894 167.170213,216.86894 Z M344.829787,126 C388.002005,126 423,161.099419 423,204.396733 L423,307.73788 C423,351.035201 388.002005,386.134613 344.829787,386.134613 C324.057292,386.134613 305.177201,378.008778 291.177469,364.753686 L306.242071,349.608863 C316.378458,359.009209 329.93521,364.753686 344.829787,364.753686 C376.227761,364.753686 401.680851,339.226838 401.680851,307.73788 L401.680851,204.396733 C401.680851,172.907775 376.227761,147.380927 344.829787,147.380927 C313.43181,147.380927 287.978723,172.907771 287.978723,204.396726 L287.978723,256.067307 L266.659574,256.067307 L266.659574,204.396726 C266.659574,161.099409 301.657573,126 344.829787,126 Z M344.829787,165.198366 C366.415896,165.198366 383.914894,182.748072 383.914894,204.396733 C383.914894,226.045393 366.415896,243.595099 344.829787,243.595099 C323.243679,243.595099 305.744681,226.045393 305.744681,204.396733 C305.744681,182.748072 323.243679,165.198366 344.829787,165.198366 Z"/></defs><g fill="none" fill-rule="evenodd"><path fill="url(#a)" fill-rule="nonzero" stroke="url(#b)" stroke-width="6" d="M146.141456,3 L365.858544,3 C415.82552,3 433.986917,8.09655923 452.265409,17.8720037 C470.312648,27.523773 484.476227,41.6873521 494.127996,59.7345915 C503.903441,78.0130835 509,96.1744799 509,146.141456 L509,365.858544 C509,415.82552 503.903441,433.986917 494.127996,452.265409 C484.476227,470.312648 470.312648,484.476227 452.265409,494.127996 C433.986917,503.903441 415.82552,509 365.858544,509 L146.141456,509 C96.1744799,509 78.0130835,503.903441 59.7345915,494.127996 C41.6873521,484.476227 27.523773,470.312648 17.8720037,452.265409 C8.09655923,433.986917 3,415.82552 3,365.858544 L3,146.141456 C3,96.1744799 8.09655923,78.0130835 17.8720037,59.7345915 C27.523773,41.6873521 41.6873521,27.523773 59.7345915,17.8720037 C78.0130835,8.09655923 96.1744799,3 146.141456,3 Z"/><use xlink:href="#c" fill="#000" filter="url(#d)"/><use xlink:href="#c" fill="url(#e)"/></g></svg>