<svg width="388" height="220" viewBox="0 0 388 220" xmlns="http://www.w3.org/2000/svg"><g transform="translate(101.592 159.182)" fill="#FF6300"><polygon points="0 29.8181534 6.30432637 29.8181534 6.30432637 21.3444399 9.4055308 17.5589321 17.5734918 29.8181534 25.115388 29.8181534 13.9190208 13.3511947 24.9843512 0 17.4278953 0 6.69743679 13.1473596 6.30432637 13.1473596 6.30432637 0 0 0"/><path d="M36.6320927 30.2549427C43.4168874 30.2549427 47.6391845 25.6104159 47.6391845 18.7237037 47.6391845 11.7933126 43.4168874 7.16334544 36.6320927 7.16334544 29.8472981 7.16334544 25.625001 11.7933126 25.625001 18.7237037 25.625001 25.6104159 29.8472981 30.2549427 36.6320927 30.2549427ZM36.661212 25.4502598C33.5308883 25.4502598 31.9293273 22.5820097 31.9293273 18.6800248 31.9293273 14.7780399 33.5308883 11.8952301 36.661212 11.8952301 39.7332972 11.8952301 41.3348581 14.7780399 41.3348581 18.6800248 41.3348581 22.5820097 39.7332972 25.4502598 36.661212 25.4502598ZM57.8891987 16.8891884C57.9037584 14.0063787 59.6217965 12.3174598 62.1260555 12.3174598 64.6157548 12.3174598 66.1153983 13.9481401 66.1008386 16.6853534L66.1008386 29.8181534 72.3032475 29.8181534 72.3032475 15.5788204C72.3032475 10.3664674 69.245722 7.16334544 64.5866355 7.16334544 61.2670364 7.16334544 58.864695 8.7940257 57.8600795 11.4002022L57.5980058 11.4002022 57.5980058 7.45453835 51.6867899 7.45453835 51.6867899 29.8181534 57.8891987 29.8181534 57.8891987 16.8891884ZM95.7879795 13.8316629C95.234713 9.71128335 91.9151139 7.16334544 86.2659716 7.16334544 80.544031 7.16334544 76.7730829 9.81320087 76.7876425 14.1228558 76.7730829 17.4715742 78.8842314 19.6409614 83.252125 20.5145401L87.1249906 21.2862013C89.0759831 21.6793117 89.9641214 22.3927343 89.9932407 23.513827 89.9641214 24.8387547 88.5227166 25.7851317 86.3533294 25.7851317 84.1402634 25.7851317 82.6697392 24.8387547 82.2911884 23.0187991L76.1906971 23.3391113C76.7730829 27.619647 80.4129942 30.2549427 86.3387698 30.2549427 92.1335086 30.2549427 96.2830075 27.2993348 96.2975671 22.8877623 96.2830075 19.655521 94.1718589 17.7190882 89.8330846 16.8309499L85.7855033 16.0156097C83.703474 15.5642607 82.9318128 14.8508381 82.9463725 13.7734244 82.9318128 12.433937 84.4460159 11.5603583 86.3678891 11.5603583 88.5227166 11.5603583 89.8039653 12.7396896 90.1097179 14.1810944L95.7879795 13.8316629ZM112.109364 7.45453835 107.901626 7.45453835 107.901626 2.09658891 101.699217 2.09658891 101.699217 7.45453835 98.641692 7.45453835 98.641692 12.1136248 101.699217 12.1136248 101.699217 23.761341C101.670098 28.1437942 104.654825 30.3131813 109.153756 30.1239059 110.755317 30.0656673 111.890969 29.7453552 112.517034 29.5415201L111.541538 24.9261126C111.235785 24.9843512 110.580601 25.1299476 109.998215 25.1299476 108.760645 25.1299476 107.901626 24.664039 107.901626 22.9460008L107.901626 12.1136248 112.109364 12.1136248 112.109364 7.45453835ZM122.519525 30.2403831C125.824565 30.2403831 127.964833 28.7989782 129.056806 26.716949L129.231522 26.716949 129.231522 29.8181534 135.113618 29.8181534 135.113618 14.7343609C135.113618 9.4055308 130.600128 7.16334544 125.62073 7.16334544 120.26278 7.16334544 116.739346 9.725843 115.880327 13.8025437L121.616827 14.2684523C122.039057 12.7833685 123.363985 11.6913951 125.59161 11.6913951 127.702759 11.6913951 128.91121 12.7542492 128.91121 14.5887645L128.91121 14.6761224C128.91121 16.1175272 127.382447 16.3068026 123.495022 16.6853534 119.068889 17.0930235 115.094106 18.5781073 115.094106 23.5720656 115.094106 27.9981977 118.253549 30.2403831 122.519525 30.2403831ZM124.295802 25.9598474C122.388488 25.9598474 121.019882 25.071709 121.019882 23.3682306 121.019882 21.6210731 122.461287 20.7620541 124.645233 20.4563015 125.99928 20.2670261 128.212347 19.9467139 128.954888 19.451686L128.954888 21.8249082C128.954888 24.169011 127.018456 25.9598474 124.295802 25.9598474ZM167.974769 0 167.974769 18.8256213C167.974769 22.2325782 165.586988 24.6931583 161.917957 24.6931583 158.263486 24.6931583 155.861145 22.2325782 155.861145 18.8256213L155.861145 0 149.556818 0 149.556818 19.3643281C149.556818 25.8870492 154.477978 30.2403831 161.917957 30.2403831 169.328816 30.2403831 174.279096 25.8870492 174.279096 19.3643281L174.279096 0 167.974769 0Z"/><polygon points="185.766684 0 179.462358 0 179.462358 29.8181534 185.766684 29.8181534"/></g></svg>