<svg width="217" height="387" viewBox="0 0 217 387" xmlns="http://www.w3.org/2000/svg"><path d="M326.306232,48.7949447 L332.468077,72.6414559 L327.591199,73.9160946 L325.182697,74.5565145 L325.182697,74.5565145 L320.425579,75.8434911 L318.076969,76.4900222 L318.076969,76.4900222 L313.439659,77.7891054 L311.150963,78.441632 L311.150963,78.441632 L306.633506,79.7525907 L302.195975,81.071338 L297.838393,82.3977709 L293.560778,83.7317869 L289.363153,85.073283 L285.245536,86.4221565 L283.216737,87.0993277 L283.216737,87.0993277 L279.219173,88.4590747 C277.899994,88.9135161 276.594158,89.3691443 275.301669,89.8259421 L271.464245,91.1998273 L269.57557,91.8893694 L269.57557,91.8893694 L265.858305,93.2735885 L262.221173,94.6645684 L260.432662,95.3625615 L260.432662,95.3625615 L256.915765,96.7634899 L255.187384,97.4663994 L255.187384,97.4663994 L251.790769,98.8770451 L250.122541,99.5847555 L250.122541,99.5847555 L246.846254,101.004887 C246.306892,101.242095 245.770874,101.479561 245.2382,101.717283 L242.082287,103.146669 C238.966508,104.579093 235.971141,106.02058 233.096279,107.470666 L230.261587,108.923601 C228.864329,109.651485 227.497204,110.381481 226.160225,111.113529 L223.526463,112.580348 L220.973109,114.05254 C219.297681,115.03577 217.67587,116.022513 216.107706,117.012633 L213.795697,118.500329 C200.92235,126.94476 191.925907,135.62821 186.823102,144.466526 C177.182935,161.163786 181.924632,180.487781 203.158968,203.06085 L204.941438,204.9235 C205.548003,205.54683 206.166991,206.172613 206.798445,206.800859 L208.730251,208.693005 C209.386682,209.326193 210.055622,209.961858 210.737115,210.600014 L212.819299,212.521962 C213.879263,213.486684 214.96757,214.457038 216.084366,215.433065 L218.355986,217.3927 C219.125884,218.048442 219.908486,218.706718 220.703837,219.367543 L223.128179,221.357671 L225.629272,223.363162 L228.207377,225.384091 L230.862754,227.420536 L233.595664,229.472574 C288.568688,270.326252 307.879287,310.410268 286.237384,347.895144 C277.953939,362.242491 263.675327,375.556164 243.373041,387.985111 L241.778852,388.951812 C240.440202,389.755909 239.076148,390.556291 237.686685,391.353 L236.007132,392.30729 C234.31538,393.259822 232.587034,394.207088 230.822079,395.149158 L229.044921,396.089499 L229.044921,396.089499 L225.705418,397.813653 C224.578428,398.38643 223.437615,398.95727 222.282976,399.526191 L218.777576,401.227212 C216.412986,402.357408 213.993078,403.47999 211.517828,404.595091 L207.763442,406.262146 C202.702244,408.477447 197.419625,410.663079 191.915385,412.82009 L187.745648,414.432497 L185.629608,415.234706 L185.629608,415.234706 L181.335174,416.831197 L176.957585,418.4172 L172.496823,419.992812 L167.952868,421.558133 C166.424349,422.078202 164.881962,422.596572 163.325702,423.113259 L158.615307,424.658289 L157.026676,425.171073 L157.026676,425.171073 L153.821663,426.193321 L153.821663,426.193321 L148.944751,427.718453 L143.984554,429.233784 L138.941051,430.73941 L133.814225,432.235431 L128.604057,433.721944 L127.28849,434.092098 L127.28849,434.092098 L123.310527,435.199047 L116.758086,411.456892 L121.701344,410.07788 L124.142776,409.38566 L124.142776,409.38566 L128.965235,407.995851 L133.707139,406.598967 L138.368469,405.195105 L140.668913,404.490588 L140.668913,404.490588 L145.209347,403.076443 L149.66916,401.655566 L154.048333,400.228054 L156.207674,399.511841 L156.207674,399.511841 L160.465853,398.074561 L162.564686,397.353519 L162.564686,397.353519 L166.701827,395.906692 L170.758254,394.453623 L174.733947,392.99441 L178.628888,391.52915 L182.443058,390.057943 C183.700984,389.56656 184.945445,389.074202 186.176437,388.580885 L189.829009,387.098075 L191.624985,386.354544 L191.624985,386.354544 L195.156309,384.86329 L197.465605,383.866056 C197.847493,383.699648 198.227884,383.533139 198.606776,383.36653 L201.97637,381.86436 L203.630833,381.111278 L203.630833,381.111278 L206.879079,379.601179 L210.046405,378.085917 L213.13279,376.565589 C215.671048,375.296566 218.124974,374.022368 220.494518,372.743251 L223.297466,371.205966 L226.01939,369.664056 C245.236124,358.597367 258.209156,347.181966 264.907397,335.580271 C274.954648,318.177921 270.435455,298.467549 249.291887,275.737454 L247.516582,273.862412 C247.214444,273.548767 246.909177,273.234552 246.600773,272.919764 L244.712686,271.024159 C243.107855,269.438741 241.424373,267.838929 239.661578,266.224492 L237.508111,264.280134 L236.402746,263.302664 L236.402746,263.302664 L234.134593,261.337083 C232.981344,260.350735 231.799305,259.359041 230.588332,258.36195 L228.127765,256.360559 C227.711227,256.025789 227.291463,255.690417 226.868469,255.354439 L224.291693,253.331298 L221.637126,251.293547 C221.188202,250.9527 220.736025,250.61124 220.280592,250.269166 L218.904515,249.241099 C163.932241,208.387979 144.319803,168.824906 165.493116,132.151653 C177.502996,111.349931 202.617717,93.0388439 240.93875,76.7081189 L244.688467,75.1338912 L246.594252,74.3513819 L246.594252,74.3513819 L250.467688,72.7955081 L254.423628,71.2517418 L256.432544,70.4843668 L256.432544,70.4843668 L260.51228,68.958569 C261.199115,68.7052597 261.88939,68.4524442 262.583105,68.2001204 L266.786682,66.6920598 L271.072845,65.1956956 L275.441616,63.710925 C276.911643,63.2179224 278.395441,62.7268348 279.893013,62.2376453 L284.427058,60.7757536 L286.72508,60.0490462 L286.72508,60.0490462 L291.383136,58.6040439 L293.743174,57.8857234 L293.743174,57.8857234 L298.525285,56.4573792 L300.947363,55.74733 L300.947363,55.74733 L305.853575,54.3354128 L310.842548,52.9343185 L312.523934,52.4696743 L312.523934,52.4696743 L315.914302,51.5439442 L315.914302,51.5439442 L321.068856,50.1641872 L326.306232,48.7949447 Z" transform="translate(-116.329 -48.76)" fill="#0080FF"/></svg>