<svg xmlns="http://www.w3.org/2000/svg" width="300" height="300" viewBox="0 0 300 300"><defs/><g fill="none" fill-rule="evenodd"><circle cx="150" cy="150" r="150" fill="#6332F6"/><path fill="#FFF" fill-rule="nonzero" d="M190.2 200.9c0-5.400027-1.049989-10.04998-3.15-13.95-2.10001-3.900019-4.949982-7.399984-8.55-10.5-3.600018-3.100015-7.899975-5.899987-12.9-8.4s-10.399971-5.149986-16.2-7.95c-6.800034-3.200016-13.649965-6.599982-20.55-10.2-6.900034-3.600018-13.099972-7.799976-18.6-12.6-5.500028-4.800024-9.949983-10.349968-13.35-16.65-3.400017-6.300031-5.1-13.649958-5.1-22.05 0-7.000035 1.299987-13.9499655 3.9-20.85 2.600013-6.9000345 6.399975-13.049973 11.4-18.45s11.249963-9.799983 18.75-13.2c7.500037-3.400017 16.24995-5.1 26.25-5.1 7.400037 0 14.249968.9499905 20.55 2.85 6.300032 1.9000095 11.949975 4.349985 16.95 7.35 5.000025 3.000015 9.399981 6.299982 13.2 9.9 3.800019 3.600018 6.899988 7.099983 9.3 10.5l-18.9 15.3c-1.800009-2.600013-4.049986-5.199987-6.75-7.8-2.700014-2.600013-5.799983-4.9499895-9.3-7.05-3.500017-2.1000105-7.349979-3.7999935-11.55-5.1-4.200021-1.3000065-8.699976-1.95-13.5-1.95-5.800029 0-10.849978.899991-15.15 2.7-4.300021 1.8-7.949985 4.199985-10.95 7.2-3.000015 3.000015-5.249993 6.4499805-6.75 10.35S117 93.09998 117 97.1c0 5.000025 1.099989 9.349982 3.3 13.05 2.200011 3.700019 5.29998 7.149984 9.3 10.35 4.00002 3.200016 8.899971 6.299985 14.7 9.3 5.800029 3.000015 12.299964 6.099984 19.5 9.3 8.00004 3.600018 15.249967 7.349981 21.75 11.25 6.500032 3.90002 11.999978 8.149977 16.5 12.75 4.500023 4.600023 7.949988 9.799971 10.35 15.6 2.400012 5.800029 3.6 12.599961 3.6 20.4 0 9.200046-1.649984 17.449963-4.95 24.75-3.300017 7.300037-7.849971 13.499975-13.65 18.6-5.800029 5.100026-12.64996 8.999987-20.55 11.7-7.900039 2.700014-16.349955 4.05-25.35 4.05s-17.099964-1.249987-24.3-3.75c-7.200036-2.500012-13.599972-5.79998-19.2-9.9-5.600028-4.10002-10.39998-8.799974-14.4-14.1-4.00002-5.300027-7.199988-10.649973-9.6-16.05l21-12.6c1.800009 4.200021 4.149985 8.249981 7.05 12.15 2.900014 3.90002 6.249981 7.349985 10.05 10.35 3.800019 3.000015 8.149976 5.399991 13.05 7.2 4.900025 1.800009 10.249971 2.7 16.05 2.7 5.000025 0 9.849977-.7 14.55-2.1 4.700023-1.400007 8.849982-3.499986 12.45-6.3 3.600018-2.800014 6.499989-6.249979 8.7-10.35 2.200011-4.10002 3.3-8.949972 3.3-14.55z"/></g></svg>
