<svg xmlns="http://www.w3.org/2000/svg" width="256" height="272" viewBox="0 0 256 272">
  <g fill="none">
    <polygon fill="#E23237" points=".1 45.522 125.908 .697 255.104 44.725 234.185 211.175 125.908 271.141 19.325 211.972"/>
    <polygon fill="#B52E31" points="255.104 44.725 125.908 .697 125.908 271.141 234.185 211.275"/>
    <path fill="#FFF" d="M126.107393,32.27393 L126.107393,32.27393 L47.7136187,206.692607 L76.9992218,206.194553 L92.7377432,166.848249 L126.207004,166.848249 L126.306615,166.848249 L163.063035,166.848249 L180.29572,206.692607 L208.286381,207.190661 L126.107393,32.27393 L126.107393,32.27393 Z M126.306615,88.155642 L152.803113,143.5393 L127.402335,143.5393 L126.107393,143.5393 L102.997665,143.5393 L126.306615,88.155642 L126.306615,88.155642 Z"/>
  </g>
</svg>
