<svg xmlns="http://www.w3.org/2000/svg" width="61" height="64" viewBox="0 0 61 64"><defs><linearGradient id="a" x1="25.071%" x2="96.132%" y1="90.929%" y2="55.184%"><stop offset="0%" stop-color="#E40035"/><stop offset="24%" stop-color="#F60A48"/><stop offset="35.2%" stop-color="#F20755"/><stop offset="49.4%" stop-color="#DC087D"/><stop offset="74.5%" stop-color="#9717E7"/><stop offset="100%" stop-color="#6C00F5"/></linearGradient><linearGradient id="b" x1="21.863%" x2="68.367%" y1="12.058%" y2="68.21%"><stop offset="0%" stop-color="#FF31D9"/><stop offset="100%" stop-color="#FF5BE1" stop-opacity="0"/></linearGradient></defs><g fill="none"><path fill="url(#a)" d="M60.461763,10.6702514 L58.2785433,44.9535251 L37.4044148,0 L60.461763,10.6702514 Z M46.003616,55.0003105 L30.2310175,64 L14.4581471,55.0003105 L17.6661378,47.2257724 L42.7956252,47.2257724 L46.003616,55.0003105 Z M30.2310175,17.0636356 L38.4958885,37.1569342 L21.9658745,37.1569342 L30.2310175,17.0636356 Z M2.1608947,44.9535251 L0,10.6702514 L23.0573482,0 L2.1608947,44.9535251 Z"/><path fill="url(#b)" d="M60.461763,10.6702514 L58.2785433,44.9535251 L37.4044148,0 L60.461763,10.6702514 Z M46.003616,55.0003105 L30.2310175,64 L14.4581471,55.0003105 L17.6661378,47.2257724 L42.7956252,47.2257724 L46.003616,55.0003105 Z M30.2310175,17.0636356 L38.4958885,37.1569342 L21.9658745,37.1569342 L30.2310175,17.0636356 Z M2.1608947,44.9535251 L0,10.6702514 L23.0573482,0 L2.1608947,44.9535251 Z"/></g></svg>