<svg xmlns="http://www.w3.org/2000/svg" width="225" height="249" viewBox="0 0 225 249"><g fill="#FFF" fill-rule="evenodd" transform="translate(41 43.941)"><path fill-rule="nonzero" d="M121.372398,-31.0838523 C138.288205,-14.248156 138.288205,13.0483267 121.372585,29.8840163 L47.3570975,103.553485 C43.9741123,106.920654 38.4891881,106.920676 35.1061765,103.553532 C31.7231649,100.186388 31.7231435,94.7271487 35.1061287,91.3599788 L109.121771,17.6903567 C119.271189,7.58889716 119.271189,-8.78865455 109.121444,-18.8903316 C98.973292,-28.9916094 82.5185619,-28.9916094 72.3693473,-18.8901364 L-25.637947,78.6582165 C-29.0209455,82.0253733 -34.5058696,82.0253733 -37.888868,78.6582165 C-41.2718665,75.2910598 -41.2718665,69.83182 -37.888868,66.4646632 L60.1184917,-31.0837547 C77.0338257,-47.9195196 104.458606,-47.9195196 121.372398,-31.0838523 Z"/><path fill-rule="nonzero" d="M170.381841,17.6948031 L170.887033,18.1983447 C187.802807,35.0341881 187.802807,62.3306708 170.887189,79.1661797 L82.2483937,167.390622 C81.1209808,168.512684 81.1209808,170.33167 82.2487841,171.45412 L100.449425,189.570682 C103.832316,192.937946 103.832142,198.397185 100.449036,201.764235 C97.0659307,205.131285 91.5810065,205.131112 88.1981154,201.763848 L69.9978648,183.647675 C62.1039323,175.791211 62.1039323,163.053143 69.9976438,155.196899 L158.636406,66.9724886 C168.785791,56.8711694 168.785791,40.4936177 158.631909,30.3877118 L158.126718,29.8841702 C147.97709,19.782502 131.522058,19.782502 121.372592,29.8840099 L48.3780042,102.537502 C44.9950225,105.904676 39.5100983,105.904703 36.1270832,102.537562 C32.744068,99.1704223 32.7440409,93.7111826 36.1270226,90.3440092 L109.121771,17.6903567 C126.037335,0.854721923 153.461813,0.854721923 170.381841,17.6948031 Z"/><path fill-rule="nonzero" d="M96.871544,-6.69666115 C100.254536,-3.32949768 100.254525,2.12974207 96.8715196,5.49689212 L24.3865024,77.6421944 C14.2375752,87.7432736 14.2375752,104.121076 24.3864044,114.222812 C34.535469,124.323705 50.990458,124.323705 61.1393205,114.223013 L133.624108,42.0775092 C137.007103,38.7103491 142.492027,38.7103437 145.875029,42.0774971 C149.25803,45.4446505 149.258036,50.9038902 145.875041,54.2710504 L73.3900515,126.416756 C56.4750798,143.251442 29.0508473,143.251442 12.1355487,126.416431 C-4.77933176,109.580039 -4.77933176,82.2838075 12.1356916,65.4485314 L84.6206231,-6.69668544 C88.0036282,-10.0638355 93.4885524,-10.0638246 96.871544,-6.69666115 Z"/></g></svg>