<svg xmlns="http://www.w3.org/2000/svg" width="57" height="64" viewBox="0 0 57 64"><g fill="none"><path fill="#95BF46" d="M49.291753,12.4609823 C49.2475378,12.1391366 48.9657943,11.9612474 48.7328932,11.9417105 C48.5005061,11.9221735 43.581305,11.5576549 43.581305,11.5576549 C43.581305,11.5576549 40.1649074,8.16593565 39.7901061,7.79062034 C39.4147909,7.41530503 38.6821548,7.529442 38.3978407,7.61324529 C38.3556819,7.62558442 37.6513232,7.84306166 36.4857891,8.20346717 C35.3444193,4.9197153 33.3305699,1.90176893 29.7871821,1.90176893 C29.6894974,1.90176893 29.5887276,1.90588198 29.4879581,1.91153741 C28.4802623,0.578911009 27.2319532,0 26.1538214,0 C17.8999695,0 13.9565881,10.3180862 12.7201041,15.5617037 C9.51295771,16.5555181 7.23433108,17.2619335 6.94333317,17.3534487 C5.15313059,17.9148793 5.09657621,17.9714336 4.86161854,19.658296 C4.68424351,20.9353963 0,57.1610353 0,57.1610353 L36.5006989,64 L56.2782732,59.7214055 C56.2782732,59.7214055 49.3354541,12.782828 49.291753,12.4609823 L49.291753,12.4609823 Z M34.4683409,8.82762166 C33.551646,9.11142173 32.5095035,9.4337816 31.3799585,9.78339038 C31.3809869,9.56591315 31.3820151,9.35152072 31.3820151,9.11759131 C31.3820151,7.07649298 31.0987292,5.43333174 30.6442378,4.1305249 C32.4699153,4.35982713 33.6858342,6.43691458 34.4683409,8.82762166 L34.4683409,8.82762166 Z M28.3794927,4.53514564 C28.8869395,5.80710465 29.2170114,7.63226812 29.2170114,10.0954676 C29.2170114,10.2214296 29.215983,10.3365949 29.2149548,10.4533025 C27.2062468,11.0754005 25.0237624,11.750968 22.8361369,12.4285921 C24.0643948,7.68830836 26.3666715,5.39888499 28.3794927,4.53514564 L28.3794927,4.53514564 Z M25.9270899,2.21384618 C26.2833823,2.21384618 26.6422454,2.33466685 26.9856847,2.57116692 C24.3404829,3.815877 21.5050529,6.95104513 20.3076429,13.2116129 C18.5575425,13.7535065 16.8470301,14.283061 15.2655645,14.7730274 C16.6681127,9.99778282 19.9986504,2.21384618 25.9270899,2.21384618 L25.9270899,2.21384618 Z"/><path fill="#5E8E3E" d="M48.7328932,11.9417105 C48.5005061,11.9221735 43.581305,11.5576549 43.581305,11.5576549 C43.581305,11.5576549 40.1649074,8.16593565 39.7901061,7.79062034 C39.6497486,7.65077681 39.4605485,7.57931268 39.2626084,7.54846483 L36.5027555,63.999486 L56.2782732,59.7214055 C56.2782732,59.7214055 49.3354541,12.782828 49.291753,12.4609823 C49.2475378,12.1391366 48.9657943,11.9612474 48.7328932,11.9417105"/><path fill="#FFF" d="M29.7871821,22.8695554 L27.3486609,30.1234235 C27.3486609,30.1234235 25.2119344,28.983082 22.5929532,28.983082 C18.7534262,28.983082 18.5601131,31.3928118 18.5601131,32 C18.5601131,35.3130572 27.1964782,36.5824457 27.1964782,44.3427322 C27.1964782,50.4480326 23.3240469,54.379589 18.1025369,54.379589 C11.8368278,54.379589 8.6327662,50.4799088 8.6327662,50.4799088 L10.3103742,44.9370672 C10.3103742,44.9370672 13.6038946,47.7647853 16.3832843,47.7647853 C18.1991935,47.7647853 18.9379991,46.3349883 18.9379991,45.2902749 C18.9379991,40.9684934 11.8527659,40.7756945 11.8527659,33.6745233 C11.8527659,27.6977555 16.1426712,21.9137868 24.8021721,21.9137868 C28.1388796,21.9137868 29.7871821,22.8695554 29.7871821,22.8695554"/></g></svg>