<svg xmlns="http://www.w3.org/2000/svg" width="64" height="60" viewBox="0 0 64 60"><defs><linearGradient id="a" x1="-5.859%" x2="91.406%" y1="38.27%" y2="60.924%"><stop offset="10%" stop-color="#76B3E1"/><stop offset="30%" stop-color="#DCF2FD"/><stop offset="100%" stop-color="#76B3E1"/></linearGradient><linearGradient id="b" x1="56.996%" x2="37.941%" y1="38.44%" y2="68.375%"><stop offset="0%" stop-color="#76B3E1"/><stop offset="50%" stop-color="#4377BB"/><stop offset="100%" stop-color="#1F3B77"/></linearGradient><linearGradient id="c" x1="10.709%" x2="104.337%" y1="34.532%" y2="70.454%"><stop offset="0%" stop-color="#315AA9"/><stop offset="50%" stop-color="#518AC8"/><stop offset="100%" stop-color="#315AA9"/></linearGradient><linearGradient id="d" x1="61.992%" x2="17.762%" y1="29.579%" y2="105.12%"><stop offset="0%" stop-color="#4377BB"/><stop offset="50%" stop-color="#1A336B"/><stop offset="100%" stop-color="#1A336B"/></linearGradient></defs><g fill="none"><path fill="#76B3E1" d="M64,12.6179714 C64,12.6179714 42.66675,-3.07977858 26.16325,0.542721422 L24.956,0.945221422 C22.541,1.75047142 20.52825,2.95772142 19.3205,4.56797142 L18.51575,5.77522142 L12.47775,16.2407214 L22.9435,18.2534714 C27.371,21.0709714 33.00625,22.2787214 38.239,21.0709714 L56.75475,24.6937214 L64,12.6179714 Z"/><path fill="url(#a)" d="M64,12.6179714 C64,12.6179714 42.66675,-3.07977858 26.16325,0.542721422 L24.956,0.945221422 C22.541,1.75047142 20.52825,2.95772142 19.3205,4.56797142 L18.51575,5.77522142 L12.47775,16.2407214 L22.9435,18.2534714 C27.371,21.0709714 33.00625,22.2787214 38.239,21.0709714 L56.75475,24.6937214 L64,12.6179714 Z" opacity=".3"/><path fill="#518AC8" d="M19.3205,12.6179714 L17.71075,13.0207214 C10.868,15.0332214 8.8555,21.4734714 12.47775,27.1087214 C16.503,32.3414714 24.956,35.1589714 31.79875,33.1464714 L56.75475,24.6937214 C56.75475,24.6937214 35.42125,8.99572142 19.3205,12.6179714 Z"/><path fill="url(#b)" d="M19.3205,12.6179714 L17.71075,13.0207214 C10.868,15.0332214 8.8555,21.4734714 12.47775,27.1087214 C16.503,32.3414714 24.956,35.1589714 31.79875,33.1464714 L56.75475,24.6937214 C56.75475,24.6937214 35.42125,8.99572142 19.3205,12.6179714 Z" opacity=".3"/><path fill="url(#c)" d="M52.327,30.7312214 C47.71725,24.9722214 40.075,22.5842214 33.00625,24.6937214 L8.0505,32.7439714 L0,46.8319714 L45.08175,54.4799714 L53.132,39.9892214 C54.74225,37.1714714 54.33975,33.9517214 52.327,30.7312214 Z"/><path fill="url(#d)" d="M44.2765,44.8192214 C39.66675,39.0602214 32.025,36.6722214 24.956,38.7817214 L0,46.8319714 C0,46.8319714 21.33325,62.9324714 37.8365,58.9077214 L39.044,58.5047214 C45.88675,56.4924714 48.30175,50.0522214 44.2765,44.8192214 Z"/></g></svg>