<svg xmlns="http://www.w3.org/2000/svg" width="54" height="64" viewBox="0 0 54 64"><g fill="none"><path fill="#FF3E00" d="M49.8592381,8.46793488 C43.9163807,-0.0378371369 32.179237,-2.55898017 23.6927222,2.84804877 L8.78832107,12.3473066 C4.71712661,14.9085809 1.91293952,19.0660943 1.06340624,23.8003359 C0.352433365,27.7442493 0.977336571,31.8126355 2.8391778,35.3613654 C1.56339492,37.2966517 0.693255699,39.4705226 0.281349049,41.7515942 C-0.576397508,46.5767485 0.545616797,51.5440094 3.39409212,55.5319954 C9.33820681,64.0385674 21.0754076,66.5586246 29.5606082,61.1518813 L44.4650093,51.6526236 C48.5364915,49.0916464 51.340774,44.9339914 52.1899241,40.1995941 C52.9008026,36.2557271 52.2763894,32.1874202 50.4154668,28.638279 C51.690917,26.703037 52.5606909,24.529254 52.9722099,22.2483358 C53.8305234,17.4231685 52.7084597,12.4556888 49.8594668,8.46793488"/><path fill="#FFF" d="M22.2352813,56.341167 C17.4296476,57.5907185 12.354789,55.7096265 9.5246189,51.6297205 C7.81079102,49.2308956 7.1356718,46.2427627 7.65172376,43.3401331 C7.73822745,42.8683912 7.8572706,42.4032004 8.00800024,41.9478941 L8.28876876,41.0917558 L9.052594,41.6527784 C10.8165903,42.9489121 12.7889276,43.9343655 14.8845995,44.5666663 L15.4387058,44.7347731 L15.3876621,45.2877933 C15.3199559,46.07453 15.5329821,46.8598316 15.9889823,47.5045041 C16.8407029,48.7334566 18.3686524,49.3005724 19.8159394,48.9249229 C20.1399529,48.8383216 20.4487871,48.7025933 20.7316952,48.5224614 L35.6408917,39.0214882 C36.3785061,38.5570242 36.8868455,37.8038289 37.0416478,36.9460191 C37.1961821,36.0711691 36.9928044,35.1709114 36.4771955,34.4474537 C35.6249659,33.2182462 34.0966342,32.6508893 32.6487522,33.0262346 C32.3251655,33.1128431 32.0167421,33.2484723 31.7341969,33.4284104 L26.0449763,37.055137 C25.1094544,37.6499604 24.0885108,38.0982966 23.0175121,38.3846147 C18.2119188,39.6340928 13.13714,37.7529823 10.3070211,33.673111 C8.59312414,31.2743387 7.91799758,28.2861939 8.4341259,25.3835808 C8.94503886,22.5358864 10.6320381,20.0352058 13.0812106,18.4950923 L27.9890924,8.99331894 C28.9250119,8.39751892 29.9466848,7.94861898 31.0185572,7.66224071 C35.8241195,6.41279461 40.8988546,8.2938746 43.728991,12.3736872 C45.442819,14.7725122 46.1179383,17.7606452 45.6018863,20.6632746 C45.5150095,21.1349346 45.3959729,21.6000999 45.2456098,22.0555136 L44.9648414,22.911652 L44.2014161,22.3514866 C42.4375441,21.0546116 40.4650173,20.0687059 38.3690105,19.4363413 L37.8149042,19.2681775 L37.8659478,18.7151572 C37.933072,17.9284907 37.7200984,17.1434038 37.2646277,16.4985036 C36.4129071,15.2695511 34.8849575,14.7024351 33.4376705,15.0780847 C33.1136571,15.1646861 32.804823,15.3004143 32.5219149,15.4805463 L17.6127183,24.9819195 C16.875205,25.4460183 16.3671519,26.199166 16.2130484,27.0568171 C16.0575577,27.9316261 16.2605936,28.8322064 16.7764145,29.5556683 C17.628655,30.7848619 19.1569766,31.3522152 20.6048578,30.9768873 C20.9287908,30.8901083 21.2375799,30.7543915 21.5205563,30.5744257 L27.2090338,26.949071 C28.1441507,26.3534634 29.1650488,25.90473 30.236155,25.6185073 C35.0417483,24.3690292 40.1165273,26.2501397 42.9466461,30.330011 C44.6605431,32.7287832 45.3356695,35.716928 44.8195414,38.6195411 C44.3082934,41.4673835 42.6214157,43.9682783 40.1724567,45.5091156 L25.2645175,55.0100888 C24.328598,55.6058888 23.3069251,56.0547888 22.2350527,56.341167"/></g></svg>