<svg xmlns="http://www.w3.org/2000/svg" width="64" height="64" viewBox="0 0 64 64"><g fill="none"><path fill="#3178C6" d="M5,0 L59,0 C61.7614237,0 64,2.23857625 64,5 L64,59 C64,61.7614237 61.7614237,64 59,64 L5,64 C2.23857625,64 0,61.7614237 0,59 L0,5 C0,2.23857625 2.23857625,0 5,0 Z"/><path fill="#FFF" d="M37.6295,50.11875 L37.6295,57.02375 C38.7525,57.59925 40.08075,58.03075 41.614,58.3185 C43.14725,58.60625 44.76325,58.75 46.46225,58.75 C48.11775,58.75 49.69075,58.59175 51.18075,58.27525 C52.67075,57.95875 53.9775,57.43725 55.10025,56.711 C56.22325,55.9845 57.11225,55.035 57.7675,53.8625 C58.4225,52.69025 58.75,51.241 58.75,49.51475 C58.75,48.26325 58.56275,47.16625 58.1885,46.224 C57.81425,45.28175 57.27425,44.44375 56.56875,43.71025 C55.8635,42.9765 55.0175,42.3185 54.0315,41.73575 C53.04525,41.15325 51.933,40.603 50.69475,40.08525 C49.78775,39.711 48.9745,39.348 48.2545,38.9955 C47.53475,38.643 46.92275,38.2835 46.419,37.9165 C45.915,37.54975 45.52625,37.16125 45.25275,36.75125 C44.97925,36.34125 44.8425,35.8775 44.8425,35.3595 C44.8425,34.88475 44.96475,34.457 45.2095,34.07575 C45.45425,33.6945 45.8,33.36725 46.24625,33.094 C46.6925,32.8205 47.2395,32.6085 47.8875,32.45725 C48.53525,32.30625 49.25525,32.23075 50.047,32.23075 C50.623,32.23075 51.23125,32.274 51.87175,32.36025 C52.5125,32.4465 53.15675,32.5795 53.80475,32.7595 C54.4525,32.93925 55.08225,33.16575 55.69425,33.43925 C56.306,33.7125 56.87125,34.029 57.3895,34.3885 L57.3895,27.93675 C56.3385,27.534 55.19025,27.2355 53.945,27.04125 C52.69975,26.847 51.27075,26.75 49.65825,26.75 C48.017,26.75 46.46225,26.92625 44.99375,27.27875 C43.52525,27.631 42.233,28.18125 41.11725,28.92925 C40.0015,29.6775 39.11975,30.6305 38.47175,31.7885 C37.824,32.9465 37.5,34.331 37.5,35.94225 C37.5,37.99925 38.09375,39.75425 39.28175,41.20725 C40.4695,42.66 42.2725,43.89 44.69125,44.897 C45.6415,45.2855 46.527,45.6665 47.3475,46.04075 C48.16825,46.41475 48.87725,46.803 49.47475,47.20575 C50.07225,47.6085 50.54375,48.04725 50.88925,48.522 C51.23475,48.99675 51.4075,49.53625 51.4075,50.1405 C51.4075,50.58625 51.2995,51 51.0835,51.38125 C50.86775,51.76225 50.54,52.09325 50.101,52.37375 C49.662,52.65425 49.11475,52.8735 48.45975,53.03175 C47.80475,53.19 47.038,53.26925 46.15975,53.26925 C44.6625,53.26925 43.17975,53.00675 41.71125,52.4815 C40.2425,51.9565 38.882,51.169 37.6295,50.11875 L37.6295,50.11875 Z M26.1205,32.9355 L35,32.9355 L35,27.25 L10.25,27.25 L10.25,32.9355 L19.086175,32.9355 L19.086175,58.25 L26.1205,58.25 L26.1205,32.9355 Z"/></g></svg>