<svg xmlns="http://www.w3.org/2000/svg" width="256" height="209" viewBox="0 0 256 209"><g fill="none"><polygon fill="#FFF" points="255.997 104.029 228.192 150.849 189.201 103.389 228.192 57.208"/><polygon fill="#FFF" points="225.156 158.839 182.809 108.183 157.401 150.69 196.871 208.377"/><polygon fill="#FFF" points="224.676 48.898 182.809 99.714 157.401 57.208 196.871 .16"/><polygon fill="#FFF" points="96.997 48.898 224.676 48.898 196.552 .16 125.122 .16" opacity=".95"/><polyline fill="#FFF" points="182.809 99.874 253.44 99.874 228.032 57.048 157.241 57.048" opacity=".95"/><polygon fill="#FFF" points="225.156 158.999 96.838 158.999 124.962 207.738 196.871 207.738" opacity=".95"/><polygon fill="#888" points="124.962 207.738 64.878 103.869 125.761 0 59.924 0 0 103.869 59.924 207.738"/><polyline fill="#FFF" points="182.809 108.024 253.44 108.024 228.032 150.849 157.241 150.849" opacity=".95"/></g></svg>