<svg xmlns="http://www.w3.org/2000/svg" width="64" height="26" viewBox="0 0 64 26"><path fill="#FFF" d="M0,0.0289442676 C0,0.0289442676 2.53691804,-0.291055732 4.22819673,1.20717378 C5.27213115,2.13150165 5.57639344,3.60455083 5.57639344,3.60455083 L9.03029509,17.0518951 L11.9029508,6.04599345 C12.1820328,4.87615739 12.6866885,3.42933771 13.4840656,2.45150165 C14.5017705,1.2061246 16.5676065,1.12743607 16.7879344,1.12743607 C17.0082623,1.12743607 19.0730491,1.2061246 20.0897049,2.45150165 C20.887082,3.42933771 21.3917378,4.8751082 21.6718689,6.04599345 L24.5445246,17.0518951 L27.997377,3.60455083 C27.997377,3.60455083 28.3026885,2.13150165 29.346623,1.20717378 C31.0379016,-0.291055732 33.5737705,0.0289442676 33.5737705,0.0289442676 L26.9597378,25.1599607 C26.9597378,25.1599607 24.7784918,25.3183869 23.6862951,24.7591738 C22.2520656,24.0247476 21.5711475,23.4581902 20.7024262,20.0378623 C20.2633729,18.2884701 19.8297096,16.5377296 19.4014426,14.7856656 L19.2388196,14.1257312 C18.7803279,12.2560918 18.3228853,10.3937967 18.0007869,9.09805903 L17.8434099,8.46855083 C17.698623,7.89779673 17.5989509,7.51379673 17.5632788,7.39838689 C17.4657049,7.08258361 17.3492459,6.33032131 16.7868853,6.33032131 C16.2371147,6.33032131 16.1101639,7.08363279 16.0104917,7.39838689 C15.9737705,7.51379673 15.8740984,7.89674755 15.7303606,8.46855083 L15.5729836,9.09805903 C15.2379899,10.444526 14.9057487,11.7916764 14.5762622,13.1395017 L14.4146885,13.7962886 C13.9066183,15.8786476 13.3925177,17.9595306 12.8723935,20.0389114 C12.0036721,23.4581902 11.3217049,24.0257967 9.88747541,24.7591738 C8.79527869,25.3183869 6.61403279,25.1599607 6.61403279,25.1599607 L0,0.0289442676 L0,0.0289442676 Z M39.8667541,4.19733771 L39.8667541,5.10487869 L39.8688525,5.10487869 L39.8688525,20.2749771 C39.8573115,23.3878951 39.5561967,24.0793049 38.2468196,24.7958951 C37.2291148,25.3530098 35.6721311,25.1421246 35.6721311,25.1421246 L35.6721311,8.14855083 C35.6721311,7.29556721 35.9365246,6.7363541 36.9112131,6.2348459 C37.4935082,5.93478034 38.0359344,5.70500984 38.6003935,5.36507541 C39.371541,4.90343608 39.7628852,4.35471476 39.848918,4.2246164 L39.8667541,4.19733771 Z M41.9672131,0.112878694 C41.9672131,0.112878694 45.3843935,-0.492498356 47.0767212,1.10960001 C48.0283279,2.0108459 49.0806557,3.5468459 49.3188196,3.90146886 L49.3639344,3.9686164 L49.3691804,3.97700984 L52.3488525,8.44232131 C52.4925901,8.67419016 52.6814426,8.92704263 52.9836065,8.92704263 C53.2847213,8.92704263 53.474623,8.67523935 53.6194099,8.44232131 L56.5980328,3.97700984 L56.6032788,3.9686164 L56.6483935,3.90146886 C56.8865574,3.5468459 57.9388852,2.0108459 58.891541,1.10855082 C60.5828196,-0.492498356 64,0.111829513 64,0.111829513 L55.9034754,12.6348459 L63.9779672,25.1169443 C63.9779672,25.1169443 60.4820984,25.5848787 58.7897705,23.9827803 C57.7070164,22.9587803 56.5980328,21.2916328 56.5980328,21.2916328 L53.6183606,16.8273704 C53.474623,16.5944524 53.2847213,16.3416001 52.9836065,16.3416001 C52.6814426,16.3416001 52.4925901,16.5934033 52.3478032,16.8273704 L49.3691804,21.2916328 C49.3691804,21.2916328 48.3210491,22.9587803 47.2393443,23.9827803 C45.5470164,25.5848787 41.9881968,25.1169443 41.9881968,25.1169443 L50.0626885,12.6348459 L41.9672131,0.112878694 L41.9672131,0.112878694 Z M39.8583606,0.000616398783 L39.8688525,0.000616398783 C39.8688525,1.66881313 39.7114754,2.66028853 38.7042622,3.43038689 C38.2366931,3.78973615 37.7210796,4.0817994 37.172459,4.29805903 C36.6161596,4.51508388 36.1067972,4.83708638 35.6721311,5.24651804 C35.6721311,2.20809181 36.1159344,1.10750164 37.3088525,0.455960661 C38.050623,0.0509770545 39.2687212,0.0048131201 39.7062295,0.000616398783 L39.8583606,0.000616398783 L39.8583606,0.000616398783 Z"/></svg>