<svg xmlns="http://www.w3.org/2000/svg" width="64" height="64" viewBox="0 0 64 64"><path fill="#FFF" d="M4.23384615,32 C4.23384615,43.003077 10.6338462,52.48 19.8892308,56.9846155 L6.64615385,20.7015385 C5.05593878,24.2559766 4.23384615,28.1060543 4.23384615,32 L4.23384615,32 Z M32,59.7661538 C35.2246155,59.7661538 38.3261537,59.2 41.2307692,58.1907693 L41.0338463,57.8215385 L32.4923077,34.436923 L24.1723077,58.6338462 C26.6338462,59.3723078 29.2676922,59.7661538 32,59.7661538 Z M35.8153845,18.9784616 L45.8584615,48.836923 L48.64,39.5815385 C49.8215385,35.7415385 50.7323078,32.9846155 50.7323078,30.596923 C50.7323078,27.1507693 49.5015385,24.7876923 48.4676923,22.9661539 C47.04,20.6523077 45.7353845,18.7076923 45.7353845,16.4430769 C45.7353845,13.8830769 47.6553845,11.52 50.4123078,11.52 L50.756923,11.52 C45.6407168,6.82316543 38.9451917,4.22227907 32,4.23376956 C22.658376,4.2321038 13.9431552,8.93203175 8.8123077,16.7384616 L10.5846154,16.7876923 C13.4892308,16.7876923 17.9692308,16.4184616 17.9692308,16.4184616 C19.4953846,16.3446154 19.6676923,18.5353846 18.1661539,18.7076923 C18.1661539,18.7076923 16.6646154,18.9046154 14.9661538,18.9784616 L25.1076923,49.0584615 L31.1876923,30.843077 L26.8553845,18.9784616 C25.884975,18.9249135 24.9163508,18.8428267 23.9507692,18.7323077 C22.4492308,18.6338462 22.6215384,16.3446154 24.1230769,16.4184616 C24.1230769,16.4184616 28.7015385,16.7876923 31.4338463,16.7876923 C34.3384615,16.7876923 38.8184615,16.4184616 38.8184615,16.4184616 C40.32,16.3446154 40.516923,18.5353846 39.0153845,18.7076923 C39.0153845,18.7076923 37.5138463,18.88 35.8153845,18.9784616 Z M45.956923,56 C54.505109,51.029607 59.76494,41.8881893 59.7661538,32 C59.7661538,27.1753845 58.5353845,22.6461538 56.3692307,18.6830769 C56.8091265,23.0431556 56.1490075,27.443949 54.4492307,31.483077 L45.956923,56 L45.956923,56 Z M32,64 C14.326888,64 0,49.673112 0,32 C0,14.326888 14.326888,0 32,0 C49.673112,0 64,14.326888 64,32 C64,49.673112 49.673112,64 32,64 Z"/></svg>