<svg width="205" height="35" viewBox="0 0 205 35" fill="none" xmlns="http://www.w3.org/2000/svg">
<path d="M72.224 14.2476C74.1391 6.41142 69.2147 3.8147e-06 61.1898 3.8147e-06H53.8944H49.2436H44.5928L35.9295 34.9957H45.2311L46.8726 28.4952H54.0768C54.5328 28.4952 54.8975 28.4952 55.3535 28.4062L58.454 34.9957H69.1235L64.3815 25.0223C68.1204 22.44 71.1297 18.6109 72.224 14.2476ZM48.6053 21.3714L52.0706 7.3019H57.9981C62.7401 7.3019 64.1991 10.5076 63.196 14.3366C62.1929 18.2547 59.3659 21.3714 54.5328 21.3714H48.6053Z" fill="white"/>
<path d="M136.971 19.3233C136.333 18.3438 135.512 17.6314 134.418 17.0081C135.968 16.2066 137.245 15.2271 138.339 13.8914C139.616 12.3776 140.254 10.4186 140.345 8.28142C140.436 5.61 139.433 3.5619 137.336 2.13714C135.33 0.712384 132.32 3.8147e-06 128.49 3.8147e-06H111.255L102.592 34.9957H121.468C126.302 34.9957 130.223 34.0161 133.232 32.2352C136.333 30.3652 137.974 27.5157 138.065 23.7757C138.157 22.0838 137.792 20.57 136.971 19.3233ZM115.176 20.7481H124.478C129.22 20.7481 129.037 22.9743 129.037 23.7757C128.946 25.2004 128.399 26.269 127.213 26.9814C126.028 27.7828 124.295 28.139 122.198 28.139H113.352L115.176 20.7481ZM129.037 12.8228C127.943 13.6243 126.302 13.9805 124.386 13.9805H116.818L118.55 6.94571H126.302C130.861 6.94571 130.861 8.9938 130.77 9.61713C130.679 11.0419 130.132 12.1105 129.037 12.8228Z" fill="#3486E3"/>
<path d="M169.526 7.39062L171.35 0.0887241H145.269L136.606 34.9953H163.325L165.24 27.6934H147.458L149.099 20.8368H164.055L165.879 13.713H150.923L152.473 7.39062H169.526Z" fill="#3486E3"/>
<path d="M173.63 0.0887241L171.806 7.47966H182.202L175.363 34.9953H184.482L191.321 7.47966H203.176L205 0.0887241H173.63Z" fill="#3486E3"/>
<path d="M32.1909 21.3757L33.8323 14.7862H24.6219L22.9804 21.3757H15.8675H13.1317L33.7411 0.182436H23.0716L1.45908 22.4443L0 28.4995H4.83319H6.20107H14.0436H21.1566L19.6063 35H28.8167L30.4582 28.4995H37.5712L39.3951 21.3757H32.1909Z" fill="white"/>
<path d="M97.1198 34.9953H106.604L100.038 0.0887241H97.9405H90.6451H88.5477L64.6554 34.9953H74.1394L78.6078 28.4949H96.0255L97.1198 34.9953ZM83.441 21.3711L92.1954 8.63728L94.5664 21.3711H83.441Z" fill="white"/>
</svg>
