<svg width="148" height="170" viewBox="0 0 148 170" fill="none" xmlns="http://www.w3.org/2000/svg">
<path d="M1.59082 1H146.409V139.203L73.9999 168.919L1.59082 139.203V1Z" fill="url(#paint0_linear_2_75)" stroke="url(#paint1_linear_2_75)" stroke-width="2"/>
<path d="M42 117.73L46.1053 94.9854C46.1274 94.8971 46.1826 94.8529 46.2708 94.8529H51.0714C51.1597 94.8529 51.2149 94.8971 51.2369 94.9854L55.1767 117.73C55.1988 117.84 55.1546 117.896 55.0443 117.896H51.3694C51.2811 117.896 51.2259 117.84 51.2038 117.73L50.8397 115.313H46.3371L45.9729 117.73C45.9508 117.84 45.8956 117.896 45.8073 117.896H42.1324C42.0441 117.896 42 117.84 42 117.73ZM46.9992 111.771H50.1775L48.8201 102.468L48.6215 101.243L48.489 102.468L46.9992 111.771ZM62.5675 118.227C61.3757 118.227 60.2831 117.929 59.2899 117.333C58.3187 116.715 57.5352 115.909 56.9393 114.916C56.3654 113.901 56.0785 112.786 56.0785 111.572V110.049C56.0785 109.939 56.1337 109.884 56.244 109.884H59.952C60.0403 109.884 60.0845 109.939 60.0845 110.049V111.572C60.0845 112.3 60.3273 112.93 60.8128 113.459C61.2984 113.967 61.8833 114.221 62.5675 114.221C63.2517 114.221 63.8366 113.956 64.3222 113.426C64.8078 112.896 65.0506 112.278 65.0506 111.572C65.0506 110.755 64.5208 110.049 63.4614 109.453C63.1083 109.255 62.5565 108.946 61.806 108.526C61.0556 108.107 60.3493 107.71 59.6872 107.334C58.4733 106.628 57.5683 105.745 56.9724 104.686C56.3985 103.604 56.1116 102.39 56.1116 101.044C56.1116 99.808 56.4096 98.7044 57.0055 97.7333C57.6014 96.74 58.385 95.9565 59.3561 95.3826C60.3493 94.8088 61.4198 94.5219 62.5675 94.5219C63.7373 94.5219 64.8078 94.8198 65.7789 95.4157C66.7721 95.9896 67.5557 96.7731 68.1295 97.7664C68.7255 98.7375 69.0234 99.8301 69.0234 101.044V103.759C69.0234 103.847 68.9793 103.891 68.891 103.891H65.183C65.0947 103.891 65.0506 103.847 65.0506 103.759L65.0175 101.044C65.0175 100.271 64.7747 99.6424 64.2891 99.1569C63.8035 98.6713 63.2297 98.4285 62.5675 98.4285C61.8833 98.4285 61.2984 98.6934 60.8128 99.2231C60.3273 99.7307 60.0845 100.338 60.0845 101.044C60.0845 101.772 60.239 102.379 60.548 102.865C60.857 103.35 61.4198 103.814 62.2364 104.255C62.3468 104.322 62.5565 104.443 62.8655 104.62C63.1966 104.774 63.5497 104.962 63.9249 105.182C64.3001 105.381 64.6312 105.558 64.9181 105.712C65.2271 105.867 65.4147 105.966 65.481 106.01C66.5845 106.628 67.4564 107.39 68.0964 108.294C68.7365 109.177 69.0566 110.27 69.0566 111.572C69.0566 112.83 68.7586 113.967 68.1627 114.982C67.5888 115.975 66.8053 116.77 65.812 117.366C64.8409 117.94 63.7594 118.227 62.5675 118.227ZM71.8549 117.896C71.7446 117.896 71.6894 117.84 71.6894 117.73L71.7225 94.9854C71.7225 94.8971 71.7666 94.8529 71.8549 94.8529H75.5629C75.6512 94.8529 75.6954 94.8971 75.6954 94.9854L75.7285 117.73C75.7285 117.84 75.6843 117.896 75.596 117.896H71.8549ZM77.2002 117.73L81.3055 94.9854C81.3275 94.8971 81.3827 94.8529 81.471 94.8529H86.2716C86.3598 94.8529 86.415 94.8971 86.4371 94.9854L90.3769 117.73C90.3989 117.84 90.3548 117.896 90.2444 117.896H86.5695C86.4812 117.896 86.4261 117.84 86.404 117.73L86.0398 115.313H81.5372L81.173 117.73C81.151 117.84 81.0958 117.896 81.0075 117.896H77.3326C77.2443 117.896 77.2002 117.84 77.2002 117.73ZM82.1994 111.771H85.3777L84.0203 102.468L83.8216 101.243L83.6892 102.468L82.1994 111.771ZM93.083 117.896C92.9064 117.896 92.8181 117.818 92.8181 117.664L92.785 95.1178C92.785 94.9412 92.8733 94.8529 93.0499 94.8529H96.0295L101.625 107.897L101.459 95.1178C101.459 94.9412 101.558 94.8529 101.757 94.8529H105.035C105.167 94.8529 105.233 94.9412 105.233 95.1178L105.266 117.697C105.266 117.829 105.211 117.896 105.101 117.896H102.188L96.4599 105.712L96.6917 117.631C96.6917 117.807 96.5924 117.896 96.3937 117.896H93.083Z" fill="#FFE600"/>
<path d="M46.079 136.805C46.0263 136.805 46 136.772 46 136.707L46.0395 123.293C46.0395 123.241 46.0658 123.215 46.1185 123.215H49.9093C50.6596 123.215 51.3309 123.397 51.9232 123.762C52.5156 124.113 52.9829 124.582 53.3251 125.167C53.6673 125.753 53.8384 126.391 53.8384 127.081C53.8384 127.641 53.7068 128.161 53.4436 128.643C53.1935 129.125 52.8907 129.515 52.5353 129.815C52.917 130.192 53.2132 130.628 53.4238 131.123C53.6344 131.617 53.7397 132.138 53.7397 132.685C53.7397 133.44 53.5554 134.13 53.1869 134.755C52.8183 135.379 52.3181 135.881 51.6863 136.258C51.0677 136.623 50.3766 136.805 49.6132 136.805H46.079ZM48.4088 128.604H49.9093C50.37 128.604 50.7386 128.448 51.015 128.135C51.3046 127.81 51.4494 127.458 51.4494 127.081C51.4494 126.664 51.298 126.306 50.9953 126.007C50.6925 125.695 50.3306 125.538 49.9093 125.538H48.4088V128.604ZM48.389 134.423H49.6132C50.087 134.423 50.4951 134.253 50.8373 133.915C51.1796 133.563 51.3507 133.153 51.3507 132.685C51.3507 132.216 51.1796 131.813 50.8373 131.474C50.4951 131.136 50.087 130.967 49.6132 130.967H48.4088L48.389 134.423ZM59.0086 137C58.2978 137 57.6462 136.824 57.0539 136.473C56.4748 136.108 56.0075 135.633 55.6521 135.047C55.2967 134.449 55.119 133.791 55.119 133.075L55.1387 126.886C55.1387 126.17 55.3098 125.519 55.6521 124.933C56.0075 124.347 56.4813 123.879 57.0737 123.527C57.666 123.176 58.311 123 59.0086 123C59.7194 123 60.3644 123.176 60.9435 123.527C61.5227 123.879 61.9834 124.347 62.3256 124.933C62.681 125.519 62.8587 126.17 62.8587 126.886L62.8784 133.075C62.8784 133.791 62.7007 134.449 62.3453 135.047C62.0031 135.633 61.5358 136.108 60.9435 136.473C60.3644 136.824 59.7194 137 59.0086 137ZM59.0086 134.637C59.4035 134.637 59.7457 134.481 60.0353 134.169C60.338 133.843 60.4894 133.479 60.4894 133.075L60.4697 126.886C60.4697 126.456 60.3314 126.092 60.055 125.792C59.7786 125.493 59.4298 125.343 59.0086 125.343C58.6005 125.343 58.2517 125.493 57.9621 125.792C57.6726 126.079 57.5278 126.443 57.5278 126.886V133.075C57.5278 133.505 57.6726 133.876 57.9621 134.188C58.2517 134.488 58.6005 134.637 59.0086 134.637ZM68.2301 137C67.5193 137 66.8677 136.824 66.2754 136.473C65.6962 136.108 65.2289 135.633 64.8735 135.047C64.5181 134.449 64.3405 133.791 64.3405 133.075L64.3602 126.886C64.3602 126.17 64.5313 125.519 64.8735 124.933C65.2289 124.347 65.7028 123.879 66.2951 123.527C66.8875 123.176 67.5324 123 68.2301 123C68.9408 123 69.5858 123.176 70.165 123.527C70.7441 123.879 71.2048 124.347 71.5471 124.933C71.9025 125.519 72.0802 126.17 72.0802 126.886L72.0999 133.075C72.0999 133.791 71.9222 134.449 71.5668 135.047C71.2246 135.633 70.7573 136.108 70.165 136.473C69.5858 136.824 68.9408 137 68.2301 137ZM68.2301 134.637C68.6249 134.637 68.9672 134.481 69.2567 134.169C69.5595 133.843 69.7109 133.479 69.7109 133.075L69.6911 126.886C69.6911 126.456 69.5529 126.092 69.2765 125.792C69.0001 125.493 68.6513 125.343 68.2301 125.343C67.822 125.343 67.4732 125.493 67.1836 125.792C66.894 126.079 66.7492 126.443 66.7492 126.886V133.075C66.7492 133.505 66.894 133.876 67.1836 134.188C67.4732 134.488 67.822 134.637 68.2301 134.637ZM73.8774 136.805C73.8247 136.805 73.7984 136.772 73.7984 136.707L73.8379 123.312C73.8379 123.247 73.8642 123.215 73.9168 123.215H76.1282C76.1808 123.215 76.2072 123.247 76.2072 123.312V127.94L79.307 123.293C79.3465 123.241 79.3926 123.215 79.4452 123.215H81.7158C81.7684 123.215 81.7816 123.241 81.7553 123.293L78.3395 128.682L82.1699 136.727C82.1962 136.779 82.1633 136.805 82.0712 136.805H79.6624C79.5966 136.805 79.5571 136.779 79.5439 136.727L76.8785 130.986L76.1874 132.06V136.707C76.1874 136.772 76.1611 136.805 76.1084 136.805H73.8774ZM83.1566 136.805C83.0908 136.805 83.0579 136.772 83.0579 136.707L83.0777 123.293C83.0777 123.241 83.104 123.215 83.1566 123.215H85.368C85.4206 123.215 85.447 123.241 85.447 123.293L85.4667 136.707C85.4667 136.772 85.4404 136.805 85.3877 136.805H83.1566ZM87.4801 136.805C87.4275 136.805 87.4012 136.772 87.4012 136.707L87.4209 123.293C87.4209 123.241 87.4472 123.215 87.4999 123.215H93.8378C93.8904 123.215 93.9167 123.247 93.9167 123.312V125.499C93.9167 125.551 93.8904 125.577 93.8378 125.577H89.7902V128.623H93.8378C93.8904 128.623 93.9167 128.649 93.9167 128.702L93.9365 130.908C93.9365 130.96 93.9102 130.986 93.8575 130.986H89.7902V134.403H93.8575C93.9102 134.403 93.9365 134.436 93.9365 134.501V136.727C93.9365 136.779 93.9102 136.805 93.8575 136.805H87.4801ZM99.1301 137C98.4194 137 97.7678 136.824 97.1755 136.473C96.5963 136.108 96.129 135.633 95.7736 135.047C95.4314 134.449 95.2603 133.791 95.2603 133.075V132.177C95.2603 132.112 95.2932 132.079 95.359 132.079H97.5704C97.623 132.079 97.6493 132.112 97.6493 132.177V133.075C97.6493 133.505 97.7941 133.876 98.0837 134.188C98.3733 134.488 98.7221 134.637 99.1301 134.637C99.5382 134.637 99.887 134.481 100.177 134.169C100.466 133.856 100.611 133.492 100.611 133.075C100.611 132.594 100.295 132.177 99.6632 131.826C99.4526 131.709 99.1236 131.526 98.676 131.279C98.2285 131.032 97.8073 130.797 97.4124 130.576C96.6884 130.159 96.1488 129.639 95.7934 129.014C95.4511 128.376 95.28 127.66 95.28 126.866C95.28 126.137 95.4577 125.486 95.8131 124.914C96.1685 124.328 96.6358 123.866 97.215 123.527C97.8073 123.189 98.4457 123.02 99.1301 123.02C99.8278 123.02 100.466 123.195 101.045 123.547C101.638 123.885 102.105 124.347 102.447 124.933C102.803 125.506 102.98 126.15 102.98 126.866V128.467C102.98 128.519 102.954 128.545 102.901 128.545H100.69C100.637 128.545 100.611 128.519 100.611 128.467L100.591 126.866C100.591 126.411 100.446 126.04 100.157 125.753C99.8673 125.467 99.525 125.324 99.1301 125.324C98.7221 125.324 98.3733 125.48 98.0837 125.792C97.7941 126.092 97.6493 126.45 97.6493 126.866C97.6493 127.296 97.7415 127.654 97.9257 127.94C98.11 128.226 98.4457 128.5 98.9327 128.76C98.9985 128.799 99.1236 128.871 99.3078 128.975C99.5053 129.066 99.7159 129.177 99.9397 129.307C100.163 129.424 100.361 129.528 100.532 129.619C100.716 129.71 100.828 129.769 100.868 129.795C101.526 130.159 102.046 130.609 102.427 131.142C102.809 131.663 103 132.307 103 133.075C103 133.817 102.822 134.488 102.467 135.086C102.125 135.672 101.657 136.141 101.065 136.492C100.486 136.831 99.8409 137 99.1301 137Z" fill="white"/>
<path d="M53.1006 33.7071C52.4369 33.7741 48.8424 28.4154 43.9315 30.3806C43.7257 30.1748 56.2561 18.6716 72.6891 27.0943C72.6891 27.0943 59.7481 25.4507 56.461 35.1054C53.1747 44.7602 53.9961 59.7546 85.6301 64.6852C102.885 68.9986 102.063 89.7459 102.063 89.7459C102.063 89.7459 93.8463 80.5019 88.5057 80.7076C85.8351 81.324 89.1222 85.2267 89.1222 85.2267C89.1222 85.2267 82.3438 83.9947 80.7003 80.2969C80.4946 80.7076 79.8789 84.8161 82.5488 86.2539C81.9324 86.0481 72.2784 84.4054 70.0185 76.3942C70.0185 77.0106 66.9371 83.1725 71.2513 87.6917C70.8406 87.6917 57.4881 86.2539 56.8725 67.1502C56.0511 67.1502 52.1484 79.6805 57.8996 88.513C58.1054 88.718 38.3852 77.0098 48.2449 50.5114C47.8342 50.7171 42.6986 50.9221 41.2608 59.5497C41.2608 59.5497 34.2972 43.5707 53.1006 33.7071ZM91.3498 76.3831C89.2932 72.5175 81.8756 68.5541 74.1269 67.1494C57.5654 64.1476 53.5854 51.9484 53.5854 51.9484C53.5854 51.9484 56.0503 66.7379 64.6779 69.2028C72.3833 71.4052 86.6336 73.1166 91.3498 76.3831Z" fill="url(#paint2_linear_2_75)"/>
<path d="M64.2673 37.1589C64.0623 37.1589 59.7481 36.1318 59.7481 36.1318C59.7481 36.1318 66.1158 26.2721 74.3327 30.7913C74.6795 30.7479 75.5608 31.1286 76.7298 31.7514C76.2576 33.7552 75.9675 35.8488 75.8887 38.0102C74.1033 38.3027 72.2863 39.2431 70.6357 41.2674C64.268 49.0728 75.5655 58.7275 75.5655 58.7275C75.5655 58.7275 66.9379 58.7275 65.2952 51.5377C65.2952 51.9484 64.4738 55.0298 64.4738 55.0298C64.4738 55.0298 60.1604 51.127 61.8031 44.9643C61.1867 45.5808 59.1325 48.2506 59.1325 48.2506C59.1325 48.2506 55.8454 39.2131 64.2673 37.1589Z" fill="url(#paint3_linear_2_75)"/>
<path d="M85.1043 13.4517L88.1597 17.1637C88.1597 17.1637 95.5442 27.4884 98.2424 29.2281C100.94 30.9678 102.783 31.5953 102.783 31.5953L105.131 30.1322L106.038 32.9077L108.002 33.7811C108.002 33.7811 108.484 35.3845 107.983 36.8585C107.482 38.3326 103.825 42.4348 101.916 42.6074C101.916 42.6074 104.717 37.3922 101.954 36.4518C101.522 36.5109 98.8612 38.8954 98.8612 38.8954C98.8612 38.8954 98.46 34.0302 95.7507 34.1366C95.0097 34.5016 92.6544 37.1951 92.6544 37.1951C92.6544 37.1951 91.885 32.2046 88.4348 32.676C85.1067 33.3941 76.8937 37.5916 82.9374 45.8149C83.1218 45.8771 79.1513 50.9008 83.1431 52.4639C85.8484 52.9731 91.4586 51.5913 91.4586 51.5913C91.4586 51.5913 83.8502 57.6389 81.7605 57.1336C79.6708 56.6283 76.1992 50.5129 76.215 48.0512C76.23 45.5894 74.2002 35.2355 73.5924 34.0011C72.9847 32.7666 74.8024 27.4222 80.6404 28.9963C80.2722 28.871 72.4621 27.6539 70.0224 23.9451C67.5827 20.2371 64.6645 14.3101 56.7842 14.508C56.7842 14.508 60.1351 10.0968 68.2835 16.3636C76.4318 22.6303 81.7833 23.2175 85.355 22.9929C88.9266 22.7682 91.0715 24.3203 92.1656 26.5433C89.7236 24.8958 87.1791 26.6978 87.1791 26.6978L94.9191 29.3306L85.1043 13.4517Z" fill="url(#paint4_linear_2_75)"/>
<path d="M84.6481 37.7635C84.6481 37.7635 81.9908 39.5324 82.8374 41.8767C84.0537 44.3464 85.0887 46.1381 84.09 48.4706C83.0912 50.8039 83.0912 50.8039 83.0912 50.8039L86.9096 50.4578C86.9096 50.457 92.6939 40.7054 84.6481 37.7635Z" fill="url(#paint5_linear_2_75)"/>
<defs>
<linearGradient id="paint0_linear_2_75" x1="31.9936" y1="66.4062" x2="7.64012" y2="167.674" gradientUnits="userSpaceOnUse">
<stop/>
<stop offset="1" stop-color="#1D1922"/>
</linearGradient>
<linearGradient id="paint1_linear_2_75" x1="73.9999" y1="189.125" x2="73.9999" y2="28.1562" gradientUnits="userSpaceOnUse">
<stop stop-color="#E3FF00"/>
<stop offset="1" stop-color="#8B8B8B" stop-opacity="0.13"/>
</linearGradient>
<linearGradient id="paint2_linear_2_75" x1="66.5402" y1="24.3524" x2="66.5402" y2="151.953" gradientUnits="userSpaceOnUse">
<stop stop-color="#FFE600"/>
<stop offset="1" stop-color="#FF7C22"/>
</linearGradient>
<linearGradient id="paint3_linear_2_75" x1="66.2952" y1="29.7555" x2="66.2952" y2="86.2877" gradientUnits="userSpaceOnUse">
<stop stop-color="#FFE600"/>
<stop offset="1" stop-color="#FF7C22"/>
</linearGradient>
<linearGradient id="paint4_linear_2_75" x1="78.7737" y1="13.2268" x2="78.7736" y2="98.9592" gradientUnits="userSpaceOnUse">
<stop stop-color="#FFE600"/>
<stop offset="1" stop-color="#FF7C22"/>
</linearGradient>
<linearGradient id="paint5_linear_2_75" x1="85.3437" y1="37.8306" x2="85.3437" y2="63.1451" gradientUnits="userSpaceOnUse">
<stop stop-color="#FFE600"/>
<stop offset="1" stop-color="#FF7C22"/>
</linearGradient>
</defs>
</svg>
