<?xml version="1.0" encoding="UTF-8"?> <svg xmlns="http://www.w3.org/2000/svg" id="Layer_1" data-name="Layer 1" viewBox="0 0 1549.96 298.73"><defs><style> .cls-1 { fill: #21468a; } .cls-1, .cls-2, .cls-3 { stroke: #fff; stroke-miterlimit: 10; } .cls-1, .cls-3 { stroke-width: 1.36px; } .cls-4 { fill: #002868; } .cls-5, .cls-3 { fill: #fff; } .cls-2 { fill: #f7931e; stroke-width: 1.36px; } </style></defs><g><polygon class="cls-2" points="268.67 56.54 286.52 45.43 304.38 56.54 299.33 36.11 315.44 22.57 294.47 21.01 286.52 1.54 278.58 21.01 257.61 22.57 273.71 36.11 268.67 56.54"></polygon><path class="cls-5" d="m349.37,108.42c-.57,6.16-4.33,13.33-10.76,20.8-2.12,2.45-4.52,4.94-7.18,7.43-1.17,1.1-2.39,2.19-3.67,3.29-1.85,1.6-3.8,3.18-5.86,4.76,4.34,10.35,6.46,19.97,6.34,28.62-.2,13.05-3.32,25.3-8.72,36.11-13.1,26.28-39.68,44.04-70.75,44.2h-.44c-17.25,0-34.27-5.98-48.38-16.9,6.37,11.83,14.57,23.07,24.42,33.54,9.24,9.76,17.82,17.96,21.06,21.06,2.86,2.74,3.57,3.42,3.89,3.86l2.57,3.54H119.52l2.57-3.54c.32-.44,1.03-1.12,3.89-3.86,5.07-4.84,12.77-12.27,21.06-21.06,9.85-10.47,18.05-21.74,24.42-33.54-14.1,10.94-31.18,16.9-48.46,16.9h-.35c-24.6-.14-47.31-11.56-62.44-31.32-18.38,1.03-58.28-.83-58.72-.83,0,0,11.21-3.01,19.37-4.21,5.66-.82,11-1.62,14.72-2.13,12.97-1.75,25.49-3.65,37.69-5.73,54.95-9.37,103.31-22.42,155.98-41.87,18.13-6.7,40.58-16.86,59.17-27.6,1.79-1.03,3.53-2.07,5.24-3.1,17.56-10.69,30.59-21.68,31.22-30.18.23-3.54-1.92-6.55-6.61-9.11-3.65-2.01-8.7-3.69-14.96-5.02l-16.13-3.33,16.43-1.03c5.01-.3,9.38-.35,13.36-.21,9.07.29,16.31,1.64,21.64,4.03,2.87,1.29,5.18,2.88,6.92,4.76,2.95,3.18,4.25,7.11,3.84,11.68Z"></path><path class="cls-3" d="m304.89,116.35l-.58.85c-.08.12-.39.55-1.1,1.1-8.27,6.5-17.74,12.67-28.03,18.52-.98,0-1.96,0-2.94,0-1.04,0-2.09,0-3.14,0-70.58-.05-141.15-.04-211.72-.03h-3.43c10.84-21.25,29.22-43.12,48.88-62.83.74,0,1.48,0,2.22,0,.76,0,1.53,0,2.3,0,52.32.03,104.64.03,156.96.03h4.18c13.11,13.16,25.68,27.29,35.82,41.53l.59.84Z"></path><path class="cls-4" d="m343.91,98.25c-4.28-4.63-12.88-7.64-27-8.1-3.95-.13-8.3-.07-13.14.22,6.78,1.41,11.85,3.18,15.55,5.22,33.64,18.45-50.31,59.61-89.29,74.01-66.69,24.63-125.77,38.54-194.16,47.73-9.16,1.23-18.47,2.38-28.01,3.46,18.46.66,36.21.28,53.4-.77,14.02,18.88,36.1,31.26,61.39,31.4,21.65.13,41.56-9.31,55.76-23.8-6.87,15.56-16.82,30.45-29.75,44.17-12.87,13.66-24.04,23.72-24.77,24.72h123.67c-.73-1-11.9-11.06-24.77-24.72-12.93-13.72-22.88-28.61-29.75-44.17,14.2,14.49,34.1,23.93,55.76,23.8,42.79-.24,76.58-35.34,77.25-78.12.14-9.32-2.43-19.21-6.87-29.33,21.82-16.38,34.46-35.22,24.75-45.72Z"></path><path class="cls-2" d="m268.48,73.98h-4.18c-52.32,0-104.64,0-156.96-.03-.76,0-1.53,0-2.3,0-.74,0-1.48,0-2.22,0,1.04-1.05,2.09-2.09,3.14-3.12C140.23,37.1,177.36,10.31,184.81,5.04l.39-.27h.93l.48.27c5.73,4.06,43.64,31.27,78.69,65.81,1.06,1.04,2.11,2.09,3.17,3.14Z"></path><path class="cls-1" d="m275.18,136.82c-1.85,1.04-3.71,2.09-5.62,3.11-79.4,42.99-201.85,67.3-214.87,69.49h-1.81l-.32-.63c-5.53-11.08-8.44-23.01-8.63-35.47-.16-10.61,3-21.89,8.47-33.39.5-1.04,1.02-2.09,1.55-3.14h3.43c70.57-.01,141.15-.02,211.72.03,1.04,0,2.09,0,3.14,0,.98,0,1.96,0,2.94,0Z"></path></g><g><path class="cls-5" d="m436.37,201.88c-4.15,0-7.79-1.14-10.92-3.41-3.13-2.27-5.56-5.39-7.28-9.35-1.72-3.95-2.58-8.5-2.58-13.65v-27.59c0-5.14.86-9.69,2.58-13.65,1.72-3.95,4.15-7.07,7.28-9.35,3.13-2.27,6.81-3.41,11.04-3.41,6.5,0,11.58,2.42,15.26,7.27,3.68,4.85,5.52,11.97,5.52,21.36v1.34h-7.87v-1.63c0-6.13-1.04-10.83-3.11-14.09-2.07-3.26-5.34-4.9-9.8-4.9s-7.55,1.56-9.75,4.67c-2.19,3.12-3.29,7.25-3.29,12.39v27.59c0,5.14,1.08,9.27,3.23,12.39,2.15,3.12,5.38,4.67,9.69,4.67s7.65-1.63,9.8-4.9c2.15-3.26,3.23-7.96,3.23-14.09v-1.63h7.87v1.34c0,9-1.92,16.02-5.75,21.07-3.84,5.04-8.88,7.57-15.15,7.57Z"></path><path class="cls-5" d="m478.41,144.17h-7.87c.31-4.45,1.31-8.38,2.99-11.79,1.68-3.41,3.99-6.11,6.93-8.09,2.94-1.98,6.32-2.97,10.16-2.97,6.26,0,11.25,2.3,14.97,6.9,3.72,4.6,5.58,11.6,5.58,20.99v51.92h-7.52v-13.2c-.47,2.08-1.37,4.2-2.7,6.38-1.33,2.18-3.09,4.01-5.28,5.49-2.19,1.48-4.93,2.23-8.22,2.23-3.99,0-7.38-1.01-10.16-3.04-2.78-2.03-4.89-4.77-6.34-8.23-1.45-3.46-2.17-7.32-2.17-11.57,0-4.55.88-8.5,2.64-11.87,1.76-3.36,4.15-6.01,7.16-7.94,3.01-1.93,6.44-2.89,10.27-2.89h14.79v-8.01c0-12.07-4.23-18.1-12.68-18.1-2.74,0-5.01.62-6.81,1.85-1.8,1.24-3.17,2.89-4.11,4.97-.94,2.08-1.49,4.4-1.64,6.97Zm10.1,49.4c3.36,0,6.18-1.04,8.45-3.12,2.27-2.08,3.99-4.75,5.17-8.01s1.76-6.62,1.76-10.09v-7.27h-13.27c-5.32,0-9,1.43-11.04,4.3-2.04,2.87-3.05,6.18-3.05,9.94,0,3.96,1,7.32,2.99,10.09,2,2.77,4.99,4.15,8.98,4.15Z"></path><path class="cls-5" d="m547.57,121.48c3.99,0,7.47.94,10.45,2.82,2.97,1.88,5.28,4.6,6.93,8.16,1.64,3.56,2.47,7.91,2.47,13.06h-7.63c0-4.65-1.04-8.31-3.11-10.98-2.07-2.67-5.07-4.01-8.98-4.01s-6.83,1.19-8.98,3.56c-2.15,2.37-3.23,5.64-3.23,9.79,0,3.17.78,5.66,2.35,7.49,1.56,1.83,3.56,3.29,5.99,4.38,2.43,1.09,5.03,2.18,7.81,3.26,2.78,1.09,5.38,2.42,7.81,4.01,2.42,1.58,4.42,3.73,5.99,6.45,1.57,2.72,2.35,6.36,2.35,10.9,0,3.56-.76,7-2.29,10.31-1.53,3.31-3.78,6.01-6.75,8.09-2.98,2.08-6.65,3.12-11.04,3.12-5.01,0-9.08-1.16-12.21-3.49-3.13-2.32-5.44-5.32-6.93-8.98-1.49-3.66-2.23-7.61-2.23-11.87h7.63c0,2.47.39,4.87,1.17,7.2.78,2.32,2.15,4.23,4.11,5.71,1.96,1.48,4.7,2.23,8.22,2.23,4.62,0,7.87-1.28,9.75-3.86,1.88-2.57,2.82-5.39,2.82-8.46,0-3.26-.78-5.79-2.35-7.57-1.57-1.78-3.56-3.21-5.99-4.3-2.43-1.09-5.01-2.15-7.75-3.19-2.74-1.04-5.32-2.35-7.75-3.93-2.43-1.58-4.42-3.78-5.99-6.6-1.57-2.82-2.35-6.55-2.35-11.2,0-4.15.82-7.89,2.47-11.2,1.64-3.31,3.95-5.96,6.93-7.94,2.97-1.98,6.42-2.97,10.33-2.97Z"></path><path class="cls-5" d="m750.61,121.48c3.99,0,7.47.94,10.45,2.82,2.97,1.88,5.28,4.6,6.93,8.16,1.64,3.56,2.47,7.91,2.47,13.06h-7.63c0-4.65-1.04-8.31-3.11-10.98-2.07-2.67-5.07-4.01-8.98-4.01s-6.83,1.19-8.98,3.56c-2.15,2.37-3.23,5.64-3.23,9.79,0,3.17.78,5.66,2.35,7.49,1.56,1.83,3.56,3.29,5.99,4.38,2.43,1.09,5.03,2.18,7.81,3.26,2.78,1.09,5.38,2.42,7.81,4.01,2.42,1.58,4.42,3.73,5.99,6.45,1.57,2.72,2.35,6.36,2.35,10.9,0,3.56-.76,7-2.29,10.31-1.53,3.31-3.78,6.01-6.75,8.09-2.98,2.08-6.65,3.12-11.04,3.12-5.01,0-9.08-1.16-12.21-3.49-3.13-2.32-5.44-5.32-6.93-8.98-1.49-3.66-2.23-7.61-2.23-11.87h7.63c0,2.47.39,4.87,1.17,7.2.78,2.32,2.15,4.23,4.11,5.71,1.96,1.48,4.7,2.23,8.22,2.23,4.62,0,7.87-1.28,9.75-3.86,1.88-2.57,2.82-5.39,2.82-8.46,0-3.26-.78-5.79-2.35-7.57-1.57-1.78-3.56-3.21-5.99-4.3-2.43-1.09-5.01-2.15-7.75-3.19-2.74-1.04-5.32-2.35-7.75-3.93-2.43-1.58-4.42-3.78-5.99-6.6-1.57-2.82-2.35-6.55-2.35-11.2,0-4.15.82-7.89,2.47-11.2,1.64-3.31,3.95-5.96,6.93-7.94,2.97-1.98,6.42-2.97,10.33-2.97Z"></path><path class="cls-5" d="m583.5,103.53c0-1.98.53-3.61,1.59-4.9,1.06-1.28,2.33-1.93,3.82-1.93,1.56,0,2.86.64,3.87,1.93,1.02,1.29,1.53,2.92,1.53,4.9s-.51,3.49-1.53,4.82c-1.02,1.34-2.31,2-3.87,2s-2.76-.67-3.82-2c-1.06-1.34-1.59-2.94-1.59-4.82Zm9.39,97.62h-7.87v-78.92h7.87v78.92Z"></path><path class="cls-5" d="m655.24,201.14h-7.87v-52.52c0-6.13-1.12-10.7-3.35-13.72-2.23-3.02-5.19-4.52-8.87-4.52s-7.09,1.88-9.75,5.64c-2.66,3.76-3.99,8.75-3.99,14.98v50.14h-7.87v-78.92h7.87v14.98c.31-2.47,1.12-4.92,2.41-7.34,1.29-2.42,3.05-4.45,5.28-6.08s4.91-2.45,8.04-2.45c5.24,0,9.57,2.25,12.97,6.75,3.4,4.5,5.11,11.35,5.11,20.55v52.52Z"></path><path class="cls-5" d="m693.98,201.88c-4.23,0-7.91-1.14-11.04-3.41-3.13-2.27-5.56-5.39-7.28-9.35-1.72-3.95-2.58-8.5-2.58-13.65v-27.59c0-5.14.86-9.69,2.58-13.65,1.72-3.95,4.15-7.07,7.28-9.35,3.13-2.27,6.77-3.41,10.92-3.41s7.91,1.14,11.04,3.41c3.13,2.28,5.56,5.39,7.28,9.35,1.72,3.96,2.58,8.51,2.58,13.65v27.59c0,5.14-.86,9.69-2.58,13.65-1.72,3.96-4.13,7.07-7.22,9.35-3.09,2.28-6.75,3.41-10.98,3.41Zm0-9.35c4.3,0,7.53-1.56,9.69-4.67,2.15-3.12,3.23-7.24,3.23-12.39v-27.59c0-5.14-1.08-9.27-3.23-12.39-2.15-3.12-5.42-4.67-9.8-4.67s-7.54,1.56-9.69,4.67c-2.15,3.12-3.23,7.25-3.23,12.39v27.59c0,5.14,1.08,9.27,3.23,12.39,2.15,3.12,5.42,4.67,9.8,4.67Z"></path><path class="cls-5" d="m822.98,201.14h-37.81v-11.42l30.06-58.45h-28.65v-9.05h35.11v13.35l-29,56.52h30.29v9.05Z"></path><path class="cls-5" d="m855.5,201.88c-4.23,0-7.91-1.14-11.04-3.41-3.13-2.27-5.56-5.39-7.28-9.35-1.72-3.95-2.58-8.5-2.58-13.65v-27.59c0-5.14.86-9.69,2.58-13.65,1.72-3.95,4.15-7.07,7.28-9.35,3.13-2.27,6.77-3.41,10.92-3.41s7.91,1.14,11.04,3.41c3.13,2.28,5.56,5.39,7.28,9.35,1.72,3.96,2.58,8.51,2.58,13.65v27.59c0,5.14-.86,9.69-2.58,13.65-1.72,3.96-4.13,7.07-7.22,9.35-3.09,2.28-6.75,3.41-10.98,3.41Zm0-9.35c4.3,0,7.53-1.56,9.69-4.67,2.15-3.12,3.23-7.24,3.23-12.39v-27.59c0-5.14-1.08-9.27-3.23-12.39-2.15-3.12-5.42-4.67-9.8-4.67s-7.54,1.56-9.69,4.67c-2.15,3.12-3.23,7.25-3.23,12.39v27.59c0,5.14,1.08,9.27,3.23,12.39,2.15,3.12,5.42,4.67,9.8,4.67Z"></path><path class="cls-5" d="m936.05,201.14h-7.87v-52.52c0-6.13-1.12-10.7-3.35-13.72-2.23-3.02-5.19-4.52-8.87-4.52s-7.09,1.88-9.75,5.64c-2.66,3.76-3.99,8.75-3.99,14.98v50.14h-7.87v-78.92h7.87v14.98c.31-2.47,1.12-4.92,2.41-7.34,1.29-2.42,3.05-4.45,5.28-6.08s4.91-2.45,8.04-2.45c5.24,0,9.57,2.25,12.97,6.75,3.4,4.5,5.11,11.35,5.11,20.55v52.52Z"></path><path class="cls-5" d="m973.15,202.03c-5.64,0-10.26-2.32-13.86-6.97-3.6-4.65-5.4-11.62-5.4-20.92v-24.92c0-9.1,1.72-16.02,5.17-20.77,3.44-4.75,7.94-7.12,13.5-7.12,3.29,0,5.97.62,8.04,1.85,2.07,1.24,3.68,2.92,4.81,5.04,1.13,2.13,1.9,4.52,2.29,7.2v-37.83h7.87v103.55h-7.87v-14.69c0,1.98-.53,4.18-1.59,6.6-1.06,2.42-2.66,4.52-4.81,6.3-2.15,1.78-4.87,2.67-8.16,2.67Zm-11.39-53.26v25.81c0,6.13,1.08,10.73,3.23,13.8,2.15,3.07,5.15,4.6,8.98,4.6s7.08-2.03,9.75-6.08c2.66-4.05,3.99-9.39,3.99-16.02v-19.29c0-6.23-1.06-11.32-3.17-15.28-2.11-3.95-5.64-5.93-10.57-5.93-4.07,0-7.12,1.61-9.16,4.82-2.04,3.21-3.05,7.74-3.05,13.57Z"></path><path class="cls-5" d="m1055.34,165.39h-7.75v-17.51c0-5.14-1.08-9.3-3.23-12.46-2.15-3.16-5.46-4.75-9.92-4.75s-7.56,1.58-9.75,4.75c-2.19,3.17-3.29,7.32-3.29,12.46v27.59c0,5.14,1.07,9.27,3.23,12.39,2.15,3.12,5.46,4.67,9.92,4.67,4.23,0,7.34-1.36,9.33-4.08,2-2.72,3.07-6.06,3.23-10.01h7.63c-.31,6.82-2.25,12.44-5.81,16.84-3.56,4.4-8.36,6.6-14.38,6.6-4.23,0-7.91-1.14-11.04-3.41-3.13-2.27-5.56-5.39-7.28-9.35-1.72-3.95-2.58-8.5-2.58-13.65v-27.59c0-5.14.86-9.69,2.58-13.65,1.72-3.95,4.15-7.07,7.28-9.35,3.13-2.27,6.77-3.41,10.92-3.41s7.91,1.14,11.04,3.41c3.13,2.28,5.56,5.39,7.28,9.35,1.72,3.96,2.58,8.51,2.58,13.65v17.51Zm0-8.75v8.75h-36.28v-8.75h36.28Z"></path><path class="cls-5" d="m1099.49,132.31h-3.52c-4.46,0-8.08,1.98-10.86,5.93-2.78,3.96-4.17,9.3-4.17,16.02v46.88h-7.87v-78.92h7.87v17.06c.94-5.34,2.86-9.67,5.75-12.98,2.9-3.31,6.5-4.97,10.8-4.97h2v10.98Z"></path><path class="cls-5" d="m1126.14,201.88c-4.15,0-7.79-1.14-10.92-3.41-3.13-2.27-5.56-5.39-7.28-9.35-1.72-3.95-2.58-8.5-2.58-13.65v-27.59c0-5.14.86-9.69,2.58-13.65,1.72-3.95,4.15-7.07,7.28-9.35,3.13-2.27,6.81-3.41,11.04-3.41,6.5,0,11.58,2.42,15.26,7.27,3.68,4.85,5.52,11.97,5.52,21.36v1.34h-7.87v-1.63c0-6.13-1.04-10.83-3.11-14.09-2.07-3.26-5.34-4.9-9.8-4.9s-7.55,1.56-9.75,4.67c-2.19,3.12-3.29,7.25-3.29,12.39v27.59c0,5.14,1.08,9.27,3.23,12.39,2.15,3.12,5.38,4.67,9.69,4.67s7.65-1.63,9.8-4.9c2.15-3.26,3.23-7.96,3.23-14.09v-1.63h7.87v1.34c0,9-1.92,16.02-5.75,21.07-3.84,5.04-8.88,7.57-15.15,7.57Z"></path><path class="cls-5" d="m1190.96,132.31h-3.52c-4.46,0-8.08,1.98-10.86,5.93-2.78,3.96-4.17,9.3-4.17,16.02v46.88h-7.87v-78.92h7.87v17.06c.94-5.34,2.86-9.67,5.75-12.98,2.9-3.31,6.5-4.97,10.8-4.97h2v10.98Z"></path><path class="cls-5" d="m1234.99,122.22h7.87v53.26c0,5.14-.86,9.69-2.58,13.65-1.72,3.96-4.13,7.07-7.22,9.35-3.09,2.28-6.75,3.41-10.98,3.41s-7.91-1.14-11.04-3.41c-3.13-2.27-5.56-5.39-7.28-9.35-1.72-3.95-2.58-8.5-2.58-13.65v-53.26h7.87v53.26c0,5.14,1.07,9.27,3.23,12.39,2.15,3.12,5.42,4.67,9.8,4.67s7.53-1.56,9.69-4.67c2.15-3.12,3.23-7.24,3.23-12.39v-53.26Z"></path><path class="cls-5" d="m1270.21,201.14h-7.87v-103.55h7.87v103.55Zm34.99,0h-9.39l-18.79-38.72,17.5-40.2h8.81l-17.38,39.76,19.26,39.16Z"></path><path class="cls-5" d="m1334.2,121.48c3.99,0,7.47.94,10.45,2.82,2.97,1.88,5.28,4.6,6.93,8.16,1.64,3.56,2.47,7.91,2.47,13.06h-7.63c0-4.65-1.04-8.31-3.11-10.98-2.07-2.67-5.07-4.01-8.98-4.01s-6.83,1.19-8.98,3.56c-2.15,2.37-3.23,5.64-3.23,9.79,0,3.17.78,5.66,2.35,7.49,1.56,1.83,3.56,3.29,5.99,4.38,2.43,1.09,5.03,2.18,7.81,3.26,2.78,1.09,5.38,2.42,7.81,4.01,2.42,1.58,4.42,3.73,5.99,6.45,1.57,2.72,2.35,6.36,2.35,10.9,0,3.56-.76,7-2.29,10.31-1.53,3.31-3.78,6.01-6.75,8.09-2.98,2.08-6.65,3.12-11.04,3.12-5.01,0-9.08-1.16-12.21-3.49-3.13-2.32-5.44-5.32-6.93-8.98-1.49-3.66-2.23-7.61-2.23-11.87h7.63c0,2.47.39,4.87,1.17,7.2.78,2.32,2.15,4.23,4.11,5.71,1.96,1.48,4.7,2.23,8.22,2.23,4.62,0,7.87-1.28,9.75-3.86,1.88-2.57,2.82-5.39,2.82-8.46,0-3.26-.78-5.79-2.35-7.57-1.57-1.78-3.56-3.21-5.99-4.3-2.43-1.09-5.01-2.15-7.75-3.19-2.74-1.04-5.32-2.35-7.75-3.93-2.43-1.58-4.42-3.78-5.99-6.6-1.57-2.82-2.35-6.55-2.35-11.2,0-4.15.82-7.89,2.47-11.2,1.64-3.31,3.95-5.96,6.93-7.94,2.97-1.98,6.42-2.97,10.33-2.97Z"></path><path class="cls-5" d="m1378,194.91c0,1.88-.55,3.51-1.64,4.9-1.1,1.38-2.43,2.08-3.99,2.08s-2.8-.69-3.93-2.08c-1.14-1.38-1.7-3.02-1.7-4.9,0-1.98.55-3.66,1.64-5.04,1.1-1.38,2.43-2.08,3.99-2.08s2.9.69,3.99,2.08c1.09,1.39,1.64,3.07,1.64,5.04Z"></path><path class="cls-5" d="m1435.42,201.14h-7.87v-52.52c0-6.13-1.12-10.7-3.35-13.72-2.23-3.02-5.19-4.52-8.87-4.52s-7.09,1.88-9.75,5.64c-2.66,3.76-3.99,8.75-3.99,14.98v50.14h-7.87v-78.92h7.87v14.98c.31-2.47,1.12-4.92,2.41-7.34,1.29-2.42,3.05-4.45,5.28-6.08,2.23-1.63,4.91-2.45,8.04-2.45,5.24,0,9.57,2.25,12.97,6.75,3.4,4.5,5.11,11.35,5.11,20.55v52.52Z"></path><path class="cls-5" d="m1488.49,122.22h7.87v53.26c0,5.14-.86,9.69-2.58,13.65-1.72,3.96-4.13,7.07-7.22,9.35-3.09,2.28-6.75,3.41-10.98,3.41s-7.91-1.14-11.04-3.41c-3.13-2.27-5.56-5.39-7.28-9.35-1.72-3.95-2.58-8.5-2.58-13.65v-53.26h7.87v53.26c0,5.14,1.07,9.27,3.23,12.39,2.15,3.12,5.42,4.67,9.8,4.67s7.53-1.56,9.69-4.67c2.15-3.12,3.23-7.24,3.23-12.39v-53.26Z"></path></g></svg> 