<?xml version="1.0" standalone="yes"?>
<svg width="150" height="25" viewBox="0 0 150 25" fill="none" xmlns="http://www.w3.org/2000/svg">
<path d="M0 0.677712C0 0.117353 0.641513 -0.200038 1.08611 0.140352L10.7846 7.56558C11.1383 7.83633 11.1383 8.36954 10.7846 8.6403L1.08612 16.0655C0.641513 16.4059 0 16.0885 0 15.5282V0.677712Z" fill="#3F53D9"/>
<path d="M25 24.3223C25 24.8826 24.3585 25.2 23.9139 24.8596L14.2154 17.4344C13.8617 17.1637 13.8617 16.6305 14.2154 16.3597L23.9139 8.93447C24.3585 8.59408 25 8.91147 25 9.47183V24.3223Z" fill="#3F53D9"/>
<path d="M0.849771 24.3301C-0.428792 22.7493 -0.185304 20.4302 1.39362 19.1501L24.0031 0.820067C24.0555 0.777595 24.1323 0.785683 24.1748 0.838133C25.4474 2.41163 25.2051 4.72012 23.6334 5.99428L0.997597 24.3457C0.952485 24.3822 0.886301 24.3753 0.849771 24.3301Z" fill="#3F53D9"/>
<path d="M37.6827 8.46691C39.0673 8.46691 40.1442 8.74126 40.9134 9.28996C41.6825 9.83866 42.207 10.5725 42.4867 11.4916L39.8015 12.4381C39.5498 11.1898 38.8715 10.5657 37.7666 10.5657C36.9415 10.5657 36.3052 10.8469 35.8576 11.4093C35.4241 11.958 35.2073 12.7673 35.2073 13.8373C35.2073 14.9072 35.4311 15.7166 35.8786 16.2653C36.3262 16.8002 36.9485 17.0677 37.7457 17.0677C38.9764 17.0677 39.7036 16.4573 39.9274 15.2365L42.5287 16.0595C42.3049 17.006 41.7804 17.7605 40.9553 18.3229C40.1442 18.8853 39.0883 19.1665 37.7876 19.1665C36.0534 19.1665 34.7108 18.7001 33.7598 17.7673C32.8088 16.8208 32.3333 15.504 32.3333 13.8167C32.3333 12.1295 32.8018 10.8195 33.7389 9.88667C34.6899 8.94017 36.0045 8.46691 37.6827 8.46691Z" fill="#312E4D"/>
<path d="M54.4093 17.2529C54.703 17.2529 54.9407 17.2255 55.1225 17.1706L54.9128 18.8784C54.5212 19.0705 54.0666 19.1665 53.5492 19.1665C52.2066 19.1665 51.4024 18.6521 51.1367 17.6233C50.829 18.1308 50.3535 18.5149 49.7102 18.7756C49.0669 19.0362 48.3047 19.1665 47.4236 19.1665C46.4027 19.1665 45.6055 18.9402 45.0321 18.4875C44.4587 18.0348 44.172 17.3832 44.172 16.5328C44.172 14.8592 45.5356 13.7756 48.2627 13.2817L50.7801 12.8085V12.3147C50.7801 11.766 50.6193 11.3339 50.2976 11.0184C49.9899 10.6891 49.5564 10.5245 48.997 10.5245C48.3536 10.5245 47.8292 10.6617 47.4236 10.9361C47.018 11.2104 46.7383 11.6562 46.5845 12.2735L44.2979 11.327C44.5216 10.4354 45.0251 9.73578 45.8083 9.22823C46.5915 8.72069 47.6124 8.46691 48.8711 8.46691C50.3675 8.46691 51.5353 8.78927 52.3744 9.43399C53.2135 10.065 53.6331 11.0046 53.6331 12.2529V16.471C53.6331 16.7454 53.696 16.9443 53.8219 17.0677C53.9478 17.1912 54.1436 17.2529 54.4093 17.2529ZM48.3257 17.2529C48.941 17.2529 49.5004 17.1089 50.0039 16.8208C50.5214 16.519 50.7801 16.1144 50.7801 15.6068V14.5369L48.5354 15.0307C48.0599 15.1404 47.7033 15.2913 47.4656 15.4834C47.2418 15.6617 47.1299 15.9155 47.1299 16.2447C47.1299 16.5739 47.2348 16.8277 47.4446 17.006C47.6544 17.1706 47.948 17.2529 48.3257 17.2529Z" fill="#312E4D"/>
<path d="M60.938 19.1665C58.6025 19.1665 56.9802 18.5081 56.0711 17.1912L57.7494 15.504C58.0291 16.0938 58.4277 16.5122 58.9451 16.7591C59.4766 16.9923 60.1269 17.1089 60.8961 17.1089C61.5114 17.1089 61.987 17.0266 62.3226 16.862C62.6583 16.6974 62.8261 16.471 62.8261 16.183C62.8261 15.9498 62.6652 15.7509 62.3436 15.5863C62.0359 15.4216 61.4975 15.2639 60.7283 15.113C59.12 14.7975 57.9871 14.386 57.3298 13.8784C56.6865 13.3572 56.3648 12.6576 56.3648 11.7797C56.3648 11.2035 56.5466 10.6617 56.9103 10.1542C57.2739 9.64661 57.8123 9.24195 58.5256 8.94017C59.2388 8.62467 60.0919 8.46691 61.0849 8.46691C62.2597 8.46691 63.2107 8.64524 63.9379 9.00189C64.6651 9.34483 65.2735 9.89353 65.763 10.648L63.9799 12.1295C63.6722 11.5808 63.2876 11.1761 62.8261 10.9155C62.3785 10.6548 61.8121 10.5245 61.1269 10.5245C60.5535 10.5245 60.0919 10.6205 59.7423 10.8126C59.4067 11.0046 59.2388 11.2378 59.2388 11.5122C59.2388 11.8002 59.4067 12.0403 59.7423 12.2323C60.0779 12.4244 60.6723 12.6027 61.5254 12.7673C63.0498 13.0691 64.1267 13.4669 64.7561 13.9607C65.3994 14.4409 65.721 15.113 65.721 15.9772C65.721 16.9374 65.3015 17.7125 64.4624 18.3023C63.6372 18.8784 62.4625 19.1665 60.938 19.1665Z" fill="#312E4D"/>
<path d="M69.4604 7.1912C68.2716 7.1912 67.6772 6.69051 67.6772 5.68914C67.6772 4.67405 68.2716 4.1665 69.4604 4.1665C70.6491 4.1665 71.2435 4.67405 71.2435 5.68914C71.2435 6.69051 70.6491 7.1912 69.4604 7.1912ZM70.8869 18.9607H68.0129V8.67268H70.8869V18.9607Z" fill="#312E4D"/>
<path d="M80.1849 8.46691C81.3177 8.46691 82.2268 8.78927 82.9121 9.43399C83.6113 10.0787 83.961 11.0046 83.961 12.2118V18.9607H81.087V13.0348C81.087 11.471 80.4646 10.6891 79.2199 10.6891C78.5486 10.6891 77.9752 10.9223 77.4997 11.3887C77.0382 11.8551 76.8075 12.5684 76.8075 13.5286V18.9607H73.9335V8.67268H76.5138L76.5977 10.504C76.9473 9.8318 77.4298 9.32425 78.0452 8.98132C78.6605 8.63838 79.3738 8.46691 80.1849 8.46691Z" fill="#312E4D"/>
<path d="M91.7468 8.46691C93.439 8.46691 94.7536 8.94017 95.6907 9.88667C96.6417 10.8332 97.1172 12.1432 97.1172 13.8167C97.1172 15.4902 96.6417 16.8002 95.6907 17.7467C94.7536 18.6933 93.439 19.1665 91.7468 19.1665C90.0546 19.1665 88.7329 18.6933 87.7819 17.7467C86.8449 16.8002 86.3764 15.4902 86.3764 13.8167C86.3764 12.1432 86.8449 10.8332 87.7819 9.88667C88.7329 8.94017 90.0546 8.46691 91.7468 8.46691ZM91.7468 10.5657C90.9356 10.5657 90.3133 10.84 89.8797 11.3887C89.4602 11.9237 89.2504 12.733 89.2504 13.8167C89.2504 14.9004 89.4602 15.7166 89.8797 16.2653C90.3133 16.8002 90.9356 17.0677 91.7468 17.0677C92.5579 17.0677 93.1733 16.8002 93.5928 16.2653C94.0264 15.7166 94.2432 14.9004 94.2432 13.8167C94.2432 12.733 94.0264 11.9237 93.5928 11.3887C93.1733 10.84 92.5579 10.5657 91.7468 10.5657Z" fill="#312E4D"/>
<path d="M103.652 19.1665C101.317 19.1665 99.6943 18.5081 98.7852 17.1912L100.463 15.504C100.743 16.0938 101.142 16.5122 101.659 16.7591C102.191 16.9923 102.841 17.1089 103.61 17.1089C104.226 17.1089 104.701 17.0266 105.037 16.862C105.372 16.6974 105.54 16.471 105.54 16.183C105.54 15.9498 105.379 15.7509 105.058 15.5863C104.75 15.4216 104.212 15.2639 103.442 15.113C101.834 14.7975 100.701 14.386 100.044 13.8784C99.4006 13.3572 99.0789 12.6576 99.0789 11.7797C99.0789 11.2035 99.2607 10.6617 99.6244 10.1542C99.988 9.64661 100.526 9.24195 101.24 8.94017C101.953 8.62467 102.806 8.46691 103.799 8.46691C104.974 8.46691 105.925 8.64524 106.652 9.00189C107.379 9.34483 107.988 9.89353 108.477 10.648L106.694 12.1295C106.386 11.5808 106.002 11.1761 105.54 10.9155C105.093 10.6548 104.526 10.5245 103.841 10.5245C103.268 10.5245 102.806 10.6205 102.456 10.8126C102.121 11.0046 101.953 11.2378 101.953 11.5122C101.953 11.8002 102.121 12.0403 102.456 12.2323C102.792 12.4244 103.386 12.6027 104.24 12.7673C105.764 13.0691 106.841 13.4669 107.47 13.9607C108.113 14.4409 108.435 15.113 108.435 15.9772C108.435 16.9374 108.016 17.7125 107.176 18.3023C106.351 18.8784 105.177 19.1665 103.652 19.1665Z" fill="#312E4D"/>
<path d="M117.922 18.3229C117.587 18.5835 117.16 18.7893 116.643 18.9402C116.139 19.0911 115.608 19.1665 115.048 19.1665C112.713 19.1665 111.545 18.1308 111.545 16.0595V10.7714H109.636V8.67268H111.545V6.30642L114.419 5.52453V8.67268H117.818V10.7714H114.419V15.6068C114.419 16.5533 114.902 17.0266 115.867 17.0266C116.482 17.0266 117.02 16.8345 117.482 16.4505L117.922 18.3229Z" fill="#312E4D"/>
<path d="M129.517 13.7756C129.517 14.1596 129.489 14.53 129.433 14.8867H122.007C122.301 16.3407 123.175 17.0677 124.629 17.0677C125.231 17.0677 125.727 16.958 126.119 16.7385C126.51 16.519 126.783 16.2035 126.937 15.792L129.287 16.6356C128.951 17.4587 128.384 18.0897 127.587 18.5286C126.804 18.9539 125.818 19.1665 124.629 19.1665C122.895 19.1665 121.553 18.7001 120.602 17.7673C119.651 16.8208 119.175 15.504 119.175 13.8167C119.175 12.1295 119.637 10.8195 120.56 9.88667C121.483 8.94017 122.783 8.46691 124.462 8.46691C126.084 8.46691 127.329 8.92645 128.196 9.84552C129.077 10.7646 129.517 12.0746 129.517 13.7756ZM124.441 10.5451C123.741 10.5451 123.182 10.744 122.762 11.1418C122.357 11.5396 122.098 12.1295 121.986 12.9114H126.874C126.762 12.1432 126.496 11.5602 126.077 11.1624C125.657 10.7509 125.112 10.5451 124.441 10.5451Z" fill="#312E4D"/>
<path d="M137.867 8.46691C138.357 8.46691 138.734 8.54236 139 8.69325L138.643 11.1624C138.322 10.9566 137.881 10.8537 137.322 10.8537C136.636 10.8537 136.042 11.1007 135.539 11.5945C135.049 12.0746 134.804 12.7536 134.804 13.6315V18.9607H131.93V8.67268H134.427L134.616 10.6891C135.189 9.20765 136.273 8.46691 137.867 8.46691Z" fill="#312E4D"/>
<path d="M144.938 19.1664C142.602 19.1664 140.98 18.5079 140.071 17.1911L141.749 15.5038C142.029 16.0937 142.428 16.5121 142.945 16.759C143.477 16.9922 144.127 17.1088 144.896 17.1088C145.511 17.1088 145.987 17.0265 146.323 16.8619C146.658 16.6972 146.826 16.4709 146.826 16.1828C146.826 15.9496 146.665 15.7507 146.344 15.5861C146.036 15.4215 145.497 15.2638 144.728 15.1129C143.12 14.7974 141.987 14.3859 141.33 13.8783C140.686 13.3571 140.365 12.6575 140.365 11.7796C140.365 11.2034 140.547 10.6616 140.91 10.154C141.274 9.64649 141.812 9.24183 142.526 8.94005C143.239 8.62455 144.092 8.4668 145.085 8.4668C146.26 8.4668 147.211 8.64512 147.938 9.00178C148.665 9.34471 149.274 9.89341 149.763 10.6479L147.98 12.1293C147.672 11.5807 147.288 11.176 146.826 10.9154C146.379 10.6547 145.812 10.5244 145.127 10.5244C144.553 10.5244 144.092 10.6204 143.742 10.8125C143.407 11.0045 143.239 11.2377 143.239 11.5121C143.239 11.8001 143.407 12.0402 143.742 12.2322C144.078 12.4243 144.672 12.6026 145.525 12.7672C147.05 13.069 148.127 13.4668 148.756 13.9606C149.399 14.4407 149.721 15.1129 149.721 15.9771C149.721 16.9373 149.301 17.7123 148.462 18.3022C147.637 18.8783 146.462 19.1664 144.938 19.1664Z" fill="#312E4D"/>
</svg>
