<?xml version="1.0" encoding="UTF-8"?>
<!DOCTYPE svg PUBLIC "-//W3C//DTD SVG 1.1//EN" "http://www.w3.org/Graphics/SVG/1.1/DTD/svg11.dtd">
<!-- Creator: CorelDRAW 2020 (64-Bit) -->
<svg xmlns="http://www.w3.org/2000/svg" xml:space="preserve" width="591px" height="105px" version="1.1" style="shape-rendering:geometricPrecision; text-rendering:geometricPrecision; image-rendering:optimizeQuality; fill-rule:evenodd; clip-rule:evenodd"
viewBox="0 0 591 105.2"
 xmlns:xlink="http://www.w3.org/1999/xlink"
 xmlns:xodm="http://www.corel.com/coreldraw/odm/2003">
 <defs>
  <style type="text/css">
   <![CDATA[
    .fil0 {fill:#666666}
    .fil4 {fill:#CCCCCC}
    .fil1 {fill:#F8A137}
    .fil2 {fill:#666666;fill-rule:nonzero}
    .fil3 {fill:#F8A137;fill-rule:nonzero}
   ]]>
  </style>
 </defs>
 <g id="Layer_x0020_1">
  <metadata id="CorelCorpID_0Corel-Layer"/>
  <g id="_2124400579952">
   <g>
    <path class="fil0" d="M45.36 29.03c12.27,0 22.39,9.22 23.83,21.11l-15.4 0c-1.21,-3.5 -4.53,-6.01 -8.43,-6.01 -4.93,0 -8.92,3.99 -8.92,8.91 0,4.92 3.99,8.91 8.92,8.91 3.9,0 7.22,-2.51 8.43,-6.01l15.4 0c-1.44,11.89 -11.56,21.11 -23.83,21.11 -13.26,0 -24.01,-10.75 -24.01,-24.01 0,-13.26 10.75,-24.01 24.01,-24.01z"/>
    <path class="fil1" d="M45.36 8.14c2.99,0 5.91,0.29 8.73,0.85l0 -7.32 15.1 0 0 13.32c11.88,7.45 20.02,20.32 20.97,35.15l-15.14 0c-1.46,-15.1 -14.18,-26.91 -29.66,-26.91 -16.46,0 -29.81,13.35 -29.81,29.81 0,16.46 13.35,29.81 29.81,29.81 15.48,0 28.2,-11.81 29.66,-26.91l15.14 0c-0.95,14.83 -9.09,27.7 -20.97,35.16l0 13.31 -15.1 0 0 -7.32c-2.82,0.56 -5.74,0.85 -8.73,0.85 -3.03,0 -5.98,-0.3 -8.84,-0.87l0 7.34 -15.09 0 0 -13.37c-12.6,-7.96 -20.97,-22 -20.97,-38 0,-16 8.37,-30.04 20.97,-38l0 -13.37 15.09 0 0 7.34c2.86,-0.57 5.81,-0.87 8.84,-0.87z"/>
   </g>
   <path class="fil2" d="M456.54 75.68c0,-0.37 -0.06,-0.75 -0.17,-1.13 -0.12,-0.39 -0.32,-0.73 -0.61,-1.04 -0.28,-0.3 -0.65,-0.54 -1.11,-0.73 -0.45,-0.18 -1.03,-0.27 -1.73,-0.27 -0.81,0 -1.48,0.1 -2.02,0.3 -0.54,0.2 -0.96,0.45 -1.26,0.75 -0.3,0.31 -0.52,0.65 -0.66,1.04 -0.13,0.38 -0.2,0.75 -0.2,1.08l0.1 17.89c0,1.18 0.31,2.2 0.94,3.05 0.62,0.86 1.65,1.29 3.1,1.29 1.41,0 2.36,-0.36 2.87,-1.09 0.5,-0.72 0.75,-1.67 0.75,-2.84l0 -18.3zm-3.47 -9.88c3.96,0 6.9,0.87 8.82,2.6 1.91,1.73 2.87,4.27 2.87,7.63l0 18.15c0,3.39 -0.98,5.94 -2.92,7.66 -1.95,1.71 -5.06,2.57 -9.33,2.57 -1.71,0 -3.3,-0.22 -4.76,-0.66 -1.46,-0.43 -2.74,-1.09 -3.83,-1.96 -1.09,-0.88 -1.95,-1.94 -2.57,-3.2 -0.62,-1.26 -0.93,-2.73 -0.93,-4.41l0 -18.15c0,-6.82 4.21,-10.23 12.65,-10.23zm136.02 0.36l0 7.15 -13.71 0 0 6.81 10.89 0 0 7.15 -10.89 0 0 9.53 13.71 0 0 7.16 -23.08 0 0 -37.8 9.37 0 13.71 0zm-27.51 0l0 37.8 -8.52 0 -8.52 -20.82 0 20.82 -8.06 0 0 -37.8 8.21 0 8.57 20.76 0 -20.76 8.32 0zm-29.24 37.8l-9.87 0 0 -37.8 9.87 0 0 37.8zm-12.39 -7.51l0 7.51 -17.49 0 0 0 -2.72 0 0 -37.8 9.27 0 0 30.29 10.94 0zm-25.15 -30.29l0 37.8 -8.52 0 -8.52 -20.82 0 20.82 -8.06 0 0 -37.8 8.21 0 8.57 20.76 0 -20.76 8.32 0zm-66.43 37.8l0 -7.92 7.91 0 0 7.92 -7.91 0z"/>
   <path class="fil3" d="M576.7 22.16l0 -4.66c0,-2 -0.34,-3.58 -1.02,-4.75 -0.68,-1.16 -1.95,-1.74 -3.8,-1.74 -1.89,0 -3.29,0.46 -4.19,1.38 -0.9,0.92 -1.35,2.48 -1.35,4.67 0,1.12 0.17,2.02 0.51,2.7 0.34,0.68 0.84,1.26 1.5,1.75 0.65,0.48 1.48,0.94 2.48,1.38 0.99,0.44 2.15,0.95 3.46,1.53 1.56,0.63 3.2,1.4 4.92,2.3 1.73,0.9 3.32,2.05 4.78,3.46 1.46,1.41 2.67,3.14 3.64,5.18 0.98,2.04 1.46,4.5 1.46,7.37 0,4.86 -1.5,8.54 -4.52,11.04 -3.01,2.51 -7.24,3.76 -12.69,3.76 -4.03,0 -7.24,-0.4 -9.62,-1.2 -2.38,-0.81 -4.22,-2.02 -5.51,-3.65 -1.29,-1.63 -2.12,-3.67 -2.51,-6.13 -0.39,-2.45 -0.59,-5.33 -0.59,-8.64l12.47 0c0,1.46 0.05,2.82 0.15,4.09 0.1,1.26 0.34,2.34 0.73,3.24 0.39,0.9 0.95,1.62 1.68,2.15 0.72,0.54 1.74,0.8 3.06,0.8 1.65,0 2.89,-0.48 3.72,-1.45 0.82,-0.98 1.24,-2.31 1.24,-4.01 -0.2,-2.05 -1.21,-3.78 -3.03,-5.22 -1.82,-1.43 -4.12,-2.71 -6.89,-3.83 -2.38,-0.97 -4.4,-1.99 -6.05,-3.06 -1.66,-1.07 -3,-2.27 -4.05,-3.61 -1.05,-1.34 -1.8,-2.87 -2.26,-4.59 -0.46,-1.73 -0.69,-3.71 -0.69,-5.95 0,-2.23 0.43,-4.26 1.31,-6.08 0.87,-1.83 2.1,-3.38 3.68,-4.67 1.58,-1.29 3.49,-2.29 5.73,-2.99 2.23,-0.71 4.71,-1.06 7.43,-1.06 2.48,0 4.77,0.32 6.86,0.95 2.09,0.63 3.88,1.57 5.36,2.81 1.48,1.24 2.64,2.78 3.46,4.63 0.83,1.85 1.24,3.98 1.24,6.41l0 5.69 -12.1 0zm-39.67 -6.2c0,-0.53 -0.09,-1.08 -0.26,-1.64 -0.17,-0.56 -0.46,-1.05 -0.87,-1.49 -0.42,-0.44 -0.95,-0.79 -1.61,-1.06 -0.65,-0.27 -1.49,-0.4 -2.51,-0.4 -1.17,0 -2.14,0.15 -2.92,0.44 -0.78,0.29 -1.39,0.65 -1.82,1.09 -0.44,0.44 -0.76,0.94 -0.95,1.5 -0.19,0.55 -0.29,1.08 -0.29,1.56l0.14 25.89c0,1.7 0.45,3.17 1.35,4.41 0.9,1.24 2.4,1.86 4.49,1.86 2.04,0 3.42,-0.52 4.15,-1.57 0.73,-1.04 1.1,-2.41 1.1,-4.12l0 -26.47zm-5.03 -14.29c5.73,0 9.99,1.25 12.76,3.76 2.77,2.5 4.15,6.18 4.15,11.04l0 26.26c0,4.91 -1.41,8.6 -4.23,11.08 -2.81,2.48 -7.31,3.72 -13.49,3.72 -2.47,0 -4.77,-0.32 -6.89,-0.95 -2.11,-0.63 -3.96,-1.58 -5.54,-2.84 -1.58,-1.27 -2.82,-2.81 -3.72,-4.63 -0.9,-1.83 -1.35,-3.95 -1.35,-6.38l0 -26.26c0,-9.86 6.1,-14.8 18.31,-14.8zm-24.36 0.51l0 54.69 -12.32 0 -12.33 -30.11 0 30.11 -11.66 0 0 -54.69 11.88 0 12.4 30.05 0 -30.05 12.03 0zm-42.29 54.69l-14.3 0 0 -54.69 14.3 0 0 54.69zm-31.94 -34.71l0 -4.66c0,-2 -0.34,-3.58 -1.02,-4.75 -0.68,-1.16 -1.95,-1.74 -3.8,-1.74 -1.89,0 -3.29,0.46 -4.19,1.38 -0.9,0.92 -1.35,2.48 -1.35,4.67 0,1.12 0.17,2.02 0.51,2.7 0.34,0.68 0.84,1.26 1.5,1.75 0.65,0.48 1.48,0.94 2.48,1.38 0.99,0.44 2.15,0.95 3.46,1.53 1.56,0.63 3.2,1.4 4.92,2.3 1.73,0.9 3.32,2.05 4.78,3.46 1.46,1.41 2.67,3.14 3.64,5.18 0.98,2.04 1.46,4.5 1.46,7.37 0,4.86 -1.5,8.54 -4.52,11.04 -3.01,2.51 -7.24,3.76 -12.69,3.76 -4.03,0 -7.24,-0.4 -9.62,-1.2 -2.38,-0.81 -4.22,-2.02 -5.51,-3.65 -1.29,-1.63 -2.12,-3.67 -2.51,-6.13 -0.39,-2.45 -0.59,-5.33 -0.59,-8.64l12.47 0c0,1.46 0.05,2.82 0.15,4.09 0.1,1.26 0.34,2.34 0.73,3.24 0.39,0.9 0.95,1.62 1.68,2.15 0.72,0.54 1.74,0.8 3.06,0.8 1.65,0 2.89,-0.48 3.72,-1.45 0.82,-0.98 1.24,-2.31 1.24,-4.01 -0.2,-2.05 -1.21,-3.78 -3.03,-5.22 -1.82,-1.43 -4.12,-2.71 -6.89,-3.83 -2.38,-0.97 -4.4,-1.99 -6.05,-3.06 -1.66,-1.07 -3.01,-2.27 -4.05,-3.61 -1.05,-1.34 -1.8,-2.87 -2.26,-4.59 -0.46,-1.73 -0.69,-3.71 -0.69,-5.95 0,-2.23 0.43,-4.26 1.31,-6.08 0.87,-1.83 2.1,-3.38 3.68,-4.67 1.58,-1.29 3.49,-2.29 5.73,-2.99 2.23,-0.71 4.71,-1.06 7.43,-1.06 2.48,0 4.77,0.32 6.86,0.95 2.09,0.63 3.88,1.57 5.36,2.81 1.48,1.24 2.64,2.78 3.46,4.63 0.83,1.85 1.24,3.98 1.24,6.41l0 5.69 -12.1 0zm-41.42 15.17l-3.58 -14.66 -3.57 14.66 7.15 0zm2.4 10.21l-12.1 0 -2.19 9.33 -12.4 0 14.88 -54.69 11.67 0 14.87 54.69 -12.39 0 -2.34 -9.33zm-39.81 -26.11l0 -5.47c0,-1.11 -0.37,-2.16 -1.1,-3.13 -0.73,-0.97 -2.04,-1.46 -3.93,-1.46 -1.07,0 -1.97,0.15 -2.7,0.44 -0.73,0.29 -1.31,0.65 -1.75,1.09 -0.44,0.44 -0.74,0.94 -0.91,1.5 -0.17,0.55 -0.26,1.08 -0.26,1.56l0 25.82c0,1.75 0.46,3.24 1.39,4.48 0.92,1.24 2.33,1.86 4.23,1.86 1.94,0 3.27,-0.51 3.97,-1.53 0.71,-1.02 1.06,-2.41 1.06,-4.16l0 -4.66 11.88 0 0 4.96c0,4.91 -1.34,8.6 -4.04,11.08 -2.7,2.48 -7.14,3.72 -13.31,3.72 -2.48,0 -4.78,-0.32 -6.89,-0.95 -2.12,-0.63 -3.94,-1.58 -5.47,-2.84 -1.53,-1.27 -2.72,-2.81 -3.57,-4.63 -0.85,-1.83 -1.28,-3.95 -1.28,-6.38l0 -26.26c0,-4.91 1.45,-8.6 4.34,-11.08 2.89,-2.48 7.42,-3.72 13.6,-3.72 5.78,0 10,1.25 12.65,3.76 2.65,2.5 3.97,6.18 3.97,11.04l0 4.96 -11.88 0z"/>
   <path class="fil2" d="M315.06 15.96c0,-0.53 -0.09,-1.08 -0.26,-1.64 -0.17,-0.56 -0.46,-1.05 -0.87,-1.49 -0.42,-0.44 -0.95,-0.79 -1.61,-1.06 -0.66,-0.27 -1.49,-0.4 -2.52,-0.4 -1.16,0 -2.13,0.15 -2.91,0.44 -0.78,0.29 -1.39,0.65 -1.83,1.09 -0.43,0.44 -0.75,0.94 -0.94,1.5 -0.2,0.55 -0.3,1.08 -0.3,1.56l0.15 25.89c0,1.7 0.45,3.17 1.35,4.41 0.9,1.24 2.39,1.86 4.48,1.86 2.05,0 3.43,-0.52 4.16,-1.57 0.73,-1.04 1.1,-2.41 1.1,-4.12l0 -26.47zm-5.04 -14.29c5.74,0 9.99,1.25 12.77,3.76 2.77,2.5 4.15,6.18 4.15,11.04l0 26.26c0,4.91 -1.41,8.6 -4.23,11.08 -2.82,2.48 -7.31,3.72 -13.49,3.72 -2.48,0 -4.77,-0.32 -6.89,-0.95 -2.11,-0.63 -3.96,-1.58 -5.54,-2.84 -1.58,-1.27 -2.82,-2.81 -3.72,-4.63 -0.9,-1.83 -1.35,-3.95 -1.35,-6.38l0 -26.26c0,-9.86 6.1,-14.8 18.3,-14.8zm-21 11.38l-10.21 0 0 43.82 -12.54 0 0 -43.82 -10.35 0 0 -10.87 33.1 0 0 10.87zm-53.81 14.87c2.96,0 4.99,-0.65 6.09,-1.97 1.09,-1.31 1.64,-3.35 1.64,-6.12 0,-2.67 -0.62,-4.6 -1.86,-5.76 -1.24,-1.17 -3.32,-1.75 -6.24,-1.75l-3.21 0 0 15.6 3.58 0zm1.31 -25.74c3.79,0 6.87,0.54 9.22,1.61 2.36,1.07 4.21,2.46 5.55,4.19 1.33,1.73 2.24,3.67 2.73,5.83 0.49,2.17 0.73,4.34 0.73,6.53 0,2.48 -0.3,4.9 -0.91,7.25 -0.61,2.36 -1.61,4.45 -2.99,6.28 -1.39,1.82 -3.19,3.29 -5.4,4.41 -2.21,1.12 -4.92,1.68 -8.13,1.68l-5.69 0 0 16.91 -12.25 0 0 -54.69 10.21 0 6.93 0zm-34.93 29.75l0 24.94 -12.91 0 0 -24.94 -12.9 -29.75 13.49 0 5.9 15.39 5.76 -15.39 13.57 0 -12.91 29.75zm-51.41 -5.98l3.57 0c0.93,0 1.85,-0.08 2.78,-0.25 0.92,-0.17 1.76,-0.51 2.51,-1.02 0.75,-0.51 1.36,-1.23 1.82,-2.15 0.47,-0.93 0.7,-2.14 0.7,-3.65 0,-1.36 -0.22,-2.47 -0.66,-3.32 -0.44,-0.85 -1.02,-1.52 -1.75,-2 -0.73,-0.49 -1.59,-0.82 -2.59,-0.99 -0.99,-0.17 -2.05,-0.25 -3.17,-0.25l-3.21 0 0 13.63zm3.87 12.11l-3.87 0 0 18.81 -12.25 0 0 -54.69 17.06 0c3.75,0 6.81,0.5 9.19,1.5 2.38,0.99 4.24,2.29 5.58,3.9 1.34,1.6 2.26,3.44 2.77,5.5 0.51,2.07 0.77,4.15 0.77,6.24 0,1.7 -0.16,3.36 -0.48,4.99 -0.31,1.63 -0.8,3.14 -1.45,4.52 -0.66,1.39 -1.48,2.64 -2.45,3.76 -0.97,1.12 -2.14,1.99 -3.5,2.63l11.6 21.65 -13.13 0 -9.84 -18.81zm-33.04 -16.63l0 -5.47c0,-1.11 -0.36,-2.16 -1.09,-3.13 -0.73,-0.97 -2.04,-1.46 -3.94,-1.46 -1.07,0 -1.97,0.15 -2.7,0.44 -0.73,0.29 -1.31,0.65 -1.75,1.09 -0.44,0.44 -0.74,0.94 -0.91,1.5 -0.17,0.55 -0.25,1.08 -0.25,1.56l0 25.82c0,1.75 0.46,3.24 1.38,4.48 0.93,1.24 2.33,1.86 4.23,1.86 1.95,0 3.27,-0.51 3.98,-1.53 0.7,-1.02 1.05,-2.41 1.05,-4.16l0 -4.66 11.89 0 0 4.96c0,4.91 -1.35,8.6 -4.05,11.08 -2.7,2.48 -7.13,3.72 -13.31,3.72 -2.48,0 -4.77,-0.32 -6.89,-0.95 -2.11,-0.63 -3.94,-1.58 -5.47,-2.84 -1.53,-1.27 -2.72,-2.81 -3.57,-4.63 -0.85,-1.83 -1.28,-3.95 -1.28,-6.38l0 -26.26c0,-4.91 1.45,-8.6 4.34,-11.08 2.9,-2.48 7.43,-3.72 13.6,-3.72 5.79,0 10.01,1.25 12.65,3.76 2.65,2.5 3.98,6.18 3.98,11.04l0 4.96 -11.89 0z"/>
   <rect class="fil4" x="98.33" y="79.13" width="324.6" height="11.86"/>
  </g>
 </g>
</svg>
