<svg width="189" height="80" fill="none" xmlns="http://www.w3.org/2000/svg"><defs/><path d="M2.358 77.6872C.851696 76.177.00401283 74.1322 0 71.9992c0-2.122.846-4.162 2.358-5.687.76756-.7334 1.67305-1.3072 2.664-1.688.99654-.3834 2.05854-.5679 3.126-.543 1.67335-.0402 3.3197.4265 4.723 1.339 1.3702.8953 2.392 2.2334 2.895 3.791H11.12c-.2582-.5353-.6696-.9819-1.182-1.283-.51768-.305-1.11272-.4534-1.713-.427-.57692-.0315-1.15403.0584-1.694.264-.53699.2037-1.02446.5193-1.43.926-.73242.9189-1.13181 2.0589-1.133 3.234 0 1.17.399 2.308 1.134 3.234.403.405.89.72 1.43.926.53966.2054 1.11641.2954 1.693.264.586.039 1.17-.088 1.684-.365.5105-.2741.931-.6898 1.211-1.197h4.571c-.5028 1.5579-1.5247 2.8963-2.895 3.792-1.4034.9121-3.04976 1.3785-4.723 1.338-1.05464.0151-2.10224-.174-3.085-.557-.97729-.3804-1.87048-.9488-2.629-1.673h-.001zm17.294 0c-1.5067-1.5101-2.3547-3.5549-2.359-5.688 0-2.122.846-4.162 2.359-5.687 1.5825-1.4433 3.6481-2.2418 5.79-2.238 2.15 0 4.221.8 5.79 2.238 1.5061 1.51 2.3537 3.5543 2.358 5.687-.0043 2.1331-.8523 4.1779-2.359 5.688-1.5741 1.4602-3.6429 2.2699-5.79 2.266-2.1471.0039-4.2159-.8058-5.79-2.266h.001zm8.837-2.454c.7326-.9185 1.1323-2.0581 1.134-3.233 0-1.17-.4-2.308-1.134-3.234-.8206-.7845-1.9127-1.2213-3.048-1.219-1.14 0-2.235.438-3.047 1.22-.7326.9185-1.1323 2.0581-1.134 3.233 0 1.171.399 2.309 1.134 3.234.8203.7842 1.9121 1.221 3.047 1.219 1.14 0 2.235-.438 3.048-1.219v-.001zm13.103-10.929c2.2786-.087 4.5071.6821 6.247 2.156.7667.7176 1.3792 1.5839 1.8 2.546.4172.9557.6326 1.9872.6326 3.03 0 1.0428-.2154 2.0743-.6326 3.03-.4208.9621-1.0333 1.8284-1.8 2.546-1.7361 1.4805-3.9673 2.2506-6.247 2.156h-5.561v-15.464h5.561zm-1.752 12.64h1.752c.648.0371 1.2966-.0634 1.903-.295.6026-.2293 1.1489-.5854 1.602-1.044.442-.4791.7842-1.0415 1.0065-1.6542.2223-.6128.3204-1.2637.2885-1.9148.0318-.6509-.0664-1.3016-.2887-1.9142-.2223-.6126-.5644-1.1748-1.0063-1.6538-.4531-.4587-.9994-.8147-1.602-1.044-.6065-.2313-1.255-.3315-1.903-.294H39.84v9.814zm22.473-12.714v2.9h-5.714v3.345h5.104v2.9H56.6v3.568h5.714v2.9h-9.599v-15.613h9.598zm7.237 9.516v6.022h-3.885v-15.464h6.247c1.5488-.08 3.0712.4242 4.266 1.413.486.418.874.933 1.137 1.51.263.578.395 1.204.387 1.836-.0184.9307-.3098 1.8355-.838 2.602-.6633.9123-1.6401 1.5475-2.743 1.784l3.885 6.32h-4.418l-3.58-6.023h-.458zm0-6.616v3.717h2.362c.253.01.505-.03.742-.12.236-.09.45-.226.63-.4.175-.178.312-.388.404-.617.091-.23.135-.475.128-.722.0067-.2465-.0369-.4918-.128-.721-.0923-.2307-.23-.4406-.405-.617-.1804-.1751-.3948-.3113-.63-.4-.2364-.0897-.4884-.1305-.741-.12H69.55zm16.608-.075c-.4378-.0237-.8699.1081-1.22.372-.159.138-.284.311-.363.505-.08.193-.111.402-.093.61-.0034.2071.0354.4128.1139.6044.0786.1917.1953.3654.3431.5106.32.31.712.539 1.143.67l1.523.445 1.676.52 1.524.744c.487.317.881.753 1.143 1.264.31.6.466 1.262.457 1.933-.006.6459-.1599 1.2818-.45 1.859-.2919.5814-.7109 1.0896-1.226 1.487-1.2259.9867-2.7713 1.4891-4.343 1.412-1.5481.0787-3.0777-.3662-4.342-1.263-.5463-.4201-.9844-.9645-1.278-1.588-.291-.6184-.4276-1.2982-.398-1.981h4.114c-.012.254.032.507.128.742.097.236.244.449.431.625.1899.1759.4143.3104.6589.3951.2446.0847.5041.1177.7621.0969.475.02.94-.14 1.296-.446.155-.142.277-.316.356-.508.079-.193.113-.4.1-.608.008-.2076-.0285-.4146-.1072-.6069-.0786-.1923-.1976-.3656-.3488-.5081-.3261-.3058-.7167-.5344-1.143-.669l-1.524-.446-1.676-.52-1.523-.744c-.49-.3082-.8855-.7456-1.143-1.264-.2482-.5866-.3528-1.2239-.305-1.859-.0237-.6714.116-1.3385.407-1.944.294-.6104.7294-1.1417 1.27-1.55 1.2019-.9133 2.6812-1.3857 4.19-1.338 1.4537-.066 2.8917.3238 4.113 1.115.5463.4201.9844.9645 1.278 1.588.292.62.428 1.299.398 1.98h-4.19c-.0279-.4696-.2161-.9154-.533-1.263-.1673-.1418-.3618-.2479-.5716-.3119s-.4304-.0844-.6484-.0601h.001zm13.103 6.691v6.022h-3.885v-15.464h6.247c1.549-.08 3.071.4242 4.266 1.413.486.418.874.933 1.137 1.51.263.578.395 1.204.387 1.836-.018.9307-.31 1.8355-.838 2.602-.663.9123-1.64 1.5475-2.743 1.784l3.885 6.32H103.3l-3.58-6.023h-.459zm0-6.616v3.717h2.362c.253.01.505-.03.742-.12.236-.09.45-.226.63-.4.175-.178.312-.388.404-.617.091-.23.135-.475.128-.722.007-.2465-.037-.4918-.128-.721-.092-.2307-.23-.4406-.405-.617-.18-.1751-.395-.3113-.63-.4-.236-.0897-.488-.1305-.741-.12H99.26h.001zm21.331 12.638l-.914-2.602h-5.714l-.914 2.602h-4.114l5.485-15.538h4.723l5.485 15.538h-4.037zm-5.638-5.501h3.733l-1.828-5.428-1.905 5.428zm22.018-10.037h3.885v15.538h-3.885l-6.476-9.813v9.813h-3.885v-15.538h3.885l6.476 9.814v-9.814zm11.121 15.538h-3.885v-15.464h3.885v6.766l5.257-6.766h5.104l-6.552 7.732 6.552 7.732h-4.952l-5.333-6.84-.076 6.84zm15.77-2.007c-.015.4633-.192.9067-.5 1.253-.312.3507-.734.5848-1.197.664-.465.0808-.944.0026-1.359-.222-.411-.2217-.732-.5785-.91-1.01-.175-.4271-.194-.9023-.054-1.342.141-.44.433-.82.827-1.076.396-.255.866-.3694 1.334-.3247.469.0446.909.2456 1.249.5707.201.194.359.426.464.682.105.256.154.53.146.805z" fill="#19223C"/><path d="M166.301 79.7682v-15.464h3.885v15.464h-3.885zm8.761-2.081c-1.506-1.5102-2.354-3.555-2.358-5.688 0-2.122.846-4.162 2.358-5.687 1.583-1.4433 3.648-2.2417 5.79-2.238 2.151 0 4.222.8 5.79 2.238 1.506 1.51 2.354 3.5544 2.358 5.687-.004 2.133-.852 4.1778-2.358 5.688-1.574 1.4602-3.643 2.2699-5.79 2.266-2.147.0039-4.216-.8058-5.79-2.266zm8.837-2.454c.733-.9185 1.132-2.0581 1.134-3.233 0-1.17-.399-2.308-1.134-3.234-.82-.7842-1.912-1.221-3.047-1.219-1.14 0-2.235.438-3.047 1.22-.733.9185-1.132 2.0582-1.134 3.233 0 1.171.399 2.309 1.134 3.234.82.7843 1.912 1.2211 3.047 1.219 1.14 0 2.235-.438 3.047-1.219v-.001z" fill="#67A4AC"/><path d="M97.13.0691475L56.785 24.8201c-1.901 1.12-2.83 2.376-2.784 3.766v3.767c.045 1.39.996 2.623 2.852 3.699l19.968 11.232c.1183.067.2495.108.3849.1203.1353.0123.2718-.0043.4002-.0487.1285-.0445.246-.1158.3447-.2091.0988-.0934.1766-.2067.2282-.3325l4.483-10.5599-9.509-5.2461c-.2724-.1375-.5025-.3462-.666-.604-.1222-.192-.2038-.4071-.2398-.6318-.036-.2248-.0257-.4546.0303-.6752.056-.2207.1565-.4275.2954-.6079s.3131-.3305.5121-.4411l17.455-10.425L97.741.540147c.0291-.080215.0318-.167642.0077-.249504-.0241-.081862-.0737-.153868-.1417-.2054955-.068-.052347-.1507-.08204754-.2364-.08491791-.0858-.00287037-.1703.02123411-.2416.06891791h.001z" fill="#19223C"/><path d="M131.1 13.5733L111.077 1.93725c-.116-.06885-.245-.11309-.379-.12996-.134-.01688-.27-.00604-.399.03185-.13.03789-.25.10202-.354.1884-.103.08638-.188.19316-.249.31371l-4.695 10.56005 9.528 5.447c.274.144.503.358.663.619.159.2593.243.5574.243.8615 0 .304-.084.6021-.243.8615-.16.26-.389.474-.663.618l-17.8829 10.088-7.595 16.95c-.0361.0393-.0638.0856-.0816.1359-.0178.0503-.0252.1037-.022.157.0033.0532.0172.1053.041.1531.0238.0478.057.0903.0975.125.0831.0716.1907.1083.3002.1021.1095-.0062.2124-.0546.2868-.1351l13.119-7.6 5.178 7.1289c.114.1661.268.302.449.396.18.093.382.1421.587.1421h12.428c.225 0 .446-.059.64-.171.193-.113.351-.275.458-.468.106-.1928.156-.4113.145-.631-.011-.2197-.083-.432-.208-.613l-8.423-12.376 17.054-9.887c1.933-1.12 2.9-2.376 2.9-3.766v-3.7c0-1.39-.967-2.645-2.9-3.766z" fill="#67A4AC"/></svg>