<svg width="258" height="39" fill="none" xmlns="http://www.w3.org/2000/svg"><defs/><path d="M71.3582 27.6877c-1.5063-1.5102-2.3539-3.555-2.358-5.688 0-2.122.846-4.162 2.358-5.687.7676-.7334 1.6731-1.3072 2.664-1.688.9966-.3834 2.0586-.5679 3.126-.543 1.6734-.0402 3.3198.4265 4.723 1.339 1.3703.8953 2.3921 2.2334 2.895 3.791h-4.646c-.2582-.5353-.6696-.9819-1.182-1.283-.5176-.305-1.1127-.4534-1.713-.427-.5769-.0315-1.154.0584-1.694.264-.5369.2037-1.0244.5193-1.43.926-.7324.9189-1.1318 2.0589-1.133 3.234 0 1.17.399 2.309 1.134 3.234.403.405.89.72 1.43.926.5397.2054 1.1165.2954 1.693.264.586.039 1.17-.087 1.684-.364.5106-.2744.9312-.6904 1.211-1.198h4.571c-.5028 1.5579-1.5246 2.8963-2.895 3.792-1.4033.9121-3.0497 1.3785-4.723 1.338-1.0546.0151-2.1022-.174-3.085-.557-.9772-.3804-1.8704-.9488-2.629-1.673h-.001zm17.294 0c-1.5066-1.5101-2.3547-3.5549-2.359-5.688 0-2.122.846-4.162 2.359-5.687 1.5826-1.4433 3.6482-2.2418 5.79-2.238 2.15 0 4.221.8 5.7898 2.238 1.506 1.5099 2.354 3.5543 2.358 5.687-.004 2.1331-.852 4.1779-2.359 5.688-1.5738 1.4602-3.6427 2.2699-5.7898 2.266-2.147.0039-4.2159-.8058-5.79-2.266h.001zm8.837-2.454c.7326-.9185 1.1323-2.0582 1.134-3.233 0-1.17-.4-2.308-1.134-3.234-.8205-.7845-1.9127-1.2213-3.048-1.219-1.14 0-2.234.438-3.047 1.22-.7325.9185-1.1323 2.0581-1.134 3.233 0 1.171.399 2.309 1.134 3.234.8204.7842 1.9121 1.221 3.047 1.219 1.14 0 2.235-.438 3.048-1.219v-.001zm13.1028-10.929c2.279-.087 4.507.6821 6.247 2.156.767.7176 1.379 1.5839 1.8 2.546.417.9557.633 1.9872.633 3.03 0 1.0428-.216 2.0743-.633 3.03-.421.9621-1.033 1.8284-1.8 2.546-1.736 1.4805-3.967 2.2506-6.247 2.156h-5.561v-15.464h5.561zm-1.752 12.64h1.752c.648.0371 1.297-.0634 1.903-.295.603-.2293 1.149-.5854 1.602-1.044.442-.4791.784-1.0415 1.007-1.6543.222-.6127.32-1.2636.288-1.9147.032-.6509-.066-1.3017-.288-1.9142-.223-.6126-.565-1.1748-1.007-1.6538-.453-.4587-.999-.8147-1.602-1.044-.606-.2313-1.255-.3315-1.903-.294h-1.752v9.814zm22.473-12.714v2.9h-5.714v3.345h5.104v2.9H125.6v3.568h5.714v2.9h-9.599v-15.613h9.598zm7.237 9.516v6.022h-3.885v-15.464h6.247c1.549-.0801 3.071.4242 4.266 1.413.486.418.874.933 1.137 1.51.263.578.395 1.204.387 1.836-.018.9307-.31 1.8354-.838 2.602-.663.9123-1.64 1.5475-2.743 1.784l3.885 6.32h-4.418l-3.58-6.023h-.458zm0-6.616v3.717h2.362c.253.01.505-.03.742-.12.236-.09.45-.226.63-.4.175-.178.312-.388.404-.617.091-.23.135-.475.128-.722.007-.2465-.037-.4918-.128-.721-.092-.2307-.23-.4406-.405-.617-.18-.1751-.395-.3113-.63-.4-.236-.0897-.488-.1305-.741-.12h-2.362zm16.608-.075c-.438-.0237-.87.1081-1.22.372-.159.138-.284.311-.363.505-.08.193-.111.402-.093.61-.003.2071.036.4128.114.6044.079.1917.195.3654.343.5106.32.31.712.539 1.143.67l1.523.445 1.676.52 1.524.744c.487.317.881.753 1.143 1.264.31.6.466 1.262.457 1.933-.006.6459-.16 1.2818-.45 1.859-.292.5814-.711 1.0896-1.226 1.487-1.226.9867-2.771 1.4891-4.343 1.412-1.548.0787-3.077-.3662-4.342-1.263-.546-.4201-.984-.9645-1.278-1.588-.291-.6184-.427-1.2982-.398-1.981h4.114c-.012.253.032.507.128.742.097.236.244.449.431.625.19.1759.414.3104.659.3951.245.0847.504.1177.762.0969.475.02.94-.14 1.296-.447.156-.1393.278-.312.357-.5051.079-.1931.113-.4016.1-.6099.008-.2077-.029-.4147-.107-.6071-.079-.1923-.198-.3655-.35-.5079-.326-.3058-.716-.5344-1.143-.669l-1.524-.446-1.676-.52-1.523-.744c-.49-.3082-.885-.7456-1.143-1.264-.248-.5866-.353-1.2239-.305-1.859-.023-.6714.116-1.3385.407-1.944.294-.6104.73-1.1417 1.27-1.55 1.202-.9133 2.681-1.3857 4.19-1.338 1.454-.066 2.892.3238 4.113 1.115.547.4201.985.9645 1.278 1.588.292.62.428 1.299.398 1.98h-4.19c-.028-.4696-.216-.9154-.533-1.263-.167-.1418-.362-.2479-.571-.3119-.21-.064-.431-.0844-.649-.0601h.001zm13.103 6.691v6.022h-3.885v-15.464h6.247c1.549-.0801 3.071.4242 4.266 1.413.486.418.874.933 1.137 1.51.263.578.395 1.204.387 1.836-.018.9307-.31 1.8354-.838 2.602-.663.9123-1.64 1.5475-2.743 1.784l3.885 6.32H172.3l-3.58-6.023h-.459zm0-6.616v3.717h2.362c.253.01.505-.03.742-.12.236-.09.45-.226.63-.4.175-.178.312-.388.404-.617.091-.23.135-.475.128-.722.007-.2465-.037-.4918-.128-.721-.092-.2307-.23-.4406-.405-.617-.18-.1751-.395-.3113-.63-.4-.236-.0897-.488-.1305-.741-.12h-2.362zm21.331 12.638l-.914-2.602h-5.714l-.914 2.602h-4.114l5.485-15.538h4.723l5.485 15.538h-4.037zm-5.638-5.501h3.733l-1.828-5.428-1.905 5.428zm22.018-10.037h3.885v15.538h-3.885l-6.476-9.813v9.813h-3.885v-15.538h3.885l6.476 9.814v-9.814zm11.121 15.538h-3.885v-15.464h3.885v6.766l5.257-6.766h5.104l-6.552 7.732 6.552 7.732h-4.952l-5.333-6.84-.076 6.84zm15.77-2.007c-.015.4633-.192.9067-.5 1.253-.312.3507-.734.5848-1.197.664-.465.0808-.944.0026-1.359-.222-.41-.2217-.732-.5785-.91-1.01-.175-.4271-.194-.9023-.054-1.342.141-.44.433-.82.827-1.076.396-.255.866-.3694 1.334-.3247.469.0446.909.2456 1.249.5707.201.194.359.426.464.682.105.256.154.53.146.805z" fill="#19223C"/><path d="M235.301 29.7686v-15.464h3.885v15.464h-3.885zm8.761-2.081c-1.506-1.5102-2.354-3.555-2.358-5.688 0-2.122.846-4.162 2.358-5.687 1.583-1.4433 3.648-2.2417 5.79-2.238 2.151 0 4.222.8 5.79 2.238 1.506 1.51 2.354 3.5543 2.358 5.687-.004 2.133-.851 4.1778-2.358 5.688-1.574 1.4602-3.643 2.2699-5.79 2.266-2.147.0039-4.216-.8058-5.79-2.266zm8.837-2.454c.733-.9185 1.133-2.0581 1.134-3.233 0-1.17-.399-2.308-1.134-3.234-.82-.7843-1.912-1.221-3.047-1.219-1.14 0-2.235.438-3.047 1.22-.732.9185-1.132 2.0581-1.134 3.233 0 1.171.399 2.309 1.134 3.234.821.7843 1.912 1.221 3.047 1.219 1.14 0 2.235-.438 3.047-1.219v-.001z" fill="#67A4AC"/><path d="M33.2502.0546214L2.14722 19.6346c-1.464997.886-2.1809966 1.878-2.14599661 2.977v2.98c.03500001 1.1.76799961 2.075 2.19999661 2.926l15.39298 8.885c.0914.0535.1934.0864.2989.0963.1054.0099.2117-.0034.3115-.039.0997-.0355.1905-.0924.266-.1668.0754-.0743.1336-.1642.1706-.2635l3.456-8.352-7.33-4.15c-.2113-.1096-.3889-.2744-.514-.477-.0937-.1522-.1561-.3216-.1836-.4982-.0276-.1766-.0196-.3569.0233-.5304.0429-.1736.1199-.3368.2266-.4802.1067-.1434.2409-.2642.3947-.3552l13.457-8.247L33.7202.427621c.0222-.063286.0242-.131904.0058-.196386-.0184-.064481-.0565-.121648-.1088-.1636136-.052-.0414489-.1159-.06508832-.1823-.06742911-.0665-.00234079-.1319.01674101-.1867.05442911h.002z" fill="#19223C"/><path d="M58.8002 10.9616l-15.182-9.20396c-.088-.05489-.1868-.09027-.2896-.10377-.1029-.01349-.2075-.00478-.3067.02554-.0992.03032-.1907.08156-.2685.15025-.0777.0687-.1398.15325-.1822.24798l-3.56 8.35196 7.225 4.31c.208.113.381.282.502.488.1213.2067.1852.442.1852.6815 0 .2396-.0639.4749-.1852.6815-.1199.2057-.2934.3751-.502.49l-13.561 7.98-5.76 13.407c-.0557.0637-.0843.1468-.0794.2314.0049.0845.0427.1637.1054.2206.0308.028.0668.0494.1059.0633.0392.0138.0807.0197.1221.0172.0415-.0024.082-.013.1193-.0313.0372-.0183.0705-.0439.0977-.0752l9.949-6.012 3.927 5.64c.0859.13.2024.2367.3393.3108.137.0742.29.1134.4457.1142h9.425c.1719.0006.3406-.0464.4874-.1357.1468-.0893.2661-.2174.3446-.3703.0808-.1532.119-.3253.1108-.4984-.0083-.173-.0628-.3407-.1578-.4856l-6.388-9.79 12.933-7.82c1.466-.887 2.199-1.88 2.199-2.98v-2.926c0-1.1-.733-2.092-2.2-2.979h-.001z" fill="#67A4AC"/></svg>