<svg xmlns="http://www.w3.org/2000/svg" width="860" height="200"><defs/><g fill="none" fill-rule="evenodd"><circle cx="100" cy="100" r="100" fill="#FF4F61"/><path fill="#000" fill-rule="nonzero" d="M72.9446408 131.453401v-18.381192l-25.8896485-11.028716v-.773945l25.8896485-10.4966279V71.8596405L23.0215827 96.4807641v10.8352289l49.9230581 24.137408zm23.7891676 12.431491l24.1311066-84.8920862h-17.878512L78.8552964 143.884892h17.878512zm29.6021266-12.431491l49.923058-24.137408V96.4807641l-49.923058-24.6211236v18.9132796l25.889648 10.4966279v.773945l-25.889648 11.028716v18.381192zM245.210938 85c16.914062 0 26.875-10.5078125 26.875-28.3984375s-9.960938-27.96875-26.875-27.96875H223.6875V85h21.523438zm-1.40625-9.765625h-8.320313v-36.875h8.320313c10.390624 0 16.25 6.484375 16.25 18.28125 0 12.1875-5.703126 18.59375-16.25 18.59375zm57.023437 10.6640625c10.351563 0 17.851563-5.5078125 19.101563-13.7109375h-10.46875c-1.054688 3.203125-4.257813 5.2734375-8.4375 5.2734375-5.820313 0-9.609376-4.1015625-9.609376-10.078125v-.703125h28.867188V63.203125c0-12.734375-7.695312-20.9765625-19.882812-20.9765625-12.382813 0-20.195313 8.671875-20.195313 22.03125 0 13.3984375 7.734375 21.640625 20.625 21.640625zM309.304688 59.6875H291.53125c.390625-5.234375 3.984375-9.0234375 8.984375-9.0234375 5.078125 0 8.554687 3.671875 8.789063 9.0234375zM352.460938 85l14.375-41.875h-11.914063L346.25 74.921875h-.234375L337.304688 43.125h-12.226563L339.570312 85h12.890626zm39.25.8984375c10.351562 0 17.851562-5.5078125 19.101562-13.7109375h-10.46875c-1.054688 3.203125-4.257812 5.2734375-8.4375 5.2734375-5.820312 0-9.609375-4.1015625-9.609375-10.078125v-.703125h28.867187V63.203125c0-12.734375-7.695312-20.9765625-19.882812-20.9765625-12.382812 0-20.195312 8.671875-20.195312 22.03125 0 13.3984375 7.734374 21.640625 20.625 21.640625zM400.1875 59.6875h-17.773438c.390626-5.234375 3.984376-9.0234375 8.984376-9.0234375 5.078124 0 8.554687 3.671875 8.789062 9.0234375zM431.703125 85V28.6328125h-11.40625V85h11.40625zm29.914063.8984375c12.65625 0 20.742187-8.0859375 20.742187-21.875 0-13.59375-8.203125-21.796875-20.742187-21.796875-12.539063 0-20.742188 8.2421875-20.742188 21.796875 0 13.75 8.085938 21.875 20.742188 21.875zm0-8.7109375c-5.625 0-9.179688-4.7265625-9.179688-13.125 0-8.3203125 3.632812-13.125 9.179688-13.125 5.546874 0 9.140624 4.8046875 9.140624 13.125 0 8.3984375-3.554687 13.125-9.140624 13.125zM502.625 98.671875V77.96875h.234375c2.226563 4.7265625 6.914063 7.6953125 13.007813 7.6953125 10.46875 0 16.953124-8.125 16.953124-21.6015625 0-13.515625-6.523437-21.6015625-17.148437-21.6015625-6.054687 0-10.703125 3.046875-12.96875 7.96875h-.234375V43.125h-11.25v55.546875H502.625zm9.21875-22.1875c-5.585938 0-9.257812-4.84375-9.257812-12.421875 0-7.5 3.671874-12.4609375 9.257812-12.4609375 5.703125 0 9.296875 4.8828125 9.296875 12.4609375 0 7.6171875-3.59375 12.421875-9.296875 12.421875zm48.9375 9.4140625c10.351562 0 17.851562-5.5078125 19.101562-13.7109375h-10.46875c-1.054687 3.203125-4.257812 5.2734375-8.4375 5.2734375-5.820312 0-9.609374-4.1015625-9.609374-10.078125v-.703125h28.867187V63.203125c0-12.734375-7.695313-20.9765625-19.882813-20.9765625-12.382812 0-20.195312 8.671875-20.195312 22.03125 0 13.3984375 7.734375 21.640625 20.625 21.640625zM569.257812 59.6875h-17.773437c.390625-5.234375 3.984375-9.0234375 8.984375-9.0234375 5.078125 0 8.554688 3.671875 8.789062 9.0234375zM600.5 85V61.6015625c0-5.8984375 3.28125-9.3359375 8.90625-9.3359375 1.640625 0 3.203125.2734375 4.140625.6640625V42.890625c-.78125-.234375-1.914063-.4296875-3.242187-.4296875-4.921876 0-8.476563 2.890625-9.960938 8.203125h-.234375V43.125H589.09375V85H600.5zm37.921875.8984375c10.78125 0 18.320313-5.4296875 18.320313-13.671875 0-6.1328125-3.59375-9.5703125-12.34375-11.40625L637.25 59.296875c-4.21875-.8984375-5.78125-2.34375-5.78125-4.4921875 0-2.7734375 2.617188-4.5703125 6.5625-4.5703125 4.21875 0 6.757812 2.3046875 7.109375 5.703125h10.507813c-.234376-8.203125-6.875-13.7109375-17.617188-13.7109375-10.664062 0-17.539062 5.234375-17.539062 13.203125 0 6.2890625 4.101562 10.3515625 12.1875 12.0703125l7.148437 1.484375c4.101563.9375 5.546875 2.1875 5.546875 4.4140625 0 2.734375-2.65625 4.4921875-6.953125 4.4921875-4.53125 0-7.148437-1.953125-7.851563-5.625H619.4375c.742188 8.2421875 7.421875 13.6328125 18.984375 13.6328125zM260.132812 165v-9.765625h-24.648437v-46.601563H223.6875V165h36.445312zm27.53125.898438c10.351563 0 17.851563-5.507813 19.101563-13.710938h-10.46875c-1.054687 3.203125-4.257813 5.273438-8.4375 5.273438-5.820313 0-9.609375-4.101563-9.609375-10.078126v-.703124h28.867188v-3.476563c0-12.734375-7.695313-20.976563-19.882813-20.976563-12.382813 0-20.195313 8.671876-20.195313 22.03125 0 13.398438 7.734376 21.640626 20.625 21.640626zm8.476563-26.210938h-17.773437c.390624-5.234375 3.984374-9.023438 8.984374-9.023438 5.078126 0 8.554688 3.671876 8.789063 9.023438zm32.257813 25.976562c5.234374 0 10.429687-2.617187 12.773437-7.070312h.234375V165h11.015625v-28.789062c0-8.4375-6.992187-13.984376-17.734375-13.984376-11.09375 0-18.007812 5.585938-18.4375 13.710938h10.429688c.546874-3.085938 3.242187-5.195312 7.5-5.195312 4.296874 0 7.03125 2.265624 7.03125 6.171874v2.773438l-10.546876.625c-10.429687.625-16.289062 5.039062-16.289062 12.65625 0 7.539062 6.054688 12.695312 14.023438 12.695312zm3.75-8.242187c-3.867188 0-6.445313-1.953125-6.445313-5.078125 0-2.96875 2.421875-4.882812 6.679687-5.195312l8.828126-.546876v3.046876c0 4.53125-4.101563 7.773437-9.0625 7.773437zm46.164062 8.242187c6.171875 0 11.015625-3.242187 13.046875-7.851562h.195313V165h11.25v-56.367188h-11.40625V130.3125h-.234376c-2.03125-4.648438-6.71875-7.851562-12.773437-7.851562-10.507813 0-17.148437 8.242187-17.148437 21.523437 0 13.398437 6.601562 21.679687 17.070312 21.679687zm3.867188-9.179687c-5.742188 0-9.257813-4.726563-9.257813-12.421875 0-7.65625 3.515625-12.460938 9.257813-12.460938 5.664062 0 9.296874 4.84375 9.296874 12.460938 0 7.65625-3.632812 12.421875-9.296874 12.421875zm50.34375 9.414063c10.351562 0 17.851562-5.507813 19.101562-13.710938h-10.46875c-1.054688 3.203125-4.257812 5.273438-8.4375 5.273438-5.820312 0-9.609375-4.101563-9.609375-10.078126v-.703124h28.867187v-3.476563c0-12.734375-7.695312-20.976563-19.882812-20.976563-12.382812 0-20.195312 8.671876-20.195312 22.03125 0 13.398438 7.734374 21.640626 20.625 21.640626zM441 139.6875h-17.773438c.390626-5.234375 3.984376-9.023438 8.984376-9.023438 5.078124 0 8.554687 3.671876 8.789062 9.023438zM472.242188 165v-23.398438c0-5.898437 3.28125-9.335937 8.90625-9.335937 1.640624 0 3.203124.273437 4.140624.664063v-10.039063c-.78125-.234375-1.914062-.429687-3.242187-.429687-4.921875 0-8.476563 2.890624-9.960937 8.203124h-.234376V123.125h-11.015624V165h11.40625zm45.578124.664062c10.546876 0 16.992188-8.125 16.992188-21.601562 0-13.515625-6.484375-21.601562-17.03125-21.601562-5.976562 0-10.625 2.96875-12.929688 7.929687h-.234374v-21.757813h-11.40625V165h11.25v-7.1875h.234374c2.304688 4.882812 6.992188 7.851562 13.125 7.851562zm-3.945312-9.179687c-5.546875 0-9.296875-4.84375-9.296875-12.421875 0-7.5 3.789063-12.460938 9.296875-12.460938 5.664062 0 9.257812 4.84375 9.257812 12.460938 0 7.65625-3.554687 12.421875-9.257812 12.421875zm49.054688 9.414063c12.65625 0 20.742187-8.085938 20.742187-21.875 0-13.59375-8.203125-21.796876-20.742187-21.796876-12.539063 0-20.742188 8.242188-20.742188 21.796876 0 13.75 8.085938 21.875 20.742188 21.875zm0-8.710938c-5.625 0-9.179688-4.726562-9.179688-13.125 0-8.320312 3.632812-13.125 9.179688-13.125 5.546874 0 9.140624 4.804688 9.140624 13.125 0 8.398438-3.554687 13.125-9.140624 13.125zm42.023437 8.476562c5.234375 0 10.429687-2.617187 12.773437-7.070312h.234376V165h11.015624v-28.789062c0-8.4375-6.992187-13.984376-17.734374-13.984376-11.09375 0-18.007813 5.585938-18.4375 13.710938h10.429687c.546875-3.085938 3.242187-5.195312 7.5-5.195312 4.296875 0 7.03125 2.265624 7.03125 6.171874v2.773438l-10.546875.625c-10.429688.625-16.289062 5.039062-16.289062 12.65625 0 7.539062 6.054687 12.695312 14.023437 12.695312zm3.75-8.242187c-3.867187 0-6.445313-1.953125-6.445313-5.078125 0-2.96875 2.421876-4.882812 6.679688-5.195312l8.828125-.546876v3.046876c0 4.53125-4.101563 7.773437-9.0625 7.773437zM650.726562 165v-23.398438c0-5.898437 3.28125-9.335937 8.90625-9.335937 1.640626 0 3.203126.273437 4.140626.664063v-10.039063c-.78125-.234375-1.914063-.429687-3.242188-.429687-4.921875 0-8.476562 2.890624-9.960938 8.203124h-.234374V123.125h-11.015626V165h11.40625zm34.875.664062c6.171876 0 11.015626-3.242187 13.046876-7.851562h.195312V165h11.25v-56.367188H698.6875V130.3125h-.234375c-2.03125-4.648438-6.71875-7.851562-12.773437-7.851562-10.507813 0-17.148438 8.242187-17.148438 21.523437 0 13.398437 6.601562 21.679687 17.070312 21.679687zm3.867188-9.179687c-5.742188 0-9.257812-4.726563-9.257812-12.421875 0-7.65625 3.515624-12.460938 9.257812-12.460938 5.664062 0 9.296875 4.84375 9.296875 12.460938 0 7.65625-3.632813 12.421875-9.296875 12.421875z"/></g></svg>