<svg width="143" height="40" fill="none" xmlns="http://www.w3.org/2000/svg"><rect x="5" y="4" width="138" height="33" rx="16.5" fill="#28292B"/><path fill="#FF3C3C" d="M113 11h1v18h-1z"/><path fill-rule="evenodd" clip-rule="evenodd" d="M120.12 23c.133 0 .227-.028.28-.085a.514.514 0 00.11-.165l.43-1.11h3.16l.43 1.11a.52.52 0 00.11.165c.053.057.147.085.28.085h.72a.26.26 0 00.19-.08.26.26 0 00.07-.26l-2.45-6.32a.728.728 0 00-.14-.255c-.053-.057-.133-.085-.24-.085h-1.1c-.107 0-.187.028-.24.085a.728.728 0 00-.14.255l-2.45 6.32a.26.26 0 00.07.26.26.26 0 00.19.08h.72zm1.3-2.61l1.1-2.85 1.1 2.85h-2.2zm8.18 2.53a.26.26 0 01-.19.08h-.81a.26.26 0 01-.19-.08.26.26 0 01-.08-.19v-5.48h-1.8a.26.26 0 01-.19-.08.26.26 0 01-.08-.19v-.71a.26.26 0 01.08-.19.26.26 0 01.19-.08h4.95a.26.26 0 01.19.08.26.26 0 01.08.19v.71a.26.26 0 01-.08.19.26.26 0 01-.19.08h-1.8v5.48a.26.26 0 01-.08.19z" fill="#fff"/><path fill-rule="evenodd" clip-rule="evenodd" d="M50.42 29.1c.5 0 .925-.077 1.275-.23a2.68 2.68 0 00.86-.575c.223-.23.388-.475.495-.735.107-.26.163-.5.17-.72a.212.212 0 00-.065-.155.212.212 0 00-.155-.065h-.46a.28.28 0 00-.16.055.243.243 0 00-.1.165c-.04.167-.098.332-.175.495a1.336 1.336 0 01-.33.435 1.68 1.68 0 01-.545.31c-.22.08-.49.12-.81.12-.593 0-1.048-.172-1.365-.515-.317-.343-.485-.792-.505-1.345-.013-.3-.02-.58-.02-.84s.007-.54.02-.84c.02-.553.188-1.002.505-1.345.317-.343.772-.515 1.365-.515.32 0 .59.04.81.12.22.08.402.183.545.31.143.127.253.272.33.435.077.163.135.328.175.495a.243.243 0 00.1.165.28.28 0 00.16.055H53c.06 0 .112-.022.155-.065a.212.212 0 00.065-.155 2.08 2.08 0 00-.17-.72 2.325 2.325 0 00-.495-.735 2.68 2.68 0 00-.86-.575c-.35-.153-.775-.23-1.275-.23-.433 0-.82.068-1.16.205-.34.137-.632.325-.875.565a2.49 2.49 0 00-.565.86 3.178 3.178 0 00-.22 1.08 26.41 26.41 0 000 1.78c.013.393.087.755.22 1.085a2.5 2.5 0 00.565.855c.243.24.535.428.875.565.34.137.727.205 1.16.205zm6.94-.1c.133 0 .227-.028.28-.085a.51.51 0 00.11-.165l.52-1.33h3.47l.52 1.33a.52.52 0 00.11.165c.053.057.147.085.28.085h.37c.06 0 .112-.022.155-.065a.212.212 0 00.065-.155.38.38 0 00-.04-.14l-2.44-6.31a.864.864 0 00-.15-.22c-.067-.073-.167-.11-.3-.11h-.6c-.133 0-.233.037-.3.11a.86.86 0 00-.15.22l-2.45 6.31a.378.378 0 00-.04.14c0 .06.022.112.065.155a.212.212 0 00.155.065h.37zm1.26-2.48h2.77l-1.38-3.57-1.39 3.57zm10.77 2.58c.407 0 .775-.05 1.105-.15.33-.1.612-.24.845-.42.233-.18.415-.395.545-.645.13-.25.195-.525.195-.825a1.82 1.82 0 00-.115-.665 1.358 1.358 0 00-.365-.52 2.522 2.522 0 00-.645-.405 6.095 6.095 0 00-.965-.33c-.373-.1-.69-.19-.95-.27a3.252 3.252 0 01-.645-.265 1.03 1.03 0 01-.37-.325.8.8 0 01-.115-.44.85.85 0 01.12-.455c.08-.13.187-.238.32-.325.133-.087.285-.152.455-.195a2.16 2.16 0 01.535-.065 1.847 1.847 0 011.125.355c.13.097.233.197.31.3.077.103.132.188.165.255a.443.443 0 00.135.18c.043.027.102.04.175.04h.41a.23.23 0 00.16-.065.176.176 0 00.06-.155 1.33 1.33 0 00-.18-.565 2.069 2.069 0 00-.495-.59 2.825 2.825 0 00-1.865-.655c-.4 0-.748.055-1.045.165-.297.11-.543.255-.74.435a1.81 1.81 0 00-.595 1.34c0 .227.032.437.095.63s.168.37.315.53c.147.16.337.302.57.425.233.123.517.228.85.315.367.093.695.182.985.265.29.083.535.175.735.275.2.1.353.212.46.335.107.123.16.272.16.445s-.047.33-.14.47c-.093.14-.22.26-.38.36-.16.1-.345.177-.555.23a2.71 2.71 0 01-.665.08c-.273 0-.51-.033-.71-.1-.2-.067-.37-.148-.51-.245a1.444 1.444 0 01-.52-.615c-.04-.093-.085-.153-.135-.18a.366.366 0 00-.175-.04h-.41a.212.212 0 00-.155.065.211.211 0 00-.065.155c.007.213.078.43.215.65.137.22.322.42.555.6.233.18.513.327.84.44.327.113.683.17 1.07.17zm7.85-.18a.26.26 0 01-.19.08h-.41a.26.26 0 01-.19-.08.26.26 0 01-.08-.19v-6.46a.26.26 0 01.08-.19.26.26 0 01.19-.08h.41a.26.26 0 01.19.08.26.26 0 01.08.19v6.46a.26.26 0 01-.08.19zm5.48.08a.26.26 0 00.19-.08.26.26 0 00.08-.19v-4.92l3.25 4.89c.047.073.102.142.165.205a.32.32 0 00.235.095h.35a.26.26 0 00.19-.08.26.26 0 00.08-.19v-6.46a.26.26 0 00-.08-.19.26.26 0 00-.19-.08h-.41a.26.26 0 00-.19.08.26.26 0 00-.08.19v4.92l-3.25-4.89a1.206 1.206 0 00-.165-.205.32.32 0 00-.235-.095h-.35a.26.26 0 00-.19.08.26.26 0 00-.08.19v6.46a.26.26 0 00.08.19.26.26 0 00.19.08h.41zm12.925-.11c-.337.14-.725.21-1.165.21-.44 0-.828-.07-1.165-.21a2.458 2.458 0 01-1.39-1.445 3.33 3.33 0 01-.205-1.055 26.41 26.41 0 010-1.78 3.17 3.17 0 01.195-1.055 2.48 2.48 0 01.535-.86c.233-.243.52-.437.86-.58a2.99 2.99 0 011.17-.215c.44 0 .83.072 1.17.215.34.143.627.337.86.58.233.243.412.53.535.86.123.33.188.682.195 1.055.02.593.02 1.187 0 1.78a3.336 3.336 0 01-.205 1.055 2.46 2.46 0 01-1.39 1.445zm-1.165-.69a2.13 2.13 0 01-.715-.115 1.557 1.557 0 01-.565-.345 1.626 1.626 0 01-.38-.58 2.333 2.333 0 01-.15-.82c-.013-.3-.02-.58-.02-.84s.007-.54.02-.84c.007-.313.057-.587.15-.82.093-.233.22-.427.38-.58.16-.153.348-.268.565-.345a2.13 2.13 0 01.715-.115c.26 0 .498.038.715.115.217.077.405.192.565.345.16.153.285.347.375.58.09.233.142.507.155.82.013.3.02.58.02.84s-.007.54-.02.84a2.584 2.584 0 01-.155.82c-.09.233-.215.427-.375.58-.16.153-.348.268-.565.345a2.13 2.13 0 01-.715.115zm10.525.75c-.33.1-.698.15-1.105.15-.387 0-.743-.057-1.07-.17a2.933 2.933 0 01-.84-.44 2.297 2.297 0 01-.555-.6 1.307 1.307 0 01-.215-.65c0-.06.022-.112.065-.155a.211.211 0 01.155-.065h.41c.067 0 .125.013.175.04.05.027.095.087.135.18a1.437 1.437 0 00.52.615c.14.097.31.178.51.245s.437.1.71.1c.233 0 .455-.027.665-.08.21-.053.395-.13.555-.23.16-.1.287-.22.38-.36a.831.831 0 00.14-.47.656.656 0 00-.16-.445 1.471 1.471 0 00-.46-.335 4.31 4.31 0 00-.735-.275 33.41 33.41 0 00-.985-.265 3.961 3.961 0 01-.85-.315 2.095 2.095 0 01-.57-.425 1.436 1.436 0 01-.315-.53 2.022 2.022 0 01-.095-.63 1.81 1.81 0 01.595-1.34c.197-.18.443-.325.74-.435.297-.11.645-.165 1.045-.165a2.824 2.824 0 011.865.655c.217.183.382.38.495.59.113.21.173.398.18.565a.174.174 0 01-.06.155.23.23 0 01-.16.065h-.41a.331.331 0 01-.175-.04.45.45 0 01-.135-.18 1.773 1.773 0 00-.165-.255 1.494 1.494 0 00-.31-.3 1.846 1.846 0 00-1.125-.355c-.187 0-.365.022-.535.065-.17.043-.322.108-.455.195a1.03 1.03 0 00-.32.325.85.85 0 00-.12.455c0 .173.038.32.115.44.077.12.2.228.37.325.17.097.385.185.645.265.26.08.577.17.95.27.38.1.702.21.965.33.263.12.478.255.645.405.167.15.288.323.365.52.077.197.115.418.115.665 0 .3-.065.575-.195.825s-.312.465-.545.645c-.233.18-.515.32-.845.42zM50.36 18.1c.44 0 .828-.07 1.165-.21a2.46 2.46 0 001.39-1.445c.123-.33.192-.682.205-1.055.02-.593.02-1.187 0-1.78a3.154 3.154 0 00-.195-1.055 2.484 2.484 0 00-.535-.86 2.542 2.542 0 00-.86-.58 2.99 2.99 0 00-1.17-.215c-.44 0-.83.072-1.17.215-.34.143-.627.337-.86.58a2.48 2.48 0 00-.535.86 3.17 3.17 0 00-.195 1.055 26.41 26.41 0 000 1.78c.013.373.082.725.205 1.055a2.458 2.458 0 001.39 1.445c.337.14.725.21 1.165.21zm0-.9a2.13 2.13 0 01-.715-.115 1.557 1.557 0 01-.565-.345 1.626 1.626 0 01-.38-.58 2.333 2.333 0 01-.15-.82c-.013-.3-.02-.58-.02-.84s.007-.54.02-.84c.007-.313.057-.587.15-.82.093-.233.22-.427.38-.58.16-.153.348-.268.565-.345a2.13 2.13 0 01.715-.115c.26 0 .498.038.715.115.217.077.405.192.565.345.16.153.285.347.375.58.09.233.142.507.155.82.013.3.02.58.02.84s-.007.54-.02.84a2.584 2.584 0 01-.155.82c-.09.233-.215.427-.375.58-.16.153-.348.268-.565.345a2.13 2.13 0 01-.715.115zm10.09.72a.26.26 0 01-.19.08h-.41a.26.26 0 01-.19-.08.26.26 0 01-.08-.19v-6.46a.26.26 0 01.08-.19.26.26 0 01.19-.08h.35a.32.32 0 01.235.095c.063.063.118.132.165.205l3.25 4.89v-4.92a.26.26 0 01.08-.19.26.26 0 01.19-.08h.41a.26.26 0 01.19.08.26.26 0 01.08.19v6.46a.26.26 0 01-.08.19.26.26 0 01-.19.08h-.35a.32.32 0 01-.235-.095 1.196 1.196 0 01-.165-.205l-3.25-4.89v4.92a.26.26 0 01-.08.19zm15.41.08a.26.26 0 00.19-.08.26.26 0 00.08-.19v-.36a.26.26 0 00-.08-.19.26.26 0 00-.19-.08h-3.39v-5.83a.26.26 0 00-.08-.19.26.26 0 00-.19-.08h-.41a.26.26 0 00-.19.08.26.26 0 00-.08.19v6.46a.26.26 0 00.08.19.26.26 0 00.19.08h4.07zm7.19-.08a.26.26 0 01-.19.08h-.41a.26.26 0 01-.19-.08.26.26 0 01-.08-.19v-6.46a.26.26 0 01.08-.19.26.26 0 01.19-.08h.41a.26.26 0 01.19.08.26.26 0 01.08.19v6.46a.26.26 0 01-.08.19zm7.48.08a.26.26 0 00.19-.08.26.26 0 00.08-.19v-4.92l3.25 4.89c.047.073.102.142.165.205a.32.32 0 00.235.095h.35a.26.26 0 00.19-.08.26.26 0 00.08-.19v-6.46a.26.26 0 00-.08-.19.26.26 0 00-.19-.08h-.41a.26.26 0 00-.19.08.26.26 0 00-.08.19v4.92l-3.25-4.89a1.206 1.206 0 00-.165-.205.32.32 0 00-.235-.095h-.35a.26.26 0 00-.19.08.26.26 0 00-.08.19v6.46a.26.26 0 00.08.19.26.26 0 00.19.08h.41zm15.76-.08a.26.26 0 01-.19.08h-4.04a.26.26 0 01-.19-.08.26.26 0 01-.08-.19v-6.46a.26.26 0 01.08-.19.26.26 0 01.19-.08h3.96a.26.26 0 01.19.08.26.26 0 01.08.19v.36a.26.26 0 01-.08.19.26.26 0 01-.19.08h-3.28v2.11h3.06a.26.26 0 01.19.08.26.26 0 01.08.19v.36a.26.26 0 01-.08.19.26.26 0 01-.19.08h-3.06v2.19h3.36a.26.26 0 01.19.08.26.26 0 01.08.19v.36a.26.26 0 01-.08.19z" fill="#7E7F88"/><circle cx="20" cy="20" r="20" fill="#F1F1F1"/><path d="M20 0c-.405 0-.808.014-1.207.037C29.276.662 37.586 9.36 37.586 20s-8.31 19.338-18.793 19.963c.4.023.802.037 1.207.037 11.046 0 20-8.954 20-20S31.046 0 20 0z" fill="#DFDFDF"/><path d="M36.127 8.171a20.117 20.117 0 00-4.298-4.298l-8.79 8.789V.23a20.16 20.16 0 00-6.079 0v12.432l-8.789-8.79a20.116 20.116 0 00-4.298 4.3l8.789 8.788H.23a20.158 20.158 0 000 6.08h12.432l-8.79 8.789a20.115 20.115 0 004.3 4.298l8.788-8.789V39.77a20.147 20.147 0 006.08 0V27.338l8.789 8.79a20.116 20.116 0 004.298-4.3l-8.789-8.788H39.77a20.144 20.144 0 000-6.08H27.338l8.79-8.789z" fill="#9CE516"/><path d="M18.793.037c1.464.088 2.885.332 4.247.718V.23a20.16 20.16 0 00-4.247-.193zm0 39.926a20.16 20.16 0 004.247-.192v-.526c-1.362.386-2.783.63-4.247.718zM31.83 3.873l-1.076 1.075a20.095 20.095 0 013.928 4.669l1.446-1.446a20.115 20.115 0 00-4.299-4.298zm7.94 13.087h-2.415a20.158 20.158 0 010 6.08h2.416a20.157 20.157 0 000-6.08zm-3.642 14.869l-1.446-1.446a20.098 20.098 0 01-3.928 4.669l1.075 1.075a20.12 20.12 0 004.299-4.298z" fill="#83BD17"/><circle cx="20" cy="20" r="14.97" fill="#DFDFDF"/><path fill-rule="evenodd" clip-rule="evenodd" d="M7.928 20c0-6.657 5.415-12.072 12.072-12.072 6.657 0 12.073 5.415 12.073 12.072 0 6.657-5.416 12.072-12.073 12.072S7.928 26.657 7.928 20zM9 20c0 6.066 4.935 11 11 11 6.066 0 11-4.934 11-11S26.066 9 20 9C13.935 9 9 13.934 9 20z" fill="#B8BCC0"/><path fill-rule="evenodd" clip-rule="evenodd" d="M14.045 23.1c.44 0 .828-.07 1.165-.21a2.458 2.458 0 001.39-1.445 3.33 3.33 0 00.205-1.055c.02-.593.02-1.187 0-1.78a3.149 3.149 0 00-.195-1.055 2.48 2.48 0 00-.535-.86 2.541 2.541 0 00-.86-.58 2.99 2.99 0 00-1.17-.215c-.44 0-.83.072-1.17.215-.34.143-.627.337-.86.58a2.48 2.48 0 00-.535.86 3.17 3.17 0 00-.195 1.055 26.41 26.41 0 000 1.78c.013.373.082.725.205 1.055a2.46 2.46 0 001.39 1.445c.337.14.725.21 1.165.21zm0-.9a2.13 2.13 0 01-.715-.115 1.557 1.557 0 01-.565-.345 1.627 1.627 0 01-.38-.58 2.337 2.337 0 01-.15-.82c-.013-.3-.02-.58-.02-.84s.007-.54.02-.84c.007-.313.057-.587.15-.82.093-.233.22-.427.38-.58.16-.153.348-.268.565-.345a2.13 2.13 0 01.715-.115c.26 0 .498.038.715.115.217.077.405.192.565.345.16.153.285.347.375.58.09.233.142.507.155.82.013.3.02.58.02.84s-.007.54-.02.84a2.581 2.581 0 01-.155.82c-.09.233-.215.427-.375.58-.16.153-.348.268-.565.345a2.13 2.13 0 01-.715.115zm7.555.67c-.35.153-.775.23-1.275.23-.433 0-.82-.068-1.16-.205a2.504 2.504 0 01-1.44-1.42 3.163 3.163 0 01-.22-1.085 26.41 26.41 0 010-1.78c.013-.387.087-.747.22-1.08a2.493 2.493 0 011.44-1.425c.34-.137.727-.205 1.16-.205.5 0 .925.077 1.275.23.35.153.637.345.86.575.223.23.388.475.495.735.107.26.163.5.17.72 0 .06-.022.112-.065.155a.212.212 0 01-.155.065h-.46a.28.28 0 01-.16-.055.243.243 0 01-.1-.165 2.578 2.578 0 00-.175-.495 1.333 1.333 0 00-.33-.435 1.68 1.68 0 00-.545-.31c-.22-.08-.49-.12-.81-.12-.593 0-1.048.172-1.365.515-.317.343-.485.792-.505 1.345-.013.3-.02.58-.02.84s.007.54.02.84c.02.553.188 1.002.505 1.345.317.343.772.515 1.365.515.32 0 .59-.04.81-.12.22-.08.402-.183.545-.31a1.35 1.35 0 00.33-.435c.077-.163.135-.328.175-.495a.243.243 0 01.1-.165.28.28 0 01.16-.055h.46c.06 0 .112.022.155.065a.211.211 0 01.065.155c-.007.22-.063.46-.17.72-.107.26-.272.505-.495.735a2.67 2.67 0 01-.86.575zm2.165.13c.133 0 .227-.028.28-.085a.508.508 0 00.11-.165l.52-1.33h3.47l.52 1.33a.51.51 0 00.11.165c.053.057.147.085.28.085h.37c.06 0 .112-.022.155-.065a.211.211 0 00.065-.155.378.378 0 00-.04-.14l-2.44-6.31a.86.86 0 00-.15-.22c-.067-.073-.167-.11-.3-.11h-.6c-.133 0-.233.037-.3.11a.864.864 0 00-.15.22l-2.45 6.31a.38.38 0 00-.04.14c0 .06.022.112.065.155a.212.212 0 00.155.065h.37zm1.26-2.48h2.77l-1.38-3.57-1.39 3.57z" fill="#73777B"/></svg>