<svg width="290" height="90" viewBox="0 0 290 90" fill="none" xmlns="http://www.w3.org/2000/svg">
<g filter="url(#filter0_dii_1518_375)">
<path d="M14 21C14 15.4772 18.4772 11 24 11H266C271.523 11 276 15.4772 276 21V63C276 68.5228 271.523 73 266 73H24C18.4772 73 14 68.5228 14 63V21Z" fill="#F43695"/>
</g>
<path d="M41 31.0054H45.1407V52.9904H41V31.0054Z" fill="white"/>
<path d="M61.4067 30.4468H65.4816V52.9576H61.4067V51.2488C60.618 52.0046 59.7964 52.5633 59.0077 52.8919C58.219 53.2205 57.3317 53.3849 56.4116 53.3849C54.3084 53.3849 52.5009 52.5633 50.9564 50.953C49.4118 49.3428 48.656 47.3053 48.656 44.8734C48.656 42.3759 49.4118 40.3056 50.8907 38.6953C52.3695 37.085 54.1769 36.2963 56.2801 36.2963C57.266 36.2963 58.1862 36.4935 59.0406 36.855C59.895 37.2165 60.6837 37.7751 61.4067 38.4981V30.4468ZM57.1017 40.0755C55.8529 40.0755 54.8013 40.5356 53.9469 41.4229C53.0925 42.3102 52.6981 43.4604 52.6981 44.8406C52.6981 46.2537 53.1253 47.4039 53.9797 48.2912C54.8342 49.2113 55.8858 49.6385 57.1017 49.6385C58.3833 49.6385 59.4349 49.1784 60.2894 48.2912C61.1438 47.4039 61.571 46.2208 61.571 44.7749C61.571 43.3618 61.1438 42.2116 60.2894 41.3243C59.4678 40.5027 58.3833 40.0755 57.1017 40.0755Z" fill="white"/>
<path d="M85.8579 46.0235H72.7458C72.9429 47.1737 73.4359 48.0938 74.2574 48.7839C75.079 49.474 76.1306 49.8027 77.4122 49.8027C78.9239 49.8027 80.2384 49.2769 81.3557 48.1924L84.8063 49.8027C83.9519 51.0186 82.9332 51.9059 81.7172 52.4974C80.5342 53.0889 79.0882 53.3847 77.4451 53.3847C74.8818 53.3847 72.8115 52.596 71.2012 50.9857C69.5909 49.3755 68.8022 47.3708 68.8022 44.939C68.8022 42.4743 69.5909 40.404 71.2012 38.7608C72.8115 37.1177 74.8161 36.2961 77.2151 36.2961C79.7783 36.2961 81.8487 37.1177 83.4589 38.7608C85.0692 40.404 85.8579 42.5729 85.8579 45.2676V46.0235ZM81.783 42.8029C81.5201 41.8828 80.9943 41.1598 80.2056 40.6011C79.4169 40.0425 78.4967 39.7467 77.4451 39.7467C76.2949 39.7467 75.309 40.0753 74.4546 40.6997C73.9288 41.0941 73.403 41.7842 72.9429 42.8029H81.783Z" fill="white"/>
<path d="M101.171 36.7235H105.246V52.9904H101.171V51.2816C100.382 52.0374 99.5606 52.5961 98.7719 52.9247C97.9832 53.2533 97.0959 53.4176 96.1757 53.4176C94.0725 53.4176 92.2651 52.5961 90.7205 50.9858C89.176 49.3755 88.4202 47.3381 88.4202 44.9062C88.4202 42.4087 89.176 40.3383 90.6548 38.7281C92.1336 37.1178 93.9411 36.3291 96.0443 36.3291C97.0302 36.3291 97.9503 36.5263 98.8047 36.8878C99.6592 37.2493 100.448 37.8079 101.171 38.5309V36.7235ZM96.8659 40.0754C95.6171 40.0754 94.5655 40.5355 93.711 41.4228C92.8566 42.3101 92.4623 43.4603 92.4623 44.8405C92.4623 46.2536 92.8895 47.4038 93.7439 48.2911C94.5983 49.2112 95.6499 49.6384 96.8659 49.6384C98.1475 49.6384 99.1991 49.1784 100.054 48.2911C100.908 47.4038 101.335 46.2207 101.335 44.7748C101.335 43.3617 100.908 42.2115 100.054 41.3242C99.232 40.5026 98.1804 40.0754 96.8659 40.0754Z" fill="white"/>
<path d="M108.928 30.4468H113.003V52.9576H108.928V30.4468Z" fill="white"/>
<path d="M132.982 46.0235H119.87C120.067 47.1737 120.56 48.0938 121.381 48.7839C122.203 49.474 123.254 49.8027 124.536 49.8027C126.048 49.8027 127.362 49.2769 128.48 48.1924L131.93 49.8027C131.076 51.0186 130.057 51.9059 128.841 52.4974C127.658 53.0889 126.212 53.3847 124.569 53.3847C122.006 53.3847 119.935 52.596 118.325 50.9857C116.715 49.3755 115.926 47.3708 115.926 44.939C115.926 42.4743 116.715 40.404 118.325 38.7608C119.935 37.1177 121.94 36.2961 124.339 36.2961C126.902 36.2961 128.972 37.1177 130.583 38.7608C132.193 40.404 132.982 42.5729 132.982 45.2676V46.0235ZM128.907 42.8029C128.644 41.8828 128.118 41.1598 127.329 40.6011C126.541 40.0425 125.62 39.7467 124.569 39.7467C123.419 39.7467 122.433 40.0753 121.578 40.6997C121.053 41.0941 120.527 41.7842 120.067 42.8029H128.907Z" fill="white"/>
<path d="M157.367 35.0804L155.625 36.3949C154.672 35.1461 153.522 34.1931 152.174 33.5687C150.827 32.9115 149.348 32.6157 147.771 32.6157C146.029 32.6157 144.386 33.0429 142.907 33.8645C141.428 34.7189 140.245 35.8362 139.424 37.2493C138.602 38.6624 138.175 40.2727 138.175 42.0473C138.175 44.742 139.095 46.9767 140.935 48.7512C142.776 50.5587 145.076 51.446 147.902 51.446C150.991 51.446 153.555 50.2301 155.625 47.8311L157.367 49.1456C156.282 50.5258 154.902 51.6103 153.259 52.3661C151.616 53.122 149.775 53.5163 147.771 53.5163C143.926 53.5163 140.902 52.2347 138.668 49.6714C136.795 47.5025 135.875 44.9063 135.875 41.8501C135.875 38.6296 136.992 35.9348 139.259 33.733C141.527 31.5312 144.353 30.4468 147.738 30.4468C149.775 30.4468 151.649 30.8411 153.292 31.6627C154.935 32.4843 156.315 33.6016 157.367 35.0804Z" fill="white"/>
<path d="M177.611 36.7235V52.9904H175.54V50.1971C174.653 51.2487 173.667 52.0703 172.583 52.5961C171.498 53.1219 170.315 53.4176 169.001 53.4176C166.7 53.4176 164.728 52.5961 163.118 50.9201C161.475 49.2441 160.686 47.2395 160.686 44.8405C160.686 42.5073 161.508 40.5026 163.151 38.8267C164.794 37.1507 166.766 36.3291 169.066 36.3291C170.414 36.3291 171.597 36.6249 172.681 37.1835C173.766 37.7422 174.719 38.5966 175.54 39.7468V36.7235H177.611ZM169.263 38.3337C168.113 38.3337 167.029 38.6295 166.043 39.1881C165.057 39.7468 164.268 40.5684 163.677 41.5871C163.085 42.6059 162.789 43.7232 162.789 44.8734C162.789 46.0236 163.085 47.108 163.677 48.1596C164.268 49.2112 165.057 50.0328 166.043 50.5915C167.029 51.183 168.08 51.4788 169.231 51.4788C170.381 51.4788 171.465 51.183 172.484 50.6243C173.503 50.0657 174.291 49.277 174.85 48.2911C175.409 47.3052 175.672 46.1879 175.672 44.972C175.672 43.0988 175.047 41.5214 173.798 40.2726C172.55 39.0238 171.071 38.3337 169.263 38.3337Z" fill="white"/>
<path d="M190.491 38.498L189.144 39.8782C188.026 38.7937 186.942 38.2351 185.857 38.2351C185.167 38.2351 184.609 38.4651 184.116 38.8923C183.623 39.3524 183.393 39.8782 183.393 40.4697C183.393 40.9955 183.59 41.4885 183.984 41.9814C184.379 42.4744 185.233 43.033 186.515 43.6903C188.059 44.5118 189.144 45.2677 189.702 46.0235C190.261 46.7794 190.524 47.6338 190.524 48.5868C190.524 49.9342 190.064 51.0515 189.111 51.9716C188.158 52.8918 187.008 53.3519 185.595 53.3519C184.642 53.3519 183.754 53.1547 182.9 52.7275C182.045 52.3003 181.355 51.7416 180.797 51.0515L182.111 49.5727C183.163 50.7886 184.313 51.3801 185.496 51.3801C186.35 51.3801 187.041 51.1172 187.632 50.5586C188.224 50.0328 188.519 49.3755 188.519 48.6525C188.519 48.061 188.322 47.5352 187.928 47.0423C187.533 46.5822 186.646 45.9907 185.299 45.3005C183.82 44.5447 182.834 43.7889 182.308 43.0659C181.783 42.3429 181.52 41.4885 181.52 40.5355C181.52 39.2867 181.947 38.2679 182.768 37.4464C183.623 36.6248 184.674 36.2305 185.956 36.2305C187.468 36.2962 188.979 37.052 190.491 38.498Z" fill="white"/>
<path d="M194.928 30.0195C195.388 30.0195 195.815 30.1838 196.144 30.5125C196.472 30.8411 196.636 31.2683 196.636 31.7284C196.636 32.1885 196.472 32.6157 196.144 32.9443C195.815 33.2729 195.388 33.4372 194.928 33.4372C194.468 33.4372 194.073 33.2729 193.712 32.9443C193.383 32.6157 193.219 32.1885 193.219 31.7284C193.219 31.2354 193.383 30.8411 193.712 30.5125C194.04 30.2167 194.468 30.0195 194.928 30.0195ZM193.876 36.7235H195.979V52.9905H193.876V36.7235Z" fill="white"/>
<path d="M200.318 36.7235H202.421V39.6482C203.242 38.5309 204.195 37.7093 205.214 37.1507C206.233 36.592 207.35 36.3291 208.533 36.3291C209.749 36.3291 210.834 36.6249 211.754 37.2493C212.707 37.8736 213.397 38.6952 213.824 39.7468C214.284 40.7984 214.481 42.4087 214.481 44.6433V53.0233H212.378V45.2349C212.378 43.3617 212.312 42.1129 212.148 41.4885C211.918 40.4041 211.425 39.6154 210.768 39.0567C210.111 38.498 209.191 38.2351 208.073 38.2351C206.824 38.2351 205.674 38.6623 204.688 39.4839C203.702 40.3055 203.012 41.3571 202.717 42.6059C202.519 43.4274 202.421 44.8734 202.421 47.0423V52.9904H200.318V36.7235Z" fill="white"/>
<path d="M226.673 36.2961C229.171 36.2961 231.241 37.2163 232.884 39.0237C234.396 40.6669 235.119 42.6386 235.119 44.9061C235.119 47.1737 234.33 49.1454 232.753 50.8543C231.175 52.5631 229.138 53.4175 226.64 53.4175C224.143 53.4175 222.105 52.5631 220.528 50.8543C218.95 49.1454 218.162 47.1737 218.162 44.9061C218.162 42.6715 218.917 40.6997 220.396 39.0566C222.072 37.2163 224.175 36.2961 226.673 36.2961ZM226.673 38.3665C224.931 38.3665 223.452 39.0237 222.204 40.3054C220.955 41.587 220.331 43.1316 220.331 44.9719C220.331 46.1549 220.626 47.2394 221.185 48.2581C221.744 49.2769 222.532 50.0656 223.485 50.6242C224.438 51.1829 225.523 51.4458 226.673 51.4458C227.823 51.4458 228.908 51.1829 229.861 50.6242C230.814 50.0656 231.602 49.2769 232.161 48.2581C232.72 47.2394 233.016 46.1549 233.016 44.9719C233.016 43.1644 232.391 41.587 231.142 40.3054C229.894 38.9909 228.382 38.3665 226.673 38.3665Z" fill="white"/>
<path d="M237.058 41.3242L236.368 40.9299C236.598 40.4698 236.762 40.1083 236.828 39.8454C236.893 39.5825 236.959 39.2539 236.992 38.8267H236.203V36.3291H237.846V37.8736C237.846 38.6623 237.781 39.2539 237.682 39.7139C237.551 40.2069 237.354 40.6998 237.058 41.3242Z" fill="white"/>
<path d="M248.396 38.498L247.048 39.8782C245.931 38.7937 244.847 38.2351 243.762 38.2351C243.072 38.2351 242.513 38.4651 242.021 38.8923C241.528 39.3524 241.298 39.8782 241.298 40.4697C241.298 40.9955 241.495 41.4885 241.889 41.9814C242.283 42.4744 243.138 43.033 244.419 43.6903C245.964 44.5118 247.049 45.2677 247.607 46.0235C248.166 46.7794 248.429 47.6338 248.429 48.5868C248.429 49.9342 247.969 51.0515 247.016 51.9716C246.063 52.8918 244.912 53.3519 243.499 53.3519C242.546 53.3519 241.659 53.1547 240.805 52.7275C239.95 52.3003 239.26 51.7416 238.701 51.0515L240.016 49.5727C241.068 50.7886 242.218 51.3801 243.401 51.3801C244.255 51.3801 244.945 51.1172 245.537 50.5586C246.128 50.0328 246.424 49.3755 246.424 48.6525C246.424 48.061 246.227 47.5352 245.833 47.0423C245.438 46.5822 244.551 45.9907 243.204 45.3005C241.725 44.5447 240.739 43.7889 240.213 43.0659C239.687 42.3429 239.424 41.4885 239.424 40.5355C239.424 39.2867 239.852 38.2679 240.673 37.4464C241.528 36.6248 242.579 36.2305 243.861 36.2305C245.373 36.2962 246.884 37.052 248.396 38.498Z" fill="white"/>
<defs>
<filter id="filter0_dii_1518_375" x="0" y="0" width="290" height="90" filterUnits="userSpaceOnUse" color-interpolation-filters="sRGB">
<feFlood flood-opacity="0" result="BackgroundImageFix"/>
<feColorMatrix in="SourceAlpha" type="matrix" values="0 0 0 0 0 0 0 0 0 0 0 0 0 0 0 0 0 0 127 0" result="hardAlpha"/>
<feOffset dy="3"/>
<feGaussianBlur stdDeviation="7"/>
<feColorMatrix type="matrix" values="0 0 0 0 0 0 0 0 0 0 0 0 0 0 0 0 0 0 0.15 0"/>
<feBlend mode="normal" in2="BackgroundImageFix" result="effect1_dropShadow_1518_375"/>
<feBlend mode="normal" in="SourceGraphic" in2="effect1_dropShadow_1518_375" result="shape"/>
<feColorMatrix in="SourceAlpha" type="matrix" values="0 0 0 0 0 0 0 0 0 0 0 0 0 0 0 0 0 0 127 0" result="hardAlpha"/>
<feOffset dx="4" dy="4"/>
<feGaussianBlur stdDeviation="1.5"/>
<feComposite in2="hardAlpha" operator="arithmetic" k2="-1" k3="1"/>
<feColorMatrix type="matrix" values="0 0 0 0 1 0 0 0 0 0.458824 0 0 0 0 0.729412 0 0 0 1 0"/>
<feBlend mode="normal" in2="shape" result="effect2_innerShadow_1518_375"/>
<feColorMatrix in="SourceAlpha" type="matrix" values="0 0 0 0 0 0 0 0 0 0 0 0 0 0 0 0 0 0 127 0" result="hardAlpha"/>
<feOffset dx="-4" dy="-4"/>
<feGaussianBlur stdDeviation="1.5"/>
<feComposite in2="hardAlpha" operator="arithmetic" k2="-1" k3="1"/>
<feColorMatrix type="matrix" values="0 0 0 0 1 0 0 0 0 0.458333 0 0 0 0 0.729167 0 0 0 1 0"/>
<feBlend mode="normal" in2="effect2_innerShadow_1518_375" result="effect3_innerShadow_1518_375"/>
</filter>
</defs>
</svg>