<?xml version="1.0" encoding="UTF-8"?>
<svg xmlns="http://www.w3.org/2000/svg" width="134" height="33" viewBox="0 0 134 33" fill="none">
  <path d="M9.2832 12.041C9.2832 10.875 10.2285 9.92969 11.3945 9.92969H24.9187C26.0848 9.92969 27.03 10.875 27.03 12.041V30.6376C27.03 31.8036 26.0848 32.7489 24.9187 32.7489H11.3945C10.2285 32.7489 9.2832 31.8036 9.2832 30.6376V12.041Z" fill="#FF9000"></path>
  <path d="M23.7326 15.418V27.5504H20.9075L15.5519 21.0856V27.5504H12.1895V15.418H15.0146L20.3702 21.8828V15.418H23.7326Z" fill="white"></path>
  <path d="M28.7246 12.041C28.7246 10.875 29.6699 9.92969 30.8359 9.92969H44.3601C45.5262 9.92969 46.4714 10.875 46.4714 12.041V30.6376C46.4714 31.8036 45.5262 32.7489 44.3601 32.7489H30.8359C29.6699 32.7489 28.7246 31.8036 28.7246 30.6376V12.041Z" fill="#FF9000"></path>
  <path d="M37.5332 27.7506C36.2506 27.7506 35.0951 27.479 34.0668 26.936C33.05 26.3929 32.2469 25.6418 31.6576 24.6828C31.0799 23.7237 30.791 22.6434 30.791 21.4417C30.791 20.24 31.0799 19.1596 31.6576 18.2006C32.2469 17.2415 33.05 16.4905 34.0668 15.9474C35.0951 15.4043 36.2506 15.1328 37.5332 15.1328C38.8158 15.1328 39.9655 15.4043 40.9823 15.9474C42.0107 16.4905 42.8137 17.2415 43.3914 18.2006C43.9807 19.1596 44.2754 20.24 44.2754 21.4417C44.2754 22.6434 43.9807 23.7237 43.3914 24.6828C42.8137 25.6418 42.0107 26.3929 40.9823 26.936C39.9655 27.479 38.8158 27.7506 37.5332 27.7506ZM37.5332 24.9081C38.1456 24.9081 38.7002 24.7637 39.1971 24.4748C39.6939 24.1859 40.0868 23.7815 40.3757 23.2616C40.6645 22.73 40.809 22.1234 40.809 21.4417C40.809 20.76 40.6645 20.1591 40.3757 19.6392C40.0868 19.1076 39.6939 18.6974 39.1971 18.4086C38.7002 18.1197 38.1456 17.9753 37.5332 17.9753C36.9208 17.9753 36.3662 18.1197 35.8693 18.4086C35.3725 18.6974 34.9796 19.1076 34.6907 19.6392C34.4019 20.1591 34.2574 20.76 34.2574 21.4417C34.2574 22.1234 34.4019 22.73 34.6907 23.2616C34.9796 23.7815 35.3725 24.1859 35.8693 24.4748C36.3662 24.7637 36.9208 24.9081 37.5332 24.9081Z" fill="white"></path>
  <path d="M48.1602 12.041C48.1602 10.875 49.1054 9.92969 50.2715 9.92969H63.7957C64.9617 9.92969 65.907 10.875 65.907 12.041V30.6376C65.907 31.8036 64.9617 32.7489 63.7957 32.7489H50.2715C49.1054 32.7489 48.1602 31.8036 48.1602 30.6376V12.041Z" fill="#FF9000"></path>
  <path d="M60.7508 27.5075L60.7161 21.0773L57.5963 26.3115H56.0711L52.9686 21.2506V27.5075H49.7969V15.375H52.622L56.8857 22.3772L61.0454 15.375H63.8705L63.9052 27.5075H60.7508Z" fill="white"></path>
  <path d="M67.5977 12.041C67.5977 10.875 68.5429 9.92969 69.709 9.92969H83.2332C84.3992 9.92969 85.3445 10.875 85.3445 12.041V30.6376C85.3445 31.8036 84.3992 32.7489 83.2332 32.7489H69.709C68.5429 32.7489 67.5977 31.8036 67.5977 30.6376V12.041Z" fill="#FF9000"></path>
  <path d="M79.2624 25.1503H74.1321L73.1788 27.5075H69.6777L75.0333 15.375H78.4131L83.786 27.5075H80.2156L79.2624 25.1503ZM78.2571 22.6198L76.6972 18.7374L75.1373 22.6198H78.2571Z" fill="white"></path>
  <path d="M95.8012 27.7232C94.8653 27.7232 93.9583 27.5904 93.0801 27.3246C92.2135 27.0588 91.526 26.7064 91.0176 26.2673L91.7975 24.5168C92.2944 24.9097 92.901 25.2332 93.6174 25.4874C94.3453 25.7301 95.0733 25.8514 95.8012 25.8514C96.7025 25.8514 97.3727 25.7069 97.8118 25.4181C98.2624 25.1292 98.4877 24.7479 98.4877 24.2742C98.4877 23.9275 98.3606 23.6444 98.1064 23.4249C97.8638 23.1938 97.5518 23.0147 97.1705 22.8876C96.7892 22.7605 96.2692 22.6161 95.6106 22.4543C94.6862 22.2347 93.9351 22.0152 93.3574 21.7957C92.7912 21.5761 92.3002 21.2353 91.8842 20.7731C91.4798 20.2993 91.2776 19.6638 91.2776 18.8665C91.2776 18.1964 91.4567 17.5897 91.8149 17.0467C92.1846 16.4921 92.7335 16.053 93.4614 15.7294C94.2009 15.4059 95.1022 15.2441 96.1652 15.2441C96.9047 15.2441 97.6327 15.3366 98.349 15.5215C99.0654 15.7063 99.6836 15.9721 100.204 16.3187L99.493 18.0693C98.9615 17.7573 98.4068 17.5204 97.8291 17.3587C97.2514 17.1969 96.6909 17.116 96.1479 17.116C95.2582 17.116 94.5938 17.2662 94.1547 17.5666C93.7272 17.8671 93.5134 18.2657 93.5134 18.7626C93.5134 19.1092 93.6347 19.3923 93.8774 19.6118C94.1316 19.8314 94.4493 20.0047 94.8306 20.1318C95.2119 20.2589 95.7319 20.4033 96.3905 20.5651C97.2918 20.7731 98.0313 20.9926 98.609 21.2237C99.1868 21.4432 99.6778 21.7841 100.082 22.2463C100.498 22.7085 100.706 23.3324 100.706 24.1182C100.706 24.7883 100.521 25.395 100.152 25.938C99.7934 26.4811 99.2445 26.9144 98.505 27.2379C97.7655 27.5615 96.8643 27.7232 95.8012 27.7232Z" fill="white"></path>
  <path d="M108.249 15.416C109.301 15.416 110.214 15.5893 110.988 15.936C111.774 16.2826 112.374 16.7795 112.79 17.4265C113.206 18.0736 113.414 18.842 113.414 19.7317C113.414 20.6099 113.206 21.3783 112.79 22.0369C112.374 22.6839 111.774 23.1808 110.988 23.5274C110.214 23.8741 109.301 24.0474 108.249 24.0474H105.511V27.5485H103.258V15.416H108.249ZM108.145 22.1409C109.128 22.1409 109.873 21.9329 110.381 21.5169C110.89 21.1009 111.144 20.5059 111.144 19.7317C111.144 18.9575 110.89 18.3625 110.381 17.9465C109.873 17.5305 109.128 17.3225 108.145 17.3225H105.511V22.1409H108.145Z" fill="white"></path>
  <path d="M116.717 15.416H118.97V27.5485H116.717V15.416Z" fill="white"></path>
  <path d="M133.107 15.416V27.5485H131.252L124.562 19.3331V27.5485H122.326V15.416H124.181L130.871 23.6314V15.416H133.107Z" fill="white"></path>
  <path fill-rule="evenodd" clip-rule="evenodd" d="M2.43039 5.96711C1.04645 5.70459 0 4.48868 0 3.02836C0 1.37634 1.33923 0.0371094 2.99125 0.0371094C4.64327 0.0371094 5.9825 1.37634 5.9825 3.02836C5.9825 4.48868 4.93604 5.70459 3.55211 5.96711V20.7759H7.31381V21.8977H2.43039V5.96711Z" fill="#FF9000"></path>
</svg>
