<svg width="176" height="46" viewBox="0 0 176 46" fill="none" xmlns="http://www.w3.org/2000/svg">
<g id="Group">
<path id="Rectangle 3" d="M15 5H17C26.9411 5 35 13.0589 35 23C35 32.9411 26.9411 41 17 41H15V5Z" fill="#FFDFC7"/>
<path id="polskielajki" d="M50.256 19.532C51.3827 19.532 52.3793 19.8267 53.246 20.416C54.13 20.988 54.8147 21.8027 55.3 22.86C55.8027 23.9 56.054 25.096 56.054 26.448C56.054 27.8 55.8113 28.9873 55.326 30.01C54.8407 31.0327 54.156 31.8213 53.272 32.376C52.4053 32.9307 51.4 33.208 50.256 33.208C49.3027 33.208 48.4533 33.0087 47.708 32.61C46.9627 32.194 46.3907 31.622 45.992 30.894V38.616H42.768V23.588C42.768 22.2013 42.6987 20.962 42.56 19.87H45.602L45.862 22.132C46.2087 21.3173 46.772 20.6847 47.552 20.234C48.332 19.766 49.2333 19.532 50.256 19.532ZM49.372 30.66C50.464 30.66 51.3047 30.296 51.894 29.568C52.4833 28.84 52.778 27.8 52.778 26.448C52.778 25.0787 52.4833 24.0127 51.894 23.25C51.3047 22.47 50.4727 22.08 49.398 22.08C48.2887 22.08 47.4393 22.4527 46.85 23.198C46.2607 23.9433 45.966 25.0093 45.966 26.396C45.966 27.7653 46.2607 28.8227 46.85 29.568C47.4393 30.296 48.28 30.66 49.372 30.66ZM64.845 33.208C63.5104 33.208 62.3317 32.9307 61.309 32.376C60.3037 31.8213 59.5237 31.0327 58.969 30.01C58.4317 28.97 58.163 27.7567 58.163 26.37C58.163 24.9833 58.4317 23.7787 58.969 22.756C59.5237 21.716 60.3037 20.9187 61.309 20.364C62.3317 19.8093 63.5104 19.532 64.845 19.532C66.1624 19.532 67.3237 19.8093 68.329 20.364C69.3344 20.9187 70.1057 21.716 70.643 22.756C71.1977 23.7787 71.475 24.9833 71.475 26.37C71.475 27.7567 71.1977 28.97 70.643 30.01C70.1057 31.0327 69.3344 31.8213 68.329 32.376C67.3237 32.9307 66.1624 33.208 64.845 33.208ZM64.819 30.66C65.9284 30.66 66.769 30.3047 67.341 29.594C67.9304 28.866 68.225 27.7913 68.225 26.37C68.225 24.966 67.9304 23.9 67.341 23.172C66.7517 22.4267 65.9197 22.054 64.845 22.054C63.753 22.054 62.9124 22.4267 62.323 23.172C61.7337 23.9 61.439 24.966 61.439 26.37C61.439 27.7913 61.725 28.866 62.297 29.594C62.8864 30.3047 63.727 30.66 64.819 30.66ZM74.2778 13.864H77.5018V33H74.2778V13.864ZM85.8671 33.208C83.4924 33.208 81.6031 32.6533 80.1991 31.544L81.1091 29.256C82.5131 30.296 84.1164 30.816 85.9191 30.816C86.6991 30.816 87.2971 30.686 87.7131 30.426C88.1464 30.166 88.3631 29.802 88.3631 29.334C88.3631 28.9353 88.2157 28.6233 87.9211 28.398C87.6264 28.1553 87.1237 27.9473 86.4131 27.774L84.2291 27.28C81.8371 26.76 80.6411 25.538 80.6411 23.614C80.6411 22.8167 80.8664 22.1147 81.3171 21.508C81.7677 20.884 82.4004 20.3987 83.2151 20.052C84.0297 19.7053 84.9744 19.532 86.0491 19.532C86.9851 19.532 87.8864 19.6793 88.7531 19.974C89.6197 20.2513 90.3824 20.6587 91.0411 21.196L90.0791 23.406C88.7617 22.4353 87.4097 21.95 86.0231 21.95C85.2777 21.95 84.6971 22.0887 84.2811 22.366C83.8651 22.6433 83.6571 23.0247 83.6571 23.51C83.6571 23.8913 83.7784 24.1947 84.0211 24.42C84.2811 24.6453 84.7144 24.836 85.3211 24.992L87.5571 25.486C88.8571 25.7807 89.8017 26.24 90.3911 26.864C90.9977 27.4707 91.3011 28.268 91.3011 29.256C91.3011 30.4693 90.8157 31.4313 89.8451 32.142C88.8744 32.8527 87.5484 33.208 85.8671 33.208ZM103.052 33L97.3065 26.942V33H94.0825V13.864H97.3065V25.668L102.714 19.896H106.64L100.738 26.162L107.108 33H103.052ZM108.403 19.87H111.627V33H108.403V19.87ZM111.809 13.916V17.114H108.195V13.916H111.809ZM126.674 26.604H117.626C117.695 28.008 118.042 29.048 118.666 29.724C119.307 30.3827 120.252 30.712 121.5 30.712C122.939 30.712 124.273 30.244 125.504 29.308L126.44 31.544C125.816 32.0467 125.045 32.454 124.126 32.766C123.225 33.0607 122.306 33.208 121.37 33.208C119.221 33.208 117.531 32.6013 116.3 31.388C115.069 30.1747 114.454 28.5107 114.454 26.396C114.454 25.0613 114.723 23.874 115.26 22.834C115.797 21.794 116.551 20.988 117.522 20.416C118.493 19.8267 119.593 19.532 120.824 19.532C122.627 19.532 124.048 20.1213 125.088 21.3C126.145 22.4613 126.674 24.0647 126.674 26.11V26.604ZM120.902 21.872C120.035 21.872 119.325 22.132 118.77 22.652C118.233 23.1547 117.886 23.8913 117.73 24.862H123.84C123.736 23.874 123.433 23.1287 122.93 22.626C122.445 22.1233 121.769 21.872 120.902 21.872ZM129.686 33V13.864H131.792V33H129.686ZM140.9 33.182C139.738 33.182 138.716 32.9133 137.832 32.376C136.965 31.8213 136.289 31.0413 135.804 30.036C135.336 29.0133 135.102 27.8173 135.102 26.448C135.102 25.0787 135.344 23.8827 135.83 22.86C136.315 21.8373 136.991 21.04 137.858 20.468C138.742 19.896 139.756 19.61 140.9 19.61C142.096 19.61 143.11 19.9047 143.942 20.494C144.774 21.0833 145.337 21.924 145.632 23.016L145.32 23.224V19.922H147.4V33H145.32V29.62L145.632 29.776C145.337 30.868 144.774 31.7087 143.942 32.298C143.11 32.8873 142.096 33.182 140.9 33.182ZM141.316 31.44C142.598 31.44 143.586 31.0067 144.28 30.14C144.973 29.256 145.32 28.008 145.32 26.396C145.32 24.784 144.964 23.5447 144.254 22.678C143.56 21.8113 142.581 21.378 141.316 21.378C140.033 21.378 139.028 21.8287 138.3 22.73C137.589 23.614 137.234 24.8533 137.234 26.448C137.234 28.0427 137.589 29.2733 138.3 30.14C139.028 31.0067 140.033 31.44 141.316 31.44ZM148.013 36.692C148.273 36.7613 148.507 36.8133 148.715 36.848C148.906 36.8827 149.097 36.9 149.287 36.9C149.686 36.9 150.05 36.822 150.379 36.666C150.726 36.5273 150.995 36.2673 151.185 35.886C151.376 35.522 151.471 34.9933 151.471 34.3V19.922H153.577V34.56C153.577 35.964 153.231 37.004 152.537 37.68C151.844 38.3733 150.908 38.72 149.729 38.72C149.452 38.72 149.166 38.7027 148.871 38.668C148.577 38.6333 148.291 38.5727 148.013 38.486V36.692ZM151.237 14.384H153.811V16.776H151.237V14.384ZM166.481 33L159.357 26.318L165.935 19.948H168.613L161.333 26.916L161.411 25.59L169.237 33H166.481ZM157.667 33V13.864H159.773V33H157.667ZM171.048 33V19.922H173.154V33H171.048ZM170.84 14.384H173.414V16.776H170.84V14.384Z" fill="#303435"/>
<path id="Vector" d="M14.5 41.7827L14.5 29C14.5 28.4477 14.0523 28 13.5 28H1.72318C0.955357 28 0.473989 27.1705 0.854936 26.5039L14.1318 3.26943C14.6405 2.37907 16 2.7401 16 3.76556V19.5C16 20.0523 16.4477 20.5 17 20.5H27.264C28.0347 20.5 28.5157 21.3351 28.129 22.0017L16.365 42.2844C15.8522 43.1685 14.5 42.8048 14.5 41.7827Z" fill="#FF5D00"/>
</g>
</svg>
