<svg width="126" height="122" viewBox="0 0 126 122" fill="none" xmlns="http://www.w3.org/2000/svg">
<rect width="126" height="122" rx="12" fill="#2E99E4"/>
<path d="M56.9863 72.7213L42.5778 26.0757C42.2751 25.1134 41.2495 24.5731 40.2912 24.8601L9.96097 34.3142C9.00264 34.6181 8.46463 35.6479 8.75045 36.6102L21.898 79.1873C22.8396 79.0522 23.7811 79.0691 24.6553 78.934C25.9331 78.7314 27.2109 78.6133 28.4718 78.36C29.9682 78.0561 31.4477 77.786 32.9777 77.6847C34.2722 77.5834 35.5332 77.2458 36.8446 77.1614C36.9287 77.1614 37.0127 77.1614 37.0968 77.1614C37.5171 76.925 37.9879 76.7731 38.4923 76.8069C43.1158 77.0432 47.6216 75.49 52.2451 75.7095C52.5309 75.7264 52.8167 75.777 53.0857 75.8614L55.7758 75.0173C56.7341 74.7303 57.2721 73.7005 56.9863 72.7213Z" fill="white"/>
<path d="M57.5414 72.5354L43.1328 25.8897C42.7293 24.5898 41.3507 23.8639 40.0561 24.269L9.72585 33.7231C8.43127 34.1283 7.70832 35.5126 8.11182 36.8125L21.2426 79.3221C21.7638 79.2039 22.3186 79.1532 22.8398 79.1026L9.64179 36.323C9.50728 35.8671 9.75948 35.3776 10.2134 35.2425L40.5437 25.7884C40.6277 25.7547 40.7118 25.7547 40.7959 25.7547C41.1657 25.7547 41.502 25.991 41.6197 26.3624L56.0282 73.0081C56.1627 73.4639 55.9106 73.9535 55.4566 74.0886L50.2615 75.7093C50.9172 75.6755 51.5729 75.6755 52.2286 75.7093C52.8338 75.743 53.4055 75.9456 53.8762 76.2664L55.9274 75.6249C56.5494 75.4223 57.0706 75.0002 57.3733 74.4262L57.4069 74.3587C57.6759 73.7847 57.7263 73.1432 57.5414 72.5354Z" fill="#2E99E4"/>
<path d="M86.9975 60.8025L62.6695 18.5293C62.1651 17.6515 61.0386 17.3476 60.1643 17.854L32.6755 33.8078C31.8012 34.3143 31.4986 35.4454 32.0029 36.3232L54.4144 75.2537C57.861 75.4226 61.2908 75.4563 64.7374 75.4563C64.9392 75.4563 65.1409 75.4732 65.3259 75.507L86.3418 63.318C87.2161 62.8115 87.5019 61.6804 86.9975 60.8025Z" fill="white"/>
<path fill-rule="evenodd" clip-rule="evenodd" d="M59.3407 23.8137C58.8363 23.6618 58.4832 23.3917 58.2479 22.9527C57.962 22.4294 58.0629 21.9229 58.5337 21.5684C58.6682 21.4502 58.8363 21.3658 59.0044 21.2983C59.6433 21.0619 60.1981 21.3658 60.4167 22.0748C60.5176 22.3787 60.5344 22.6826 60.484 23.0034C60.484 23.054 60.4671 23.0878 60.4671 23.1047C60.6857 22.9865 60.9043 22.8346 61.1397 22.7333C61.7113 22.5138 62.2829 22.7333 62.5351 23.1891C62.8714 23.8306 62.6024 24.5228 61.913 24.7422C61.5936 24.8435 61.2742 24.8435 60.9211 24.7422C61.3414 25.2825 61.8122 25.6708 62.4847 25.8396C61.829 26.211 61.2237 26.5486 60.568 26.9032C60.7361 26.2616 60.6016 25.6877 60.3663 25.0799C60.3326 25.1643 60.3158 25.1981 60.299 25.2487C60.1645 25.6201 59.9291 25.924 59.5593 26.0928C59.1557 26.2785 58.7354 26.1772 58.3992 25.8227C58.0629 25.4682 57.9788 25.0461 58.1806 24.641C58.3655 24.2527 58.7018 24.0163 59.0885 23.8813C59.1221 23.8644 59.1389 23.8644 59.1726 23.8475C59.2566 23.8306 59.2734 23.8306 59.3407 23.8137Z" fill="#2E99E4"/>
<path d="M78.7752 29.1988C78.7752 29.1988 77.4301 28.4729 74.9587 28.6417C72.4872 28.8105 58.3981 30.8532 58.3981 30.8532L56.0947 57.8817C56.0947 57.8817 60.6006 58.0843 64.9719 60.9037C70.2511 64.3139 75.1604 63.6724 75.1604 63.6724L78.7752 29.1988Z" fill="#99DCFF"/>
<path d="M92.5123 27.3584L60.8874 24.6403C59.8787 24.5559 58.9876 25.2987 58.9035 26.3117L54.7676 74.865C57.6258 74.9157 60.4503 75.2871 63.3085 75.5066C66.2843 75.7429 69.2602 75.8442 72.2529 75.8104C75.296 75.7767 78.3391 75.8105 81.3822 75.6923C84.3076 75.591 87.3003 75.5235 90.2257 75.8949L94.1935 29.2998C94.2776 28.3375 93.521 27.4428 92.5123 27.3584Z" fill="white"/>
<path d="M54.448 74.8656C54.9356 74.8656 55.4399 74.8825 55.9275 74.8993L60.0634 26.3966C60.0971 25.9239 60.5174 25.5694 60.9882 25.6031L78.4398 27.1057L78.6079 25.5187L61.1058 24.0162C59.7608 23.898 58.5671 24.911 58.4494 26.2616L54.3135 74.8656C54.3807 74.8656 54.4144 74.8656 54.448 74.8656Z" fill="#2E99E4"/>
<path d="M111.494 26.3801L79.9196 22.9699C78.9276 22.8686 78.0197 23.5945 77.902 24.6075L72.6901 73.1608C72.5892 74.1738 73.3121 75.0685 74.3209 75.1867L105.895 78.5969C105.963 78.5969 106.03 78.6138 106.097 78.6138C106.517 78.6138 106.921 78.4787 107.24 78.2086C107.627 77.9047 107.862 77.4658 107.913 76.9762L113.125 28.4228C113.226 27.4099 112.503 26.4983 111.494 26.3801Z" fill="white"/>
<path d="M111.747 25.772L80.1892 22.3617C78.8442 22.2098 77.6336 23.189 77.4823 24.5395L72.2704 73.0929C72.119 74.4435 73.0942 75.659 74.4392 75.811L80.3909 76.4525C80.8113 76.1655 81.3325 75.9967 81.9713 75.9967C85.6197 75.9967 89.2345 76.3006 92.8492 76.7901C96.4471 77.2797 100.096 77.8031 103.609 78.7485C103.845 78.816 104.063 78.9173 104.282 79.0355L106.03 79.2212C106.115 79.2381 106.215 79.2381 106.299 79.2381C106.854 79.2381 107.392 79.0524 107.829 78.6978L107.88 78.6472C108.351 78.242 108.653 77.668 108.72 77.0434L113.932 28.49C114.067 27.1225 113.092 25.907 111.747 25.772ZM112.335 28.3043L107.123 76.8577C107.106 77.094 106.989 77.2966 106.804 77.4317C106.619 77.5836 106.4 77.6343 106.165 77.6174L74.5905 74.2072C74.1198 74.1565 73.7835 73.7345 73.834 73.2617L79.0459 24.7084C79.0964 24.2694 79.4662 23.9318 79.9034 23.9318C79.937 23.9318 79.9706 23.9318 79.9874 23.9318L111.562 27.342C112.049 27.4095 112.386 27.8316 112.335 28.3043Z" fill="#2E99E4"/>
<path fill-rule="evenodd" clip-rule="evenodd" d="M107.223 33.4022C106.769 33.571 106.349 33.6217 105.912 33.5035C105.071 33.2671 104.685 32.4737 105.054 31.6802C105.273 31.2075 105.609 30.853 106.03 30.5491C106.769 30.0089 107.442 29.4011 108.03 28.7089C108.047 28.692 108.081 28.6583 108.114 28.6245C108.198 28.8102 108.283 28.9959 108.367 29.1647C108.669 29.8063 109.056 30.3803 109.493 30.9205C109.779 31.2581 109.981 31.6464 110.098 32.0854C110.233 32.6425 110.182 33.1658 109.712 33.5541C109.258 33.9424 108.736 33.9593 108.182 33.7567C108.014 33.6892 107.845 33.5879 107.66 33.4866C107.694 34.0268 107.778 34.5333 108.148 34.9891C107.526 34.9047 106.971 34.8203 106.383 34.7359C106.769 34.3645 107.022 33.9255 107.223 33.4022Z" fill="#2E99E4"/>
<path fill-rule="evenodd" clip-rule="evenodd" d="M14.3829 36.779C14.467 36.5596 14.5342 36.357 14.6351 36.1544C14.8873 35.6986 15.4589 35.4791 15.9633 35.6142C16.4677 35.7492 16.7535 36.1544 16.7535 36.7284C16.7535 37.1167 16.6358 37.4881 16.5013 37.8426C16.2996 38.3322 16.081 38.8049 15.896 39.2945C15.7279 39.7334 15.627 40.1724 15.5934 40.6451C15.5934 40.6788 15.5934 40.7126 15.5766 40.7464C15.5766 40.7464 15.5598 40.7632 15.543 40.7801C15.5262 40.7632 15.5094 40.7632 15.5094 40.7464C15.1058 40.1048 14.5006 39.6659 13.8953 39.2438C13.5254 38.9906 13.1556 38.7205 12.8025 38.4504C12.5671 38.2816 12.3822 38.0452 12.2645 37.7751C11.9955 37.0998 12.4158 36.3907 13.1388 36.2894C13.5759 36.2219 13.9458 36.357 14.2484 36.6609C14.2988 36.6946 14.3493 36.7284 14.3829 36.779C14.3997 36.779 14.3829 36.779 14.3829 36.779Z" fill="#2E99E4"/>
<path d="M95.5384 50.7915C95.5384 50.7915 92.4616 54.6744 87.8213 63.5376C87.8213 63.5376 93.7394 68.3659 93.9748 68.9568C94.1933 69.5477 94.2606 69.6828 93.5208 70.0542C92.7811 70.4256 91.7219 70.7295 91.5537 71.1515C91.3856 71.5736 92.5289 73.7007 92.8147 73.9202C93.1005 74.1397 98.447 74.4267 99.3044 73.9202C100.162 73.4137 102.986 69.3282 103.121 68.5685C103.255 67.8088 97.6063 55.6367 95.5384 50.7915Z" fill="white"/>
<path d="M88.9141 63.3011C88.9141 63.3011 92.7642 59.452 94.0252 59.2494C95.2861 59.0468 97.5727 67.9606 97.455 68.9061C97.3373 69.8515 96.8329 72.063 93.3022 73.1266L93.773 73.5487C93.773 73.5487 98.1275 73.6331 99.0186 73.2954C99.9096 72.9578 102.667 68.484 102.667 68.484L95.4711 51.9731C95.4711 51.99 89.5193 59.5195 88.9141 63.3011Z" fill="#E2EAF8"/>
<path d="M88.9141 63.3009C88.9141 63.3009 93.504 57.7635 94.5632 57.8141C95.6224 57.8648 98.4133 65.5631 98.8841 67.7915C99.1699 69.1252 97.6231 71.8433 97.1355 72.0796C96.6311 72.2991 93.3022 73.1432 93.3022 73.1432L94.1933 73.7341C94.1933 73.7341 98.1275 73.8354 98.9681 73.5484C99.8088 73.2614 102.717 68.6357 102.717 68.6357L98.077 57.4934L95.4711 51.9897C95.4711 51.9897 89.3512 60.836 88.9141 63.3009Z" fill="#BACAE4"/>
<path d="M98.5648 56.8519C97.4888 54.4546 96.4801 52.1924 95.8412 50.673L95.6226 50.1665L95.2863 50.5886C95.2527 50.6223 92.1424 54.5897 87.5357 63.3853L87.418 63.6217L87.6197 63.7905C90.3938 66.0527 93.4538 68.6695 93.6723 69.0746L93.6891 69.1084C93.7396 69.2603 93.8236 69.446 93.8068 69.4967C93.79 69.5136 93.7396 69.5811 93.3865 69.7668C93.1848 69.8681 92.9494 69.9525 92.7308 70.0538C92.0247 70.3408 91.4194 70.594 91.2513 71.033C90.9991 71.6576 92.3105 73.9367 92.5963 74.1731C92.8653 74.3925 94.6306 74.5276 96.3119 74.5276C97.7074 74.5276 99.0524 74.4263 99.4559 74.2068C100.397 73.6497 103.272 69.4967 103.424 68.6357C103.541 68.0955 102.247 65.0735 98.5648 56.8519ZM95.1014 68.5513L95.0846 68.5175C94.9669 68.1968 94.7651 67.6734 89.3346 63.2165C91.991 58.2193 94.1095 54.9273 95.2863 53.1884C95.8412 54.4377 96.4801 55.8896 97.1694 57.409L97.1862 57.4596C98.9011 61.3088 101.49 67.0825 101.894 68.45C101.423 69.4123 99.3046 72.4173 98.7162 72.8563C98.0941 73.0588 94.7483 73.0251 93.4874 72.8394C93.3024 72.5186 93.0334 72.0121 92.8653 71.6239C93.0166 71.5563 93.1847 71.4888 93.3193 71.4382C93.5546 71.3369 93.8068 71.2356 94.0422 71.1174C95.5385 70.3746 95.4377 69.446 95.1014 68.5513Z" fill="#0E61A1"/>
<path d="M32.9784 34.5168L31.1458 34.8713C31.1458 34.8713 30.6583 34.9051 30.2211 34.2129C29.784 33.5208 28.7416 32.3221 27.6151 32.8961C25.5808 33.9259 26.7409 36.5258 25.917 37.4037C25.0932 38.2816 21.8147 41.371 21.7475 41.8268C21.6802 42.2827 21.9492 44.6124 21.7475 44.8656C21.5457 45.1189 17.0063 49.8797 16.7541 50.6394C16.5019 51.3991 20.3352 54.5898 21.0413 54.6574C21.7475 54.7249 42.2591 50.9264 42.2591 50.9264L32.9784 34.5168Z" fill="white"/>
<path d="M34.5578 40.1383C34.5578 40.1383 32.8765 40.9149 32.5235 40.9487C32.1704 40.9824 31.3297 40.5266 31.0776 40.6954C30.8254 40.8643 30.9599 41.624 30.5227 41.8941C30.0688 42.1811 27.3956 44.4771 27.2106 44.7303C27.0089 44.9835 27.177 47.499 26.908 47.7185C26.6222 47.9379 21.9146 52.0234 21.8305 52.226C21.7465 52.4286 22.6712 53.5597 22.9065 53.526L22.688 54.0155L20.9058 54.2688C20.9058 54.2688 16.938 51.5507 17.3583 50.6897C17.7787 49.8287 22.2845 45.1861 22.3517 44.8147C22.4022 44.4433 22.3013 41.6746 22.3013 41.6746L26.4372 37.2852C26.4372 37.2852 26.5213 34.162 27.5805 33.5543C28.6397 32.9465 30.2201 34.7867 30.2201 34.7867C30.2201 34.7867 31.666 35.3607 32.204 35.3269L34.5578 40.1383Z" fill="#E2EAF8"/>
<path d="M33.062 37.877C33.062 37.877 31.4648 38.4678 31.1285 38.3666C30.7923 38.2653 29.7835 37.8432 29.5986 38.0964C29.4136 38.3497 29.3968 39.4977 29.1614 39.734C28.926 39.9704 25.16 43.4481 25.0759 43.6169C24.9919 43.7858 24.9414 46.5376 24.6388 46.8415C24.3362 47.1453 20.5028 51.501 20.4692 51.7542C20.4356 52.0074 21.4612 53.6112 21.9319 53.6956C22.4027 53.7801 21.3099 54.2865 21.3099 54.2865C21.3099 54.2865 17.4093 51.8555 17.3252 51.062C17.2412 50.2854 22.4027 44.7312 22.4027 44.7312C22.4027 44.7312 22.1001 42.4858 22.3523 41.8949C22.6044 41.3041 26.3369 37.4718 26.3369 37.4718C26.3369 37.4718 26.5386 37.1004 26.6227 36.1212C26.7068 35.142 26.8076 33.859 27.7155 33.4707C28.6066 33.0655 29.1782 33.707 29.7162 34.3148C30.2543 34.9226 30.8595 35.4122 31.8851 35.1927L33.062 37.877Z" fill="#BACAE4"/>
<path d="M33.1458 34.1623L31.1115 34.5506C31.0442 34.5506 30.7752 34.483 30.4894 34.0441C29.8001 32.9636 28.64 32.0014 27.4631 32.6091C26.0508 33.3351 26.0004 34.7025 25.95 35.7999C25.9331 36.3907 25.8995 36.931 25.681 37.1842C25.4456 37.4374 24.9748 37.8933 24.4536 38.4335C22.0998 40.7632 21.4946 41.4554 21.4441 41.7931C21.4105 41.9957 21.4441 42.3839 21.4778 43.0086C21.5114 43.5657 21.5618 44.4773 21.4946 44.6968C21.4273 44.7812 21.2256 44.9838 20.9902 45.237C17.9303 48.5291 16.6189 50.0654 16.4507 50.555C16.3667 50.7744 16.4507 51.0614 16.6861 51.416C17.4763 52.6146 20.2672 54.9275 21.0238 54.995C21.0238 54.995 21.0406 54.995 21.0574 54.995C22.083 54.995 38.9462 51.8887 42.3424 51.2471L42.7964 51.1627L33.1458 34.1623ZM22.9741 42.9073C22.9573 42.6709 22.9405 42.3839 22.9405 42.1645C23.3776 41.6074 24.7562 40.2568 25.5128 39.4971C26.0508 38.9568 26.5216 38.4841 26.7906 38.214C27.4127 37.5556 27.4463 36.644 27.4631 35.8505C27.4967 34.7194 27.5808 34.2467 28.1524 33.9597C28.3878 33.8415 28.9258 34.3986 29.2116 34.8545C29.985 36.0869 31.0106 36.0869 31.2124 36.07L32.3556 35.8505L40.4089 50.0654C31.8008 51.6523 22.7219 53.2899 21.1919 53.4587C20.5194 53.1042 18.7036 51.5848 18.0816 50.7744C18.5019 50.2342 19.5443 49.0018 22.083 46.2669C22.4865 45.8279 22.6042 45.7098 22.6547 45.6422C23.1086 45.1358 23.0582 44.4436 22.9741 42.9073Z" fill="#0E61A1"/>
<path d="M42.562 58.0342L47.051 65.6987C47.051 65.6987 39.9728 68.5012 39.4348 69.3115C38.8968 70.1219 38.7623 72.7555 38.2579 73.2113C37.7536 73.6672 36.5094 71.7763 35.9378 70.7465C35.383 69.7167 35.1308 66.6948 35.7697 65.513C36.4254 64.3313 39.1658 61.1743 42.562 58.0342Z" fill="white"/>
<path d="M44.8478 63.0478C44.8478 63.0478 39.5518 66.4918 39.0979 67.0489C38.6439 67.6061 37.9714 69.48 37.8201 72.0123H37.0635C37.0635 72.0123 35.1973 68.8047 35.8698 66.897C36.5423 64.9893 38.0723 62.4232 42.2755 58.9961C42.2755 59.013 43.0825 59.5363 44.8478 63.0478Z" fill="#E2EAF8"/>
<path d="M43.7557 61.2412C43.7557 61.2412 38.6278 65.293 38.157 65.867C37.6862 66.4241 36.627 69.3616 37.8376 72.0121C37.8376 72.0121 36.1227 70.594 36.0722 70.0369C36.0218 69.4798 36.0722 65.6982 36.0722 65.6982C36.0722 65.6982 40.6957 59.6374 42.2929 58.8608L43.7557 61.2412Z" fill="#BACAE4"/>
<path d="M42.6456 57.5103L42.343 57.7804C38.9132 60.9374 36.1727 64.0943 35.5002 65.3436C34.7773 66.6604 35.0799 69.8005 35.6683 70.8979C35.8028 71.1511 37.047 73.4302 37.9717 73.5822C38.0053 73.5822 38.0557 73.599 38.0894 73.599C38.2407 73.599 38.3752 73.5484 38.4929 73.4471C38.8123 73.1601 38.9636 72.4848 39.1822 71.3875C39.3335 70.6615 39.5016 69.8343 39.7202 69.4967C40.0228 69.0408 43.7553 67.3695 47.1851 66.002L47.5381 65.867L42.6456 57.5103ZM45.3357 65.1073C39.7875 67.3695 38.7451 68.2136 38.4592 68.6525C38.0726 69.2434 37.9044 70.1382 37.7027 71.0836C37.6859 71.1342 37.6859 71.1849 37.6691 71.2524C37.4337 70.9148 37.1983 70.5434 37.0134 70.1719C36.6098 69.4122 36.4249 66.8293 36.8452 66.0696C37.2655 65.293 39.2831 62.8282 42.3094 59.9075L45.3357 65.1073Z" fill="#0E61A1"/>
<path fill-rule="evenodd" clip-rule="evenodd" d="M60.1301 73.0084C59.9788 72.7046 59.8443 72.4176 59.6762 72.1475C59.2222 71.3878 58.7515 70.628 58.2807 69.8852C58.2303 69.8008 58.1966 69.7333 58.2807 69.632C59.0205 68.6866 59.7602 67.7243 60.4832 66.7789C60.4832 66.762 60.5 66.762 60.5168 66.7451C60.5504 66.7789 60.5672 66.8126 60.5841 66.8464C61.1725 67.8593 61.7778 68.8554 62.3662 69.8683C62.4166 69.9528 62.4671 70.0034 62.383 70.1047C61.5592 70.9826 60.8362 71.9617 60.1637 72.9747C60.1637 72.9747 60.1469 72.9916 60.1301 73.0084Z" fill="#2E99E4"/>
<path d="M55.876 56.7002L54.3797 74.2409L54.1611 74.9668L54.3293 75.7096L54.4638 75.7771C54.4974 75.794 54.6823 75.8953 54.9513 75.8953C55.0186 75.8953 55.1027 75.8953 55.1867 75.8616C55.607 75.7603 55.8929 75.3889 55.9433 74.9161C55.9769 74.5447 57.406 57.8144 57.406 57.8144L57.4228 57.6118L55.876 56.7002Z" fill="#163260"/>
<path d="M54.4142 75.2538C54.7337 75.2707 55.0531 75.2707 55.3726 75.2876L55.423 74.6967L33.0284 35.8337C32.793 35.4286 32.9275 34.8883 33.3478 34.652L60.8367 18.6982C61.2402 18.4619 61.7782 18.5969 62.0136 19.019L65.7461 25.5187L67.6795 25.6875L63.3755 18.2255C62.7029 17.0438 61.1898 16.6555 60.0297 17.3308L32.5408 33.2845C31.3639 33.9598 30.9772 35.4792 31.6497 36.6441L53.893 75.2876C54.0612 75.2538 54.2461 75.2369 54.4142 75.2538Z" fill="#2E99E4"/>
<path d="M60.3992 30.5488C60.3992 30.5488 38.2231 33.4019 31.7502 34.7525C31.7502 34.7525 31.4308 35.5966 31.9183 36.407C32.3891 37.2342 54.0103 74.8141 54.0103 74.8141C54.0103 74.8141 54.397 75.6413 55.0191 75.5738C55.5907 75.5063 55.6244 74.8647 55.6244 74.8647L57.1375 57.1384L58.1631 56.8683L60.3992 30.5488Z" fill="white"/>
<path d="M34.3395 39.4631C34.3395 39.4631 50.6647 36.8801 52.0265 37.0827C53.3884 37.2853 53.3043 38.3151 53.3043 39.1592C53.3043 40.0033 52.0434 65.4955 51.4885 65.715C50.9337 65.9345 48.5967 63.7229 48.5967 63.7229L48.5295 64.5164L54.8847 75.4392L55.3387 74.7639L58.7853 31.2583C58.7853 31.2583 34.5749 34.6179 32.3052 35.1581C32.3052 35.1581 31.9016 35.7659 32.406 36.6269C32.9272 37.471 34.3395 39.4631 34.3395 39.4631Z" fill="#E2EAF8"/>
<path d="M33.3639 37.9606C33.3639 37.9606 53.6905 34.736 54.1613 34.9218C55.086 35.2763 55.1364 35.8334 55.086 36.9307C55.0356 38.0112 53.203 68.433 52.7995 68.433C52.4128 68.433 50.3448 66.7448 50.3448 66.7448L50.328 67.5214L54.9011 75.4392L58.7848 31.2583C58.7848 31.2583 38.7944 33.9763 33.9019 34.7867C31.6658 35.1412 32.1366 35.9178 33.3639 37.9606Z" fill="#BACAE4"/>
<path d="M60.3484 30.2291C60.1299 30.2628 38.0883 33.0991 31.6826 34.4328L31.5145 34.4665L31.4473 34.6353C31.4305 34.6691 31.0942 35.6314 31.6322 36.5768C32.103 37.3872 53.2871 74.2074 53.7242 74.9671C53.7915 75.0852 54.2118 75.8956 54.9347 75.8956C54.9683 75.8956 55.002 75.8956 55.0524 75.8956C55.7249 75.8281 55.9267 75.2034 55.9435 74.8995L57.4398 57.3926L58.4654 57.1225L60.7688 30.1953L60.3484 30.2291ZM54.548 73.3633C51.32 67.7583 33.3807 36.5937 32.9436 35.8171C32.9268 35.8002 32.91 35.7665 32.91 35.7496C39.0298 34.5847 53.9596 32.6095 59.0875 31.9342L57.0363 55.907L56.0107 56.1771L54.548 73.3633Z" fill="#0E61A1"/>
<path d="M75.0258 29.5027C72.9242 29.6378 62.0632 31.2078 59.2218 31.613L57.0361 57.0883C58.6165 57.2909 62.0632 57.9662 65.4425 60.1609C69.2758 62.6426 72.9242 62.8621 74.3869 62.8452L77.8336 29.7729C77.2955 29.604 76.3372 29.4014 75.0258 29.5027Z" fill="white"/>
<path d="M58.6511 35.2599C58.6511 35.2599 71.2606 33.8081 71.95 34.0613C72.6393 34.3145 70.6386 58.76 69.882 59.4015C69.1254 60.0431 67.3433 60.2288 64.7037 58.8275C61.6101 57.19 59.7103 57.1056 57.1211 57.1224C57.1211 57.1224 60.6013 57.9159 62.8543 59.2834C65.1072 60.6508 70.3864 63.5546 74.0852 63.3351L77.8513 29.2498C77.8513 29.2498 75.6152 28.7434 70.1342 29.6213C64.6532 30.4991 58.8024 31.2251 58.8024 31.2251L58.6511 35.2599Z" fill="#E2EAF8"/>
<path d="M58.5674 34.1112C58.5674 34.1112 73.0264 31.4269 74.0519 32.4061C75.2961 33.6048 71.9672 59.9073 71.5805 60.5826C71.1938 61.2579 68.2852 61.815 65.9986 60.4644C65.9986 60.4644 69.0249 63.1318 73.9679 63.3175L77.8516 29.4517C77.8516 29.4517 77.4649 28.1687 69.6302 29.705C64.9394 30.6335 58.8028 31.2075 58.8028 31.2075L58.5674 34.1112Z" fill="#BACAE4"/>
<path d="M78.9268 28.9125C78.8764 28.8787 77.4641 28.1359 74.9422 28.3047C72.4875 28.4735 58.9364 30.4319 58.3648 30.5163L58.1126 30.5501L55.7588 58.1694L56.095 58.1863C56.1455 58.1863 60.5672 58.4227 64.8209 61.1576C68.7214 63.673 72.3866 64.0444 74.152 64.0444C74.7909 64.0444 75.1776 63.9938 75.228 63.9938L75.4802 63.96L79.0949 29.2332L79.1117 29.0138L78.9268 28.9125ZM77.4977 30.0098L74.1015 62.5082C72.5548 62.4913 69.1586 62.1705 65.6279 59.8745C62.4167 57.798 59.2054 57.0552 57.3896 56.802L59.508 31.8837C62.9547 31.3942 73.0255 29.9592 75.043 29.8241C76.1191 29.7566 76.9429 29.8748 77.4977 30.0098Z" fill="#0E61A1"/>
<path d="M77.3465 28.7603C77.3465 28.7603 79.4985 28.8953 84.307 32.7445C89.1154 36.6105 92.9992 41.557 94.6805 44.714C96.3617 47.871 92.8815 51.2474 90.4268 55.9069C87.9722 60.5495 80.171 72.9918 79.8852 73.2619C79.5994 73.5489 80.3223 76.115 78.4729 75.9124C76.6235 75.7098 74.4883 75.4735 74.4883 75.4735C74.4883 75.4735 72.5044 75.3384 72.6053 73.1268L77.3465 28.7603Z" fill="white"/>
<path d="M78.1039 29.8573C78.1039 29.8573 89.4861 38.5686 84.4423 53.7964C79.3985 69.0242 76.0863 67.0152 75.666 74.7473L76.7757 75.068L79.2808 75.3044L79.4321 73.0421L85.7032 63.2842L94.1937 48.833C94.1937 48.833 95.5219 46.2669 93.7734 43.7514C92.0249 41.236 86.2413 34.061 82.2734 31.5624C78.2888 29.047 78.1039 29.8573 78.1039 29.8573Z" fill="#E2EAF8"/>
<path d="M78.1039 29.8572C78.1039 29.8572 87.6199 36.0024 88.5446 45.6084C89.1162 51.5003 83.6016 62.6426 78.7764 70.7123C77.8517 72.2655 77.6499 73.903 77.5322 75.0679L79.2808 75.3043L79.4321 73.042C79.4321 73.042 89.4861 56.9026 91.4196 53.6274C93.3362 50.3523 95.3706 47.3641 94.2441 44.8993C93.1345 42.4176 90.1754 38.9399 87.2332 35.9348C84.3078 32.9129 79.0622 28.9962 78.1039 29.8572Z" fill="#BACAE4"/>
<path d="M94.9673 44.5616C93.2692 41.3709 89.3686 36.3906 84.5097 32.4908C79.6677 28.6079 77.4652 28.439 77.3643 28.4222L77.0617 28.4053L72.27 73.0926V73.1095C72.186 75.1185 73.6655 75.7431 74.4557 75.7938L78.4403 76.2327C78.5244 76.2496 78.5916 76.2496 78.6757 76.2496C79.0456 76.2496 79.365 76.1483 79.6004 75.9288C80.1384 75.4393 80.1384 74.5614 80.1384 73.9198C80.1384 73.751 80.1384 73.5316 80.1552 73.4471C80.8109 72.5861 88.3262 60.5829 90.7136 56.0584C91.3525 54.826 92.0755 53.7118 92.7648 52.6144C94.6478 49.6263 96.2787 47.0433 94.9673 44.5616ZM91.487 51.8041C90.7809 52.9183 90.058 54.0663 89.3854 55.3494C87.0485 59.7894 79.5836 71.6745 78.9951 72.4849C78.6253 72.9069 78.6253 73.4134 78.6253 73.9198V73.9874C78.6253 74.325 78.6084 74.5276 78.6084 74.6458L74.6574 74.2237H74.607C74.4053 74.19 73.7832 74.038 73.8672 73.2108L78.4571 30.3467C79.4995 30.8026 81.164 31.7311 83.5682 33.6725C88.259 37.4373 91.9914 42.215 93.6223 45.2707C94.4965 46.8913 93.3701 48.8159 91.487 51.8041Z" fill="#0E61A1"/>
<path d="M64.5349 76.4864C83.651 76.4864 101.439 78.2084 116.285 81.1459C103.91 76.689 85.3155 73.8696 64.5349 73.8696C43.7375 73.8696 25.1594 76.7059 12.7852 81.1459C27.6308 78.2084 45.4188 76.4864 64.5349 76.4864Z" fill="#2E99E4"/>
<path d="M11.8615 86.6826H15.5099L14.333 93.3849C14.2826 93.6888 14.249 93.9589 14.249 94.1615C14.249 94.5666 14.3498 94.8874 14.5684 95.1069C14.787 95.3263 15.1568 95.4445 15.6949 95.4445C16.3169 95.4445 16.7877 95.2588 17.1071 94.9043C17.4266 94.5498 17.6451 94.0433 17.7628 93.3849L18.9397 86.6826H22.6049L21.4953 93.0135C21.1926 94.803 20.5201 96.1198 19.5114 96.947C18.5026 97.7743 17.0735 98.1794 15.2241 98.1794C13.6773 98.1794 12.5341 97.8924 11.7607 97.3353C10.9873 96.7782 10.6006 95.8328 10.6006 94.5329C10.6006 94.077 10.651 93.5706 10.7351 93.0135L11.8615 86.6826Z" fill="white"/>
<path d="M30.5905 97.8924H27.5979L27.8164 96.6938C27.312 97.2509 26.8413 97.6223 26.3705 97.8249C25.8998 98.0275 25.3113 98.1288 24.622 98.1288C23.8654 98.1288 23.2602 97.9262 22.8398 97.521C22.4195 97.1158 22.2178 96.5081 22.2178 95.6977C22.2178 95.3938 22.2514 95.0562 22.3187 94.7017L23.1929 89.7383H26.421L25.6644 94.1446C25.6308 94.364 25.5971 94.5497 25.5971 94.7017C25.5971 95.0393 25.6812 95.2757 25.8325 95.4107C25.9838 95.5458 26.236 95.6133 26.5555 95.6133C26.9926 95.6133 27.3457 95.4445 27.581 95.1237C27.8164 94.803 28.0014 94.3134 28.1191 93.655L28.8084 89.7383H32.0364L30.5905 97.8924Z" fill="white"/>
<path d="M37.6688 97.8924L37.8537 96.7951C37.3997 97.2847 36.9626 97.6223 36.5591 97.8249C36.1388 98.0275 35.668 98.1288 35.13 98.1288C34.1381 98.1288 33.3815 97.8418 32.8603 97.2678C32.3391 96.6938 32.0869 95.9341 32.0869 94.9887C32.0869 94.6679 32.1205 94.3303 32.171 93.9758C32.2887 93.3173 32.4904 92.7096 32.7594 92.1525C33.0284 91.5954 33.3479 91.1227 33.7346 90.7344C34.1213 90.3461 34.5416 90.0422 34.9955 89.8227C35.4495 89.6032 35.9202 89.502 36.391 89.502C36.9122 89.502 37.3493 89.5864 37.7024 89.7383C38.0554 89.8902 38.3581 90.1772 38.6103 90.5655L39.2996 86.6826H42.5276L40.5606 97.8924H37.6688V97.8924ZM37.5679 95.2419C37.8705 94.8705 38.0554 94.4316 38.1563 93.8913C38.19 93.6888 38.2236 93.4862 38.2236 93.3005C38.2236 92.9122 38.1395 92.6083 37.9714 92.3719C37.8033 92.1356 37.5174 92.0174 37.1307 92.0174C36.6264 92.0174 36.2565 92.2031 35.9707 92.5745C35.7017 92.9459 35.5167 93.4018 35.4158 93.942C35.3822 94.1783 35.3486 94.3978 35.3486 94.6004C35.3486 94.9718 35.4327 95.2588 35.584 95.4783C35.7353 95.6977 36.0043 95.799 36.3574 95.799C36.8617 95.7822 37.2821 95.6133 37.5679 95.2419Z" fill="white"/>
<path d="M45.3177 94.5498C45.3009 94.6511 45.2841 94.7524 45.2841 94.8537C45.2841 95.242 45.4186 95.5459 45.6708 95.7822C45.9229 96.0186 46.2424 96.1367 46.6459 96.1367C46.8981 96.1367 47.1503 96.0692 47.3857 95.951C47.621 95.8329 47.8228 95.6472 47.9741 95.4108H51.0508C50.8323 95.9004 50.5465 96.3225 50.1766 96.6601C49.8067 97.0146 49.4032 97.2847 48.9661 97.5042C48.5121 97.7237 48.0414 97.8756 47.5706 97.96C47.083 98.0613 46.5955 98.0951 46.0743 98.0951C44.8805 98.0951 43.9222 97.8081 43.1993 97.2172C42.4763 96.6263 42.1064 95.7991 42.1064 94.7355C42.1064 94.4485 42.1401 94.1615 42.1905 93.8576C42.3082 93.1992 42.5436 92.6084 42.863 92.0681C43.1825 91.5279 43.586 91.0552 44.0735 90.6669C44.5611 90.2786 45.0991 89.9916 45.6876 89.7721C46.276 89.5696 46.8981 89.4683 47.5538 89.4683C48.8316 89.4683 49.8067 89.8059 50.5128 90.4981C51.219 91.1903 51.572 92.1188 51.572 93.2836C51.572 93.6719 51.5384 94.0771 51.4543 94.4992H45.3177V94.5498ZM48.5457 92.8954C48.5457 92.8785 48.5457 92.8447 48.5457 92.7941C48.5625 92.7434 48.5626 92.7097 48.5626 92.6928C48.5626 92.3551 48.4449 92.085 48.2263 91.8487C47.9909 91.6123 47.7219 91.4941 47.3688 91.4941C46.8981 91.4941 46.4946 91.6292 46.1919 91.8824C45.8893 92.1357 45.6876 92.4733 45.6203 92.9122H48.5457V92.8954Z" fill="white"/>
<path d="M56.9538 97.893C56.1636 97.9268 55.5583 97.9605 55.1044 97.9605C54.1292 97.9605 53.4567 97.8592 53.0868 97.6398C52.7169 97.4203 52.5488 97.0151 52.5488 96.4242C52.5488 96.0866 52.5992 95.6308 52.7169 95.023L53.3054 91.6128H52.1621L52.4816 89.7389H53.6753L54.1292 87.2065H57.3068L56.8529 89.7389H58.3997L58.0802 91.6128H56.5334L56.0291 94.5672C55.9954 94.7698 55.9618 94.9217 55.9618 95.023C55.9618 95.2256 56.0291 95.3775 56.1636 95.462C56.2981 95.5464 56.5166 95.5801 56.8529 95.5801H57.3573L56.9538 97.893Z" fill="white"/>
<path d="M61.6091 95.5964L61.2056 97.8924H57.9775L59.9446 86.6826H63.1727L62.1975 92.22L64.6858 89.7214H68.4687L64.9212 92.8784L67.4263 97.8755H63.5594L62.332 94.9887L61.6091 95.5964Z" fill="white"/>
<path d="M73.4797 97.8927V97.0148C72.9753 97.42 72.4709 97.707 71.9497 97.8758C71.4453 98.0446 70.8569 98.129 70.218 98.129C69.4782 98.129 68.8898 97.9602 68.419 97.6226C67.9483 97.2849 67.7129 96.7953 67.7129 96.1369C67.7129 95.985 67.7297 95.8331 67.7633 95.6474C67.8642 95.124 68.0491 94.6851 68.335 94.3474C68.6208 94.0098 68.9738 93.7397 69.3605 93.554C69.764 93.3683 70.1676 93.2332 70.5711 93.1488C70.9914 93.0644 71.4789 92.9969 72.0506 92.9293C72.7567 92.8449 73.2611 92.7605 73.5974 92.6592C73.9168 92.5579 74.1017 92.3722 74.1522 92.1021C74.1522 92.0852 74.1522 92.0683 74.169 92.0346C74.169 92.0177 74.169 92.0008 74.169 91.9839C74.169 91.7645 74.0681 91.6125 73.8664 91.545C73.6646 91.4606 73.446 91.4268 73.2107 91.4268C72.9249 91.4268 72.6558 91.4775 72.4205 91.5956C72.1851 91.6969 72.017 91.9164 71.9329 92.2203H68.8393C68.9907 91.3255 69.4614 90.6333 70.2516 90.1775C71.0418 89.7217 72.2019 89.4854 73.7487 89.4854C74.4548 89.4854 75.0601 89.536 75.5308 89.6373C76.0184 89.7386 76.3883 89.8736 76.6405 90.0593C76.9095 90.2451 77.0944 90.4645 77.1953 90.7178C77.2962 90.971 77.3634 91.2749 77.3634 91.6125C77.3634 91.9164 77.313 92.3384 77.2289 92.8787L76.5564 96.6941C76.5228 96.8966 76.4892 97.0317 76.4892 97.1161C76.4892 97.3356 76.59 97.5382 76.7918 97.7408L76.7582 97.8927H73.4797V97.8927ZM73.2443 95.7318C73.5469 95.3604 73.7151 94.8708 73.7823 94.2799C73.5133 94.3981 73.1098 94.5162 72.5886 94.6175C72.1178 94.7188 71.7648 94.837 71.5294 94.9552C71.294 95.0734 71.1595 95.2928 71.1091 95.5967C71.1091 95.6136 71.1091 95.6305 71.1091 95.6474L71.0923 95.7149C71.0923 95.8837 71.1763 96.0356 71.3445 96.1369C71.5126 96.2382 71.7311 96.2889 72.017 96.2889C72.5382 96.2889 72.9585 96.1032 73.2443 95.7318Z" fill="white"/>
<path d="M80.8602 95.3432C80.8602 95.3601 80.8602 95.3939 80.8433 95.4445C80.8433 95.4783 80.8433 95.512 80.8433 95.5458C80.8433 95.7653 80.9106 95.951 81.0619 96.086C81.2469 96.2549 81.499 96.3393 81.8185 96.3393C82.1043 96.3393 82.3565 96.2886 82.5751 96.1705C82.7936 96.0523 82.9113 95.8666 82.9786 95.6133V95.5627V95.5289C82.9786 95.3263 82.8609 95.1744 82.6087 95.0731C82.3733 94.9718 81.9698 94.8705 81.415 94.7523C80.9442 94.651 80.5743 94.5666 80.3053 94.4991C80.0195 94.4147 79.7505 94.3134 79.4647 94.1615C79.1789 94.0095 78.9603 93.8069 78.7922 93.5706C78.6241 93.3173 78.54 93.0135 78.54 92.6589C78.54 92.5239 78.5568 92.3719 78.5904 92.2031C78.6745 91.7135 78.8594 91.2746 79.1453 90.9201C79.4311 90.5655 79.7841 90.2954 80.2045 90.0759C80.6248 89.8734 81.0619 89.7214 81.5159 89.637C81.9866 89.5526 82.4406 89.502 82.8945 89.502C83.3653 89.502 83.8192 89.5357 84.2227 89.6032C84.643 89.6708 85.0129 89.7721 85.3492 89.9409C85.6854 90.1097 85.9712 90.3461 86.173 90.6499C86.3748 90.9538 86.4756 91.3421 86.4756 91.7979C86.4756 91.8317 86.4756 91.8824 86.4588 91.933C86.4588 92.0005 86.4588 92.0512 86.4588 92.0681H83.5334C83.5334 91.7979 83.4661 91.5954 83.3316 91.4772C83.1803 91.3421 82.9786 91.2746 82.7096 91.2746C82.4238 91.2746 82.1884 91.3252 82.0202 91.4096C81.8521 91.5109 81.7344 91.646 81.7008 91.8486C81.7008 92.0343 81.8353 92.1862 82.0875 92.2875C82.3397 92.3888 82.7432 92.507 83.2812 92.6252C83.752 92.7433 84.1387 92.8446 84.4413 92.9291C84.7439 93.0135 85.0297 93.1485 85.3324 93.3005C85.6182 93.4693 85.8536 93.6719 86.0217 93.9251C86.1898 94.1783 86.2907 94.4822 86.2907 94.8536C86.2907 94.9887 86.2739 95.1238 86.2571 95.2757C86.1057 96.1536 85.6182 96.8457 84.7775 97.3691C83.9537 97.8756 82.8104 98.1288 81.3645 98.1288C80.8938 98.1288 80.4398 98.095 80.0195 98.0106C79.5992 97.9262 79.2125 97.808 78.8762 97.6054C78.54 97.4197 78.271 97.1665 78.0692 96.8457C77.8675 96.525 77.7666 96.1367 77.7666 95.6809C77.7666 95.664 77.7666 95.6133 77.7666 95.5289C77.7834 95.4614 77.7834 95.4108 77.7834 95.3601H80.8602V95.3432Z" fill="white"/>
<path d="M86.7783 97.8926L88.2074 89.7385H91.4354L90.0064 97.8926H86.7783ZM88.7959 86.3789H92.0239L91.6204 88.6749H88.3923L88.7959 86.3789Z" fill="white"/>
<path d="M92.6291 89.738H95.5713L95.3527 91.0211C95.8235 90.5146 96.2943 90.1263 96.765 89.89C97.2358 89.6367 97.7738 89.5186 98.3622 89.5186C99.2533 89.5186 99.909 89.7211 100.346 90.1432C100.783 90.5653 101.002 91.173 101.002 91.9834C101.002 92.2872 100.968 92.6418 100.901 93.0132L100.044 97.8922H96.8155L97.572 93.5872C97.6057 93.3846 97.6225 93.2158 97.6225 93.0469C97.6225 92.7431 97.5552 92.4898 97.4207 92.321C97.2862 92.1522 97.0508 92.0678 96.7146 92.0678C96.2438 92.0678 95.9076 92.2028 95.6722 92.4898C95.4368 92.7768 95.2687 93.182 95.1678 93.756L94.4449 97.909H91.2168L92.6291 89.738Z" fill="white"/>
<path d="M103.625 90.6668C104.6 89.8902 105.777 89.502 107.172 89.502C108.417 89.502 109.392 89.8058 110.098 90.4136C110.787 91.0214 111.14 91.8486 111.14 92.8784C111.14 93.1485 111.107 93.4355 111.056 93.7394C110.938 94.4822 110.703 95.1237 110.367 95.664C110.031 96.2211 109.627 96.6769 109.156 97.0314C108.669 97.4029 108.131 97.673 107.542 97.8418C106.954 98.0275 106.315 98.1119 105.659 98.1119C104.466 98.1119 103.507 97.8249 102.784 97.2509C102.061 96.6769 101.691 95.8497 101.691 94.7861C101.691 94.4991 101.725 94.2121 101.775 93.8913C102.044 92.507 102.65 91.4265 103.625 90.6668ZM105.642 92.2875C105.34 92.6927 105.155 93.1823 105.054 93.7225C105.004 94.0264 104.97 94.2965 104.97 94.5329C104.97 95.0056 105.071 95.3432 105.256 95.5796C105.441 95.8159 105.71 95.9341 106.046 95.9341C106.483 95.9341 106.87 95.7484 107.172 95.3939C107.475 95.0225 107.694 94.4822 107.828 93.7225C107.862 93.4862 107.895 93.2836 107.895 93.081C107.895 92.6421 107.811 92.3044 107.626 92.0512C107.441 91.7979 107.172 91.6629 106.836 91.6629C106.332 91.6798 105.928 91.8824 105.642 92.2875Z" fill="white"/>
<path d="M116.554 97.893C115.764 97.9268 115.159 97.9605 114.705 97.9605C113.73 97.9605 113.057 97.8592 112.687 97.6398C112.318 97.4203 112.149 97.0151 112.149 96.4242C112.149 96.0866 112.2 95.6308 112.318 95.023L112.906 91.6128H111.763L112.082 89.7389H113.276L113.73 87.2065H116.907L116.453 89.7389H118L117.681 91.6128H116.134L115.63 94.5672C115.596 94.7698 115.562 94.9217 115.562 95.023C115.562 95.2256 115.63 95.3775 115.764 95.462C115.899 95.5464 116.117 95.5801 116.453 95.5801H116.958L116.554 97.893Z" fill="white"/>
<path d="M96.0928 104.814L96.345 103.329H97.8581L97.6059 104.814H96.0928Z" fill="white"/>
<path d="M102.263 101.624C102.263 101.607 102.263 101.591 102.263 101.574V101.523C102.263 101.287 102.195 101.101 102.061 100.983C101.926 100.848 101.742 100.797 101.489 100.797C101.187 100.797 100.935 100.932 100.716 101.185C100.497 101.439 100.363 101.81 100.262 102.316C100.228 102.519 100.212 102.705 100.212 102.857C100.212 103.127 100.279 103.329 100.397 103.498C100.514 103.65 100.733 103.735 101.035 103.735C101.288 103.735 101.506 103.65 101.674 103.498C101.842 103.346 101.96 103.127 102.044 102.857H103.658C103.473 103.515 103.12 104.038 102.616 104.427C102.111 104.815 101.506 105.001 100.834 105.001C100.094 105.001 99.539 104.815 99.1355 104.444C98.732 104.072 98.5303 103.566 98.5303 102.907C98.5303 102.705 98.5471 102.502 98.5807 102.283C98.648 101.878 98.7825 101.506 98.9674 101.168C99.1524 100.831 99.3877 100.544 99.6567 100.307C99.9257 100.071 100.245 99.8854 100.565 99.7672C100.901 99.6491 101.237 99.5815 101.607 99.5815C102.347 99.5815 102.902 99.7504 103.271 100.071C103.641 100.392 103.843 100.865 103.843 101.472C103.843 101.489 103.843 101.523 103.843 101.574C103.843 101.624 103.843 101.658 103.843 101.692H102.263V101.624Z" fill="white"/>
<path d="M108.399 99.6823C108.685 99.8005 108.92 99.9524 109.122 100.138C109.307 100.341 109.441 100.56 109.542 100.813C109.626 101.067 109.676 101.354 109.676 101.641C109.676 101.809 109.66 101.995 109.626 102.181C109.542 102.603 109.407 102.991 109.223 103.329C109.021 103.667 108.785 103.97 108.5 104.207C108.214 104.443 107.894 104.629 107.541 104.747C107.188 104.865 106.818 104.933 106.448 104.933C105.742 104.933 105.187 104.747 104.784 104.376C104.38 104.004 104.179 103.481 104.179 102.822C104.179 102.62 104.196 102.4 104.246 102.164C104.313 101.759 104.448 101.404 104.633 101.067C104.818 100.729 105.053 100.459 105.339 100.223C105.625 99.9862 105.944 99.8005 106.297 99.6823C106.65 99.5641 107.02 99.4966 107.424 99.4966C107.777 99.5135 108.113 99.5641 108.399 99.6823ZM106.667 100.898C106.516 100.982 106.398 101.1 106.297 101.235C106.196 101.371 106.112 101.522 106.062 101.691C105.994 101.86 105.944 102.029 105.91 102.198C105.877 102.367 105.86 102.535 105.86 102.687C105.86 102.991 105.927 103.228 106.045 103.413C106.163 103.599 106.364 103.683 106.65 103.683C107.003 103.683 107.272 103.548 107.491 103.278C107.693 103.008 107.844 102.654 107.928 102.198C107.962 102.046 107.978 101.911 107.978 101.776C107.978 101.472 107.911 101.235 107.777 101.05C107.642 100.864 107.44 100.763 107.155 100.763C106.97 100.78 106.818 100.813 106.667 100.898Z" fill="white"/>
<path d="M109.693 104.815L110.601 99.6489H112.636L112.972 102.873L114.451 99.6489H116.486L115.578 104.815H114.065L114.351 103.228L114.519 102.418L114.771 101.489H114.754L113.224 104.798H112.047L111.694 101.489H111.677L111.61 102.249L111.509 103.059L111.207 104.815H109.693Z" fill="white"/>
</svg>
