<?xml version="1.0" encoding="UTF-8"?> <svg xmlns="http://www.w3.org/2000/svg" width="1039" height="348" viewBox="0 0 1039 348" fill="none"><path d="M112.592 180.868C112.592 125.675 157.335 80.9316 212.528 80.9316H939.027C1002.51 80.9316 1049.91 139.359 1036.81 201.481L1033.18 218.74C1023.43 264.973 982.637 298.064 935.388 298.064H212.528C157.335 298.064 112.592 253.321 112.592 198.128V180.868Z" fill="#053D00"></path><path fill-rule="evenodd" clip-rule="evenodd" d="M939.027 95.9221H212.528C165.614 95.9221 127.582 133.954 127.582 180.868V198.128C127.582 245.042 165.614 283.073 212.528 283.073H935.388C975.55 283.073 1010.22 254.947 1018.51 215.649L1022.15 198.389C1033.28 145.585 992.991 95.9221 939.027 95.9221ZM212.528 80.9316C157.335 80.9316 112.592 125.675 112.592 180.868V198.128C112.592 253.321 157.335 298.064 212.528 298.064H935.388C982.637 298.064 1023.43 264.973 1033.18 218.74L1036.81 201.481C1049.91 139.359 1002.51 80.9316 939.027 80.9316H212.528Z" fill="#17A309"></path><path d="M5.76635 260.518C4.70153 268.629 6.14217 276.553 9.52452 283.506C15.4123 295.626 27.1566 304.708 41.3437 306.399C46.5425 307.025 51.6474 306.618 56.4078 305.397L57.0341 294.999L58.5687 269.538C57.9737 269.475 57.3473 269.381 56.7523 269.318C44.7574 267.972 35.0175 267.627 28.472 261.927C24.6512 258.608 21.8952 253.44 20.4546 245.172C20.204 243.731 19.3584 242.635 18.2936 242.009C17.0409 241.257 15.475 241.132 14.1283 241.727C13.3453 242.072 12.6563 242.635 12.0926 243.45C8.83553 248.429 6.61194 254.223 5.76635 260.518Z" fill="#545A69"></path><path d="M5.76635 260.52C4.70153 268.631 6.14217 276.555 9.52452 283.507C13.0948 271.763 24.244 264.403 28.472 261.961C24.6512 258.641 21.8952 253.473 20.4546 245.205C20.204 243.765 19.3584 242.669 18.2936 242.042C17.0409 241.291 15.475 241.165 14.1283 241.76C13.3453 242.105 12.6563 242.669 12.0926 243.483C8.83553 248.431 6.61194 254.225 5.76635 260.52Z" fill="white"></path><path opacity="0.4" d="M5.76592 260.514C2.7907 282.812 19.0448 303.733 41.3433 306.395C46.5421 307.021 51.647 306.614 56.4073 305.392L57.0337 294.995C54.1211 295.308 51.1146 295.277 48.0767 294.901C25.7469 292.239 9.5241 271.318 12.4993 249.02C12.8438 246.483 13.4075 244.072 14.1592 241.723C13.3762 242.067 12.6872 242.631 12.1235 243.445C8.8351 248.425 6.61151 254.219 5.76592 260.514Z" fill="#042800"></path><path opacity="0.4" d="M18.3259 242.008C17.1358 246.424 15.4133 256.445 21.2385 264.807C28.9741 275.894 55.8137 276.583 55.8137 276.583L56.7533 269.317C37.7432 267.188 24.339 267.532 20.4556 245.171C20.2363 243.73 19.3907 242.634 18.3259 242.008Z" fill="white"></path><path d="M11.5627 292.78C4.23423 283.353 1.07109 271.734 2.60568 260.115C3.48259 253.476 5.80013 247.275 9.46435 241.7C11.2495 239.007 14.4126 237.691 17.5444 238.349C20.6762 239.007 23.0564 241.481 23.6201 244.613C26.8146 262.965 36.1161 263.936 52.9652 265.69C54.9069 265.878 56.9113 266.097 58.9783 266.347L61.9535 266.692L59.4481 307.844L57.1932 308.439C51.9004 309.817 46.4197 310.161 40.9391 309.535C38.4649 309.253 36.0534 308.752 33.7359 308.063C25.0608 305.495 17.3252 300.202 11.5627 292.78ZM55.2201 272.36C54.218 272.266 53.2471 272.141 52.3075 272.047C43.6011 271.139 36.1161 270.356 30.0404 266.911C23.213 263.028 19.2043 256.294 17.3565 245.74C17.1999 244.926 16.6049 244.675 16.2917 244.613C15.9472 244.55 15.2895 244.519 14.8198 245.239C11.6879 249.999 9.7149 255.292 8.96326 260.961C7.6479 270.888 10.3726 280.816 16.6362 288.896C22.8998 296.976 31.8255 302.081 41.7533 303.271C45.6681 303.741 49.5829 303.585 53.4037 302.864L55.2201 272.36Z" fill="#042800"></path><path d="M174.449 335.164C173.51 334.725 172.539 334.287 171.568 333.817C167.121 331.719 164.772 328.869 163.613 327.021C160.763 326.77 156.222 326.99 150.773 329.495C144.603 332.314 139.185 333.253 135.521 333.566C135.302 335.446 135.114 337.732 135.145 339.11C135.176 339.799 135.333 340.425 135.521 340.895H179.805C180.494 340.112 181.026 339.266 181.12 338.828C180.368 337.857 176.829 336.228 174.449 335.164Z" fill="#053700"></path><path d="M79.3354 329.495C73.886 326.99 69.3136 326.77 66.4949 327.021C65.3362 328.869 62.9873 331.719 58.5401 333.817C57.5693 334.287 56.5984 334.725 55.6589 335.164C53.2787 336.26 49.7397 337.857 48.9881 338.828C49.0821 339.266 49.5831 340.112 50.3035 340.895H94.5873C94.7752 340.425 94.9631 339.799 94.9631 339.11C94.9944 337.732 94.7752 335.446 94.5873 333.566C90.9231 333.253 85.505 332.314 79.3354 329.495Z" fill="#053700"></path><path d="M107.772 287.722C107.239 287.315 106.644 286.845 106.018 286.312C105.329 286.782 104.734 287.377 104.327 288.066C103.794 288.943 103.481 289.977 103.481 291.042V297.117C103.481 300.249 106.018 302.786 109.15 302.786H120.988C124.12 302.786 126.657 300.249 126.657 297.117V291.042C126.657 289.977 126.343 288.943 125.811 288.066C125.373 287.377 124.809 286.782 124.12 286.312C123.494 286.814 122.898 287.283 122.366 287.722C123.525 288.411 124.308 289.695 124.308 291.135V297.055C124.308 299.247 122.523 301.001 120.362 301.001H109.807C107.615 301.001 105.861 299.216 105.861 297.055V291.135C105.83 289.695 106.613 288.411 107.772 287.722Z" fill="#486A9B"></path><path d="M120.33 297.89C120.799 297.89 121.144 297.514 121.144 297.075V291.156C121.144 290.686 120.768 290.311 120.33 290.311H118.858C116.321 292.064 115.632 292.064 115.037 292.064C114.442 292.064 113.753 292.064 111.216 290.311H109.744C109.274 290.311 108.93 290.686 108.93 291.156V297.075C108.93 297.545 109.306 297.89 109.744 297.89H120.33Z" fill="#443E40"></path><path d="M119.985 241.807L124.088 236.514C120.894 232.537 117.386 229.217 115.069 229.217C112.751 229.217 109.243 232.537 106.049 236.514L110.152 241.807H119.985Z" fill="#E02D2D"></path><path d="M102.071 283.046C101.413 282.483 100.818 281.981 100.255 281.512C99.3464 282.42 98.3443 283.297 97.2794 284.174C98.7827 284.205 100.067 284.236 100.912 284.236C101.288 283.798 101.664 283.422 102.071 283.046Z" fill="#6E7072"></path><path d="M101.821 242.372C102.949 244.314 104.013 246.412 104.984 248.636L106.581 244.376L103.324 240.148C102.792 240.9 102.291 241.652 101.821 242.372Z" fill="#A7A9AC"></path><path d="M82.5287 233.879C83.0298 236.166 86.2869 248.756 96.1208 254.487C97.2796 253.892 98.2191 253.704 98.2191 253.704C98.2191 253.704 96.0895 258.12 96.434 262.567C96.4653 262.943 96.4966 263.35 96.528 263.788C96.8411 267.108 97.2796 271.931 95.9016 277.005C98.8142 274.092 100.693 270.866 101.508 267.359C103.7 258.057 98.3131 248.286 94.0851 241.709C89.6066 234.725 89.3561 226.269 89.7632 221.039C87.1951 223.826 83.2491 228.806 82.5287 233.879Z" fill="#299F1D"></path><path d="M128.034 283.046C128.441 283.422 128.848 283.829 129.193 284.236C130.038 284.236 131.323 284.205 132.826 284.174C131.761 283.297 130.759 282.42 129.851 281.512C129.287 281.981 128.692 282.483 128.034 283.046Z" fill="#6E7072"></path><path d="M126.969 278.161C124.808 275.28 123.336 272.148 122.553 268.766C121.457 264.1 121.801 259.464 122.898 255.111L119.515 246.186H110.59L107.238 255.143C108.335 259.496 108.679 264.131 107.583 268.797C106.8 272.148 105.328 275.28 103.136 278.193C108.585 282.734 114.911 287.463 115.037 287.682C115.162 287.432 121.52 282.734 126.969 278.161Z" fill="#E02D2D"></path><path d="M126.813 240.148L123.556 244.376L125.153 248.636C126.124 246.412 127.189 244.314 128.316 242.372C127.815 241.652 127.314 240.9 126.813 240.148Z" fill="#A7A9AC"></path><path d="M128.63 267.359C129.444 270.866 131.323 274.092 134.236 277.005C132.858 271.931 133.296 267.139 133.609 263.788C133.641 263.35 133.672 262.974 133.703 262.567C134.079 258.12 131.918 253.704 131.918 253.704C131.918 253.704 132.858 253.892 134.016 254.487C143.85 248.756 147.107 236.134 147.609 233.879C146.857 228.806 142.942 223.826 140.374 221.039C140.781 226.238 140.531 234.725 136.052 241.709C131.824 248.255 126.437 258.057 128.63 267.359Z" fill="#299F1D"></path><path d="M98.4708 295.794V291.065C98.4708 290.439 98.5334 289.812 98.6274 289.217C97.7818 289.217 96.7796 289.186 95.6208 289.155C93.3972 289.092 91.1736 289.029 90.0149 288.998C88.3237 290 86.6951 290.971 85.1292 291.911C84.7847 292.099 84.4716 292.286 84.1584 292.506C84.4402 293.257 84.5029 294.103 84.3776 294.98C87.8539 295.418 92.489 295.794 98.4708 295.794Z" fill="#443E40"></path><path d="M145.009 291.877C143.443 290.938 141.815 289.998 140.123 288.965C138.965 288.996 136.741 289.059 134.517 289.121C133.39 289.153 132.388 289.184 131.511 289.184C131.605 289.779 131.667 290.405 131.667 291.032V295.761C137.649 295.792 142.284 295.385 145.761 294.915C145.635 294.038 145.729 293.193 145.98 292.441C145.635 292.253 145.322 292.065 145.009 291.877Z" fill="#443E40"></path><path d="M165.679 320.968L169.782 308.159C167.339 305.967 164.207 303.712 160.355 301.238C158.32 302.365 156.472 302.772 154.906 302.772C152.056 302.772 150.02 301.457 149.112 300.705C148.736 300.392 148.36 300.048 148.047 299.672C144.32 300.298 139.122 300.799 132.263 300.799C131.856 300.799 131.449 300.799 131.01 300.799C129.507 304.902 125.592 307.846 120.957 307.846H109.119C104.515 307.846 100.569 304.902 99.0657 300.799C98.6586 300.799 98.2514 300.799 97.8443 300.799C90.9856 300.799 85.7868 300.267 82.06 299.672C81.7468 300.048 81.371 300.361 80.9952 300.705C80.0869 301.426 78.0826 302.772 75.2013 302.772C73.6354 302.772 71.7876 302.365 69.752 301.238C65.8998 303.743 62.768 305.998 60.3252 308.159L64.4279 320.968C68.0295 320.436 74.387 320.342 81.9347 323.787C88.856 326.95 94.6499 327.388 97.3119 327.388C97.3432 327.388 97.3745 327.388 97.4059 327.388L102.26 319.34C94.8065 316.239 90.0461 311.479 89.8895 311.354C90.0774 311.416 101.665 315.769 115.038 315.769C128.411 315.769 139.967 311.416 140.186 311.354C140.03 311.51 135.301 316.239 127.816 319.34L132.67 327.388C132.701 327.388 132.733 327.388 132.764 327.388C135.426 327.388 141.22 326.95 148.141 323.787C155.72 320.342 162.078 320.436 165.679 320.968Z" fill="#299F1D"></path><path d="M54.1552 305.373C48.8937 299.799 46.7015 295.007 45.8559 292.783C45.7619 292.783 45.6993 292.752 45.6053 292.721C44.1021 301.897 47.5157 307.628 50.2404 310.572C51.2426 308.756 52.5266 307.033 54.1552 305.373Z" fill="#299F1D"></path><path d="M77.1109 297.631C77.9878 297.161 78.6141 296.504 79.0526 295.846C79.585 295.063 79.2405 293.998 78.3949 293.622C78.1757 293.528 77.9565 293.434 77.7686 293.34C74.7307 292.088 70.5967 290.365 69.1874 286.513C68.3105 284.07 66.7759 282.316 65.8677 281.408C61.7963 283.256 55.5014 287.296 50.2712 291.023C50.8663 292.683 52.7767 297.005 57.631 302.172C59.6354 300.512 61.9529 298.852 64.6463 297.067C64.1139 296.504 63.5814 295.909 63.0177 295.251C63.2056 295.376 72.3192 300.262 77.1109 297.631Z" fill="white"></path><path d="M160.95 286.513C159.54 290.365 155.406 292.088 152.4 293.34C152.212 293.434 151.993 293.528 151.773 293.622C150.897 293.998 150.583 295.063 151.084 295.846C151.523 296.472 152.181 297.161 153.026 297.631C157.787 300.262 166.9 295.376 167.151 295.251C166.587 295.909 166.055 296.535 165.522 297.067C168.184 298.852 170.533 300.512 172.537 302.172C177.392 297.005 179.302 292.683 179.897 291.023C174.667 287.327 168.372 283.256 164.301 281.408C163.361 282.348 161.827 284.102 160.95 286.513Z" fill="white"></path><path d="M184.251 292.754C183.437 295.009 181.213 299.769 175.952 305.344C177.549 307.004 178.865 308.726 179.867 310.511C182.591 307.568 186.005 301.868 184.502 292.66C184.408 292.723 184.345 292.754 184.251 292.754Z" fill="#299F1D"></path><path d="M45.324 285.398C45.7625 285.961 46.2636 286.65 46.8273 287.339C50.4289 284.771 58.2584 279.416 63.7391 276.91L62.4237 274.061C56.0975 277.349 48.6438 282.861 45.324 285.398Z" fill="white"></path><path d="M184.814 285.398C181.463 282.861 174.041 277.349 167.746 274.061L166.43 276.91C171.911 279.416 179.741 284.771 183.342 287.339C183.875 286.65 184.376 285.961 184.814 285.398Z" fill="white"></path><path d="M52.9969 246.431C52.9969 246.431 56.6298 247.559 60.0748 250.753C66.9648 244.083 72.5394 232.745 72.5394 232.745C72.5394 232.745 71.6312 247.59 63.8643 255.67C64.1462 256.234 64.428 256.86 64.6786 257.487C66.8395 263.124 68.0296 268.448 68.0609 268.699C68.3428 269.92 67.8417 271.141 66.9022 271.862L68.9065 276.152C69.1884 276.779 69.2823 277.468 69.1884 278.157C70.4724 279.441 72.4141 281.727 73.5729 284.921C74.168 286.55 76.4229 287.709 78.4272 288.586C79.5547 287.928 80.7134 287.239 81.9035 286.519C83.2502 285.704 84.6595 284.89 86.1002 284.013C92.7083 277.499 91.988 269.67 91.4869 264.252C91.4556 263.813 91.4243 263.375 91.3616 262.999C91.205 260.963 91.5808 259.335 92.2698 258.082C80.5255 250.315 77.5816 235.126 77.4564 234.468L77.3937 234.092L77.425 233.716C78.0827 227.954 81.7783 222.598 84.7535 219.091C75.6712 217.274 67.6538 214.675 61.2022 211.48C60.2314 212.169 38.7158 227.922 35.678 245.93C33.3291 259.961 39.3735 273.772 42.474 279.691C46.6706 276.528 54.6568 270.797 61.2962 267.603C56.6924 250.252 56.3793 250.002 52.9969 246.431Z" fill="#299F1D"></path><path d="M102.604 233.248C105.297 229.897 107.802 227.517 110.089 226.107L105.829 221.66C102.51 221.472 99.2525 221.19 96.0894 220.814C95.7136 224.948 95.6509 232.183 99.1273 237.914C100.067 236.567 101.257 234.908 102.604 233.248Z" fill="white"></path><path d="M117.512 221.928C116.697 221.928 115.883 221.959 115.038 221.959C114.223 221.959 113.409 221.959 112.595 221.928L115.038 224.496L117.512 221.928Z" fill="white"></path><path d="M127.533 233.248C128.879 234.908 130.069 236.536 131.009 237.914C134.485 232.214 134.454 224.948 134.047 220.814C130.884 221.19 127.627 221.472 124.307 221.66L120.048 226.107C122.334 227.548 124.808 229.897 127.533 233.248Z" fill="white"></path><path d="M194.398 245.913C191.36 227.905 169.876 212.152 168.874 211.463C162.422 214.657 154.405 217.257 145.291 219.073C148.266 222.581 151.962 227.968 152.62 233.699L152.651 234.075L152.588 234.45C152.463 235.139 149.519 250.329 137.775 258.064C138.432 259.317 138.84 260.946 138.683 262.981C138.652 263.388 138.62 263.795 138.558 264.234C138.057 269.652 137.368 277.482 143.944 283.996C145.385 284.873 146.794 285.687 148.141 286.501C149.331 287.221 150.49 287.91 151.617 288.568C153.653 287.691 155.877 286.532 156.472 284.904C157.63 281.709 159.572 279.423 160.856 278.139C160.762 277.482 160.856 276.761 161.138 276.135L163.142 271.844C162.203 271.124 161.702 269.903 161.984 268.681C162.046 268.462 163.236 263.106 165.366 257.469C165.617 256.843 165.898 256.217 166.18 255.653C158.445 247.573 157.505 232.728 157.505 232.728C157.505 232.728 163.048 244.065 169.97 250.736C173.383 247.573 177.048 246.414 177.048 246.414C173.665 249.984 173.352 250.235 168.717 267.554C175.356 270.748 183.343 276.479 187.539 279.642C190.702 273.755 196.747 259.912 194.398 245.913Z" fill="#299F1D"></path><path d="M101.822 260.21C101.822 260.21 101.321 266.693 98.4394 264.219C95.5582 261.776 97.6565 254.98 97.6565 254.98L95.2137 256.797C85.599 253.226 78.4585 236.346 78.4585 236.346C77.8634 247.433 89.138 260.242 89.138 260.242C89.138 260.242 86.5699 273.113 77.6442 271.046C68.7185 268.948 69.2196 255.732 69.2196 255.732C72.0383 248.904 71.6624 238.601 71.6624 238.601L71.6311 234.467C64.7725 245.522 55.0325 247.339 55.0325 247.339L58.7907 251.253L62.6115 267.852L55.0325 271.798C34.7071 264.877 36.3356 243.111 36.3356 243.111C30.6044 258.049 41.7223 284.263 41.7223 284.263L64.428 271.422L67.3405 279.283C67.3405 279.283 68.8438 283.166 72.8839 286.643C76.9552 290.15 80.6194 290.808 80.6194 290.808C80.6194 290.808 98.7839 278.719 101.822 272.487C104.86 266.223 101.822 260.21 101.822 260.21Z" fill="#299F1D"></path><path d="M64.4584 320.983L62.9864 307.83L66.2122 303.602C66.2122 303.602 61.6084 306.358 59.2282 308.519L64.4584 320.983Z" fill="#299F1D"></path><path d="M37.7755 237.957C37.7755 237.957 48.4236 221.515 62.7673 215.345L56.8795 212.965C56.9108 212.965 43.9451 223.926 37.7755 237.957Z" fill="#299F1D"></path><path d="M49.5829 244.709C49.5829 244.709 53.9361 246.525 55.5959 248.498C57.2558 250.472 59.0409 259.272 59.0409 259.272C59.0409 259.272 54.6564 249.689 49.5829 244.709Z" fill="#299F1D"></path><path d="M89.7638 221.039C89.7638 221.039 86.7886 230.967 90.1396 237.231C93.4907 243.494 100.569 251.919 100.569 251.919C100.569 251.919 89.4193 234.725 89.7638 221.039Z" fill="#299F1D"></path><path d="M52.7787 278.412C52.7787 278.412 56.7874 280.354 61.2032 279.571L46.1392 289.248L43.4146 285.146L52.7787 278.412Z" fill="white"></path><path d="M98.9719 221.153C98.9719 221.153 97.406 228.575 101.07 229.39C104.703 230.204 109.15 227.573 109.15 227.573L98.8153 240.758C98.8153 240.758 92.4891 228.857 95.2138 220.84L98.9719 221.153Z" fill="white"></path><path d="M78.4248 328.367C78.4248 328.367 80.0847 336.134 77.5792 337.418C75.0738 338.702 50.8022 340.049 50.8022 340.049L48.7979 338.984V341.427L50.5203 341.709H97.0278L97.8107 332.783L78.4248 328.367Z" fill="#053000"></path><path d="M52.6511 336.567C52.6511 336.567 68.3102 331.306 69.3123 325.293L65.6168 325.951C65.6168 325.951 63.4872 331.056 52.6511 336.567Z" fill="#213947"></path><path d="M86.5995 290.308C86.5995 290.308 95.9323 290.841 100.004 290.778V287.96L88.6038 287.678L86.5995 290.308Z" fill="#636263"></path><path d="M108.774 292.034H115.068V290.531L110.778 288.965L108.272 289.842L108.774 292.034Z" fill="#636263"></path><path d="M128.286 260.21C128.286 260.21 128.787 266.693 131.668 264.219C134.55 261.776 132.451 254.98 132.451 254.98L134.894 256.797C144.509 253.226 151.649 236.346 151.649 236.346C152.244 247.433 140.97 260.242 140.97 260.242C140.97 260.242 143.538 273.113 152.464 271.046C161.389 268.948 160.888 255.732 160.888 255.732C158.069 248.904 158.445 238.601 158.445 238.601L158.477 234.467C165.335 245.522 175.075 247.339 175.075 247.339L171.317 251.191L167.496 267.789L175.075 271.735C195.401 264.814 193.772 243.048 193.772 243.048C199.503 257.987 188.385 284.2 188.385 284.2L165.68 271.36L162.767 279.22C162.767 279.22 161.264 283.104 157.224 286.58C153.153 290.088 149.488 290.745 149.488 290.745C149.488 290.745 131.324 278.657 128.286 272.424C125.248 266.223 128.286 260.21 128.286 260.21Z" fill="#299F1D"></path><path d="M151.93 314.014C152.368 307.531 156.408 301.612 156.408 301.612C153.84 301.361 149.017 297.885 149.017 297.885L129.381 298.511C129.381 298.511 127.376 303.209 125.779 304.336C124.213 305.464 115.037 305.464 115.037 305.464C115.037 305.464 105.892 305.464 104.295 304.336C102.729 303.209 100.693 298.511 100.693 298.511L81.0567 297.885C81.0567 297.885 76.2337 301.361 73.6656 301.612C73.6656 301.612 77.7057 307.531 78.1441 314.014C78.5826 320.496 73.6656 322.563 73.6656 322.563C73.6656 322.563 82.9045 324.787 86.8506 327.919C90.7967 331.051 99.6597 330.174 99.6597 330.174L106.957 318.242L115.037 317.584L123.117 318.242L130.414 330.174C130.414 330.174 139.277 331.019 143.223 327.919C147.169 324.787 156.408 322.563 156.408 322.563C156.408 322.563 151.491 320.496 151.93 314.014Z" fill="#299F1D"></path><path d="M165.678 320.983L167.15 307.83L163.924 303.602C163.924 303.602 168.528 306.358 170.908 308.519L165.678 320.983Z" fill="#299F1D"></path><path d="M192.33 237.957C192.33 237.957 181.682 221.515 167.339 215.345L173.226 212.965C173.226 212.965 186.161 223.926 192.33 237.957Z" fill="#299F1D"></path><path d="M180.554 244.709C180.554 244.709 176.201 246.525 174.541 248.498C172.881 250.472 171.096 259.272 171.096 259.272C171.096 259.272 175.449 249.689 180.554 244.709Z" fill="#299F1D"></path><path d="M140.375 221.039C140.375 221.039 143.35 230.967 139.999 237.231C136.648 243.494 129.57 251.919 129.57 251.919C129.57 251.919 140.719 234.725 140.375 221.039Z" fill="#299F1D"></path><path d="M177.329 278.412C177.329 278.412 173.321 280.354 168.905 279.571L183.969 289.248L186.693 285.146L177.329 278.412Z" fill="white"></path><path d="M131.134 221.153C131.134 221.153 132.7 228.575 129.036 229.39C125.371 230.204 120.956 227.573 120.956 227.573L131.291 240.758C131.291 240.758 137.617 228.857 134.892 220.84L131.134 221.153Z" fill="white"></path><path d="M151.711 328.367C151.711 328.367 150.051 336.134 152.557 337.418C155.062 338.702 179.334 340.049 179.334 340.049L181.338 338.984V341.427L179.615 341.709H133.139L132.356 332.783L151.711 328.367Z" fill="#053000"></path><path d="M177.485 336.567C177.485 336.567 161.826 331.306 160.824 325.293L164.519 325.951C164.488 325.951 166.649 331.056 177.485 336.567Z" fill="#213947"></path><path d="M143.538 290.308C143.538 290.308 134.205 290.841 130.134 290.778V287.96L141.534 287.678L143.538 290.308Z" fill="#636263"></path><path d="M121.333 292.034H115.069V290.531L119.328 288.965L121.865 289.842L121.333 292.034Z" fill="#636263"></path><path d="M126.968 291.209C126.968 291.209 127 295.155 123.93 296.001C123.93 296.001 123.273 299.101 120.924 299.289C118.575 299.477 115.099 299.665 115.099 299.665C115.099 299.665 111.591 299.477 109.274 299.289C106.925 299.101 106.267 296.001 106.267 296.001C103.167 295.155 103.229 291.209 103.229 291.209C103.229 291.209 100.348 299.07 104.012 301.857C107.645 304.644 115.13 303.987 115.13 303.987C115.13 303.987 122.615 304.644 126.248 301.857C129.818 299.039 126.968 291.209 126.968 291.209Z" fill="#224466"></path><g opacity="0.4"><path d="M54.1551 287.652C54.1551 287.652 55.5958 295.858 63.3313 295.67C63.3313 295.67 61.7654 294.323 60.7006 292.1C60.7006 292.1 69.5323 297.392 74.1361 296.829C78.7399 296.234 79.3036 293.728 79.3036 293.728C79.3036 293.728 82.4667 296.484 78.2701 298.52C74.0735 300.555 67.3088 298.269 67.3088 298.269L57.2243 304.282C57.2243 304.282 49.5514 296.327 48.2986 290.283L54.1551 287.652Z" fill="#042800"></path><path d="M175.981 287.652C175.981 287.652 174.54 295.858 166.805 295.67C166.805 295.67 168.37 294.323 169.435 292.1C169.435 292.1 160.604 297.392 156 296.829C151.396 296.265 150.832 293.728 150.832 293.728C150.832 293.728 147.669 296.484 151.866 298.52C156.062 300.555 162.827 298.269 162.827 298.269L172.912 304.282C172.912 304.282 180.584 296.327 181.837 290.283L175.981 287.652Z" fill="#042800"></path></g><path d="M125.435 255.486L121.145 244.775C121.051 244.524 121.051 244.243 121.176 244.023L125.592 236.1C125.78 235.755 125.717 235.317 125.435 235.035C124.026 233.72 119.861 230.024 116.353 228.27C115.758 227.988 115.1 228.396 115.1 229.053C115.1 228.396 114.411 227.988 113.848 228.27C110.34 230.024 106.175 233.751 104.765 235.035C104.484 235.317 104.39 235.755 104.609 236.1L109.025 244.023C109.15 244.243 109.181 244.524 109.056 244.775L104.765 255.486C104.703 255.611 104.703 255.768 104.703 255.893C105.768 264.975 101.665 273.744 100.412 276.187C100.224 276.563 100.318 277.033 100.694 277.283L114.631 287.274C114.944 287.493 115.351 287.493 115.633 287.274L129.569 277.283C129.914 277.033 130.039 276.563 129.851 276.187C128.599 273.744 124.496 264.975 125.561 255.893C125.498 255.768 125.498 255.642 125.435 255.486ZM109.808 235.724C110.183 233.908 112.031 232.154 113.441 231.058C114.38 230.306 115.727 230.306 116.666 231.058C118.076 232.154 119.923 233.908 120.299 235.724C120.894 238.699 115.069 238.48 115.069 238.48C115.069 238.48 109.213 238.699 109.808 235.724ZM114.631 280.039L105.987 274.903C105.642 274.715 105.486 274.308 105.58 273.932L112.157 248.032C112.25 247.656 112.595 247.374 113.002 247.374H117.105C117.512 247.374 117.856 247.656 117.95 248.032L124.527 273.932C124.621 274.308 124.465 274.684 124.12 274.903L115.476 280.039C115.226 280.196 114.881 280.196 114.631 280.039Z" fill="#BA1111"></path><path d="M183.091 346.401C182.527 346.87 181.807 347.121 181.087 347.121H133.734C132.825 347.121 131.948 346.714 131.353 346.025C131.103 345.743 128.942 343.112 128.879 339.197C128.848 337.506 129.067 335.032 129.255 333.09C129.443 331.462 129.6 330.178 129.6 330.084L135.801 330.929C135.738 331.493 135.613 332.433 135.487 333.529C135.268 335.408 135.08 337.694 135.112 339.072C135.143 339.761 135.3 340.388 135.487 340.857H179.771C180.46 340.074 180.993 339.229 181.087 338.79C180.335 337.851 176.796 336.222 174.416 335.126C173.476 334.688 172.505 334.249 171.535 333.779C167.087 331.681 164.739 328.831 163.58 326.983C162.985 326.044 162.734 325.355 162.64 325.167L168.497 322.975V322.943C168.559 323.131 169.123 324.353 170.626 325.731C171.472 326.514 172.631 327.359 174.197 328.111C175.136 328.549 176.076 328.988 176.984 329.395C182.496 331.932 186.881 333.905 187.288 337.976C187.789 342.204 183.874 345.712 183.091 346.401Z" fill="#042800"></path><path d="M104.325 288.058C103.667 289.091 103.009 289.248 101.287 289.248C100.942 289.248 100.566 289.248 100.128 289.248C99.6895 289.248 99.1884 289.248 98.6247 289.217C97.7791 289.217 96.7769 289.185 95.6181 289.154C93.3945 289.091 91.1709 289.029 90.0122 288.997C89.4798 288.997 89.1666 288.966 89.1666 288.966L89.3232 283.955C92.0479 284.049 94.9291 284.112 97.278 284.174C98.7813 284.206 100.065 284.237 100.911 284.237C101.443 284.237 101.788 284.237 101.944 284.237C101.412 284.268 100.598 284.581 100.097 285.364L104.325 288.058Z" fill="#231F20"></path><path d="M101.1 300.744C100.411 300.744 99.7536 300.776 99.096 300.776C98.6888 300.776 98.2817 300.776 97.8746 300.776C91.0159 300.776 85.8171 300.243 82.0902 299.648C81.3073 299.523 80.5556 299.398 79.8979 299.241C80.399 298.27 80.7749 297.174 81.0254 296.109C81.1507 295.577 81.2446 294.982 81.3073 294.387C82.2155 294.543 83.2177 294.731 84.3764 294.888C87.8528 295.389 92.4878 295.765 98.4696 295.733C99.2839 295.733 100.129 295.733 101.006 295.702L101.1 300.744Z" fill="#231F20"></path><path d="M140.968 288.966C140.968 288.966 140.655 288.966 140.122 288.997C138.963 289.029 136.74 289.091 134.516 289.154C133.389 289.185 132.387 289.217 131.51 289.217C130.946 289.217 130.445 289.248 130.038 289.248C129.599 289.248 129.223 289.248 128.879 289.248C127.156 289.248 126.499 289.091 125.841 288.058L130.069 285.364C129.568 284.581 128.754 284.268 128.221 284.237C128.378 284.237 128.722 284.237 129.255 284.237C130.1 284.237 131.384 284.206 132.888 284.174C135.236 284.112 138.149 284.049 140.842 283.955L140.968 288.966Z" fill="#231F20"></path><path d="M150.238 299.27C149.581 299.396 148.829 299.552 148.046 299.677C144.319 300.304 139.121 300.805 132.262 300.805C131.855 300.805 131.448 300.805 131.009 300.805C130.351 300.805 129.694 300.805 129.005 300.774L129.13 295.763C130.007 295.794 130.853 295.794 131.667 295.794C137.649 295.825 142.284 295.418 145.76 294.948C146.919 294.792 147.952 294.604 148.829 294.447C148.86 295.042 148.986 295.637 149.111 296.17C149.33 297.203 149.706 298.268 150.238 299.27Z" fill="#231F20"></path><path d="M124.307 291.138V297.057C124.307 299.249 122.522 301.003 120.361 301.003H109.807C107.615 301.003 105.861 299.218 105.861 297.057V291.138C105.861 289.697 106.644 288.413 107.803 287.724C108.398 287.379 109.087 287.16 109.807 287.16H112.438V290.292H109.807C109.337 290.292 108.993 290.668 108.993 291.138V297.057C108.993 297.526 109.368 297.871 109.807 297.871H120.361C120.831 297.871 121.175 297.495 121.175 297.057V291.138C121.175 290.668 120.8 290.292 120.361 290.292H117.73V287.16H120.361C121.081 287.16 121.77 287.348 122.365 287.724C123.493 288.413 124.307 289.697 124.307 291.138Z" fill="#042800"></path><path d="M131.667 291.076V297.152C131.667 298.436 131.448 299.657 131.009 300.816C129.506 304.919 125.591 307.862 120.956 307.862H109.118C104.514 307.862 100.568 304.919 99.0646 300.816C98.6574 299.688 98.4069 298.436 98.4069 297.152V291.076C98.4069 290.45 98.4695 289.823 98.5635 289.228C98.814 287.85 99.3151 286.566 100.035 285.407C100.286 285 100.568 284.624 100.85 284.28C101.194 283.841 101.601 283.434 102.008 283.09C102.823 282.37 103.762 281.774 104.796 281.305L106.8 285.908C106.487 286.034 106.205 286.19 105.955 286.378C105.266 286.848 104.671 287.443 104.263 288.132C103.731 289.009 103.418 290.042 103.418 291.107V297.183C103.418 300.315 105.955 302.852 109.086 302.852H120.925C124.056 302.852 126.593 300.315 126.593 297.183V291.107C126.593 290.042 126.28 289.009 125.748 288.132C125.309 287.443 124.745 286.848 124.056 286.378C123.775 286.19 123.493 286.034 123.211 285.908L125.215 281.305C126.249 281.774 127.188 282.37 128.003 283.09C128.41 283.466 128.817 283.873 129.161 284.28C129.443 284.624 129.725 285 129.976 285.407C130.696 286.566 131.228 287.85 131.448 289.228C131.604 289.823 131.667 290.45 131.667 291.076Z" fill="#042800"></path><path d="M101.257 339.195C101.194 343.11 99.0334 345.741 98.7828 346.023C98.1878 346.712 97.3109 347.119 96.4026 347.119H49.0496C48.3293 347.119 47.609 346.868 47.0453 346.399C46.2623 345.741 42.3476 342.202 42.7547 338.037C43.1618 333.965 47.5464 331.992 53.0584 329.455C53.9666 329.048 54.9061 328.61 55.8457 328.171C57.4116 327.42 58.5703 326.574 59.4159 325.791C60.9192 324.413 61.4829 323.192 61.5456 323.004V323.035L67.4334 325.227C67.3707 325.415 67.0889 326.104 66.4938 327.044C65.3351 328.892 62.9862 331.742 58.539 333.84C57.5682 334.31 56.5973 334.748 55.6578 335.187C53.2776 336.283 49.7386 337.88 48.987 338.851C49.081 339.289 49.582 340.135 50.3024 340.918H94.5862C94.7741 340.448 94.962 339.822 94.962 339.133C94.9933 337.755 94.7741 335.468 94.5862 333.589C94.4609 332.493 94.3356 331.554 94.273 330.99L100.474 330.144C100.505 330.238 100.662 331.522 100.85 333.151C101.069 335.03 101.288 337.504 101.257 339.195Z" fill="#042800"></path><path d="M176.326 308.162L174.51 313.862L170.752 325.575C170.72 325.638 170.689 325.701 170.689 325.763C170.407 326.483 169.875 327.079 169.186 327.423C168.434 327.799 167.557 327.861 166.743 327.58C166.618 327.548 165.521 327.172 163.611 327.016C160.761 326.765 156.22 326.985 150.771 329.49C144.601 332.309 139.183 333.248 135.519 333.561C134.485 333.655 133.577 333.655 132.857 333.655C131.447 333.655 130.633 333.561 130.508 333.53C130.069 333.467 129.631 333.342 129.286 333.092C128.848 332.841 128.503 332.465 128.221 332.027L121.707 321.253C119.609 321.723 117.385 321.974 115.068 321.974C112.75 321.974 110.527 321.692 108.428 321.253L101.914 332.027C101.664 332.465 101.288 332.841 100.849 333.092C100.474 333.311 100.066 333.467 99.5967 333.53C99.5028 333.561 98.6572 333.655 97.2479 333.655C96.4962 333.655 95.6193 333.624 94.5858 333.561C90.8903 333.279 85.4722 332.309 79.3339 329.49C73.8845 326.985 69.3121 326.765 66.4935 327.016C64.6144 327.172 63.4869 327.548 63.3616 327.58C62.5474 327.861 61.7018 327.799 60.9188 327.423C60.2298 327.079 59.6974 326.483 59.4156 325.763C59.3842 325.701 59.3529 325.638 59.3529 325.575L55.5947 313.862L53.7783 308.162L59.7601 306.252L60.3551 308.131L64.4578 320.94C68.0594 320.408 74.4169 320.314 81.9646 323.759C88.8859 326.922 94.6798 327.36 97.3418 327.36C97.3731 327.36 97.4044 327.36 97.4358 327.36L102.29 319.312C94.8364 316.211 90.076 311.451 89.9194 311.325C90.1073 311.388 101.695 315.741 115.068 315.741C128.441 315.741 139.997 311.388 140.216 311.325C140.06 311.482 135.331 316.211 127.846 319.312L132.7 327.36C132.731 327.36 132.763 327.36 132.794 327.36C135.456 327.36 141.25 326.922 148.171 323.759C155.719 320.314 162.076 320.408 165.678 320.94L169.781 308.131L170.376 306.252L176.326 308.162Z" fill="#063E00"></path><path d="M58.7913 303.437L55.4716 306.756C55.0018 306.287 54.5634 305.817 54.1249 305.378C48.8635 299.804 46.6712 295.012 45.8256 292.789C45.763 292.601 45.7004 292.444 45.669 292.319C45.4811 291.786 45.4185 291.473 45.4185 291.442L45.8883 291.348L47.7047 290.909L49.9909 290.346C49.9909 290.346 50.0536 290.628 50.2415 291.097C50.8365 292.757 52.7469 297.079 57.6012 302.247C57.9771 302.591 58.3842 302.998 58.7913 303.437Z" fill="#042800"></path><path d="M184.69 291.407C184.69 291.469 184.596 291.782 184.408 292.284C184.377 292.44 184.315 292.597 184.252 292.753C183.438 295.008 181.214 299.769 175.953 305.343C175.545 305.813 175.076 306.251 174.606 306.721L171.318 303.433C171.725 303.026 172.132 302.619 172.508 302.211C177.362 297.044 179.272 292.722 179.867 291.062C180.024 290.592 180.118 290.342 180.118 290.311L182.404 290.874L184.221 291.313L184.69 291.407Z" fill="#042800"></path><path d="M125.123 248.63L127.19 254.173L123.088 255.708L122.868 255.144L119.517 246.187H110.592L107.241 255.144L107.021 255.708L102.919 254.173L104.986 248.63L106.583 244.37L103.326 240.142L101.979 238.42L105.456 235.727L106.051 236.51L110.153 241.802H119.987L124.09 236.51L124.685 235.727L128.13 238.42L126.814 240.142L123.526 244.37L125.123 248.63Z" fill="#750000"></path><path d="M132.327 279.351C132.295 279.351 131.324 280.228 129.852 281.512C129.32 281.982 128.694 282.514 128.036 283.046C127.128 283.829 126.126 284.644 125.123 285.489C124.779 285.771 124.434 286.053 124.09 286.335C123.464 286.836 122.869 287.306 122.336 287.744C120.896 288.872 119.768 289.717 118.86 290.312C116.323 292.066 115.634 292.066 115.039 292.066C114.444 292.066 113.755 292.066 111.218 290.312C110.31 289.686 109.183 288.872 107.742 287.744C107.209 287.337 106.614 286.867 105.988 286.335C105.644 286.053 105.299 285.771 104.955 285.489C103.952 284.644 102.95 283.829 102.042 283.046C101.384 282.483 100.789 281.982 100.226 281.512C98.7536 280.259 97.7827 279.382 97.7514 279.351L100.664 276.062C101.447 276.751 102.261 277.472 103.138 278.161C108.587 282.702 114.914 287.431 115.039 287.65C115.164 287.431 121.491 282.733 126.94 278.161C127.785 277.44 128.631 276.751 129.414 276.062L132.327 279.351Z" fill="#750000"></path><path d="M133.264 241.451L129.192 243.863C128.91 243.393 128.597 242.892 128.284 242.391C127.814 241.671 127.313 240.919 126.781 240.167C125.935 238.946 125.027 237.693 124.056 236.503C120.862 232.526 117.354 229.206 115.037 229.206C112.719 229.206 109.211 232.526 106.017 236.503C105.077 237.693 104.138 238.915 103.292 240.167C102.76 240.919 102.259 241.671 101.789 242.391C101.476 242.892 101.163 243.393 100.881 243.863L96.8094 241.451C96.872 241.357 97.7176 239.917 99.0643 237.944C100.004 236.566 101.194 234.937 102.541 233.277C105.234 229.926 107.739 227.546 110.026 226.137L105.766 221.69L105.391 221.314L108.804 218.025L112.562 221.909L115.005 224.477L117.479 221.909L121.238 218.025L124.651 221.314L124.307 221.69L120.047 226.137C122.334 227.577 124.839 229.926 127.532 233.277C128.879 234.937 130.069 236.566 131.009 237.944C132.355 239.917 133.201 241.357 133.264 241.451Z" fill="#074D00"></path><path d="M71.0981 300.371C70.6284 300.653 70.1899 300.935 69.7828 301.217C65.9306 303.722 62.7988 305.977 60.356 308.138C58.2264 310.049 56.6605 311.928 55.627 313.869C55.1572 314.746 54.7814 315.623 54.5622 316.532C54.3116 317.471 53.6226 318.223 52.7144 318.599C52.3386 318.755 51.9314 318.818 51.5243 318.818C50.9606 318.818 50.4282 318.661 49.9271 318.379C49.5199 318.129 45.6991 315.78 42.6613 310.738C39.9053 306.134 37.2746 298.336 40.469 287.218V287.186C40.5003 287.061 40.563 286.905 40.5943 286.779L42.442 287.343L46.576 288.596C46.2942 289.535 46.0749 290.444 45.887 291.32C45.8244 291.665 45.7618 291.978 45.6991 292.323C45.6678 292.479 45.6365 292.604 45.6365 292.761C44.1332 301.937 47.5469 307.668 50.2716 310.612C51.2738 308.796 52.5578 307.105 54.155 305.445C55.1885 304.38 56.316 303.315 57.6 302.282C59.6044 300.622 61.9219 298.962 64.6153 297.177C64.8032 297.052 64.9911 296.926 65.179 296.801C66.0246 297.553 68.3421 299.557 71.0981 300.371Z" fill="#063E00"></path><path d="M107.241 255.144C106.677 252.889 105.894 250.728 104.986 248.63C104.015 246.406 102.95 244.308 101.823 242.366C101.008 240.926 100.163 239.548 99.3485 238.295C99.2546 238.17 99.1919 238.044 99.098 237.919C95.6216 232.219 95.653 224.953 96.0601 220.819C96.248 218.846 96.5299 217.594 96.5299 217.562L90.4228 216.184C90.4228 216.247 90.3602 216.466 90.2976 216.811L88.7003 214.994C88.5438 215.151 86.8526 216.654 84.8169 219.034C81.8417 222.542 78.1461 227.929 77.4884 233.66L77.4571 234.036L77.5198 234.411C77.645 235.1 80.5889 250.29 92.3332 258.025C91.6442 259.278 91.2684 260.907 91.425 262.942C91.4563 263.349 91.4877 263.756 91.5503 264.195C92.0514 269.613 92.7404 277.442 86.1636 283.957C84.7229 284.834 83.3136 285.648 81.9669 286.462C80.7769 287.182 79.6181 287.871 78.4906 288.529C77.7077 288.999 76.956 289.437 76.2044 289.907C78.1774 290.909 80.7142 292.444 81.4659 294.072C82.3741 293.54 83.2823 293.008 84.2218 292.444C84.535 292.256 84.8795 292.068 85.1927 291.849C86.7586 290.909 88.3872 289.97 90.0783 288.936C90.7987 288.498 91.519 288.091 92.2393 287.652C94.0871 286.525 95.8096 285.366 97.3441 284.145C98.409 283.268 99.4111 282.391 100.319 281.483C101.384 280.418 102.355 279.29 103.201 278.163C105.362 275.282 106.834 272.15 107.648 268.767C108.681 264.101 108.337 259.497 107.241 255.144ZM95.9035 277.004C97.2815 271.931 96.8431 267.139 96.5299 263.788C96.4986 263.349 96.4672 262.974 96.4359 262.566C96.0914 258.119 98.2211 253.703 98.2211 253.703C98.2211 253.703 97.2815 253.891 96.1227 254.486C86.2888 248.755 83.0318 236.134 82.5307 233.879C83.2823 228.805 87.1971 223.826 89.7652 221.039C89.358 226.237 89.6086 234.725 94.0871 241.709C98.315 248.285 103.67 258.057 101.509 267.358C100.664 270.866 98.7848 274.091 95.9035 277.004Z" fill="#063E00"></path><path d="M187.476 310.769C184.438 315.811 180.617 318.16 180.21 318.411C179.709 318.692 179.177 318.849 178.613 318.849C178.206 318.849 177.83 318.786 177.423 318.63C176.515 318.254 175.826 317.502 175.575 316.563C175.325 315.655 174.949 314.778 174.479 313.901C173.445 311.959 171.848 310.08 169.75 308.17C167.307 305.977 164.175 303.722 160.323 301.248C159.885 300.966 159.446 300.685 159.008 300.403C161.764 299.588 164.081 297.584 164.958 296.77C165.146 296.895 165.334 297.02 165.522 297.146C168.184 298.931 170.533 300.591 172.537 302.25C173.821 303.315 174.98 304.349 175.982 305.414C177.58 307.073 178.895 308.796 179.897 310.581C182.622 307.637 186.035 301.937 184.532 292.73C184.501 292.604 184.501 292.448 184.469 292.323C184.407 291.978 184.344 291.665 184.282 291.32C184.094 290.444 183.874 289.535 183.593 288.596L187.727 287.343L189.574 286.779C189.606 286.936 189.668 287.061 189.7 287.186V287.218C192.863 298.367 190.232 306.165 187.476 310.769Z" fill="#063E00"></path><path d="M151.68 288.564C150.553 287.907 149.394 287.218 148.204 286.497C146.857 285.683 145.448 284.869 144.007 283.992C137.399 277.478 138.12 269.648 138.621 264.23C138.652 263.792 138.683 263.353 138.746 262.977C138.903 260.942 138.495 259.313 137.838 258.06C149.582 250.294 152.526 235.104 152.651 234.447L152.714 234.071L152.683 233.695C152.025 227.932 148.329 222.577 145.354 219.069C143.318 216.689 141.627 215.186 141.471 215.029L139.873 216.846C139.811 216.501 139.748 216.282 139.748 216.219L133.641 217.597C133.641 217.629 133.923 218.881 134.111 220.854C134.487 224.988 134.549 232.223 131.073 237.954C131.01 238.079 130.916 238.205 130.822 238.33C130.008 239.583 129.163 240.929 128.348 242.401C127.221 244.343 126.156 246.441 125.185 248.665C124.277 250.732 123.494 252.924 122.93 255.179C121.834 259.532 121.49 264.167 122.586 268.834C123.369 272.185 124.841 275.317 127.002 278.229C127.847 279.388 128.818 280.484 129.883 281.549C130.791 282.457 131.793 283.334 132.858 284.211C134.393 285.432 136.115 286.623 137.963 287.719C138.683 288.157 139.435 288.596 140.124 289.003C141.815 290.005 143.444 290.976 145.01 291.915C145.354 292.103 145.667 292.291 145.98 292.51C146.92 293.074 147.828 293.606 148.736 294.139C149.488 292.51 152.025 290.976 153.998 289.974C153.215 289.472 152.463 289.034 151.68 288.564ZM128.63 267.362C126.469 258.06 131.825 248.289 136.053 241.712C140.531 234.728 140.782 226.273 140.374 221.042C142.943 223.83 146.889 228.809 147.609 233.883C147.077 236.169 143.851 248.759 134.017 254.49C132.858 253.895 131.919 253.707 131.919 253.707C131.919 253.707 134.048 258.123 133.704 262.57C133.672 262.946 133.641 263.353 133.61 263.792C133.297 267.111 132.858 271.934 134.236 277.008C131.324 274.095 129.444 270.87 128.63 267.362Z" fill="#063E00"></path><path d="M84.3749 294.916C84.187 296.513 83.3727 298.204 82.0886 299.645C81.7755 300.021 81.3997 300.334 81.0238 300.679C80.1156 301.399 78.1112 302.746 75.23 302.746C73.6641 302.746 71.8163 302.338 69.7806 301.211C68.1834 300.334 66.4609 299.019 64.6131 297.077C64.0807 296.513 63.5483 295.918 62.9846 295.26C63.2038 295.386 72.3174 300.24 77.1091 297.641C77.986 297.171 78.6123 296.513 79.0508 295.856C79.5832 295.073 79.2387 294.008 78.3931 293.632C78.1739 293.538 77.9547 293.444 77.7667 293.35C74.7289 292.097 70.5949 290.375 69.1856 286.523C68.3087 284.08 66.7741 282.326 65.8659 281.418C65.3961 280.948 65.0829 280.729 65.0829 280.729L67.9015 276.971C67.9642 277.002 68.4966 277.409 69.2169 278.161C70.5009 279.445 72.4427 281.731 73.6014 284.926C74.1965 286.554 76.4514 287.713 78.4557 288.59C78.8316 288.746 79.2074 288.903 79.5519 289.06C81.3057 289.811 82.715 290.375 83.5293 291.408C83.7798 291.722 83.9991 292.097 84.1556 292.505C84.4062 293.194 84.5001 294.039 84.3749 294.916Z" fill="#042800"></path><path d="M167.117 295.263C166.553 295.92 166.021 296.547 165.488 297.079C163.672 298.989 161.918 300.336 160.321 301.213C158.285 302.34 156.437 302.748 154.872 302.748C152.022 302.748 149.986 301.432 149.078 300.681C148.702 300.367 148.326 300.023 148.013 299.647C146.729 298.238 145.915 296.515 145.727 294.918C145.601 294.041 145.695 293.196 145.946 292.444C146.103 292.037 146.29 291.692 146.572 291.348C147.387 290.346 148.796 289.751 150.55 288.999C150.894 288.842 151.27 288.686 151.646 288.529C153.682 287.652 155.905 286.494 156.5 284.865C157.659 281.671 159.601 279.384 160.885 278.1C161.636 277.349 162.137 276.973 162.2 276.91L165.019 280.668C165.019 280.668 164.705 280.919 164.236 281.357C163.296 282.266 161.793 284.019 160.916 286.462C159.507 290.314 155.373 292.037 152.366 293.29C152.178 293.384 151.959 293.477 151.74 293.571C150.863 293.947 150.55 295.012 151.051 295.795C151.489 296.421 152.147 297.11 152.993 297.58C157.784 300.273 166.898 295.388 167.117 295.263Z" fill="#042800"></path><path d="M69.186 278.171C69.1547 278.453 69.0607 278.734 68.9667 279.016C68.5909 279.925 67.8706 280.645 66.9311 281.021C66.5866 281.146 66.2107 281.303 65.8349 281.49C61.7636 283.338 55.4686 287.378 50.2385 291.105C49.7061 291.481 49.1737 291.857 48.6726 292.233C48.0462 292.671 47.3259 292.89 46.6056 292.89C46.3551 292.89 46.1358 292.859 45.8853 292.828C45.7913 292.828 45.7287 292.796 45.6347 292.765C45.0084 292.577 44.4133 292.233 43.9436 291.731C42.4716 290.103 41.2189 288.38 40.4986 287.347C40.4986 287.316 40.4672 287.316 40.4672 287.284C40.0914 286.721 39.8409 286.376 39.8409 286.313L44.1001 283.651C44.1001 283.651 44.6012 284.403 45.3529 285.468C45.7913 286.032 46.2924 286.721 46.8561 287.41C50.4577 284.841 58.2873 279.486 63.7679 276.981L62.4526 274.131L61.7949 272.721L66.336 270.623L66.9624 271.97L68.9667 276.26C69.186 276.793 69.2799 277.482 69.186 278.171Z" fill="#063E00"></path><path d="M190.295 286.251C190.263 286.282 190.044 286.658 189.668 287.222C189.668 287.253 189.637 287.253 189.637 287.285C188.917 288.349 187.695 290.041 186.192 291.669C185.722 292.202 185.127 292.546 184.501 292.703C184.407 292.734 184.344 292.734 184.25 292.765C184 292.828 183.781 292.828 183.53 292.828C182.81 292.828 182.089 292.609 181.463 292.17C180.962 291.794 180.43 291.419 179.866 291.043C174.636 287.347 168.341 283.276 164.269 281.428C163.894 281.24 163.518 281.084 163.173 280.958C162.265 280.614 161.513 279.894 161.138 278.954C161.012 278.672 160.95 278.39 160.918 278.108C160.824 277.451 160.918 276.73 161.2 276.104L163.205 271.813L163.831 270.467L168.372 272.565L167.714 273.974L166.399 276.824C171.88 279.33 179.709 284.685 183.311 287.253C183.875 286.564 184.376 285.907 184.814 285.312C185.566 284.278 186.035 283.526 186.067 283.495L190.295 286.251Z" fill="#063E00"></path><path d="M68.0613 268.688C68.3432 269.91 67.8421 271.131 66.9026 271.852C66.6833 272.039 66.4328 272.165 66.1509 272.29C64.9922 272.76 63.7081 273.355 62.3928 274.044C56.0978 277.364 48.6441 282.844 45.2931 285.412C44.1969 286.258 43.5392 286.759 43.5079 286.79C43.1947 287.041 42.8189 287.229 42.4118 287.354C42.1299 287.448 41.8481 287.479 41.5662 287.479C41.4096 287.479 41.2217 287.479 41.0651 287.448C40.8772 287.417 40.6893 287.354 40.5014 287.291C40.4701 287.291 40.4701 287.291 40.4388 287.26C39.8124 287.009 39.3113 286.602 38.9355 286.039C38.4031 285.224 26.0324 265.682 29.54 244.855C32.4526 227.568 49.0826 213.005 55.3149 208.088C56.6302 207.054 57.4758 206.459 57.6324 206.334L61.2653 211.439C61.2653 211.439 61.234 211.439 61.234 211.47C60.2631 212.159 38.7476 227.912 35.7097 245.92C33.3609 259.951 39.4053 273.762 42.5057 279.681C46.7024 276.518 54.6885 270.787 61.3279 267.592C56.6929 250.242 56.3797 249.991 52.9973 246.421C52.9973 246.421 56.6302 247.549 60.0752 250.743C66.9652 244.072 72.5398 232.735 72.5398 232.735C72.5398 232.735 71.6316 247.58 63.8647 255.66C64.1466 256.224 64.4284 256.85 64.679 257.476C66.8399 263.114 68.03 268.438 68.0613 268.688Z" fill="#063E00"></path><path d="M191.171 286.003C190.795 286.567 190.263 287.006 189.668 287.225C189.668 287.225 189.636 287.225 189.605 287.256C189.417 287.319 189.229 287.381 189.041 287.413C188.885 287.444 188.697 287.444 188.54 287.444C188.258 287.444 187.945 287.413 187.695 287.319C187.287 287.194 186.943 287.006 186.598 286.755C186.567 286.724 185.909 286.223 184.813 285.377C181.462 282.84 174.04 277.328 167.745 274.04C166.43 273.351 165.146 272.756 163.987 272.286C163.705 272.192 163.454 272.036 163.235 271.848C162.296 271.127 161.795 269.906 162.076 268.685C162.139 268.465 163.329 263.11 165.459 257.473C165.709 256.846 165.991 256.22 166.273 255.656C158.537 247.576 157.598 232.731 157.598 232.731C157.598 232.731 163.141 244.068 170.063 250.739C173.476 247.576 177.14 246.417 177.14 246.417C173.758 249.988 173.445 250.238 168.81 267.557C175.449 270.752 183.435 276.483 187.632 279.646C190.732 273.727 196.777 259.915 194.428 245.885C191.39 227.877 169.906 212.124 168.904 211.435L168.872 211.404L172.505 206.299C172.662 206.424 173.539 207.019 174.823 208.053C181.055 212.97 197.685 227.533 200.598 244.82C204.074 265.647 191.703 285.189 191.171 286.003Z" fill="#063E00"></path><path d="M209.588 123.163C209.525 122.788 201.883 86.2707 172.977 64.6925C172.194 64.0975 171.693 63.2205 171.599 62.2497C171.505 61.2788 171.787 60.308 172.413 59.5876C172.507 59.4624 182.811 47.2796 187.352 33.9068C188.197 31.4327 190.421 29.6788 193.052 29.4909C195.651 29.303 198.125 30.6497 199.347 32.9986C204.608 43.083 212.218 64.0035 204.514 90.9058C208.272 97.6392 210.966 103.997 212.814 109.196C214.098 102.807 215.35 94.2568 215.601 84.4542C216.102 64.9744 212.657 36.4436 193.365 11.0759C191.079 8.10065 187.508 6.6287 183.782 7.19242C180.023 7.75615 176.986 10.2303 175.67 13.8005C170.158 28.8646 161.922 40.2644 151.618 47.123C162.047 52.4471 164.082 58.8986 164.082 58.8986C150.271 51.1631 133.767 47.2483 115.07 47.2483C96.3727 47.2483 79.8994 51.1631 66.0567 58.8986C66.0567 58.8986 68.0924 52.4471 78.5214 47.123C68.2177 40.2644 59.9497 28.8646 54.469 13.8005C53.1537 10.2303 50.1471 7.75615 46.3577 7.19242C42.6308 6.6287 39.0292 8.06933 36.7743 11.0759C17.4823 36.4436 14.0373 64.9744 14.5384 84.4542C14.789 94.2255 16.0417 102.775 17.3257 109.196C19.2048 103.997 21.8669 97.6392 25.625 90.9058C17.8895 64.0035 25.5311 43.083 30.7925 32.9986C32.0139 30.681 34.4881 29.303 37.0875 29.4909C39.7182 29.6788 41.9418 31.4327 42.7874 33.9068C47.3285 47.2796 57.6009 59.4937 57.7261 59.5876C58.3525 60.3393 58.6657 61.3101 58.5404 62.2497C58.4464 63.2205 57.914 64.0975 57.1624 64.6925C28.2245 86.2707 20.6141 122.788 20.5202 123.163C20.4262 123.633 20.2383 124.103 19.9565 124.51C9.43358 139.355 7.3979 163 7.08472 167.322C17.2944 193.942 45.6373 206.72 67.7166 212.765C92.3013 219.498 114.819 219.592 115.07 219.592C115.32 219.592 137.807 219.498 162.423 212.765C184.502 206.72 212.845 193.942 223.055 167.322C222.773 162.969 220.706 139.355 210.183 124.51C209.901 124.103 209.682 123.665 209.588 123.163Z" fill="#545A69"></path><path d="M50.0514 61.2846C46.6377 56.7748 40.2175 47.5673 36.4907 37.2949C32.2001 45.9074 26.7507 61.911 30.8221 82.4557C35.8017 75.1272 42.0966 67.7361 50.0514 61.2846Z" fill="#EF7F7F"></path><path d="M180.085 61.2846C188.009 67.7361 194.335 75.0959 199.315 82.4557C203.386 61.911 197.937 45.9074 193.646 37.2949C189.919 47.5673 183.499 56.8061 180.085 61.2846Z" fill="#EF7F7F"></path><path d="M194.773 139.643C203.981 115.309 184.093 69.3962 151.679 74.2192C119.265 79.0422 115.068 113.336 115.068 113.336C115.068 113.336 110.872 79.0109 78.4261 74.2192C45.9805 69.4276 26.1248 115.309 35.3324 139.643C35.3324 139.643 -5.7257 174.625 39.1845 201.527C84.0947 228.43 114.912 222.166 114.912 222.166H115.068H115.225C115.225 222.166 146.042 228.43 190.952 201.527C235.831 174.625 194.773 139.643 194.773 139.643Z" fill="white"></path><path opacity="0.4" d="M30.8869 32.8047C30.8869 32.8047 12.0334 69.3843 11.9081 97.8524L18.1717 113.324L28.7572 91.4322C28.7886 91.4322 21.2722 62.9014 30.8869 32.8047Z" fill="#042800"></path><path d="M29.3821 59.8576C29.3821 59.8576 33.7979 48.8023 35.677 48.8023C37.3056 48.8023 40.0302 55.7549 43.4439 60.2961C44.4148 61.5801 44.6653 63.2713 44.0703 64.7745L41.6901 70.7876L51.4613 61.5801L36.3347 33.7383C36.3034 33.7383 29.3194 48.3952 29.3821 59.8576Z" fill="#CE5252"></path><path d="M32.0761 17.7484C32.0761 17.7484 38.559 11.4221 45.261 12.988C51.9631 14.554 52.2763 36.8525 75.7023 50.6637L81.2456 47.7198C81.2456 47.7198 66.2755 34.6289 61.797 23.3543C57.2872 12.0485 53.5603 5.81619 45.3863 3.78052C37.2123 1.74484 32.0761 17.7484 32.0761 17.7484Z" fill="#B4BFD6"></path><path opacity="0.4" d="M209.807 124.451C209.807 124.451 214.097 143.43 214.505 157.836C214.661 163.63 212.5 169.236 208.491 173.401C197.092 185.208 167.59 209.01 114.913 209.01C62.2358 209.01 32.7342 185.208 21.3344 173.401C17.3256 169.236 15.1647 163.63 15.3213 157.836C15.7284 143.461 20.019 124.451 20.019 124.451C7.33517 137.949 5.08026 167.169 5.08026 167.169C5.08026 167.169 12.8785 189.937 41.9104 206.63C70.9423 223.323 114.913 220.723 114.913 220.723C114.913 220.723 158.884 223.323 187.915 206.63C216.947 189.937 224.746 167.169 224.746 167.169C224.746 167.169 222.522 137.949 209.807 124.451Z" fill="#042800"></path><path opacity="0.4" d="M198.939 32.8047C198.939 32.8047 217.792 69.3843 217.917 97.8524L211.622 113.324L201.037 91.4322C201.037 91.4322 208.522 62.9014 198.939 32.8047Z" fill="#042800"></path><path d="M200.411 59.8576C200.411 59.8576 195.995 48.8023 194.116 48.8023C192.487 48.8023 189.763 55.7549 186.349 60.2961C185.378 61.5801 185.128 63.2713 185.723 64.7745L188.103 70.7876L178.332 61.5801L193.458 33.7383C193.49 33.7383 200.505 48.3952 200.411 59.8576Z" fill="#CE5252"></path><path d="M187.789 79.289C162.954 46.0918 117.856 47.1566 114.912 47.2506C111.968 47.1566 66.8698 46.0605 42.0345 79.289C42.0345 79.289 61.2326 54.673 114.912 54.6103C168.56 54.6417 187.789 79.289 187.789 79.289Z" fill="#B4BFD6"></path><path d="M197.715 17.7513C197.715 17.7513 191.232 11.425 184.53 12.9909C177.828 14.5568 177.515 36.8553 154.089 50.6666L148.545 47.7227C148.545 47.7227 163.515 34.6318 167.994 23.3572C172.504 12.0514 176.231 5.81907 184.405 3.78339C192.61 1.77903 197.715 17.7513 197.715 17.7513Z" fill="#B4BFD6"></path><path d="M222.615 84.8605C223.179 64.1906 219.546 33.8746 198.939 6.78444C195.087 1.7109 189.011 -0.73191 182.685 0.207634C176.327 1.1785 171.222 5.34381 169.03 11.3882C164.99 22.4435 157.254 36.9751 143.255 43.8025C136.334 41.6728 127.158 40.2009 115.069 40.2009C102.98 40.2009 93.8038 41.6728 86.8825 43.8025C72.8833 36.9751 65.1477 22.4435 61.1077 11.3882C58.8841 5.34381 53.7792 1.1785 47.4216 0.207634C41.0954 -0.763228 35.0197 1.7109 31.1675 6.78444C10.5915 33.8746 6.92731 64.1906 7.52235 84.8605C8.02344 103.244 11.7816 117.212 13.2223 121.91C1.384 139.918 0.0686369 166.57 0.00600061 167.728C-0.0253175 168.198 0.0686369 168.668 0.225228 169.106C5.14217 182.417 14.3184 193.722 27.566 202.742C37.9949 209.82 50.9293 215.52 65.9933 219.622C91.4863 226.575 114.098 226.638 115.037 226.638C115.977 226.638 138.589 226.544 164.082 219.622C179.177 215.52 192.111 209.82 202.509 202.742C215.757 193.722 224.933 182.417 229.85 169.106C230.006 168.668 230.1 168.198 230.069 167.728C230.006 166.57 228.691 139.949 216.884 121.941C218.356 117.212 222.114 103.244 222.615 84.8605ZM223.022 167.321C212.813 193.942 184.47 206.719 162.422 212.764C137.837 219.497 115.319 219.591 115.069 219.591C114.818 219.591 92.3318 219.497 67.7158 212.764C45.6365 206.719 17.2936 193.942 7.0839 167.321C7.36576 162.968 9.43276 139.354 19.9557 124.509C20.2375 124.102 20.4254 123.632 20.5194 123.163C20.582 122.787 28.2236 86.2698 57.1303 64.6917C57.9132 64.0966 58.4143 63.2197 58.5083 62.2488C58.6022 61.278 58.3204 60.3071 57.694 59.5868C57.6 59.4615 47.2964 47.2788 42.7552 33.9059C41.9097 31.4318 39.6861 29.678 37.0553 29.4901C34.4559 29.3022 31.9818 30.6488 30.7604 32.9977C25.499 43.0821 17.8887 64.0027 25.5929 90.9049C21.8347 97.6383 19.1414 103.996 17.2936 109.195C16.0096 102.806 14.7568 94.256 14.5063 84.4534C14.0052 64.9735 17.4502 36.4427 36.7422 11.075C39.0284 8.0998 42.5987 6.62785 46.3255 7.19158C50.0837 7.7553 53.1216 10.2294 54.4369 13.7997C59.9489 28.8637 68.1856 40.2635 78.4892 47.1222C68.0603 52.4463 66.0246 58.8978 66.0246 58.8978C79.8359 51.1622 96.3406 47.2475 115.037 47.2475C133.734 47.2475 150.208 51.1622 164.05 58.8978C164.05 58.8978 162.015 52.4463 151.586 47.1222C161.889 40.2635 170.157 28.8637 175.638 13.7997C176.953 10.2294 179.96 7.7553 183.749 7.19158C187.476 6.62785 191.078 8.06848 193.333 11.075C212.625 36.4427 216.07 64.9735 215.569 84.4534C215.318 94.2246 214.065 102.774 212.781 109.195C210.902 103.996 208.24 97.6383 204.482 90.9049C212.218 64.0027 204.576 43.0821 199.315 32.9977C198.093 30.6802 195.619 29.3022 193.02 29.4901C190.389 29.678 188.165 31.4318 187.32 33.9059C182.779 47.2788 172.506 59.4928 172.381 59.5868C171.755 60.3384 171.441 61.3093 171.567 62.2488C171.661 63.2197 172.193 64.0966 172.945 64.6917C201.883 86.2698 209.524 122.787 209.587 123.163C209.681 123.632 209.869 124.102 210.151 124.509C220.674 139.354 222.741 162.999 223.022 167.321ZM36.4916 37.2883C40.1872 47.5606 46.6074 56.7995 50.0524 61.278C42.1289 67.7295 35.8026 75.0893 30.823 82.449C26.7517 61.9043 32.2324 45.9008 36.4916 37.2883ZM199.283 82.449C194.304 75.1206 188.009 67.7295 180.054 61.278C183.468 56.7682 189.888 47.5606 193.615 37.2883C197.905 45.9008 203.355 61.9043 199.283 82.449Z" fill="#042800"></path><path d="M115.068 186.353C110.245 183.879 107.677 187.261 106.831 188.702C107.051 189.109 107.333 189.516 107.677 189.892C109.212 191.583 111.686 192.46 115.068 192.46C118.45 192.46 120.925 191.583 122.459 189.892C122.804 189.516 123.086 189.109 123.305 188.702C122.459 187.23 119.891 183.879 115.068 186.353Z" fill="#EF7F7F"></path><path d="M78.5511 98.6002C66.6815 93.37 57.4113 102.859 57.4113 102.859C57.4113 102.859 72.2874 100.573 80.2109 110.251C82.2779 112.787 86.3806 110.94 85.8169 107.714C85.2218 104.175 83.2801 100.698 78.5511 98.6002Z" fill="#042800"></path><path d="M151.239 98.6002C146.51 100.667 144.568 104.175 143.973 107.714C143.409 110.94 147.512 112.756 149.579 110.251C157.502 100.573 172.379 102.859 172.379 102.859C172.379 102.859 163.108 93.37 151.239 98.6002Z" fill="#042800"></path><path d="M139.31 168.469C139.31 168.469 142.723 179.337 134.737 181.529C126.72 183.721 119.736 178.491 119.736 178.491C119.454 178.272 119.203 178.084 118.953 177.896C117.638 176.863 116.855 175.265 116.855 173.605C116.855 172.697 116.855 171.695 116.855 170.881C122.179 169.91 126.219 164.993 126.219 161.673C126.219 158.009 121.208 155.66 115.038 155.66C108.869 155.66 103.858 158.009 103.858 161.673C103.858 164.962 107.898 169.91 113.222 170.881C113.222 171.695 113.222 172.697 113.222 173.605C113.222 175.297 112.439 176.863 111.123 177.896C110.873 178.084 110.622 178.303 110.34 178.491C110.34 178.491 103.357 183.721 95.3391 181.529C87.3216 179.337 90.7666 168.469 90.7666 168.469C90.7666 168.469 85.0667 174.451 88.4178 180.997C91.8628 187.761 100.162 187.479 100.162 187.479C100.569 189.484 101.446 191.77 103.231 193.743C105.925 196.781 109.902 198.315 115.038 198.315C120.174 198.315 124.152 196.781 126.845 193.743C128.599 191.77 129.476 189.452 129.914 187.479C129.914 187.479 138.214 187.761 141.659 180.997C145.01 174.482 139.31 168.469 139.31 168.469ZM122.461 189.891C120.926 191.582 118.452 192.459 115.07 192.459C111.687 192.459 109.213 191.582 107.678 189.891C107.334 189.515 107.052 189.108 106.833 188.701C107.678 187.26 110.247 183.878 115.07 186.352C119.892 183.878 122.461 187.26 123.306 188.701C123.087 189.108 122.805 189.515 122.461 189.891Z" fill="#042800"></path><path d="M186.193 142.111C185.566 152.258 177.361 160.495 167.214 161.121C154.906 161.904 144.79 151.757 145.573 139.48C145.573 139.449 145.573 139.449 145.573 139.418C145.761 136.098 147.609 133.123 150.302 131.181L161.702 122.976C164.301 121.096 167.621 120.282 170.753 121.034C180.054 123.289 186.85 131.964 186.193 142.111Z" fill="#042800"></path><path d="M43.9151 142.111C44.5415 152.258 52.7468 160.495 62.8939 161.121C75.2019 161.904 85.3177 151.757 84.5347 139.48C84.5347 139.449 84.5347 139.449 84.5347 139.418C84.3468 136.098 82.499 133.123 79.8057 131.181L68.4059 122.976C65.8065 121.096 62.4868 120.282 59.3549 121.034C50.0535 123.289 43.2574 131.964 43.9151 142.111Z" fill="#042800"></path><path d="M69.6594 132.959C66.6528 132.959 64.21 135.402 64.21 138.408C64.21 141.415 66.6528 143.858 69.6594 143.858C72.6659 143.858 75.1087 141.415 75.1087 138.408C75.1087 135.402 72.6659 132.959 69.6594 132.959Z" fill="white"></path><path d="M62.4245 145.238C61.3597 145.238 60.4828 146.115 60.4828 147.18C60.4828 148.245 61.3597 149.122 62.4245 149.122C63.4893 149.122 64.3662 148.245 64.3662 147.18C64.3662 146.115 63.4893 145.238 62.4245 145.238Z" fill="white"></path><path d="M160.513 132.959C157.506 132.959 155.063 135.402 155.063 138.408C155.063 141.415 157.506 143.858 160.513 143.858C163.519 143.858 165.962 141.415 165.962 138.408C165.931 135.402 163.519 132.959 160.513 132.959Z" fill="white"></path><path d="M167.748 145.238C166.683 145.238 165.806 146.115 165.806 147.18C165.806 148.245 166.683 149.122 167.748 149.122C168.813 149.122 169.689 148.245 169.689 147.18C169.721 146.115 168.844 145.238 167.748 145.238Z" fill="white"></path><path d="M328.33 126.958L316.559 198.888H300.495L281.107 161.097H280.692L274.46 198.888H255.211L266.982 126.958H283.323L302.434 164.609H302.987L309.081 126.958H328.33Z" fill="url(#paint0_linear_101_8)"></path><path d="M400.029 164.187C398.737 172.008 396.175 178.564 392.343 183.856C388.512 189.147 383.861 193.139 378.391 195.832C372.921 198.525 367.07 199.871 360.839 199.871C354.191 199.871 348.421 198.408 343.528 195.481C338.635 192.554 335.069 188.269 332.831 182.626C330.592 176.983 330.142 170.088 331.48 161.939C332.727 154.119 335.266 147.539 339.097 142.201C342.928 136.862 347.602 132.823 353.118 130.084C358.634 127.344 364.532 125.975 370.809 125.975C377.41 125.975 383.146 127.45 388.016 130.4C392.909 133.35 396.463 137.67 398.679 143.36C400.918 149.05 401.368 155.992 400.029 164.187ZM380.642 161.939C381.288 157.819 381.334 154.353 380.78 151.543C380.226 148.71 379.061 146.579 377.283 145.151C375.506 143.699 373.117 142.974 370.117 142.974C366.701 142.974 363.678 143.817 361.046 145.502C358.415 147.188 356.234 149.612 354.503 152.773C352.772 155.934 351.56 159.739 350.868 164.187C350.129 168.355 350.06 171.82 350.66 174.583C351.283 177.346 352.507 179.419 354.33 180.8C356.176 182.181 358.577 182.872 361.531 182.872C364.901 182.872 367.878 182.053 370.463 180.414C373.071 178.775 375.229 176.398 376.937 173.284C378.668 170.17 379.903 166.388 380.642 161.939Z" fill="url(#paint1_linear_101_8)"></path><path d="M476.377 126.958L464.606 198.888H448.542L429.154 161.097H428.738L422.507 198.888H403.258L415.029 126.958H431.37L450.48 164.609H451.034L457.127 126.958H476.377Z" fill="url(#paint2_linear_101_8)"></path><path d="M532.279 150.7C532.187 149.459 531.932 148.371 531.516 147.434C531.1 146.474 530.511 145.666 529.748 145.011C528.986 144.332 528.038 143.828 526.906 143.5C525.797 143.149 524.491 142.974 522.989 142.974C519.753 142.974 516.807 143.758 514.149 145.327C511.491 146.896 509.261 149.155 507.459 152.105C505.679 155.056 504.454 158.615 503.784 162.782C503.091 166.997 503.033 170.603 503.611 173.6C504.189 176.597 505.437 178.892 507.355 180.484C509.296 182.076 511.919 182.872 515.224 182.872C518.182 182.872 520.735 182.439 522.885 181.573C525.034 180.706 526.756 179.477 528.05 177.885C529.344 176.293 530.153 174.419 530.476 172.265L533.804 172.617H517.581L519.799 158.708H551.276L549.681 168.683C548.618 175.239 546.33 180.847 542.817 185.506C539.328 190.142 534.983 193.701 529.783 196.183C524.583 198.642 518.875 199.871 512.658 199.871C505.772 199.871 499.959 198.384 495.222 195.411C490.484 192.437 487.099 188.199 485.065 182.697C483.054 177.194 482.661 170.65 483.886 163.063C484.857 157.116 486.613 151.848 489.155 147.259C491.721 142.669 494.852 138.794 498.55 135.633C502.247 132.449 506.326 130.049 510.787 128.433C515.247 126.794 519.869 125.975 524.653 125.975C528.836 125.975 532.637 126.583 536.057 127.801C539.478 128.995 542.401 130.704 544.828 132.929C547.254 135.13 549.068 137.74 550.27 140.761C551.495 143.781 551.992 147.095 551.761 150.7H532.279Z" fill="white"></path><path d="M569.925 198.888H549.126L584.346 126.958H610.692L622.339 198.888H601.54L594.607 146.767H594.052L569.925 198.888ZM570.757 170.509H609.86L607.364 185.12H568.261L570.757 170.509Z" fill="white"></path><path d="M640.963 126.958H664.951L674.796 167.699H675.628L698.785 126.958H722.773L710.987 198.888H692.129L698.923 157.303H698.369L675.906 198.326H664.535L655.523 157.022H654.968L648.035 198.888H629.177L640.963 126.958Z" fill="white"></path><path d="M766.434 149.436C766.642 147.118 766.087 145.303 764.77 143.992C763.453 142.658 761.234 141.99 758.114 141.99C756.127 141.99 754.463 142.224 753.122 142.693C751.805 143.161 750.777 143.805 750.037 144.624C749.321 145.444 748.87 146.392 748.685 147.469C748.477 148.312 748.489 149.085 748.72 149.787C748.974 150.466 749.448 151.087 750.141 151.649C750.858 152.211 751.794 152.714 752.949 153.159C754.128 153.604 755.526 154.002 757.144 154.353L762.69 155.618C766.48 156.46 769.658 157.573 772.223 158.954C774.811 160.312 776.845 161.928 778.324 163.801C779.803 165.674 780.774 167.77 781.236 170.088C781.721 172.406 781.733 174.935 781.271 177.674C780.485 182.404 778.671 186.408 775.828 189.686C772.986 192.964 769.276 195.458 764.701 197.167C760.125 198.876 754.833 199.731 748.824 199.731C742.677 199.731 737.454 198.806 733.155 196.956C728.88 195.083 725.783 192.226 723.865 188.386C721.97 184.523 721.508 179.594 722.478 173.6H740.782C740.504 175.801 740.735 177.651 741.475 179.149C742.214 180.648 743.405 181.783 745.046 182.556C746.686 183.329 748.732 183.715 751.181 183.715C753.261 183.715 755.041 183.458 756.52 182.942C757.999 182.427 759.166 181.713 760.021 180.8C760.876 179.887 761.396 178.845 761.581 177.674C761.766 176.597 761.581 175.637 761.026 174.794C760.472 173.951 759.466 173.19 758.01 172.511C756.554 171.832 754.555 171.212 752.013 170.65L745.219 169.104C739.187 167.699 734.634 165.381 731.561 162.15C728.487 158.919 727.401 154.494 728.302 148.874C729.042 144.285 730.902 140.281 733.883 136.862C736.888 133.42 740.701 130.751 745.323 128.855C749.968 126.935 755.11 125.975 760.749 125.975C766.48 125.975 771.276 126.946 775.135 128.89C779.017 130.833 781.802 133.561 783.489 137.073C785.199 140.585 785.662 144.706 784.876 149.436H766.434Z" fill="white"></path><path d="M792.346 142.693L794.981 126.958H856.685L854.05 142.693H832.697L823.545 198.888H804.548L813.7 142.693H792.346Z" fill="white"></path><path d="M923.277 164.187C921.983 172.008 919.417 178.564 915.581 183.856C911.745 189.147 907.088 193.139 901.611 195.832C896.134 198.525 890.275 199.871 884.036 199.871C877.38 199.871 871.602 198.408 866.703 195.481C861.804 192.554 858.233 188.269 855.992 182.626C853.75 176.983 853.299 170.088 854.64 161.939C855.888 154.119 858.43 147.539 862.266 142.201C866.102 136.862 870.782 132.823 876.305 130.084C881.829 127.344 887.733 125.975 894.019 125.975C900.629 125.975 906.372 127.45 911.248 130.4C916.147 133.35 919.706 137.67 921.925 143.36C924.167 149.05 924.617 155.992 923.277 164.187ZM903.864 161.939C904.511 157.819 904.558 154.353 904.003 151.543C903.448 148.71 902.281 146.579 900.502 145.151C898.722 143.699 896.33 142.974 893.326 142.974C889.906 142.974 886.878 143.817 884.244 145.502C881.609 147.188 879.425 149.612 877.692 152.773C875.959 155.934 874.745 159.739 874.052 164.187C873.313 168.355 873.243 171.82 873.844 174.583C874.468 177.346 875.693 179.419 877.519 180.8C879.367 182.181 881.771 182.872 884.729 182.872C888.103 182.872 891.084 182.053 893.673 180.414C896.284 178.775 898.445 176.398 900.155 173.284C901.888 170.17 903.125 166.388 903.864 161.939Z" fill="white"></path><path d="M926.509 198.888L938.295 126.958H968.94C974.209 126.958 978.646 128.012 982.251 130.119C985.856 132.226 988.445 135.188 990.016 139.005C991.587 142.821 991.957 147.282 991.125 152.386C990.293 157.584 988.445 162.068 985.579 165.838C982.736 169.584 979.108 172.476 974.694 174.513C970.303 176.527 965.381 177.534 959.927 177.534H941.623L944.119 162.361H958.54C960.851 162.361 962.885 161.963 964.641 161.167C966.397 160.347 967.819 159.2 968.905 157.725C969.991 156.226 970.696 154.447 971.019 152.386C971.343 150.326 971.193 148.57 970.569 147.118C969.968 145.643 968.928 144.519 967.449 143.746C965.993 142.95 964.133 142.552 961.868 142.552H955.073L945.783 198.888H926.509Z" fill="white"></path><path d="M731.611 252.582L738.573 210.401H753.236C756.158 210.401 758.486 210.909 760.22 211.925C761.954 212.927 763.141 214.28 763.783 215.983C764.425 217.671 764.568 219.546 764.213 221.605C763.913 223.418 763.346 224.914 762.513 226.095C761.694 227.276 760.711 228.21 759.564 228.896C758.431 229.583 757.25 230.091 756.022 230.421L755.94 230.832C757.196 230.915 758.404 231.368 759.564 232.192C760.725 233.016 761.619 234.197 762.247 235.734C762.875 237.272 763.012 239.153 762.657 241.378C762.302 243.492 761.503 245.394 760.261 247.083C759.018 248.772 757.284 250.111 755.059 251.099C752.834 252.088 750.069 252.582 746.765 252.582H731.611ZM737.427 248.051H747.502C750.82 248.051 753.284 247.406 754.895 246.115C756.52 244.81 757.496 243.231 757.824 241.378C758.042 239.95 757.885 238.632 757.353 237.423C756.834 236.201 755.967 235.226 754.752 234.499C753.55 233.757 752.035 233.386 750.206 233.386H739.884L737.427 248.051ZM740.621 228.938H750.042C751.571 228.938 753.004 228.636 754.342 228.031C755.68 227.427 756.8 226.576 757.701 225.477C758.602 224.379 759.162 223.088 759.38 221.605C759.708 219.752 759.339 218.179 758.274 216.889C757.209 215.584 755.284 214.932 752.499 214.932H742.915L740.621 228.938Z" fill="url(#paint3_linear_101_8)"></path><path d="M807.946 231.821C807.209 236.215 805.796 240.012 803.707 243.211C801.618 246.396 799.065 248.854 796.048 250.584C793.03 252.301 789.761 253.159 786.238 253.159C782.607 253.159 779.514 252.266 776.961 250.481C774.422 248.683 772.606 246.142 771.514 242.861C770.435 239.565 770.265 235.666 771.002 231.162C771.739 226.768 773.152 222.978 775.241 219.793C777.33 216.594 779.89 214.136 782.921 212.419C785.952 210.689 789.242 209.824 792.791 209.824C796.396 209.824 799.461 210.724 801.987 212.522C804.526 214.307 806.335 216.848 807.413 220.143C808.506 223.425 808.683 227.317 807.946 231.821ZM803.113 231.162C803.714 227.565 803.625 224.537 802.847 222.079C802.068 219.621 800.778 217.761 798.976 216.497C797.174 215.234 795.03 214.603 792.546 214.603C789.952 214.603 787.494 215.269 785.173 216.6C782.852 217.919 780.866 219.861 779.214 222.429C777.562 224.983 776.436 228.114 775.835 231.821C775.234 235.419 775.323 238.446 776.101 240.904C776.879 243.362 778.17 245.222 779.972 246.486C781.774 247.749 783.917 248.381 786.402 248.381C788.996 248.381 791.454 247.721 793.774 246.403C796.095 245.071 798.082 243.128 799.734 240.575C801.386 238.007 802.512 234.869 803.113 231.162Z" fill="url(#paint4_linear_101_8)"></path><path d="M851.873 231.821C851.136 236.215 849.723 240.012 847.634 243.211C845.545 246.396 842.992 248.854 839.975 250.584C836.958 252.301 833.688 253.159 830.166 253.159C826.534 253.159 823.442 252.266 820.889 250.481C818.349 248.683 816.533 246.142 815.441 242.861C814.363 239.565 814.192 235.666 814.929 231.162C815.666 226.768 817.079 222.978 819.168 219.793C821.257 216.594 823.817 214.136 826.848 212.419C829.879 210.689 833.169 209.824 836.719 209.824C840.323 209.824 843.388 210.724 845.914 212.522C848.453 214.307 850.262 216.848 851.341 220.143C852.433 223.425 852.61 227.317 851.873 231.821ZM847.04 231.162C847.641 227.565 847.552 224.537 846.774 222.079C845.996 219.621 844.706 217.761 842.903 216.497C841.101 215.234 838.958 214.603 836.473 214.603C833.879 214.603 831.422 215.269 829.101 216.6C826.78 217.919 824.793 219.861 823.141 222.429C821.489 224.983 820.363 228.114 819.762 231.821C819.162 235.419 819.25 238.446 820.028 240.904C820.807 243.362 822.097 245.222 823.899 246.486C825.701 247.749 827.845 248.381 830.329 248.381C832.923 248.381 835.381 247.721 837.702 246.403C840.023 245.071 842.009 243.128 843.661 240.575C845.313 238.007 846.439 234.869 847.04 231.162Z" fill="url(#paint5_linear_101_8)"></path><path d="M856.972 252.582L863.935 210.401H869.014L865.574 231.327H866.065L888.346 210.401H894.981L874.257 229.432L888.019 252.582H881.875L870.57 232.974L864.345 238.906L862.051 252.582H856.972Z" fill="url(#paint6_linear_101_8)"></path><path d="M906.634 210.401L899.671 252.582H894.592L901.555 210.401H906.634Z" fill="url(#paint7_linear_101_8)"></path><path d="M909.854 252.582L916.817 210.401H942.129L941.392 214.932H921.159L918.783 229.185H937.706L936.968 233.716H918.046L915.67 248.051H936.231L935.494 252.582H909.854Z" fill="url(#paint8_linear_101_8)"></path><path d="M972.417 221.276C972.417 219.01 971.673 217.294 970.185 216.127C968.697 214.946 966.683 214.355 964.144 214.355C962.287 214.355 960.615 214.657 959.126 215.262C957.638 215.866 956.423 216.697 955.481 217.754C954.539 218.811 953.959 220.013 953.741 221.358C953.563 222.484 953.679 223.452 954.089 224.262C954.498 225.059 955.078 225.725 955.829 226.26C956.594 226.782 957.413 227.214 958.287 227.558C959.161 227.887 959.966 228.155 960.703 228.361L964.799 229.514C965.823 229.803 966.963 230.201 968.219 230.709C969.475 231.217 970.649 231.91 971.742 232.789C972.834 233.654 973.667 234.766 974.24 236.126C974.827 237.485 974.957 239.153 974.629 241.131C974.247 243.41 973.312 245.47 971.823 247.31C970.349 249.149 968.397 250.612 965.966 251.697C963.55 252.781 960.731 253.324 957.509 253.324C954.505 253.324 951.979 252.836 949.931 251.861C947.897 250.886 946.395 249.527 945.426 247.783C944.47 246.039 944.102 244.014 944.32 241.707H949.563C949.426 243.3 949.74 244.618 950.505 245.662C951.269 246.692 952.334 247.461 953.7 247.969C955.065 248.463 956.58 248.71 958.246 248.71C960.185 248.71 961.973 248.394 963.611 247.763C965.263 247.117 966.629 246.225 967.707 245.085C968.799 243.932 969.468 242.586 969.714 241.048C969.96 239.648 969.769 238.508 969.141 237.629C968.513 236.75 967.605 236.036 966.417 235.487C965.229 234.938 963.925 234.457 962.506 234.045L957.591 232.563C954.478 231.615 952.109 230.263 950.484 228.505C948.873 226.748 948.293 224.448 948.744 221.605C949.153 219.244 950.143 217.184 951.713 215.426C953.283 213.655 955.229 212.282 957.55 211.307C959.871 210.319 962.369 209.824 965.045 209.824C967.748 209.824 970.062 210.319 971.987 211.307C973.912 212.282 975.346 213.635 976.288 215.365C977.23 217.081 977.578 219.051 977.332 221.276H972.417Z" fill="url(#paint9_linear_101_8)"></path><path d="M721.698 228.502H257.591L255.211 234.36H719.318L721.698 228.502Z" fill="url(#paint10_linear_101_8)"></path><defs><linearGradient id="paint0_linear_101_8" x1="255.211" y1="162.957" x2="476.371" y2="179.983" gradientUnits="userSpaceOnUse"><stop stop-color="#FF6060"></stop><stop offset="1" stop-color="#FDF300"></stop></linearGradient><linearGradient id="paint1_linear_101_8" x1="255.211" y1="162.957" x2="476.371" y2="179.983" gradientUnits="userSpaceOnUse"><stop stop-color="#FF6060"></stop><stop offset="1" stop-color="#FDF300"></stop></linearGradient><linearGradient id="paint2_linear_101_8" x1="255.211" y1="162.957" x2="476.371" y2="179.983" gradientUnits="userSpaceOnUse"><stop stop-color="#FF6060"></stop><stop offset="1" stop-color="#FDF300"></stop></linearGradient><linearGradient id="paint3_linear_101_8" x1="731.611" y1="231.594" x2="973.743" y2="266.788" gradientUnits="userSpaceOnUse"><stop stop-color="#FF6060"></stop><stop offset="1" stop-color="#FDF300"></stop></linearGradient><linearGradient id="paint4_linear_101_8" x1="731.611" y1="231.594" x2="973.743" y2="266.788" gradientUnits="userSpaceOnUse"><stop stop-color="#FF6060"></stop><stop offset="1" stop-color="#FDF300"></stop></linearGradient><linearGradient id="paint5_linear_101_8" x1="731.611" y1="231.594" x2="973.743" y2="266.788" gradientUnits="userSpaceOnUse"><stop stop-color="#FF6060"></stop><stop offset="1" stop-color="#FDF300"></stop></linearGradient><linearGradient id="paint6_linear_101_8" x1="731.611" y1="231.594" x2="973.743" y2="266.788" gradientUnits="userSpaceOnUse"><stop stop-color="#FF6060"></stop><stop offset="1" stop-color="#FDF300"></stop></linearGradient><linearGradient id="paint7_linear_101_8" x1="731.611" y1="231.594" x2="973.743" y2="266.788" gradientUnits="userSpaceOnUse"><stop stop-color="#FF6060"></stop><stop offset="1" stop-color="#FDF300"></stop></linearGradient><linearGradient id="paint8_linear_101_8" x1="731.611" y1="231.594" x2="973.743" y2="266.788" gradientUnits="userSpaceOnUse"><stop stop-color="#FF6060"></stop><stop offset="1" stop-color="#FDF300"></stop></linearGradient><linearGradient id="paint9_linear_101_8" x1="731.611" y1="231.594" x2="973.743" y2="266.788" gradientUnits="userSpaceOnUse"><stop stop-color="#FF6060"></stop><stop offset="1" stop-color="#FDF300"></stop></linearGradient><linearGradient id="paint10_linear_101_8" x1="717.731" y1="231.342" x2="255.211" y2="231.342" gradientUnits="userSpaceOnUse"><stop stop-color="#FF6060"></stop><stop offset="1" stop-color="#053D00"></stop></linearGradient></defs></svg> 