<?xml version="1.0" encoding="UTF-8"?> <svg xmlns="http://www.w3.org/2000/svg" xmlns:xlink="http://www.w3.org/1999/xlink" width="216px" height="40px" viewBox="0 0 214 40" version="1.1"><g id="surface1"><path style=" stroke:none;fill-rule:evenodd;fill:rgb(100%,100%,100%);fill-opacity:1;" d="M 188.621094 39.996094 C 188.8125 40.007812 189 39.929688 189.132812 39.785156 C 189.210938 39.714844 189.269531 39.628906 189.3125 39.53125 C 189.351562 39.433594 189.371094 39.328125 189.367188 39.226562 C 189.371094 39.121094 189.351562 39.015625 189.3125 38.921875 C 189.269531 38.828125 189.210938 38.742188 189.132812 38.671875 C 188.855469 38.390625 188.402344 38.382812 188.117188 38.660156 L 188.105469 38.671875 C 188.03125 38.742188 187.96875 38.828125 187.925781 38.917969 C 187.886719 39.015625 187.867188 39.117188 187.867188 39.222656 C 187.867188 39.324219 187.886719 39.429688 187.925781 39.527344 C 187.96875 39.625 188.027344 39.710938 188.105469 39.78125 C 188.238281 39.925781 188.425781 40.003906 188.621094 39.992188 Z M 193.316406 39.996094 C 193.8125 40.003906 194.300781 39.890625 194.738281 39.667969 C 195.136719 39.441406 195.464844 39.113281 195.6875 38.714844 L 194.898438 38.195312 C 194.714844 38.460938 194.472656 38.679688 194.1875 38.832031 C 193.90625 38.976562 193.59375 39.046875 193.277344 39.042969 C 192.917969 39.042969 192.566406 38.957031 192.25 38.785156 C 191.941406 38.621094 191.691406 38.359375 191.539062 38.046875 C 191.171875 37.351562 191.171875 36.523438 191.539062 35.832031 C 191.695312 35.519531 191.941406 35.261719 192.25 35.09375 C 192.566406 34.925781 192.917969 34.835938 193.277344 34.835938 C 193.59375 34.828125 193.90625 34.902344 194.1875 35.050781 C 194.472656 35.199219 194.714844 35.417969 194.898438 35.6875 L 195.6875 35.160156 C 195.464844 34.761719 195.136719 34.433594 194.738281 34.214844 C 194.300781 33.992188 193.8125 33.878906 193.316406 33.882812 C 192.753906 33.871094 192.195312 34.003906 191.699219 34.273438 C 191.238281 34.527344 190.855469 34.902344 190.59375 35.359375 C 190.066406 36.339844 190.066406 37.519531 190.59375 38.503906 C 190.855469 38.960938 191.238281 39.335938 191.699219 39.589844 C 192.191406 39.867188 192.75 40.007812 193.316406 39.996094 Z M 199.472656 39.996094 C 200.023438 40.007812 200.570312 39.871094 201.050781 39.601562 C 201.5 39.347656 201.867188 38.96875 202.113281 38.515625 C 202.640625 37.535156 202.640625 36.351562 202.113281 35.371094 C 201.867188 34.917969 201.5 34.542969 201.050781 34.285156 C 200.0625 33.765625 198.882812 33.765625 197.894531 34.285156 C 197.445312 34.542969 197.078125 34.917969 196.832031 35.371094 C 196.304688 36.351562 196.304688 37.535156 196.832031 38.515625 C 197.082031 38.96875 197.449219 39.34375 197.894531 39.601562 C 198.378906 39.871094 198.921875 40.007812 199.476562 39.996094 Z M 199.472656 39.050781 C 199.125 39.058594 198.78125 38.964844 198.484375 38.785156 C 198.175781 38.617188 197.929688 38.355469 197.773438 38.039062 C 197.40625 37.355469 197.40625 36.527344 197.773438 35.839844 C 197.929688 35.527344 198.179688 35.269531 198.484375 35.101562 C 198.785156 34.929688 199.125 34.839844 199.472656 34.847656 C 199.832031 34.839844 200.1875 34.929688 200.5 35.101562 C 200.789062 35.292969 201.03125 35.542969 201.207031 35.839844 C 201.523438 36.539062 201.523438 37.34375 201.207031 38.039062 C 201.03125 38.339844 200.789062 38.59375 200.5 38.785156 C 200.1875 38.964844 199.835938 39.058594 199.476562 39.050781 Z M 211.316406 33.894531 C 210.855469 33.894531 210.394531 33.992188 209.976562 34.191406 C 209.597656 34.363281 209.28125 34.648438 209.066406 35.003906 C 208.878906 34.652344 208.59375 34.363281 208.238281 34.175781 C 207.859375 33.984375 207.441406 33.886719 207.015625 33.894531 C 206.605469 33.890625 206.203125 33.972656 205.828125 34.140625 C 205.503906 34.3125 205.222656 34.550781 205 34.847656 L 205 33.953125 L 203.972656 33.953125 L 203.972656 39.929688 L 205.035156 39.929688 L 205.035156 36.851562 C 205 36.320312 205.171875 35.792969 205.511719 35.382812 C 205.679688 35.207031 205.882812 35.070312 206.105469 34.980469 C 206.332031 34.890625 206.574219 34.851562 206.8125 34.863281 C 207.230469 34.839844 207.632812 35 207.917969 35.304688 C 208.210938 35.675781 208.355469 36.144531 208.3125 36.613281 L 208.3125 39.929688 L 209.375 39.929688 L 209.375 36.851562 C 209.339844 36.320312 209.507812 35.792969 209.847656 35.382812 C 210.015625 35.207031 210.222656 35.070312 210.445312 34.980469 C 210.671875 34.890625 210.910156 34.851562 211.152344 34.863281 C 211.566406 34.847656 211.96875 35.007812 212.257812 35.304688 C 212.550781 35.675781 212.691406 36.144531 212.652344 36.613281 L 212.652344 39.929688 L 213.714844 39.929688 L 213.714844 36.488281 C 213.734375 36.136719 213.6875 35.785156 213.570312 35.449219 C 213.457031 35.117188 213.277344 34.8125 213.039062 34.550781 C 212.808594 34.328125 212.539062 34.152344 212.238281 34.039062 C 211.945312 33.929688 211.632812 33.878906 211.320312 33.894531 Z M 211.316406 33.894531 "></path><path style=" stroke:none;fill-rule:nonzero;fill:rgb(100%,100%,100%);fill-opacity:1;" d="M 35.285156 19.148438 C 34.734375 18.246094 33.9375 17.523438 32.988281 17.058594 C 30.914062 16.089844 28.507812 16.113281 26.453125 17.125 C 25.488281 17.617188 24.679688 18.367188 24.117188 19.292969 C 23.546875 20.246094 23.253906 21.339844 23.269531 22.449219 C 23.25 23.5625 23.550781 24.660156 24.132812 25.609375 C 24.726562 26.550781 25.566406 27.308594 26.566406 27.792969 C 27.707031 28.347656 28.960938 28.621094 30.226562 28.59375 C 31.234375 28.613281 32.234375 28.449219 33.179688 28.101562 C 33.980469 27.792969 34.699219 27.304688 35.277344 26.667969 L 33.089844 24.394531 C 32.730469 24.71875 32.316406 24.976562 31.871094 25.167969 C 31.398438 25.34375 30.894531 25.429688 30.386719 25.417969 C 29.828125 25.433594 29.273438 25.316406 28.769531 25.078125 C 28.136719 24.769531 27.671875 24.199219 27.496094 23.515625 L 36.097656 23.515625 C 36.109375 23.355469 36.125 23.183594 36.136719 22.992188 C 36.152344 22.800781 36.160156 22.632812 36.160156 22.488281 C 36.144531 21.179688 35.851562 20.066406 35.285156 19.148438 Z M 27.402344 21.347656 C 27.445312 21.074219 27.53125 20.8125 27.652344 20.570312 C 27.84375 20.179688 28.144531 19.859375 28.515625 19.640625 C 29.332031 19.203125 30.304688 19.203125 31.121094 19.640625 C 31.488281 19.859375 31.792969 20.175781 31.992188 20.558594 C 32.125 20.804688 32.210938 21.070312 32.25 21.347656 Z M 46.234375 12.171875 L 46.234375 17.5625 C 46.03125 17.347656 45.796875 17.160156 45.546875 17.003906 C 44.761719 16.546875 43.863281 16.320312 42.957031 16.347656 C 41.925781 16.339844 40.914062 16.597656 40.015625 17.101562 C 39.132812 17.597656 38.402344 18.324219 37.90625 19.207031 C 37.363281 20.203125 37.089844 21.324219 37.117188 22.457031 C 37.085938 23.597656 37.359375 24.722656 37.90625 25.726562 C 38.402344 26.609375 39.132812 27.34375 40.015625 27.847656 C 40.910156 28.355469 41.925781 28.613281 42.957031 28.601562 C 44.019531 28.601562 44.902344 28.382812 45.601562 27.945312 C 45.914062 27.75 46.195312 27.507812 46.429688 27.222656 L 46.429688 28.40625 L 50.386719 28.40625 L 50.386719 12.171875 Z M 45.972656 23.992188 C 45.777344 24.394531 45.472656 24.734375 45.089844 24.964844 C 44.707031 25.1875 44.269531 25.296875 43.828125 25.292969 C 43.382812 25.300781 42.945312 25.1875 42.554688 24.964844 C 42.171875 24.734375 41.863281 24.394531 41.671875 23.992188 C 41.441406 23.511719 41.328125 22.980469 41.34375 22.449219 C 41.328125 21.921875 41.441406 21.402344 41.671875 20.929688 C 41.871094 20.535156 42.175781 20.207031 42.554688 19.980469 C 42.945312 19.757812 43.382812 19.644531 43.828125 19.652344 C 44.269531 19.644531 44.707031 19.757812 45.089844 19.980469 C 45.46875 20.207031 45.773438 20.535156 45.972656 20.929688 C 46.207031 21.402344 46.320312 21.921875 46.304688 22.449219 C 46.316406 22.980469 46.203125 23.511719 45.972656 23.992188 Z M 58.738281 28.59375 C 57.539062 28.617188 56.355469 28.347656 55.285156 27.808594 C 54.308594 27.3125 53.492188 26.558594 52.914062 25.632812 C 52.328125 24.675781 52.027344 23.570312 52.050781 22.449219 C 52.027344 21.328125 52.328125 20.230469 52.914062 19.277344 C 53.492188 18.355469 54.3125 17.613281 55.285156 17.125 C 57.472656 16.089844 60.011719 16.089844 62.203125 17.125 C 64.226562 18.113281 65.488281 20.195312 65.425781 22.449219 C 65.484375 24.710938 64.226562 26.800781 62.203125 27.808594 C 61.128906 28.34375 59.941406 28.613281 58.738281 28.59375 Z M 58.738281 25.292969 C 59.183594 25.300781 59.625 25.1875 60.011719 24.964844 C 60.394531 24.734375 60.703125 24.394531 60.898438 23.992188 C 61.128906 23.511719 61.238281 22.980469 61.226562 22.449219 C 61.242188 21.921875 61.128906 21.402344 60.898438 20.929688 C 60.699219 20.535156 60.390625 20.207031 60.011719 19.980469 C 59.625 19.757812 59.183594 19.644531 58.738281 19.652344 C 58.296875 19.644531 57.863281 19.757812 57.480469 19.980469 C 57.101562 20.207031 56.789062 20.535156 56.585938 20.929688 C 56.34375 21.398438 56.226562 21.921875 56.246094 22.449219 C 56.230469 22.984375 56.347656 23.511719 56.585938 23.992188 C 56.785156 24.394531 57.09375 24.730469 57.480469 24.964844 C 57.863281 25.1875 58.296875 25.300781 58.738281 25.292969 Z M 79.699219 21.621094 L 79.699219 28.398438 L 75.546875 28.398438 L 75.546875 22.296875 C 75.546875 21.449219 75.378906 20.835938 75.035156 20.449219 C 74.667969 20.054688 74.140625 19.839844 73.601562 19.871094 C 73.1875 19.867188 72.773438 19.96875 72.40625 20.164062 C 72.035156 20.371094 71.738281 20.6875 71.558594 21.070312 C 71.335938 21.574219 71.230469 22.121094 71.25 22.667969 L 71.25 28.398438 L 67.085938 28.398438 L 67.085938 16.546875 L 71.046875 16.546875 L 71.046875 17.839844 C 71.363281 17.503906 71.730469 17.214844 72.136719 16.992188 C 73.75 16.164062 75.65625 16.132812 77.296875 16.90625 C 78.046875 17.28125 78.660156 17.882812 79.058594 18.621094 C 79.484375 19.394531 79.699219 20.394531 79.699219 21.621094 Z M 82.039062 28.398438 L 82.039062 12.171875 L 86.203125 12.171875 L 86.203125 28.398438 Z M 101.101562 16.546875 L 95.988281 28.878906 C 95.664062 29.753906 95.1875 30.566406 94.574219 31.273438 C 94.09375 31.8125 93.484375 32.230469 92.804688 32.484375 C 91.496094 32.933594 90.082031 32.953125 88.761719 32.539062 C 88.203125 32.382812 87.679688 32.117188 87.222656 31.765625 L 88.664062 28.855469 C 89.175781 29.296875 89.824219 29.542969 90.5 29.554688 C 90.878906 29.574219 91.253906 29.464844 91.5625 29.25 C 91.792969 29.058594 91.980469 28.816406 92.113281 28.546875 L 87.050781 16.546875 L 91.316406 16.546875 L 94.226562 23.789062 L 97.152344 16.546875 Z M 107.527344 28.59375 C 106.328125 28.617188 105.144531 28.347656 104.074219 27.808594 C 103.097656 27.3125 102.273438 26.558594 101.695312 25.632812 C 101.109375 24.671875 100.8125 23.570312 100.832031 22.449219 C 100.8125 21.332031 101.109375 20.230469 101.695312 19.28125 C 102.277344 18.359375 103.097656 17.613281 104.074219 17.125 C 106.261719 16.089844 108.800781 16.089844 110.992188 17.125 C 113.015625 18.117188 114.273438 20.195312 114.214844 22.449219 C 114.273438 24.710938 113.015625 26.800781 110.992188 27.808594 C 109.917969 28.34375 108.726562 28.613281 107.527344 28.59375 Z M 107.527344 25.292969 C 107.972656 25.300781 108.414062 25.1875 108.800781 24.964844 C 109.183594 24.734375 109.492188 24.394531 109.6875 23.992188 C 109.917969 23.511719 110.03125 22.980469 110.015625 22.449219 C 110.03125 21.925781 109.917969 21.402344 109.6875 20.929688 C 109.488281 20.535156 109.179688 20.207031 108.800781 19.980469 C 108.414062 19.757812 107.972656 19.644531 107.527344 19.652344 C 106.625 19.628906 105.789062 20.125 105.375 20.925781 C 105.136719 21.394531 105.019531 21.917969 105.035156 22.445312 C 105.019531 22.980469 105.136719 23.507812 105.375 23.988281 C 105.574219 24.390625 105.886719 24.726562 106.269531 24.960938 C 106.652344 25.183594 107.085938 25.296875 107.527344 25.292969 Z M 128.492188 21.621094 L 128.492188 28.398438 L 124.335938 28.398438 L 124.335938 22.296875 C 124.335938 21.449219 124.167969 20.832031 123.824219 20.449219 C 123.457031 20.054688 122.933594 19.839844 122.390625 19.871094 C 121.972656 19.867188 121.558594 19.96875 121.191406 20.164062 C 120.820312 20.371094 120.523438 20.6875 120.339844 21.070312 C 120.117188 21.574219 120.015625 22.121094 120.035156 22.667969 L 120.035156 28.398438 L 115.878906 28.398438 L 115.878906 16.546875 L 119.835938 16.546875 L 119.835938 17.839844 C 120.152344 17.503906 120.519531 17.214844 120.925781 16.992188 C 122.539062 16.164062 124.445312 16.132812 126.085938 16.90625 C 126.835938 17.28125 127.449219 17.882812 127.847656 18.621094 C 128.273438 19.394531 128.488281 20.394531 128.492188 21.621094 Z M 139.003906 27.925781 C 138.609375 28.179688 138.171875 28.351562 137.714844 28.441406 C 137.191406 28.550781 136.65625 28.605469 136.117188 28.601562 C 134.601562 28.601562 133.421875 28.226562 132.578125 27.476562 C 131.734375 26.726562 131.308594 25.597656 131.304688 24.082031 L 131.304688 20.089844 L 129.578125 20.089844 L 129.578125 16.984375 L 131.304688 16.984375 L 131.304688 13.902344 L 135.457031 13.902344 L 135.457031 16.984375 L 138.171875 16.984375 L 138.171875 20.089844 L 135.460938 20.089844 L 135.460938 24.023438 C 135.441406 24.390625 135.566406 24.746094 135.8125 25.019531 C 136.046875 25.261719 136.375 25.390625 136.710938 25.378906 C 137.164062 25.394531 137.613281 25.261719 137.984375 25.007812 Z M 142.414062 15.234375 C 141.742188 15.265625 141.085938 15.039062 140.578125 14.597656 C 140.132812 14.195312 139.878906 13.625 139.878906 13.023438 C 139.878906 12.425781 140.132812 11.851562 140.578125 11.449219 C 141.085938 11.011719 141.742188 10.78125 142.414062 10.8125 C 143.078125 10.78125 143.734375 10.996094 144.25 11.414062 C 144.707031 11.792969 144.964844 12.363281 144.949219 12.953125 C 144.964844 13.570312 144.714844 14.164062 144.261719 14.582031 C 143.753906 15.035156 143.089844 15.265625 142.414062 15.234375 Z M 140.335938 28.394531 L 140.335938 16.546875 L 144.492188 16.546875 L 144.492188 28.398438 Z M 159.398438 16.546875 L 154.28125 28.878906 C 153.960938 29.753906 153.484375 30.566406 152.875 31.273438 C 152.390625 31.8125 151.785156 32.230469 151.105469 32.484375 C 149.796875 32.933594 148.378906 32.953125 147.058594 32.539062 C 146.5 32.382812 145.976562 32.117188 145.519531 31.765625 L 146.960938 28.855469 C 147.472656 29.296875 148.121094 29.542969 148.796875 29.554688 C 149.175781 29.574219 149.546875 29.464844 149.859375 29.25 C 150.089844 29.058594 150.277344 28.820312 150.40625 28.550781 L 145.34375 16.546875 L 149.605469 16.546875 L 152.515625 23.785156 L 155.441406 16.546875 Z M 172.820312 21.621094 L 172.820312 28.398438 L 168.667969 28.398438 L 168.667969 22.296875 C 168.667969 21.449219 168.496094 20.832031 168.152344 20.449219 C 167.785156 20.054688 167.261719 19.839844 166.722656 19.871094 C 166.304688 19.867188 165.890625 19.96875 165.519531 20.164062 C 165.148438 20.371094 164.851562 20.6875 164.671875 21.070312 C 164.449219 21.574219 164.34375 22.121094 164.367188 22.667969 L 164.367188 28.398438 L 160.207031 28.398438 L 160.207031 12.171875 L 164.363281 12.171875 L 164.363281 17.644531 C 164.628906 17.390625 164.933594 17.171875 165.257812 16.996094 C 166.871094 16.164062 168.777344 16.132812 170.417969 16.90625 C 171.164062 17.285156 171.78125 17.886719 172.175781 18.625 C 172.605469 19.398438 172.820312 20.394531 172.820312 21.621094 Z M 183.335938 27.925781 C 182.941406 28.179688 182.503906 28.351562 182.042969 28.441406 C 181.519531 28.550781 180.984375 28.605469 180.449219 28.601562 C 178.933594 28.601562 177.75 28.226562 176.910156 27.476562 C 176.066406 26.726562 175.640625 25.597656 175.636719 24.082031 L 175.636719 20.089844 L 173.90625 20.089844 L 173.90625 16.984375 L 175.636719 16.984375 L 175.636719 13.902344 L 179.792969 13.902344 L 179.792969 16.984375 L 182.503906 16.984375 L 182.503906 20.089844 L 179.792969 20.089844 L 179.792969 24.023438 C 179.773438 24.390625 179.898438 24.746094 180.144531 25.019531 C 180.378906 25.261719 180.703125 25.390625 181.039062 25.378906 C 181.492188 25.394531 181.941406 25.261719 182.3125 25.007812 Z M 186.746094 15.234375 C 186.074219 15.265625 185.414062 15.039062 184.90625 14.597656 C 184.460938 14.195312 184.210938 13.625 184.210938 13.023438 C 184.210938 12.425781 184.460938 11.851562 184.90625 11.449219 C 185.417969 11.011719 186.074219 10.78125 186.746094 10.8125 C 187.410156 10.78125 188.0625 10.996094 188.582031 11.414062 C 189.035156 11.792969 189.292969 12.363281 189.28125 12.953125 C 189.296875 13.570312 189.046875 14.164062 188.589844 14.582031 C 188.085938 15.035156 187.421875 15.265625 186.746094 15.234375 Z M 184.667969 28.394531 L 184.667969 16.546875 L 188.820312 16.546875 L 188.820312 28.398438 Z M 197.199219 28.59375 C 196 28.617188 194.8125 28.347656 193.742188 27.808594 C 192.769531 27.3125 191.949219 26.558594 191.371094 25.632812 C 190.789062 24.671875 190.488281 23.570312 190.507812 22.449219 C 190.488281 21.332031 190.785156 20.230469 191.371094 19.277344 C 191.949219 18.359375 192.769531 17.613281 193.738281 17.125 C 195.929688 16.089844 198.46875 16.089844 200.65625 17.125 C 202.679688 18.117188 203.941406 20.195312 203.882812 22.449219 C 203.9375 24.710938 202.679688 26.800781 200.65625 27.808594 C 199.585938 28.34375 198.398438 28.613281 197.199219 28.59375 Z M 197.199219 25.292969 C 197.644531 25.300781 198.082031 25.1875 198.472656 24.964844 C 198.855469 24.734375 199.164062 24.394531 199.359375 23.992188 C 199.585938 23.511719 199.699219 22.980469 199.683594 22.449219 C 199.699219 21.925781 199.589844 21.402344 199.359375 20.929688 C 199.15625 20.535156 198.851562 20.207031 198.472656 19.980469 C 198.085938 19.753906 197.644531 19.640625 197.199219 19.648438 C 196.296875 19.625 195.457031 20.121094 195.042969 20.921875 C 194.804688 21.390625 194.691406 21.914062 194.707031 22.441406 C 194.691406 22.972656 194.808594 23.503906 195.042969 23.980469 C 195.246094 24.386719 195.554688 24.722656 195.941406 24.957031 C 196.320312 25.179688 196.757812 25.296875 197.199219 25.292969 Z M 213.71875 27.925781 C 213.324219 28.175781 212.886719 28.351562 212.429688 28.441406 C 211.90625 28.550781 211.371094 28.605469 210.832031 28.601562 C 209.316406 28.601562 208.136719 28.226562 207.292969 27.476562 C 206.449219 26.726562 206.023438 25.597656 206.019531 24.082031 L 206.019531 20.089844 L 204.292969 20.089844 L 204.292969 16.984375 L 206.019531 16.984375 L 206.019531 13.902344 L 210.171875 13.902344 L 210.171875 16.984375 L 212.882812 16.984375 L 212.882812 20.089844 L 210.171875 20.089844 L 210.171875 24.023438 C 210.152344 24.390625 210.277344 24.746094 210.523438 25.019531 C 210.757812 25.257812 211.082031 25.390625 211.417969 25.378906 C 211.871094 25.394531 212.316406 25.261719 212.691406 25.007812 Z M 213.71875 27.925781 "></path><path style=" stroke:none;fill-rule:evenodd;fill:rgb(100%,100%,100%);fill-opacity:1;" d="M 12.527344 15.492188 C 12.574219 15.453125 12.628906 15.425781 12.683594 15.40625 L 15.6875 23.074219 L 17.621094 28.378906 L 13.441406 28.378906 L 8.773438 16.597656 C 10.097656 16.550781 11.390625 16.171875 12.527344 15.492188 Z M 12.527344 15.492188 "></path><path style=" stroke:none;fill-rule:evenodd;fill:rgb(89.803922%,38.823529%,4.313725%);fill-opacity:1;" d="M 12.683594 15.386719 L 8.617188 4.914062 L 4.039062 4.914062 L 8.738281 16.609375 C 6.753906 16.683594 4.8125 16.019531 3.285156 14.75 C 1.742188 13.460938 0.714844 11.65625 0.398438 9.671875 C 0.0664062 7.683594 0.460938 5.640625 1.507812 3.917969 C 2.542969 2.214844 4.164062 0.945312 6.066406 0.355469 C 7.960938 -0.226562 10 -0.0820312 11.796875 0.753906 C 13.609375 1.601562 15.050781 3.082031 15.851562 4.910156 C 16.660156 6.757812 16.785156 8.832031 16.203125 10.765625 C 15.625 12.679688 14.375 14.320312 12.683594 15.386719 Z M 18.6875 25.976562 L 16.625 20.945312 L 19.902344 13.140625 L 24.097656 13.140625 Z M 18.6875 25.976562 "></path></g></svg> 