<svg xmlns="http://www.w3.org/2000/svg" width="128" height="34" viewBox="0 0 128 34"><path fill="#FFF" d="M55.2551787 22.218404 53.8739032 26.4746755C53.8360665 26.6166032 53.704079 26.7126995 53.55739 26.7051195L50.2256705 26.7051195C50.0243792 26.7051195 49.9674622 26.5898975 49.9952267 26.4177587L55.7466072 9.8244077C55.9424372 9.26030775 56.0401017 8.66680817 56.0353562 8.06970212 56.0296442 7.96735785 56.1055042 7.87865037 56.2074952 7.86841075L60.8094327 7.86841075C60.9482542 7.86841075 61.010724 7.8975633 61.0398765 8.04054957L67.5644937 26.4469112C67.6214107 26.585733 67.5936462 26.7051195 67.4256722 26.7051195L63.6872052 26.7051195C63.5466812 26.7244112 63.4128087 26.6392732 63.370692 26.5038282L61.9047355 22.218404 55.2551787 22.218404ZM56.2894 18.6243117 60.8344205 18.6243117 60.3972052 17.2160835C59.7942145 15.3011198 58.9916625 12.8087755 58.5619102 11.2042948L58.5327577 11.2042948C58.073258 13.1311392 57.0376485 16.2948845 56.2894 18.6243117ZM68.0226043 19.6821326C68.021217 15.5702355 71.0975047 12.1191295 76.3616212 12.1191295 76.590677 12.1191295 76.879426 12.148282 77.3111615 12.1760463L77.3111615 6.51073507C77.3048805 6.45566227 77.32406 6.40073172 77.3632547 6.36153695 77.3893845 6.3354071 77.422508 6.31817302 77.458005 6.31144795L81.1356977 6.3094437C81.2745192 6.3094437 81.3092247 6.36636057 81.3092247 6.48158252L81.3092247 23.4775163C81.3022695 24.1793929 81.3407572 24.8809837 81.4244467 25.5778877 81.4244467 25.688945 81.405789 25.7511372 81.310191 25.8007132L81.2231552 25.836096C79.4315277 26.5974387 77.5045252 26.9888832 75.557844 26.9869492 71.3015725 26.9869492 68.0226043 24.5714309 68.0226043 19.6821326ZM77.3111615 15.5979998C76.9675515 15.4877377 76.6067937 15.4407028 76.2463995 15.4591782 75.1483645 15.3788277 74.0687172 15.7740163 73.2820235 16.5442431 72.5608875 17.2502844 72.1496107 18.2090984 72.1300605 19.2108838L72.1345022 19.4850058C72.1345022 22.3322378 73.773986 23.5691386 75.9590385 23.5691386 76.416226 23.5883558 76.8733727 23.5301564 77.3111615 23.3969998L77.3111615 15.5979998ZM97.7687645 19.1777691 97.7790245 19.479453C97.7790245 23.995321 94.8457232 26.9855392 90.6991207 26.9855392 85.7806697 26.9855392 83.5956172 23.2762249 83.5956172 19.5655224 83.4807157 17.6074455 84.18828 15.6902697 85.5476852 14.276309 86.9070905 12.8623483 88.7949567 12.0799344 90.7560375 12.1177412 95.267029 12.1177412 97.6495497 15.4204952 97.7687645 19.1777691L97.7687645 19.1777691ZM87.6505975 19.5044409C87.6505975 22.0351594 88.8291932 23.6454905 90.7560375 23.6454905 92.4218972 23.6454905 93.6893387 22.2072983 93.6893387 19.5613577 93.6893387 17.318 92.7689512 15.4494607 90.5838987 15.4494607 88.918039 15.4494607 87.6505975 16.9445698 87.6505975 19.5044409ZM100.313908 6.3094437 103.82193 6.30805547C104.052374 6.30805547 104.109291 6.33720802 104.109291 6.5384994L104.109291 12.4342546C104.739484 12.2652288 105.385314 12.163313 106.036016 12.1299179L106.524788 12.1177412C108.371957 12.0260508 110.172466 12.7157785 111.485623 14.0181069 112.716708 15.2390398 113.412939 16.892753 113.432213 18.6172916L113.427 18.9630365C113.427 24.3409869 109.170728 26.9869275 104.800623 26.9869275 103.270496 26.9974972 101.747703 26.7746722 100.284755 26.3261365 100.180713 26.26741 100.115303 26.1582172 100.112616 26.0387757L100.112616 6.51073507C100.112616 6.37191342 100.169533 6.3094437 100.313908 6.3094437ZM106.053727 15.5072325 105.80708 15.5105422C105.23338 15.5038726 104.661811 15.5815161 104.11068 15.7409861L104.11068 23.5344332C104.343369 23.5883401 104.57981 23.6235019 104.817732 23.6396728L105.175442 23.6496551C106.32515 23.7146563 107.446159 23.2757001 108.246035 22.4472955 109.045911 21.6188909 109.445328 20.4831927 109.340091 19.3364667 109.474559 18.3377612 109.156248 17.3311579 108.47202 16.5913429 107.844811 15.9131791 106.97014 15.5240774 106.053727 15.5072325L106.053727 15.5072325ZM119.0465 20.5997436C119.185322 22.2392272 120.340318 23.5913501 123.158397 23.5913501 124.370242 23.6137482 125.573894 23.3884177 126.695573 22.9291708 126.78303 22.8722539 126.8691 22.9000183 126.8691 23.0679925L126.8691 25.8000025C126.8691 26.0012937 126.812183 26.0873632 126.667808 26.1456682 125.424538 26.7022625 124.079245 26.9890195 122.720466 26.9891817L122.267162 26.9785982C116.861447 26.9785982 114.962367 23.2692838 114.962367 19.7029558 114.962367 15.8332678 117.286312 12.2921784 121.586797 12.1175425L121.921496 12.1108002C123.574104 12.0502604 125.175444 12.6903554 126.33097 13.8733752 127.486496 15.0563949 128.088767 16.6723414 127.98939 18.3230687 128.010632 18.9684376 127.964103 19.6142542 127.850569 20.2499131 127.841883 20.3734072 127.743619 20.4716711 127.620125 20.480357 126.881692 20.5504237 126.140761 20.589578 125.399273 20.5977445L119.0465 20.5997436ZM122.784967 17.8108168C123.265115 17.8287177 123.745928 17.8096894 124.223159 17.7539L124.223159 17.5526086C124.205928 16.9251503 123.93724 16.3309448 123.477502 15.903579 123.017764 15.4762131 122.405555 15.2515503 121.77851 15.2800983 120.332376 15.2572717 119.120318 16.368173 119.017348 17.8108168L122.784967 17.8108168ZM18.8283795 12.2843272 27.6949177 33.321359 21.8838438 33.321359 19.2309622 26.6218265 12.7424386 26.6218265 18.8283795 12.2843272ZM37.649818 0 37.649818 33.3171945 23.7301717 0 37.649818 0ZM13.925199 0 0 33.3171945 0 0 13.925199 0Z"/></svg>