<svg xmlns="http://www.w3.org/2000/svg" width="128" height="27" viewBox="0 0 128 27"><g fill="#FFF"><path d="M62.4778619,0 L39.9059504,0 C34.673033,0 32.3456401,3.27552877 31.8203662,6.3957879 L31.8203662,0 L19.2930792,0 C17.5454698,0 16.7013976,0.530229317 15.8573254,1.7459576 L12.4215715,6.76744396 L62.4795137,6.76744396 L62.4795137,0 L62.4778619,0 Z M0,26.4288756 L8.98581771,26.4288756 L20.2445187,8.24415739 L12.2101405,7.45129112 L0,26.4288756 Z M71.2010427,0 L63.8009575,0 L63.8009575,6.76744396 L71.2010427,6.76744396 L71.2010427,0 L71.2010427,0 Z M118.17011,10.5715502 L95.0151114,9.19724871 C95.0151114,12.7403698 97.3441561,15.1206205 101.308487,15.4344634 L117.798454,16.6997458 C119.063736,16.8087649 119.856603,17.1226078 119.856603,18.1847182 C119.856603,19.1890155 118.954717,19.5590198 117.106348,19.5590198 L94.6434554,19.5590198 L94.6434554,26.4288756 L117.587023,26.4288756 C124.826883,26.4288756 128,23.8900517 128,18.1269051 C128,12.9518009 125.147333,10.9944123 118.168458,10.573202 L118.17011,10.5715502 Z"/><path d="M94.7210902,9.19724871 L87.4283723,8.77603851 L87.4283723,16.5461279 C87.4283723,18.9775845 86.2142959,19.7192448 81.9856758,19.7192448 L76.1713231,19.7192448 C72.6860152,19.7192448 71.2026945,18.7149475 71.2026945,16.5477797 L71.2026945,8.0409854 L63.8026093,7.50910428 L63.8026093,17.180421 L63.6423843,17.180421 C63.2195223,14.3789601 62.164019,11.1034314 55.1289827,10.6227562 L31.9789395,9.08988141 C31.9789395,12.6346543 34.5177634,14.744009 38.4837465,15.166871 L54.602057,16.8038095 C55.8689912,16.9062214 56.8220826,17.2778774 56.8220826,18.3399879 C56.8220826,19.5028584 55.8689912,19.6052703 54.390626,19.6052703 L31.7146507,19.6052703 L31.7146507,9.03702365 L24.3145656,8.5646075 L24.3145656,26.4288756 L54.4385283,26.4288756 C61.1481591,26.4288756 63.3169787,22.9435676 63.6374289,20.0330877 L63.7960021,20.0330877 C64.6400743,24.6317121 68.6556116,26.4288756 75.4742615,26.4288756 L82.9767586,26.4288756 C90.9599308,26.4288756 94.714483,23.9990709 94.714483,18.2854783 L94.714483,9.19890052 L94.7210902,9.19890052 L94.7210902,9.19724871 Z M127.487941,6.76744396 L127.487941,0 L102.644797,0 C97.4713451,0 95.1423004,3.20450117 94.7326528,6.293376 C94.725242,6.32925003 94.7213692,6.36576469 94.7210902,6.40239512 L94.7210902,0 L87.4283723,0 L87.4283723,6.76744396 L127.487941,6.76744396 Z"/></g></svg>