<svg xmlns="http://www.w3.org/2000/svg" width="128" height="128" viewBox="0 0 128 128"><g fill="none"><path fill="#000" d="M63.9998716,128 C81.0947657,128 97.1661795,121.342499 109.254596,109.254596 C121.342499,97.1664363 128,81.0947657 128,63.9998716 C128,46.9052343 121.342499,30.8335637 109.254596,18.7454037 C97.1664363,6.65724379 81.0947657,0 63.9998716,0 C28.710086,0 0,28.710086 0,63.9998716 C0,81.0947657 6.65724379,97.1664363 18.7454037,109.254596 C30.8335637,121.342499 46.9052343,128 63.9998716,128 Z"/><path fill="#FFF" d="M2.25882353,63.9998717 C2.25882353,47.5087022 8.68113544,32.0040983 20.3426478,20.3426102 C32.0041601,8.68086551 47.5085396,2.25882353 64,2.25882353 C80.4914604,2.25882353 95.9960965,8.68086551 107.657352,20.3426102 C119.318865,32.0040983 125.741176,47.5084456 125.741176,63.9998717 C125.741176,98.0442121 98.0441545,125.741176 64,125.741176 C47.5085396,125.741176 32.0041601,119.318878 20.3426478,107.65739 C8.68113544,95.9956451 2.25882353,80.4912978 2.25882353,63.9998717 Z"/><path fill="#000" d="M63.6235294,4.51764706 C30.9806656,4.51764706 4.51764706,30.9806083 4.51764706,63.6234013 C4.51764706,96.2661944 30.9806656,122.729412 63.6235294,122.729412 C96.2663932,122.729412 122.729412,96.2661944 122.729412,63.6234013 C122.729412,30.9806083 96.2663932,4.51764706 63.6235294,4.51764706 Z"/><path fill="#FFF" d="M63.6235294,101.647059 C42.6240245,101.647059 25.6,84.6232923 25.6,63.6235294 C25.6,42.6240245 42.6240245,25.6 63.6235294,25.6 C84.6230343,25.6 101.647059,42.6240245 101.647059,63.6235294 C101.647059,84.6232923 84.6232923,101.647059 63.6235294,101.647059 Z"/><path fill="#000" d="M28.6117647,63.9998717 L64,63.9998717 L64,28.6117647 C44.4558719,28.6117647 28.6117647,44.4560711 28.6117647,63.9998717 Z M64,63.9998717 L64,99.3882353 C83.5441281,99.3882353 99.3882353,83.5441856 99.3882353,63.9998717 L64,63.9998717 Z"/><path fill="#FFF" d="M36.0476903,28.2580926 C34.7895128,27.0343833 32.8446818,26.6655695 31.0188434,27.7982996 C31.3675788,26.8939197 31.2251484,25.9709831 31.0399632,25.4617056 C30.2533769,24.0263987 29.9788186,23.8467598 29.3305416,23.3024308 C27.2319478,21.5403204 25.0233761,23.0446993 23.4437644,24.928459 L15.8117647,34.0297324 L27.8091383,44.1036846 L35.8576115,34.5057625 C37.6965855,32.312725 37.9809311,30.1385018 36.0476903,28.2580926 L36.0476903,28.2580926 Z M65.9292149,23.9333576 L70.0493923,13.0052832 L70.0493923,23.9333576 L73.1807993,23.9333576 L73.1807993,8.28235294 L68.4759621,8.28235294 L64.1966129,19.488262 L64.2409131,19.488262 L59.961564,8.28235294 L55.2569843,8.28235294 L55.2569843,23.9333576 L58.3881337,23.9333576 L58.3881337,13.0052832 L62.5085687,23.9333576 L65.9292149,23.9333576 Z M108.029872,30.4446869 L102.134337,38.7969925 L111.27409,34.4549894 L113.694118,37.4454483 L99.3083958,44.4235294 L96.4682885,40.8856488 L102.126611,32.6065389 L102.093128,32.5650442 L92.8238233,36.3820481 L89.9558995,32.86659 L99.7681393,20.2367143 L102.188167,23.2271732 L96.0435731,31.2704587 L105.433673,27.2364448 L108.029872,30.4446869 Z"/><path fill="#000" d="M25.5767649,26.8233076 C26.0974682,26.1764157 27.2742274,26.2029967 28.0310401,26.8646266 C28.8631048,27.5923142 28.8651249,28.6239726 28.3062906,29.3177102 L23.8626359,34.8368194 L21.0823529,32.4053164 L25.5767649,26.8233076 L25.5767649,26.8233076 Z M33.4830208,33.3340721 L28.7979537,39.1529412 L25.8600962,36.583796 L30.5830418,30.7175548 C31.1163713,30.0551354 32.3055041,29.8622258 33.1075185,30.5638588 C34.0153402,31.3573409 34.1052386,32.561381 33.4830208,33.3340721 Z"/></g></svg>