<svg xmlns="http://www.w3.org/2000/svg" width="129" height="128" viewBox="0 0 129 128"><g fill="#FFF" transform="translate(.973)"><path d="M96.3509631,17.992655 C96.6579559,17.2555525 96.0439703,16.5616209 96.0439703,16.5616209 C96.0439703,16.5616209 91.2216254,8.49666475 74.2570765,6.67549404 C65.1384316,5.72093837 52.7771754,7.54210908 44.0982337,12.182177 C28.3168861,20.5509281 25.9504834,34.3831913 25.9504834,34.3831913 C25.8625428,34.7301571 25.7314313,35.7710545 26.0815949,36.2043621 C26.4317586,36.6376696 26.9578035,36.6376696 27.6165588,36.4218153 C33.1840008,34.5574737 49.7104454,29.1371324 60.1434032,26.4045769 C75.0037725,22.5016114 87.2339171,20.1176206 95.0366503,18.8160991 C95.6506358,18.6865866 96.131911,18.5123042 96.3509631,17.992655 L96.3509631,17.992655 Z"/><path d="M113.317111,83.121493 C104.419117,102.893747 87.3666275,116.639668 64.9657481,116.943463 C48.7031254,117.160916 34.3240313,111.654233 23.9358433,102.027132 L17.6680741,104.671747 L17.6680741,95.0462438 C10.8278912,85.9403902 6.83858396,74.3642042 6.83858396,61.2690434 C6.83858396,27.6645264 32.8338372,1.21358083 69.1293377,1.21358083 C75.0469433,1.21358083 80.3953332,2.12336673 84.4278112,3.03475154 C78.2032128,1.08406825 72.0233842,0 65.1400305,0 C26.2143053,0 0,31.2189272 0,63.4371799 C0,98.5159018 27.835611,127.913658 64.3517626,127.913658 C99.2450096,127.913658 118.051515,103.587678 124.100232,88.9319709 L113.317111,83.121493 Z"/><path d="M104.284808 76.183776C109.414145 75.6193569 112.963749 73.5823319 114.893647 71.6748195 116.647663 69.9399905 117.085767 67.5991706 117.085767 65.8211707L117.085767 55.0668299 103.54131 57.9720689 103.54131 61.094761C103.58448 63.1765558 104.593399 64.3037949 106.78552 63.9136583 107.487446 63.7841457 108.539536 63.4803508 108.539536 63.4803508L108.539536 66.0386239C108.539536 65.9522822 108.758588 67.469658 105.340095 68.1204187 100.869513 68.8143503 98.8516751 66.0817948 98.8085043 61.2690434 98.8964449 56.1093262 101.833662 53.1609164 105.428036 52.3374722 109.460514 51.4276863 111.740575 52.3806431 113.054888 52.5549254 117.527069 53.2056862 118.796612 46.5717641 114.720963 45.0096185 111.695805 43.7960377 107.794439 43.5785845 104.068953 44.3156869 99.0707273 45.3134134 89.2965248 49.4322332 89.2514057 62.8311889 89.2085842 73.4975891 97.1424289 76.9672471 104.288006 76.1869738L104.284808 76.183776ZM60.2297449 87.5888775 64.7450971 86.0715017C68.0772479 84.9442626 69.3036201 82.9488096 69.3036201 79.5670922L69.2604492 68.6832388 78.9483099 79.6966048C80.5264446 81.3003223 82.4995128 81.4314338 84.2966997 80.9101856 86.1370575 80.3905364 87.7167912 78.6988783 87.759962 76.3132885L87.759962 48.9541559C87.759962 48.9541559 85.2608489 49.4738052 83.201439 50.0382242 80.8350364 50.6889849 78.9930797 52.2063607 78.9930797 56.1956679L78.9930797 65.6916581C78.9930797 65.6916581 73.4704075 58.8834537 69.9192045 55.3722237 68.034077 53.5078822 64.8778075 54.6351213 64.8778075 54.6351213L60.2313438 56.0229845 60.2313438 87.5888775 60.2297449 87.5888775ZM57.2925275 56.7153172 52.0320783 58.4069753C48.9637495 59.4910435 47.1665626 61.2690434 47.1665626 65.8643416L47.1665626 92.097834C47.1665626 92.097834 49.839958 91.1880481 52.382242 90.2334924 55.9334449 88.8888001 57.2925275 87.0676294 57.2925275 83.3821171L57.2925275 56.7153172ZM42.8718615 62.9575037C40.198466 61.7439229 37.9184051 63.0870163 36.9542559 64.5612212L28.7565893 78.3934844 28.7565893 67.2490069 19.0255577 71.1951433 18.9823869 102.674695 25.8209708 99.8557973C25.8209708 99.8557973 27.1800535 99.4656607 27.9683214 98.208909 28.7134184 97.038499 28.6702476 95.1309866 28.6702476 95.1309866L28.6702476 85.158518 36.2970995 93.1803033C37.9631749 94.9151323 41.0315037 95.7817473 43.749669 93.6136108 46.2040123 91.6629275 45.8106778 88.3227821 44.4515952 86.8054064L37.5250706 79.9108602 44.6258775 68.8111525C45.9417893 66.643016 45.283034 64.0415719 42.8718615 62.9575037L42.8718615 62.9575037ZM39.0584356 99.9901067C38.7082719 100.813551 39.5413096 101.636995 39.5413096 101.636995 43.0477428 106.016439 58.6979789 111.566293 75.7056987 107.490644 101.656182 101.290029 107.135683 83.121493 107.749669 80.5632198 107.88078 80.0435706 107.968721 79.2185275 107.485847 78.6988783 107.090914 78.2655707 106.476928 78.2655707 105.68866 78.4382542 87.6288505 82.6434157 57.687461 91.7060984 40.3727484 99.0339521 39.6276513 99.337747 39.3206586 99.4672596 39.0584356 99.9885078L39.0584356 99.9901067ZM23.6704225 58.7091713C23.6272516 56.9743423 22.268169 56.0213856 19.9449372 57.1917955L19.9449372 62.7848202 21.25925 62.1772304C22.6615035 61.5264696 23.7135933 60.3992305 23.6704225 58.7091713L23.6704225 58.7091713ZM19.9001674 53.6357958 20.9954281 53.1593175C22.2665701 52.5517276 23.1875484 51.3813176 23.1875484 49.9071127 23.1875484 48.2154546 21.7852949 47.7821471 19.9001674 48.7367027L19.9001674 53.6357958 19.9001674 53.6357958ZM29.8950209 57.8857271C29.9829615 62.3083419 26.7819222 64.6491618 22.5751618 66.3408199L14.0273316 69.9399905 14.0273316 47.0018737 21.1729083 44.1829765C26.1711345 42.3618058 29.1067529 44.5731131 29.1067529 47.8684888 29.1067529 50.0797961 28.1426037 51.9441377 26.0815949 53.592625 28.097834 53.9395908 29.85185 55.5864791 29.8950209 57.8857271L29.8950209 57.8857271ZM46.1144727 38.5467809C46.1144727 36.5960976 44.7553901 36.1180203 43.1340845 36.5513279L40.2848078 37.5058835 40.2848078 51.7714543C40.2848078 53.2024883 40.0657556 54.9804882 38.2685687 55.4137957 36.9094861 55.7607615 36.2523297 54.8509756 36.2523297 53.4199415L36.2523297 41.7558148C36.2523297 39.8051315 34.8932471 39.2407125 33.2719414 39.7619607L30.3794938 40.8028581 30.3794938 54.9389162C30.336323 59.6653259 33.6668749 62.0493167 38.6651011 60.5751118 43.0925126 59.2735903 46.0729008 56.8032578 46.1176706 50.5147026L46.1176706 38.5467809 46.1144727 38.5467809ZM93.7223374 44.4451995C94.9934794 44.1845754 95.7833462 43.2747895 95.7833462 41.712644L95.7833462 39.2407125 88.8568216 40.7580883 88.8568216 36.7272091 93.1962925 35.8174232C94.3794938 35.5567992 94.9934794 34.9060384 94.9934794 33.562945L94.9934794 31.2221251 88.8568216 32.5236465 88.8568216 29.3146126 93.7671072 28.3168861C95.1261898 28.056262 95.5642941 27.1464761 95.5642941 25.8881255L95.5642941 23.4593649 83.0271567 25.9744672 82.9839858 46.8739601 93.7239363 44.4451995 93.7223374 44.4451995ZM53.5670422 43.5753866C53.5670422 43.5753866 56.9855348 41.7973868 56.9855348 39.0232593 56.9423639 36.6392685 54.7502436 37.1589177 53.6102131 37.5922252L53.5670422 43.5753866ZM53.6102131 46.8275914 53.6102131 52.4637869C53.6102131 53.9811627 52.5581233 55.065231 51.2438104 55.5864791 51.2438104 55.62965 51.2438104 55.5433083 51.2438104 55.5864791L47.7805481 56.7568891 47.7805481 35.2082344 55.4953406 32.8674145C59.8795813 31.8265171 63.0358508 33.8219702 62.991081 37.3763709 62.9479102 40.7580883 61.0627826 42.7967122 59.3519374 44.2277463L63.1221925 47.783746C63.6945722 48.3628965 64.0119657 49.1466465 64.0041569 49.960875 63.9957531 50.7751036 63.6628185 51.5523791 63.0790217 52.120019 62.2907537 52.8571214 60.2297449 53.5942239 58.6516102 51.9473355 58.6084393 51.9473355 53.6102131 46.8307892 53.6102131 46.8307892L53.6102131 46.8275914ZM102.751443 32.0007995C102.751443 32.0007995 106.126764 30.7440478 106.083594 28.0546631 106.040423 25.8001849 103.803533 26.1903215 102.708272 26.4509456L102.751443 32.0007995ZM97.0528893 43.7944388 97.0528893 23.15557 104.724511 21.8988183C109.108752 21.3343993 112.045969 23.7631599 111.958028 27.1448772 111.914857 30.1364579 110.02973 31.9576286 108.406825 33.0416969L112.17708 37.2484573C113.22917 38.4188673 113.185999 40.4574912 111.607865 41.4536188 110.072901 42.4081745 108.494766 41.9300972 107.618557 40.9339696L102.753042 35.2098334 102.753042 40.240038C102.753042 41.7574137 101.832063 42.8846529 100.253929 43.1884478L97.0544882 43.7960377 97.0528893 43.7944388ZM81.6233043 35.1218927 72.9875334 37.072576 72.9875334 39.4581657C72.9875334 40.5854049 73.7758013 41.2793364 74.9158318 41.0618832L76.1869738 40.8012592 76.1869738 43.18525C76.1869738 44.1398056 74.7847203 44.7457966 73.2945262 44.7026257 71.1903465 44.616284 70.050316 43.0109676 70.0071452 39.9762161 70.050316 35.9869088 71.9802134 33.6460889 74.5656682 32.9953282 75.8368102 32.6483624 77.0200115 32.8226447 77.9409898 32.9521573 80.176281 33.2991231 81.447423 32.2582257 81.4921928 30.437055 81.5353636 28.4863717 79.7829465 27.2711919 76.0558623 27.4023034 67.9029655 27.6629275 63.737777 33.4734055 63.737777 40.3663527 63.737777 47.4335823 68.4274115 50.5562745 74.1275639 49.558548 77.3270043 48.9077872 78.9499088 47.8668898 80.0451695 46.9139331 81.1404302 45.9609763 81.6233043 44.5299423 81.6233043 43.2715917L81.6233043 35.1202938 81.6233043 35.1218927Z"/><path d="M47.561496 12.0110925C38.0047468 16.1730832 31.5610963 26.1039798 31.2109326 30.2659705 31.0798211 31.9144577 33.3151123 32.1734829 33.5341644 30.395483 35.5504035 22.7638344 41.6870612 15.5654933 47.561496 12.0110925ZM79.167362 19.1230919C84.2966997 17.8663402 87.1459765 17.6920579 87.1891473 15.3944088 87.277088 11.5793839 76.3180853 7.15517026 66.2352912 7.98021336 76.4923677 8.67414495 82.6306243 12.5771105 82.6306243 15.2648962 82.6753941 16.9997252 81.1404302 18.517101 79.167362 19.1246908L79.167362 19.1230919ZM82.3236315 103.242311C90.0384241 100.250731 97.4478227 94.4834237 101.568241 85.8988183 102.751443 83.4268869 99.3329503 82.1269643 98.3688011 85.0753741 95.9576286 91.189647 91.048942 98.3432183 82.3252305 103.24391L82.3236315 103.242311ZM121.204587 77.4405276 122.256677 77.4405276C122.825893 77.4405276 123.572589 77.5268694 123.572589 78.220801 123.572589 79.0010743 123.046544 79.087416 122.344617 79.087416L121.249357 79.087416 121.206186 77.4389287 121.204587 77.4405276ZM119.933445 82.6865866 121.161416 82.6865866 121.161416 80.0419717 121.949684 80.0419717 123.484648 82.6865866 124.798961 82.6865866 123.132885 79.9556299C124.053864 79.8692882 124.798961 79.4343818 124.798961 78.3071427 124.798961 76.9624503 123.922752 76.4428011 122.344617 76.4428011L119.933445 76.4428011 119.933445 82.6865866 119.933445 82.6865866ZM116.427012 79.5638944C116.427012 82.9456117 119.145177 85.1569191 122.213506 85.1569191 125.281835 85.1569191 128 82.9887826 128 79.5638944 128 76.182177 125.281835 74.0140405 122.213506 74.0140405 119.145177 74.0140405 116.427012 76.182177 116.427012 79.5638944ZM117.960377 79.5638944C117.960377 77.0487921 119.845504 75.1844505 122.211907 75.1844505 124.535139 75.1844505 126.463437 77.0056212 126.463437 79.5638944 126.463437 82.1221675 124.535139 83.9433382 122.211907 83.9433382 119.843905 83.9865091 117.960377 82.1221675 117.960377 79.5638944Z"/></g></svg>