<svg xmlns="http://www.w3.org/2000/svg" width="82" height="80" viewBox="0 0 82 80">
  <g fill="none">
    <path fill="#FAAF18" d="M61.233,11.253 C61.425,10.792 61.041,10.358 61.041,10.358 C61.041,10.358 58.025,5.314 47.415,4.175 C41.712,3.578 33.981,4.717 28.553,7.619 C18.683,12.853 17.203,21.504 17.203,21.504 C17.148,21.721 17.066,22.372 17.285,22.643 C17.504,22.914 17.833,22.914 18.245,22.779 C21.727,21.613 32.063,18.223 38.588,16.514 C47.882,14.073 55.531,12.582 60.411,11.768 C60.795,11.687 61.096,11.578 61.233,11.253 L61.233,11.253 Z"/>
    <path fill="#185494" d="M71.844,51.986 C66.279,64.352 55.614,72.949 41.604,73.139 C31.433,73.275 22.44,69.831 15.943,63.81 L12.023,65.464 L12.023,59.444 C7.745,53.749 5.25,46.509 5.25,38.319 C5.25,17.302 21.508,0.759 44.208,0.759 C47.909,0.759 51.254,1.328 53.776,1.898 C49.883,0.678 46.018,0 41.713,0 C17.368,0 0.973,19.525 0.973,39.675 C0.973,61.614 18.382,80 41.22,80 C63.043,80 74.805,64.786 78.588,55.62 L71.844,51.986 Z"/>
    <path fill="#ED1D21" d="M66.195,47.647 C69.403,47.294 71.623,46.02 72.83,44.827 C73.927,43.742 74.201,42.278 74.201,41.166 L74.201,34.44 L65.73,36.257 L65.73,38.21 C65.757,39.512 66.388,40.217 67.759,39.973 C68.198,39.892 68.856,39.702 68.856,39.702 L68.856,41.302 C68.856,41.248 68.993,42.197 66.855,42.604 C64.059,43.038 62.797,41.329 62.77,38.319 C62.825,35.092 64.662,33.248 66.91,32.733 C69.432,32.164 70.858,32.76 71.68,32.869 C74.477,33.276 75.271,29.127 72.722,28.15 C70.83,27.391 68.39,27.255 66.06,27.716 C62.934,28.34 56.821,30.916 56.7928903,39.296 C56.766,45.967 61.728,48.137 66.197,47.649 L66.195,47.647 Z"/>
    <path fill="#EE1C23" d="M38.642,54.78 L41.466,53.831 C43.55,53.126 44.317,51.878 44.317,49.763 L44.29,42.956 L50.349,49.844 C51.336,50.847 52.57,50.929 53.694,50.603 C54.845,50.278 55.833,49.22 55.86,47.728 L55.86,30.617 C55.86,30.617 54.297,30.942 53.009,31.295 C51.529,31.702 50.377,32.651 50.377,35.146 L50.377,41.085 C50.377,41.085 46.923,36.827 44.702,34.631 C43.523,33.465 41.549,34.17 41.549,34.17 L38.643,35.038 L38.643,54.78 L38.642,54.78 Z"/>
    <path fill="#ED1C23" d="M36.805,35.471 L33.515,36.529 C31.596,37.207 30.472,38.319 30.472,41.193 L30.472,57.6 C30.472,57.6 32.144,57.031 33.734,56.434 C35.955,55.593 36.805,54.454 36.805,52.149 L36.805,35.471 Z"/>
    <path fill="#EE1D23" d="M27.786,39.375 C26.114,38.616 24.688,39.456 24.085,40.378 L18.958,49.029 L18.958,42.059 L12.872,44.527 L12.845,64.215 L17.122,62.452 C17.122,62.452 17.972,62.208 18.465,61.422 C18.931,60.69 18.904,59.497 18.904,59.497 L18.904,53.26 L23.674,58.277 C24.716,59.362 26.635,59.904 28.335,58.548 C29.87,57.328 29.624,55.239 28.774,54.29 L24.442,49.978 L28.883,43.036 C29.706,41.68 29.294,40.053 27.786,39.375 L27.786,39.375 Z"/>
    <path fill="#FAAF18" d="M25.401,62.536 C25.182,63.051 25.703,63.566 25.703,63.566 C27.896,66.305 37.684,69.776 48.321,67.227 C64.551,63.349 67.978,51.986 68.362,50.386 C68.444,50.061 68.499,49.545 68.197,49.22 C67.95,48.949 67.566,48.949 67.073,49.057 C55.778,51.687 37.052,57.355 26.223,61.938 C25.757,62.128 25.565,62.209 25.401,62.535 L25.401,62.536 Z"/>
    <path fill="#EE1C23" d="M15.777,36.718 C15.75,35.633 14.9,35.037 13.447,35.769 L13.447,39.267 L14.269,38.887 C15.146,38.48 15.804,37.775 15.777,36.718 L15.777,36.718 Z M13.419,33.545 L14.104,33.247 C14.899,32.867 15.475,32.135 15.475,31.213 C15.475,30.155 14.598,29.884 13.419,30.481 L13.419,33.545 L13.419,33.545 Z M19.67,36.203 C19.725,38.969 17.723,40.433 15.092,41.491 L9.746,43.742 L9.746,29.396 L14.215,27.633 C17.341,26.494 19.177,27.877 19.177,29.938 C19.177,31.321 18.574,32.487 17.285,33.518 C18.546,33.735 19.643,34.765 19.67,36.203 L19.67,36.203 Z"/>
    <path fill="#ED1D1F" d="M29.814,24.108 C29.814,22.888 28.964,22.589 27.95,22.86 L26.168,23.457 L26.168,32.379 C26.168,33.274 26.031,34.386 24.907,34.657 C24.057,34.874 23.646,34.305 23.646,33.41 L23.646,26.115 C23.646,24.895 22.796,24.542 21.782,24.868 L19.973,25.519 L19.973,34.36 C19.946,37.316 22.029,38.807 25.155,37.885 C27.924,37.071 29.788,35.526 29.816,31.593 L29.816,24.108 L29.814,24.108 Z"/>
    <path fill="#EE1C23" d="M59.589,27.797 C60.384,27.634 60.878,27.065 60.878,26.088 L60.878,24.542 L56.546,25.491 L56.546,22.97 L59.26,22.401 C60,22.238 60.384,21.831 60.384,20.991 L60.384,19.527 L56.546,20.341 L56.546,18.334 L59.617,17.71 C60.467,17.547 60.741,16.978 60.741,16.191 L60.741,14.672 L52.9,16.245 L52.873,29.316 L59.59,27.797 L59.589,27.797 Z"/>
    <path fill="#EE1D23" d="M4.475,14.253 C4.475,14.253 6.613,13.141 6.613,11.406 C6.586,9.915 5.215,10.24 4.502,10.511 L4.475,14.253 Z M4.502,16.287 L4.502,19.812 C4.502,20.761 3.844,21.439 3.022,21.765 C3.022,21.792 3.022,21.738 3.022,21.765 L0.856,22.497 L0.856,9.02 L5.681,7.556 C8.423,6.905 10.397,8.153 10.369,10.376 C10.342,12.491 9.163,13.766 8.093,14.661 L10.451,16.885 C10.8089788,17.2472134 11.0074836,17.7373878 11.0025085,18.2466241 C10.9973439,18.7558605 10.7891193,19.2419856 10.424,19.597 C9.931,20.058 8.642,20.519 7.655,19.489 C7.628,19.489 4.502,16.289 4.502,16.289 L4.502,16.287 Z M35.236,7.014 C35.236,7.014 37.347,6.228 37.32,4.546 C37.293,3.136 35.894,3.38 35.209,3.543 L35.236,7.014 Z M31.672,14.39 L31.672,1.482 L36.47,0.696 C39.212,0.343 41.049,1.862 40.994,3.977 C40.967,5.848 39.788,6.987 38.773,7.665 L41.131,10.296 C41.789,11.028 41.762,12.303 40.775,12.926 C39.815,13.523 38.828,13.224 38.28,12.601 L35.237,9.021 L35.237,12.167 C35.237,13.116 34.661,13.821 33.674,14.011 L31.673,14.391 L31.672,14.39 Z M22.022,8.966 L16.621,10.186 L16.621,11.678 C16.621,12.383 17.114,12.817 17.827,12.681 L18.622,12.518 L18.622,14.009 C18.622,14.606 17.745,14.985 16.813,14.958 C15.497,14.904 14.784,13.9 14.757,12.002 C14.784,9.507 15.991,8.043 17.608,7.636 C18.403,7.419 19.143,7.528 19.719,7.609 C21.117,7.826 21.912,7.175 21.94,6.036 C21.967,4.816 20.871,4.056 18.54,4.138 C13.441,4.301 10.836,7.935 10.836,12.246 C10.836,16.666 13.769,18.619 17.334,17.995 C19.335,17.588 20.35,16.937 21.035,16.341 C21.72,15.745 22.022,14.85 22.022,14.063 L22.022,8.965 L22.022,8.966 Z" transform="translate(30 13)"/>
    <path fill="#FFF" d="M10.719,3.512 C4.742,6.115 0.712,12.326 0.493,14.929 C0.411,15.96 1.809,16.122 1.946,15.01 C3.207,10.237 7.045,5.735 10.719,3.512 Z M30.486,7.96 C33.694,7.174 35.476,7.065 35.503,5.628 C35.558,3.242 28.704,0.475 22.398,0.991 C28.813,1.425 32.652,3.866 32.652,5.547 C32.68,6.632 31.72,7.581 30.486,7.961 L30.486,7.96 Z M32.46,60.57 C37.285,58.699 41.919,55.092 44.496,49.723 C45.236,48.177 43.098,47.364 42.495,49.208 C40.987,53.032 37.917,57.506 32.461,60.571 L32.46,60.57 Z" transform="translate(20 4)"/>
    <path fill="#EE1D23" d="M76.777,48.433 L77.435,48.433 C77.791,48.433 78.258,48.487 78.258,48.921 C78.258,49.409 77.929,49.463 77.49,49.463 L76.805,49.463 L76.778,48.432 L76.777,48.433 Z M75.982,51.714 L76.75,51.714 L76.75,50.06 L77.243,50.06 L78.203,51.714 L79.025,51.714 L77.983,50.006 C78.559,49.952 79.025,49.68 79.025,48.975 C79.025,48.134 78.477,47.809 77.49,47.809 L75.982,47.809 L75.982,51.714 L75.982,51.714 Z M73.789,49.761 C73.789,51.876 75.489,53.259 77.408,53.259 C79.327,53.259 81.027,51.903 81.027,49.761 C81.027,47.646 79.327,46.29 77.408,46.29 C75.489,46.29 73.789,47.646 73.789,49.761 Z M74.748,49.761 C74.748,48.188 75.927,47.022 77.407,47.022 C78.86,47.022 80.066,48.161 80.066,49.761 C80.066,51.361 78.86,52.5 77.407,52.5 C75.926,52.527 74.748,51.361 74.748,49.761 Z"/>
  </g>
</svg>
