<svg xmlns="http://www.w3.org/2000/svg" width="128" height="25" viewBox="0 0 128 25"><path fill="#FFF" d="M28.8738462,0.0659692308 C26.88,0.0290461538 18.2276923,0.00443076923 13.1815385,0.00443076923 L0,0.00443076923 L0,4.74289231 C10.6092308,4.74289231 23.2,4.71827692 28.7138462,4.80443077 C29.6984615,4.81673846 30.6707692,4.9152 31.4461538,5.60443077 C32.1723077,6.24443077 32.4184615,7.25366154 32.0984615,8.12750769 C31.5815385,9.54289231 30.1415385,9.88750769 28.7138462,9.91212308 C26.5230769,9.94904615 20.5292308,9.96135385 16.0492308,9.96135385 C5.05846154,9.97366154 9.82153846,9.96135385 0,9.96135385 L0,14.6875077 C10.6092308,14.6875077 23.2246154,14.6628923 28.7138462,14.7490462 C30.4246154,14.7736615 32.2338462,15.3644308 32.2338462,17.2844308 C32.2338462,19.2044308 30.4246154,19.8198154 28.7138462,19.8444308 C23.2369231,19.9305846 10.6092308,19.9059692 0,19.9059692 L0,24.6444308 C10.6461538,24.6444308 24.5784615,24.6813538 28.8738462,24.5828923 C31.1384615,24.5336615 34.4984615,23.9552 36.4430769,21.0013538 C38.2769231,18.2321231 37.8338462,14.6259692 35.4215385,12.3244308 C37.8338462,10.0105846 38.2769231,6.40443077 36.4430769,3.64750769 C34.4861538,0.693661538 31.1384615,0.127507692 28.8738462,0.0659692308 L28.8738462,0.0659692308 Z M113.452308,0.137353846 C110.646154,0.0758153846 106.4,0.0388923077 102.658462,0.0265846154 C93.5261538,-0.0103384615 99.0153846,0.00196923077 90.3138462,0.00196923077 L90.3138462,4.75273846 C99.5815385,4.75273846 106.067692,4.67889231 113.218462,4.87581538 C115.323077,4.93735385 117.575385,5.15889231 119.606154,6.56196923 C121.526154,7.8912 122.670769,10.0204308 122.670769,12.3096615 C122.670769,14.5988923 121.563077,16.7281231 119.643077,18.0696615 C117.612308,19.4727385 115.36,19.6942769 113.255385,19.7558154 C106.104615,19.9527385 99.6061538,19.8788923 90.3507692,19.8788923 L90.3138462,24.6296615 C99.6307692,24.6296615 106.326154,24.6665846 113.452308,24.4942769 C116.307692,24.4327385 119.815385,24.1004308 123.064615,21.7742769 C126.141538,19.5712 128,16.1127385 128,12.2973538 C128,8.48196923 126.141538,5.02350769 123.064615,2.82043077 L123.064615,2.85735385 C119.827692,0.5312 116.307692,0.198892308 113.452308,0.137353846 Z M48.7507692,7.3152 C48.7384615,5.02596923 48.7507692,2.31827692 48.7507692,0.00443076923 L43.2738462,0.00443076923 C43.2738462,2.34289231 43.2246154,7.09366154 43.3230769,9.3952 C43.5076923,13.8505846 44.96,15.2413538 49.5138462,15.4013538 C52.6769231,15.5121231 55.1753846,15.4752 59.5446154,15.4628923 L59.5446154,10.6875077 C56.0492308,10.6875077 54.6215385,10.6875077 52.0369231,10.6505846 C49.5507692,10.6013538 48.7630769,9.78904615 48.7507692,7.3152 L48.7507692,7.3152 Z M69.0092308,10.6875077 C71.5692308,10.6875077 74.6953846,10.6752 75.8769231,10.6505846 C78.3630769,10.6013538 79.1507692,9.81366154 79.1630769,7.40135385 L79.2,7.40135385 L79.2,0.00443076923 L84.6646154,0.00443076923 L84.6646154,7.19212308 C84.6523077,8.02904615 84.64,8.79212308 84.6153846,9.3952 C84.4307692,13.8875077 82.9661538,15.2536615 78.1292308,15.4013538 C76.5538462,15.4628923 72.3692308,15.4628923 69.0215385,15.4628923 L68.3692308,15.4628923 L68.3692308,24.6444308 L61.9323077,24.6444308 L61.9323077,10.6875077 L69.0092308,10.6875077 L69.0092308,10.6875077 Z" transform="translate(0 .323)"/></svg>