<svg xmlns="http://www.w3.org/2000/svg" width="129" height="41" viewBox="0 0 129 41"><g fill="#FFF" fill-rule="evenodd" transform="translate(.312)"><path d="M104.940077,8.61642923 L104.932248,8.61249447 C105.868762,7.58999799 106.906255,6.50406348 107.992129,5.45924323 C106.670771,4.81514653 105.450392,4.08502707 104.269762,3.37873702 C101.711564,1.84830673 99.3400658,0.429647811 96.5333347,0.239793464 C94.3563665,0.105049093 92.1769894,0.465279504 90.1590178,1.29343481 C90.1590178,1.29343481 89.0679239,-0.18766158 85.7083184,0.292288429 C82.3485122,0.77223924 71.9996826,5.09553859 63.1805927,19.1940774 C55.2088822,31.9390374 58.954737,39.2470577 64.6804202,39.1681616 C70.8861044,39.0820385 76.7878481,32.1827519 78.790161,26.4946095 C80.7924738,20.8064672 78.4302104,19.2653247 76.6154011,19.4115534 C74.6094747,19.5802865 71.0659793,21.3651634 69.1162638,25.3097639 C67.1663475,29.2543643 67.1663475,31.6840808 67.1663475,31.6840808 C67.9633379,30.8479436 68.8299897,30.0814677 69.7574696,29.3930848 C70.5920009,28.741239 71.5116515,28.2064324 72.4909258,27.8031191 C72.7199852,26.7838949 73.0608642,25.7931777 73.5069379,24.8484329 C74.2119833,23.3787185 75.3293758,21.848778 76.7091529,21.5038839 C79.5100621,20.8026529 78.1678259,25.9096146 76.1093022,29.2393078 C75.0031518,31.0165763 71.0772214,36.1572645 67.7063738,36.1572645 C64.3355261,36.1572645 63.6905059,32.9100808 64.3991649,29.8616429 C65.1078238,26.8132049 66.0939237,22.9587427 71.0210105,15.9394056 C75.9480973,8.92014881 81.2760884,4.75807239 84.3620672,3.01451041 C87.5305556,1.21844343 88.8203952,2.00585988 88.8203952,2.00585988 C88.8203952,2.00585988 84.7746151,4.48809943 82.4723769,7.48779451 C80.2751327,10.3525031 78.9589944,13.5734082 79.9788209,15.1519912 C80.9536787,16.6555928 84.3771237,16.6855853 88.1528906,11.2411574 C91.8800753,5.86420267 90.9427584,2.66580203 90.9427584,2.66580203 C91.1880789,2.58602269 91.4386189,2.52336761 91.6925718,2.47831858 C93.5111954,2.23458407 94.9660541,2.71827893 97.215695,3.87317217 C98.3130122,4.43658615 99.3898526,5.15821375 100.539968,5.92900582 C101.860322,6.8136852 103.277439,7.76332833 104.932248,8.61249447 L104.928835,8.61642923 L104.940077,8.61642923 Z M89.6677746,3.08200365 C89.6677746,3.08200365 87.2679704,4.03815119 84.4783033,7.11282761 C81.6886363,10.187504 80.0613305,13.6484096 81.2648462,14.5633023 C81.7261771,14.9120107 82.7909723,14.9720159 84.7258321,13.2321879 C86.5097254,11.6827744 87.9099792,9.74086821 88.8165809,7.55904184 C89.9939986,4.68833071 89.7079252,3.28095011 89.6713882,3.10121574 C89.6691799,3.09031483 89.6677746,3.08393088 89.6677746,3.08200365 Z"/><path fill-rule="nonzero" d="M109.801116,10.3580439 L109.79951,10.3599912 C116.353702,11.657359 122.094442,7.59652247 125.146694,4.13939105 C126.260473,2.90220905 127.218668,1.53343932 128,0.0635622308 C126.609985,1.51074216 125.054348,2.78938573 123.365611,3.87317217 L123.346741,3.86941809 C120.504677,5.69173556 116.571319,7.34529986 112.791737,6.98159521 C111.83555,7.97148937 110.811909,9.11512036 109.792083,10.3562371 L109.801116,10.3580439 Z"/><path d="M112.109176,33.6526671 C111.565537,34.5225309 110.946815,36.1909911 112.742954,35.1524946 C114.928956,33.8887529 118.044848,29.1529839 118.044848,29.1529839 L119.454738,29.1529839 C118.169917,31.1322101 116.738546,33.0122642 115.172671,34.7774875 C112.956757,37.2335027 110.253213,39.4644734 108.348466,39.2432434 C106.124923,38.9844724 106.82234,36.0635128 106.82234,36.0635128 C106.82234,36.0635128 103.627553,39.4381747 101.434123,39.2095168 C98.4605658,38.8794785 99.3679705,35.2048911 99.3679705,35.2048911 C99.3679705,35.2048911 95.9933085,39.3295672 93.7135547,39.2057025 C90.1214769,38.9995289 91.025268,34.6162826 92.0226101,31.5489739 C92.558822,29.902998 93.0536788,28.6093442 93.0536788,28.6093442 C93.0536788,28.6093442 92.6975425,28.7030959 91.9288584,28.8155177 C91.5275526,28.8717286 90.8040379,28.9130838 90.8040379,28.9130838 C89.9795444,30.3669388 89.0809729,31.7772303 88.1117362,33.1389395 C86.9156484,34.7287045 81.8349854,40.1918024 78.8351297,39.097095 C76.067947,38.0846964 76.9827795,33.8475985 78.5952296,30.4729365 C80.9462508,25.5647205 87.5604678,18.5116569 91.3739764,19.4377918 C95.329819,20.3977336 91.4639138,27.6120021 91.4639138,27.6120021 C91.4639138,27.6120021 91.4639138,27.6381 91.5050683,27.6569708 C91.7548053,27.7019395 92.0117694,27.6878868 92.2550824,27.6156156 C92.7495376,27.5156405 93.2337544,27.3712989 93.7023125,27.1843977 C93.7023125,27.1843977 97.6770259,18.8603653 102.0677,13.4159173 C106.458575,7.97148937 115.228882,-1.39503654 118.667383,0.8734791 C119.507134,1.43216935 119.124699,3.35197661 117.992451,5.68422739 C117.482136,5.84561292 116.963992,5.98078008 116.440026,6.08918683 C117.067982,5.04771916 117.542764,3.92129273 117.849916,2.74453745 C118.367257,-0.0676739774 111.798009,5.86046866 107.103595,12.2422938 C104.280202,16.0868789 101.772191,20.1534169 99.604257,24.4023592 C100.452439,23.8868249 101.262077,23.3102616 102.026546,22.6774874 C104.120803,20.9407711 106.111473,19.0826995 107.988515,17.1130492 C109.789272,15.2577078 111.47841,13.2969509 113.046694,11.2411574 C113.548979,11.2175288 114.049657,11.1662162 114.546522,11.0874206 C112.830282,13.4148332 110.960065,15.6245643 108.948317,17.701738 C108.782494,17.8674598 108.615669,18.0346069 108.447839,18.2026374 C106.717547,19.9353788 104.8929,21.7626549 103.286473,23.1161332 C101.717988,24.4577671 100.06338,25.6954109 98.3330875,26.8208335 C98.3330875,26.8208335 94.2086122,35.0998972 96.4584537,35.6322948 C97.7707777,35.9472766 100.365513,31.9540939 100.365513,31.9540939 C100.365513,31.9540939 103.740175,26.7907205 105.787457,24.4547558 C108.55464,21.3051382 110.950629,19.4902888 113.331563,19.4415459 C114.726396,19.4153074 115.547678,20.9038325 115.547678,20.9038325 L116.20374,19.8877601 L120.242092,19.8877601 C120.242092,19.8877601 112.701599,32.6814229 112.097934,33.6450385 L112.109176,33.6526671 Z M114.640273,22.3362069 C114.689458,22.2492807 114.729608,22.1575365 114.760123,22.0625802 C114.741051,21.9126175 114.670989,21.773897 114.561779,21.6695054 C114.452569,21.5651137 114.310837,21.5012741 114.160272,21.4888274 C113.537937,21.4589152 112.682929,21.5787649 110.451958,24.0498365 C108.598002,26.0959136 107.00362,28.3628192 105.704947,30.7991605 C104.42635,33.1351252 103.908808,34.8748528 104.643766,35.3249416 C104.88206,35.4474011 105.157895,35.4755065 105.416264,35.4036369 C105.914935,35.2835864 106.477245,34.8186419 107.336067,33.8251141 C107.657273,33.4527169 108.007386,32.9552503 108.407688,32.3867171 L108.411502,32.3812968 C108.509872,32.2417733 108.611252,32.0976325 108.715844,31.9502796 C110.193187,29.9405389 113.905316,23.6111907 114.640273,22.3325933 L114.640273,22.3362069 Z M91.445043,25.02088 C91.8200501,24.0460222 92.2926232,22.1338476 91.3063226,21.3838335 C90.2453417,20.5852371 87.5568543,22.4562573 87.5305556,24.3834884 C87.5042569,26.3109203 89.4316888,27.236995 89.892819,27.360659 C90.1552035,27.4319264 90.2453417,27.4206842 90.37282,27.2106963 C90.7805498,26.5090637 91.1388944,25.779928 91.445043,25.0285086 L91.445043,25.02088 Z M89.4015758,28.6019163 C88.7322645,28.2923548 88.1079219,27.8938596 87.5456121,27.4170707 C86.9792872,26.944096 86.505108,26.3707448 86.1469643,25.7259254 C86.1158475,25.6731273 86.0849315,25.7076568 86.0518072,25.7443947 C86.0447809,25.752224 86.0377545,25.7600534 86.0307281,25.7670798 L86.0299251,25.7678828 C85.9875662,25.8102417 85.8203387,25.9774692 84.380938,28.0843744 C82.9335071,30.2029234 80.728835,34.5674996 82.7309471,35.3136994 C84.0133588,35.7898861 86.1469643,33.5438588 87.3167534,32.0552735 C88.1087249,31.0169778 88.8266185,29.9244786 89.4654153,28.7856055 C89.5254406,28.6581272 89.4654153,28.6280142 89.4015758,28.6019163 Z"/><polygon fill-rule="nonzero" points="66.668 10.15 62.828 10.15 60.657 13.66 64.497 13.66"/><path d="M57.6536552,19.7527736 L59.0484887,19.7527736 C59.0484887,19.7527736 51.9992394,29.9405389 48.0134846,29.4755944 C45.7899417,29.2168235 46.4498176,26.4757387 46.4498176,26.4757387 C46.4498176,26.4757387 43.31887,30.131656 40.4505077,29.4005127 C37.8481434,28.7330082 39.5280466,24.4097871 39.5280466,24.4097871 C39.4836801,24.4276541 39.3200662,24.5848439 39.060693,24.8341795 C37.5857589,26.2514973 33.0119978,30.6463873 29.647775,29.3517296 C25.5232997,27.7545369 27.6567044,22.4412008 28.4442594,20.8438073 C29.1115631,19.4977969 29.8503351,18.1854329 29.8503351,18.1854329 C29.8503351,18.1854329 29.2165571,18.3654081 28.8190657,18.4554058 C28.421775,18.5453834 27.8255379,18.6616396 27.8255379,18.6616396 C27.8255379,18.6616396 25.8681938,21.8449637 24.6721059,23.4311151 C23.4760181,25.0172664 18.3877265,30.4767508 15.3916851,29.3892705 C12.3958445,28.3017902 13.1420443,24.1098618 14.8217467,20.765112 C17.5515892,15.3657331 24.0309001,8.72891127 27.9453875,9.7263136 C31.8600758,10.7236959 28.6241343,17.1242914 28.6241343,17.1242914 C28.6241343,17.1242914 29.4078749,17.2255312 31.286323,15.9431597 C32.0622343,15.4151987 32.9080077,14.6317391 33.8105942,13.7958629 C36.0614396,11.7110204 38.6642054,9.30019477 41.4103089,9.71505135 C43.2251182,9.98877839 44.9162636,11.8523306 42.6027832,15.3882175 C41.8527666,16.5130981 40.6191404,17.540493 39.666767,16.5356026 C39.0743442,15.9169212 39.5916853,14.7732902 40.2142211,13.9933639 C40.4575341,13.6755314 40.7753264,13.4224418 41.1394928,13.2563586 C41.5036592,13.0902754 41.9031582,13.0162979 42.3026571,13.0409704 C42.3026571,13.0409704 42.9402494,11.5748695 41.3165572,11.6048621 C40.0004189,11.6311005 36.6707257,14.6945347 34.7922776,17.7917156 C33.0898901,20.6452623 30.4839123,25.4896388 33.0898901,26.5470061 C35.4935087,27.5182503 40.067872,22.0886781 42.186421,19.2428203 C44.3049699,16.396862 49.1270628,9.94754367 53.1766572,9.6888129 C54.5714907,9.59881522 55.4002001,10.8699446 55.4002001,10.8699446 L55.8687581,10.1200108 L59.9109247,10.1200108 C59.9109247,10.1200108 52.2991648,22.8649909 51.7029276,23.8211786 C51.2343696,24.570992 50.6118338,26.2695651 52.3367056,25.3210061 C54.0615775,24.3722462 57.6536552,19.7527736 57.6536552,19.7527736 Z M48.4858569,22.2912381 C50.1205906,20.0414969 54.6277016,12.204793 54.6277016,12.204793 C54.6084293,12.0549508 54.5383664,11.9162303 54.4291566,11.8118186 C54.3199469,11.7074068 54.1784158,11.6436074 54.0278509,11.6311206 C53.4053151,11.601108 52.3704322,11.8110959 50.2781819,14.3983233 C48.1859316,16.9855508 46.6260789,19.0440946 45.4637176,21.1850878 C44.1813059,23.5210525 43.6226097,25.1710434 44.3575673,25.6171171 C44.5964636,25.7379705 44.8714956,25.7658752 45.129865,25.6958124 C45.609866,25.5759627 46.2360154,25.0959617 47.0948377,24.1060474 C47.499757,23.6449173 47.9570729,23.0223815 48.4932848,22.2912381 L48.4858569,22.2912381 Z M27.8891766,11.6798635 C26.827995,10.8774327 24.1397084,12.7522471 24.1134097,14.6795385 C24.087111,16.6068499 26.550554,17.2067809 26.8693502,17.2217771 C26.9404168,17.2405275 27.0156993,17.2352276 27.0835539,17.2067608 C27.1514085,17.1782739 27.2078201,17.1282061 27.2443572,17.0643063 C27.5326389,16.4993465 27.7918113,15.9198924 28.0204693,15.3282324 C28.3954763,14.3533345 28.8640344,12.4410194 27.8779345,11.6911057 L27.8891766,11.6798635 Z M26.2769274,18.4404095 C25.5453825,18.2116111 24.8459583,17.8903055 24.1959193,17.484262 C23.5617398,17.0747455 23.0450009,16.5075172 22.6960918,15.8381657 C22.663369,15.7826173 22.6278357,15.8238922 22.5943099,15.8627379 C22.5894918,15.8684594 22.5846737,15.8741206 22.5798557,15.8794205 C22.5423148,15.9206753 22.324899,16.2056445 20.8812825,18.3241734 C19.4376659,20.4427023 17.2966326,24.7771655 19.302559,25.5197518 C20.5849707,25.9959385 22.7410605,23.7422826 23.9072361,22.2536973 C24.785933,21.0919383 25.5983814,19.8812959 26.3405661,18.627893 C26.3893492,18.5003946 26.3405661,18.4704021 26.2692987,18.4478976 L26.2769274,18.4404095 Z"/><path fill-rule="nonzero" d="M55.4487824,40.150648 C52.4667937,38.0869047 48.8963973,37.0447946 45.2723998,37.1809053 C44.2915195,37.2074047 43.3305137,37.4649711 42.467877,37.9329269 C41.6052403,38.400682 40.8652639,39.065376 40.3079729,39.873207 C38.7631767,37.1772917 35.7109244,35.5236873 30.990212,35.5610274 C26.9932149,35.6063976 23.0118766,36.5939028 19.2654197,37.5229888 C15.8632545,38.3667547 12.6548162,39.1625405 9.80492315,39.1607338 C4.05294129,39.1607338 -0.135373588,35.5461717 0.00334690143,29.1304996 C0.250875648,17.8817133 9.75232581,7.75776747 16.8766568,3.19073161 C20.9599778,0.566009451 24.3757942,-0.206408721 26.6256357,0.0448142871 C28.2567558,0.224795189 30.2177135,2.11085985 28.9802705,4.88930478 C27.1618476,8.95764952 24.6496216,8.61642923 24.7433733,6.67412155 C24.7823195,6.16744044 24.9411153,5.67724118 25.2063103,5.24379485 C25.4717061,4.81032846 25.8360732,4.4459814 26.2692987,4.18062576 C26.7294252,3.93024632 27.2455617,3.80120214 27.769327,3.80567893 C28.1441333,3.50195936 28.4029042,1.27843653 25.4781302,2.00961999 C22.553557,2.74078337 18.9913915,5.61673415 15.631786,9.32884226 C12.2721805,13.0409704 7.04516835,20.0527391 5.75151446,27.4170707 C5.14784946,30.8328871 5.54895444,37.0610556 13.6256588,36.9934018 C16.7397431,36.9679061 20.5283583,36.0231614 24.6080657,35.0059447 C29.5134711,33.7829559 34.8392539,32.4549732 39.9179094,32.4939194 C43.1574644,32.4802682 46.3390018,33.3515372 49.1194342,35.0137741 C51.526867,36.5136015 54.4102858,38.6582484 55.4339266,40.1355915 L55.4487824,40.150648 Z"/></g></svg>