<svg xmlns="http://www.w3.org/2000/svg" width="128" height="53" viewBox="0 0 128 53"><path fill="#FFF" d="M110.622592,23.0384626 C108.458932,23.5379337 102.74465,23.8154176 102.74465,23.8154176 L102.041923,26.0722869 C102.041923,26.0722869 104.871325,25.8318009 106.942521,26.0352891 C106.942521,26.0352891 107.608262,25.9797923 107.682234,26.7752462 C107.719219,27.5891991 107.626755,28.4401498 107.626755,28.4401498 C107.626755,28.4401498 107.571277,28.9396209 106.887042,29.0691134 C106.091851,29.1986059 100.728933,29.439092 100.728933,29.439092 L99.8597701,32.3619227 C99.8597701,32.3619227 99.5453921,33.0278841 100.266612,32.8428949 C100.932354,32.6579056 106.554172,31.5849677 107.293884,31.7329591 C108.070583,31.9179484 108.958238,32.9908863 108.699339,33.9528306 C108.403454,35.1182631 102.781636,38.7070553 99.3789567,38.4665692 C99.3789567,38.4665692 97.585153,38.5775628 96.0872345,36.1542031 C94.6447944,33.841837 96.5865407,29.4945888 96.5865407,29.4945888 C96.5865407,29.4945888 95.717378,27.4597066 96.3646268,26.7197494 C96.3646268,26.7197494 96.7344832,26.4052677 97.8440525,26.312773 L99.2310142,23.463938 C99.2310142,23.463938 97.6591243,23.5564326 96.7344832,22.409499 C95.8838134,21.2995633 95.8098421,20.8185912 96.4755837,20.5226083 C97.178311,20.1526297 103.687784,18.9871972 108.163047,19.1351886 C108.163047,19.1351886 109.734937,18.9501994 111.121899,21.6695419 C111.121899,21.6695419 111.750654,22.7794776 110.641085,23.0384626 M93.7571389,33.9898284 C93.2023543,35.3402502 91.6674501,36.7646678 89.8181679,35.8952181 C87.9319001,35.0072695 84.9545558,28.9396209 84.9545558,28.9396209 C84.9545558,28.9396209 83.8449865,26.6827516 83.6230726,26.7567473 C83.6230726,26.7567473 83.3826659,26.312773 83.2532162,28.7916295 C83.068288,31.251987 83.2902018,36.0432095 82.2730966,36.8016656 C81.3484555,37.5416228 80.2388862,37.227141 79.6101303,36.3576913 C79.0923313,35.4882417 78.8704174,33.3978627 79.1663026,29.7535738 C79.4991734,26.1092848 80.3313503,22.2245098 81.3854412,21.0220794 C82.4950105,19.8011501 83.3826659,20.6890987 83.7155367,21.0220794 C83.7155367,21.0220794 85.139484,22.3170044 87.5435508,26.1462826 L87.9503929,26.8492419 C87.9503929,26.8492419 90.1325459,30.4935309 90.3544597,30.475032 C90.3544597,30.475032 90.5393879,30.6600213 90.6873305,30.5120298 C90.9092444,30.456533 90.8352731,29.2726016 90.8352731,29.2726016 C90.8352731,29.2726016 90.428431,25.3323298 88.3942206,18.6727154 C88.3942206,18.6727154 88.0983355,17.8217647 88.3017565,17.0078118 C88.4866847,16.2678547 89.2818761,16.6378333 89.2818761,16.6378333 C89.2818761,16.6378333 92.3516845,18.1177476 93.849603,23.1124583 C95.3290288,28.1071691 94.3304164,32.6394066 93.7756317,33.9898284 M78.703982,21.1700708 C78.4080969,21.6880408 78.2786471,22.409499 77.0026424,22.6129873 C77.0026424,22.6129873 64.6124518,23.4824369 64.0021887,24.3518866 C64.0021887,24.3518866 63.5953467,24.8698566 64.2610882,24.9993491 C64.9638155,25.1473405 67.7747244,25.5173191 69.1062075,25.5913148 C70.5486476,25.5913148 75.3937669,25.6283126 77.1690778,27.8111862 C77.1690778,27.8111862 78.186183,28.8471262 78.1491974,31.1964902 C78.1122117,33.6013509 77.6868768,34.4523017 76.7437429,35.3217513 C75.7636234,36.1357042 67.3678823,39.9094856 61.9494855,34.1378199 C61.9494855,34.1378199 59.4714474,31.3629806 62.8186481,29.2541027 C62.8186481,29.2541027 65.222715,27.7741884 71.3808246,29.4945888 C71.3808246,29.4945888 73.2301068,30.1605502 73.1561355,30.8450106 C73.0451786,31.5849677 71.6212313,32.3249249 69.5500353,32.287927 C67.5528105,32.2324302 66.0733848,31.2704859 66.3692699,31.4369763 C66.6466622,31.5294709 64.2056098,30.2530448 63.4474041,31.1224945 C62.7076912,31.9364473 62.8926194,32.4174195 63.6323323,32.9168906 C65.4816145,33.9898284 72.7492934,33.6013509 74.9129536,31.1779913 C74.9129536,31.1779913 75.7821162,30.197548 74.4691258,29.4020941 C73.1746283,28.662137 69.4020927,28.1996637 67.9411598,28.144167 C66.5541981,28.0701712 61.3577152,28.144167 60.5810167,26.7937452 C60.5810167,26.7937452 59.8413038,25.8318009 60.654988,23.204953 C61.5056578,20.4301137 67.5528105,19.3571758 70.1787912,19.1351886 C70.1787912,19.1351886 77.3909917,18.8392058 78.7409677,20.3191201 C78.7409677,20.3191201 78.9258959,20.6521008 78.703982,21.1515719 M58.2509212,37.4306292 C57.3817585,38.0780917 55.5324764,37.8006078 54.9961845,37.0606506 C54.4783855,36.4131881 54.2934573,33.8603359 54.3859214,29.8460684 C54.5153712,25.7393062 54.5708496,20.7075976 55.4954907,19.8936447 C56.4201318,19.0981908 56.9749165,19.8011501 57.3447729,20.337619 C57.7146293,20.8925869 58.1954427,21.5030515 58.269414,22.7794776 C58.3803709,24.0744026 58.6947489,30.734017 58.6947489,30.734017 C58.6947489,30.734017 59.101591,36.8016656 58.269414,37.4306292 M60.1002033,15.7868825 C57.5481939,16.6563322 55.8098687,16.3788483 54.330443,15.7313858 C53.6831942,16.8968183 53.2948449,17.2482979 52.8140316,17.3222936 C52.0743187,17.3962893 51.4270699,16.2123579 51.3346058,15.8423793 C51.1866633,15.5648954 50.8352996,15.0654243 51.2606345,13.9369897 C49.8181944,12.6420647 49.7072375,10.9031654 49.966137,9.73773284 C50.2990078,8.36881211 52.7400603,3.22610992 60.137189,2.61564527 C60.137189,2.61564527 63.761782,2.35666027 64.390538,4.28054886 L64.5014949,4.28054886 C64.5014949,4.28054886 68.0151311,4.28054886 67.9411598,7.42536675 C67.9411598,10.5701846 64.0576672,14.4919575 60.1002033,15.8423793 M63.3919256,6.83340103 C61.0618301,7.2033796 57.4742227,10.3111996 55.7543902,12.8825507 C58.3988637,13.3635229 63.0220692,13.1785336 65.0932652,8.99777569 C65.0932652,8.99777569 66.0733848,6.37092781 63.3919256,6.83340103 M53.1653952,8.86828319 C52.4256823,10.0707136 52.3886967,10.7921718 52.7400603,11.2731439 C53.6092229,9.97821891 55.1441271,7.94333675 57.4557298,6.35242888 C55.6804189,6.53741817 54.1825004,7.27737532 53.1653952,8.86828319 M116.170439,37.3011367 C114.469099,41.4818946 113.026659,45.7181493 112.194482,52.0632818 C112.194482,52.0632818 112.009554,53.3027101 110.992449,52.8957336 C109.975344,52.5257551 108.31099,50.8608515 107.941133,48.5114875 C107.571277,45.4406653 108.939746,40.2609653 111.732162,34.3043102 C110.918478,33.0093852 110.3452,31.0854966 110.807521,28.384653 C110.807521,28.384653 111.547233,23.3899423 116.540295,18.8762036 C116.540295,18.8762036 117.132066,18.3767326 117.464936,18.5432229 C117.871778,18.7282122 117.705343,20.3191201 117.372472,21.133073 C117.076587,21.910028 114.857449,25.7578051 114.857449,25.7578051 C114.857449,25.7578051 113.470487,28.384653 113.858836,30.4380341 C116.484817,26.4052677 122.457998,18.2287411 126.156563,20.8185912 C128.505151,22.4834948 128.505151,27.8481841 126.748333,30.9560041 C125.361371,33.4163616 121.440893,38.5035671 116.207425,37.3196356 M123.900438,24.7403641 C122.53197,26.2202784 120.090917,29.0321155 118.167664,32.8428949 C120.201874,32.6209077 122.180606,31.4924731 122.790869,30.9190063 C123.770989,30.0495566 126.027113,27.7001927 125.675749,24.5923726 C125.675749,24.5923726 125.453835,22.9644669 123.900438,24.7403641 M41.0525969,39.4840103 C34.506138,41.4818946 28.3295356,40.5569481 24.963842,39.6689996 C24.8713779,41.0379203 24.7234353,41.6113871 24.5015215,41.8333742 C24.242622,42.1293571 22.0974546,43.3502864 20.9139141,41.6113871 C20.396115,40.7789353 20.1372155,39.2805221 19.989273,37.9116013 C12.407216,34.4708006 8.89357991,29.4020941 8.78262298,29.2171048 C8.59769477,29.0321155 6.87786234,27.2377194 8.59769477,25.017848 C10.2065703,23.0199637 15.5325029,21.0035805 20.3036509,20.2081265 C20.4885792,16.1383622 20.9324069,12.9935443 21.5056843,11.6061246 C22.1899188,9.94122106 23.0590814,11.4211354 23.8357799,12.5310711 C24.4645358,13.3635229 24.8528851,16.9338161 24.8898707,19.7826512 C27.9966648,19.6346597 29.8829326,19.8566469 33.3410903,20.5226083 C37.8903244,21.2995633 40.9231472,23.6304283 40.6827405,26.2572762 C40.4608266,28.8471262 38.0937455,29.9200641 37.1691044,29.9940598 C36.2444633,30.0680555 34.7650375,29.3835952 34.7650375,29.3835952 C33.7294395,28.902623 34.6725734,28.4586487 35.8746068,27.9406787 C37.20609,27.2932162 36.9102049,26.6457537 36.9102049,26.6457537 C36.4293915,25.1658394 30.5301814,24.1853962 24.6679569,24.1853962 C24.6679569,27.4227087 24.7974066,32.7873981 24.8898707,35.913717 C28.9952772,36.690672 32.0650856,36.5241817 32.0650856,36.5241817 C32.0650856,36.5241817 47.0442712,36.0987063 47.4696061,26.5347602 C47.9319266,16.9523151 32.4904205,7.77684639 21.1173351,4.89101351 C9.76274254,1.91268598 3.32724057,4.02156385 2.77245591,4.29904779 C2.1621928,4.59503065 2.71697745,4.70602422 2.71697745,4.70602422 C2.71697745,4.70602422 3.32724057,4.79851886 4.43680987,5.16849744 C5.54637918,5.53847601 4.65872373,6.09344388 4.65872373,6.09344388 C2.71697745,6.75940531 0.553317303,6.37092781 0.127982403,5.48297923 C-0.297352497,4.61352957 0.405374729,3.81807564 1.23755171,2.65264313 C2.01425022,1.45021276 2.90190567,1.48721061 2.90190567,1.48721061 C16.9564502,-3.41500551 34.1177888,5.37198565 34.1177888,5.37198565 C50.1695581,13.4745164 52.9064957,23.0014648 52.6106105,26.7012505 C52.351711,30.3455395 50.9462566,36.5056828 41.0525969,39.5025092 M10.1695846,26.2572762 C8.57920194,26.9972334 9.68877125,28.1811648 9.68877125,28.1811648 C12.6846084,31.3814795 16.3461871,33.3978627 19.8598232,34.6557899 C20.2666653,29.1061112 20.2296796,27.1267259 20.2296796,24.3333876 C14.7927901,24.7033662 11.6490104,25.5913148 10.1695846,26.2572762"/></svg>