<svg xmlns="http://www.w3.org/2000/svg" width="41" height="24" viewBox="0 0 41 24">
  <path fill-rule="evenodd" d="M32.5484163,4.8813551 C31.8449942,7.4951548 31.1447332,10.1096983 30.4587897,12.7281466 C30.115725,14.0371849 29.7789824,15.3471528 29.3840396,16.6424312 C29.0004393,17.9008929 28.5292599,19.2441446 27.8425727,20.3871358 C27.1263206,21.5799597 26.1988372,22.5113478 24.9152732,23.1076668 C24.4020707,23.3458597 23.8762241,23.5093035 23.3245315,23.6262616 C22.5417117,23.7921227 21.7553591,23.8603637 20.9598953,23.9053619 C18.9900159,24.0163699 14.8111346,23.9998209 12.841813,23.9998209 L14.0491404,19.5252903 C14.9630499,19.5252903 15.8767735,19.5284514 16.790497,19.5031631 C17.6722384,19.4786187 18.6424886,19.4313892 19.510842,19.2261082 C20.4617542,19.0011172 21.1793079,18.6150997 21.807795,17.8413912 C22.3803133,17.1366675 22.7652151,16.2573434 23.0805744,15.4280379 C23.6566255,13.9135328 24.2464365,11.7450664 24.6622049,10.1855631 C25.1324546,8.4202209 25.5844818,6.6504161 26.040042,4.8813551 L32.5484163,4.8813551 Z M40.6839586,4.8813179 L37.1718686,17.8982525 L30.6636802,17.8982525 L34.1755843,4.8813179 L40.6839586,4.8813179 Z M19.2211801,0 L25.7295545,0 C25.0477018,2.5409101 24.3667788,5.0820061 23.6771165,7.6208709 C23.196454,9.3895599 22.7191385,11.1589929 22.1973826,12.9163395 C21.9697885,13.6824243 21.7425662,14.4462779 21.4443138,15.1900496 C21.2046333,15.7874842 20.9366896,16.3190951 20.4413376,16.765544 C20.0713112,17.0989397 19.6678151,17.306266 19.1979373,17.4540907 C18.5934368,17.6443103 17.9824284,17.7140389 17.3578461,17.7651732 C16.4595558,17.8388066 15.5610796,17.8575868 14.6613017,17.8720904 C12.5919429,17.9053742 8.8340364,17.9007256 6.7646775,17.8918003 C6.0210917,17.8884534 5.277506,17.8839907 4.5339202,17.8704169 C3.9948717,17.8607479 3.456381,17.84736 2.9180762,17.8137043 C2.5586485,17.7910193 2.20201,17.7608965 1.846859,17.6954446 C1.605877,17.6511902 1.3738202,17.5916884 1.1477136,17.4929527 C0.4030122,17.1675526 0.0235026,16.5171243 0.0013754,15.7250074 C-0.0114546,15.2716785 0.0673852,14.8399191 0.1581254,14.4014656 C0.2869838,13.7804163 0.4474525,13.1679203 0.6064337,12.5546805 C0.9098926,11.3830541 1.4653041,9.2212816 1.8981792,8.0833109 C2.2373392,7.1915286 2.6852756,6.3040231 3.5363364,5.7395003 C4.0121644,5.4239552 4.5121649,5.2562347 5.0634857,5.1452267 C5.4721882,5.06304 5.8829362,5.0195293 6.2974029,4.9886627 C6.9915279,4.9371566 7.6862107,4.9209796 8.3816372,4.9087073 C9.3699239,4.8914146 10.3582105,4.8876958 11.3464972,4.8847207 L13.8117982,4.8813737 L16.2769598,4.8813737 L15.3989373,8.1355609 C13.9337071,8.1355609 12.4688487,8.1314701 11.0036184,8.1400235 C10.5759497,8.1426267 10.1488388,8.1394657 9.721542,8.1673571 C9.5698125,8.1772121 9.421616,8.1870671 9.274907,8.2383873 C9.0818983,8.3053268 8.9865095,8.4265616 8.9017196,8.6006042 C8.7776956,8.855346 8.7061076,9.1240335 8.6270819,9.392907 C8.5064049,9.803469 8.3946532,10.2164482 8.2827156,10.6296134 C8.1103465,11.266096 7.9379774,11.9025786 7.7743476,12.5414785 C7.7139162,12.7779979 7.6546004,13.0145174 7.603652,13.2532681 C7.567765,13.4206167 7.535411,13.5874075 7.5194199,13.7581031 C7.5019412,13.9447898 7.4965489,14.169037 7.6096022,14.3423358 C7.7245149,14.5182378 7.9188252,14.5591452 8.1001196,14.5853632 C8.3050287,14.6153 8.5103097,14.621808 8.7163345,14.6279441 C9.0536349,14.638171 9.3909355,14.6396585 9.7282359,14.641332 C10.6510706,14.6457946 11.5739054,14.6459806 12.4967401,14.6402164 C12.9219916,14.6376132 13.3468712,14.6346381 13.7717508,14.6175313 C14.0644249,14.6058169 14.3533803,14.595776 14.6415918,14.5260474 C14.8606326,14.4730537 15.031886,14.3897512 15.1800825,14.2106882 C15.2803057,14.0894534 15.3457577,13.9550167 15.4056313,13.8122125 C15.5543856,13.4581772 15.6583277,13.0916837 15.7667324,12.7253761 C16.1826868,11.3202054 16.5573618,9.9042501 16.9402183,8.4899681 L18.0836278,4.2458208 L19.2211801,0 L25.7295545,0 L19.2211801,0 Z"/>
</svg>
