<svg xmlns="http://www.w3.org/2000/svg" width="129" height="77" viewBox="0 0 129 77"><path fill="#FFF" d="M102.403931,15.3577349 C100.190822,23.5812799 97.9876587,31.8071649 95.8295411,40.0453353 C94.7501898,44.1638358 93.6907292,48.2852609 92.4481589,52.36047 C91.2412744,56.3198462 89.7588483,60.5459889 87.5983908,64.1420715 C85.3449162,67.8949378 82.426865,70.825274 78.3885118,72.7014148 C76.7738725,73.450818 75.1194523,73.9650454 73.3837153,74.3330194 C70.9208051,74.8548521 68.4467801,75.0695522 65.9440893,75.2111256 C59.7464485,75.5603794 46.5988388,75.5083128 40.402953,75.5083128 L44.2014503,61.4305304 C47.0767952,61.4305304 49.9515553,61.4404759 52.8263151,61.3609138 C55.6004527,61.2836921 58.653057,61.1350985 61.3850732,60.4892428 C64.3768362,59.7813754 66.6344059,58.5668859 68.6117541,56.1326417 C70.4130129,53.9154378 71.6239922,51.1489055 72.6161766,48.5397419 C74.4285504,43.7748011 76.2842157,36.9523653 77.5923076,32.045851 C79.0718087,26.4917258 80.4939781,20.9235603 81.927263,15.3577349 L102.403931,15.3577349 Z M128,15.3576179 L116.950251,56.3115389 L96.4741682,56.3115389 L107.523332,15.3576179 L128,15.3576179 Z M60.473738,0 L80.9504063,0 C78.8051591,7.99421944 76.662837,15.9890238 74.4930193,23.9768083 C72.9807574,29.5414632 71.4790259,35.108459 69.8374758,40.6374284 C69.1214185,43.0476868 68.406531,45.4509255 67.4681683,47.7909824 C66.7140848,49.670633 65.8710795,51.3431889 64.3126014,52.7478079 C63.1484232,53.7967385 61.8789425,54.4490291 60.4006115,54.9141157 C58.4987301,55.5125852 56.5763735,55.7319655 54.6113107,55.8928444 C51.7851069,56.1245101 48.9583182,56.1835964 46.1274341,56.2292277 C39.6168109,56.3339453 27.7936735,56.3193198 21.2830499,56.291239 C18.9435779,56.280709 16.6041062,56.2666684 14.2646342,56.2239625 C12.5686781,56.1935418 10.874477,56.1514208 9.18086069,56.0455331 C8.05002811,55.9741615 6.92797093,55.8793891 5.81059373,55.6734641 C5.05241539,55.5342307 4.32231755,55.347026 3.61094025,55.0363834 C1.26795833,54.0126086 0.0739440217,51.966229 0.00432735466,49.4740683 C-0.0360384321,48.0478035 0.212007597,46.6894007 0.497494703,45.3099369 C0.902909411,43.3559896 1.40777655,41.4289527 1.9079637,39.4995757 C2.86270706,35.813401 4.61014449,29.0120255 5.9720575,25.4317385 C7.03912377,22.6260102 8.4484227,19.8337375 11.1260329,18.0576341 C12.6230845,17.0648651 14.1961876,16.5371823 15.9307549,16.1879286 C17.216616,15.9293525 18.5089126,15.792459 19.8129091,15.6953465 C21.9967674,15.5332978 24.1823806,15.4824017 26.3703337,15.4437905 C29.4796844,15.3893842 32.5890349,15.3776841 35.6983856,15.3683238 L43.4547235,15.3577935 L51.2106228,15.3577935 L48.4481856,25.5961276 C43.8382737,25.5961276 39.2295315,25.5832571 34.6196193,25.6101678 C33.2740866,25.618358 31.930309,25.6084129 30.5859464,25.6961649 C30.1085746,25.7271707 29.6423183,25.7581765 29.180742,25.9196403 C28.5734974,26.1302456 28.2733848,26.5116749 28.0066186,27.0592483 C27.6164139,27.8607177 27.3911835,28.7060632 27.1425526,29.5519939 C26.7628782,30.8437053 26.4112847,32.1430218 26.0591062,33.4429235 C25.516798,35.4454271 24.9744898,37.4479306 24.4596772,39.4580395 C24.2695477,40.2021776 24.0829282,40.946316 23.9226342,41.6974742 C23.8097264,42.2239869 23.7079341,42.7487447 23.6576229,43.2857877 C23.6026313,43.873142 23.5856661,44.5786693 23.9413547,45.1239025 C24.3028934,45.6773259 24.9142331,45.8060289 25.4846221,45.8885161 C26.1293078,45.9827033 26.7751635,46.0031788 27.4233594,46.0224842 C28.484575,46.0546602 29.5457912,46.0593401 30.6070068,46.0646053 C33.5104323,46.0786455 36.413858,46.0792307 39.3172835,46.0610954 C40.6552111,46.0529052 41.9919687,46.0435449 43.3287262,45.9897235 C44.2495384,45.9528676 45.1586508,45.9212769 46.0654228,45.7018965 C46.7545696,45.5351676 47.2933676,45.273081 47.7596239,44.7097124 C48.0749465,44.3282831 48.2808717,43.9053179 48.4692463,43.4560269 C48.9372575,42.3421599 49.2642805,41.1890969 49.6053437,40.0366188 C50.9140207,35.6156662 52.0928244,31.1607832 53.2973688,26.7111646 L56.8947674,13.3582149 L60.473738,0 L80.9504063,0 L60.473738,0 Z" transform="translate(.058 .6)"/></svg>