<svg xmlns="http://www.w3.org/2000/svg" width="128" height="148" viewBox="0 0 128 148"><path fill="#FFF" d="M11.3578517,0.0017617291 L116.29292,0 C124.872926,0 128,3.11929505 128,11.5748405 L128,114.581586 C128,115.821331 127.794895,117.997721 127.410324,119.110985 L127.331024,119.31887 C126.985369,120.295068 126.42745,121.182425 125.697478,121.916986 C124.872926,122.687086 123.441629,123.488301 122.757095,123.799453 L67.3098754,147.135825 C65.1926546,148.023939 62.8073454,148.023939 60.6901246,147.135825 L5.25068368,123.799453 C4.18937696,123.307694 3.19800654,122.677298 2.30252203,121.924765 C1.65279563,121.269823 1.13973219,120.493757 0.791697767,119.641816 L0.668975995,119.31887 C0.24114251,118.299848 0,115.911759 0,114.589365 L0,11.5748405 C0,3.23512444 3.04955452,0.0864614988 11.3578517,0.0017617291 L11.3578517,0.0017617291 Z M84.7188089,124.312853 L43.3512002,124.312853 C43.231895,124.314546 43.1177685,124.361867 43.0322698,124.445093 L42.9311455,124.585111 L42.8922516,124.764023 C42.8960205,124.884418 42.9461905,124.998695 43.0322698,125.082954 C43.0564705,125.110611 43.0852808,125.13366 43.1187008,125.152098 L63.2415679,133.694075 C63.6911636,133.886503 64.1999333,133.886503 64.649529,133.694075 L84.8743847,125.176299 L85.0299605,125.082954 L85.1310848,124.942935 L85.1621999,124.764023 C85.1605073,124.644718 85.1131866,124.530591 85.0299605,124.445093 C84.9518271,124.355882 84.8372625,124.307192 84.7188089,124.312853 Z M27.4280158,88.4370708 C26.0796921,88.4370708 24.8350856,88.6652487 23.6941963,89.1216044 C22.5914965,89.5620916 21.5829657,90.2089242 20.7226983,91.0274081 C19.8929606,91.8364023 19.244728,92.7802289 18.7780006,93.8588879 C18.3631318,94.8223055 18.1306004,95.8533314 18.0804063,96.9519655 L18.0701307,97.421574 C18.0701307,98.7180391 18.3086802,99.9056011 18.7857794,100.98426 C19.2680644,102.073291 19.9318546,103.011932 20.7771498,103.800182 C21.6172592,104.583247 22.6129444,105.195179 23.7642054,105.635977 C24.9206523,106.076775 26.1756305,106.297174 27.5291401,106.297174 C29.1160134,106.297174 30.5395321,106.043067 31.7996961,105.534853 C33.0520814,105.026638 34.1437051,104.396556 35.0667882,103.644607 L35.0667882,95.9124886 L27.085749,95.9124886 L27.085749,99.4129444 L30.5084169,99.4129444 L30.5084169,101.489881 C29.6721322,101.992929 28.7064377,102.239087 27.7313886,102.197751 C26.4662295,102.230037 25.242198,101.747162 24.3398359,100.859799 C23.9183318,100.42511 23.5854366,99.912557 23.3597083,99.3507141 C23.1620505,98.8264188 23.0466983,98.2752886 23.0172258,97.7168623 L23.0096627,97.3904588 C23.0040882,96.1550976 23.4652857,94.9632077 24.300942,94.0533576 C25.1065636,93.1659781 26.2528799,92.6649955 27.4513522,92.6765117 C28.312205,92.6765117 29.0693406,92.8165299 29.722759,93.0965664 C30.4209419,93.3993619 31.0709126,93.8029728 31.6518991,94.2945002 L34.4756001,90.9418414 C33.5625677,90.1626107 32.5269904,89.5396873 31.4107566,89.098268 C30.1359901,88.6315643 28.7852027,88.4073125 27.4280158,88.4370708 Z M102.368885,88.475764 C101.326527,88.475764 100.393072,88.6107971 99.5685202,88.8804619 C98.7928526,89.1194857 98.0714354,89.5079411 97.4449104,90.0239441 C96.3262944,90.9344469 95.6689512,92.2883084 95.6389746,93.7218405 L95.6402309,94.0300213 C95.6258302,94.8000466 95.8022059,95.5616689 96.1536311,96.2469766 C96.4958979,96.8433506 96.9600324,97.3411932 97.5460346,97.7405044 C98.1320369,98.1450015 98.8243492,98.4743037 99.6229717,98.7284108 C100.411223,98.9773321 101.269482,99.2106958 102.197751,99.428502 C102.794125,99.5581485 103.279003,99.6826091 103.652385,99.8018839 C103.963339,99.8999286 104.263163,100.030287 104.546946,100.190823 C104.724479,100.291666 104.880426,100.426468 105.005895,100.587542 C105.088869,100.72756 105.130356,100.888322 105.130356,101.069827 L105.130356,101.1165 C105.144971,101.482482 104.944195,101.823192 104.616955,101.987724 C104.15733,102.211253 103.64972,102.318118 103.138985,102.298876 C101.121685,102.298876 99.2444039,101.609156 97.5071407,100.229717 L94.8234579,103.395685 C95.9073027,104.344698 97.1441305,105.057753 98.5339411,105.534853 C99.9341234,106.006766 101.412094,106.242723 102.967852,106.242723 C103.940575,106.254767 104.909948,106.126391 105.846004,105.861562 C106.651539,105.645637 107.405455,105.270001 108.06296,104.756974 C108.654447,104.279338 109.13936,103.683134 109.486478,103.006746 C109.792986,102.360982 109.963579,101.663634 109.994961,100.954361 L109.999878,100.595321 C110.06768,99.1895159 109.413646,97.8462526 108.265208,97.0326345 C107.635708,96.587943 106.943614,96.2392747 106.211607,95.9980553 C105.330336,95.6929882 104.43157,95.4410221 103.520146,95.2435126 C103.02155,95.140717 102.528299,95.0135104 102.042176,94.8623519 C101.728772,94.7600581 101.422188,94.6379442 101.124278,94.4967487 C100.934351,94.4043615 100.771058,94.265161 100.649772,94.0922516 C100.580193,93.9761846 100.536961,93.846859 100.522421,93.713379 L100.517533,93.5321787 C100.517533,93.221027 100.660144,92.9591411 100.945366,92.7465208 C101.340231,92.5142424 101.794729,92.4033232 102.252203,92.4275904 C103.030082,92.4275904 103.83389,92.5702016 104.663628,92.8554239 C105.503737,93.1406462 106.32051,93.5632938 107.113947,94.1233668 L109.525372,90.7629292 C108.580862,90.0077743 107.508562,89.4281525 106.359404,89.0515953 C105.192586,88.6626557 103.862413,88.4707789 102.368885,88.475764 Z M62.8370708,88.7560012 L57.7419629,88.7560012 L57.7419629,105.931571 L62.4636888,105.931571 L62.4636888,96.1147372 L66.8820419,102.78894 L66.9831662,102.78894 L71.4248557,96.0680644 L71.4248557,105.931571 L76.2165907,105.931571 L76.2165907,88.7560012 L71.1292616,88.7560012 L66.9753874,95.4068672 L62.8370708,88.7560012 Z M48.6563355,88.6315406 L44.0123974,88.6315406 L36.6069888,105.931571 L41.6787603,105.931571 L42.9233668,102.866727 L49.6209055,102.866727 L50.8966272,105.931571 L56.0539654,105.931571 L48.6563355,88.6315406 Z M93.4154968,88.76378 L79.4447888,88.76378 L79.43701,105.931571 L93.5399575,105.931571 L93.5399575,101.8866 L84.2054087,101.8866 L84.2054087,99.1640231 L92.5442723,99.1640231 L92.5442723,95.4068672 L84.2054087,95.4068672 L84.2054087,92.8087511 L93.4154968,92.8087511 L93.4154968,88.76378 Z M46.2915831,94.2789426 L48.228502,99.1640231 L44.3313279,99.1640231 L46.2915831,94.2789426 Z M98.946217,18.0467943 L94.6912185,18.0467943 C87.5814038,18.0467943 84.0576117,21.5316925 84.0576117,28.571498 L84.0576117,65.170708 C84.0576117,72.2182923 87.5814038,75.6954117 94.6989973,75.6954117 L99.0317837,75.6954117 C106.149377,75.6954117 109.66539,72.2105135 109.66539,65.170708 L109.66539,51.9623215 L101.077606,51.9623215 L101.077606,64.7584321 C101.077606,67.0220602 100.011911,68.0721969 97.8105135,68.0721969 L96.1769675,68.0721969 C93.8822242,68.0721969 92.8165299,67.0220602 92.8165299,64.7584321 L92.8165299,28.9759951 C92.8165299,26.7045883 93.8744455,25.6544515 96.1691887,25.6544515 L97.6471589,25.6544515 C99.8485567,25.6544515 100.914251,26.7045883 100.914251,28.9682163 L100.914251,40.0607718 L109.502036,40.0607718 L109.502036,28.4937101 C109.502036,21.4461258 106.06381,18.0467943 98.946217,18.0467943 Z M56.0928593,18.5368581 L42.355515,18.5368581 L42.355515,75.2131267 L51.1066545,75.2131267 L51.1066545,54.6460043 L56.0928593,54.6460043 C63.2104527,54.6460043 66.7342449,51.1688848 66.7342449,44.1213005 L66.7342449,29.0615618 C66.7342449,22.0139775 63.2104527,18.5368581 56.0928593,18.5368581 Z M37.9682771,18.5368581 L18.4901854,18.5368581 L18.4901854,75.2131267 L38.1238529,75.2131267 L38.1238529,67.3565482 L27.2491036,67.3565482 L27.2491036,50.2743239 L37.5482224,50.2743239 L37.5482224,42.4177454 L27.2491036,42.4177454 L27.2491036,26.3934366 L37.9604983,26.3934366 L37.9682771,18.5368581 Z M79.43701,18.5368581 L70.6780918,18.5368581 L70.6780918,75.2053479 L79.43701,75.2053479 L79.43701,18.5368581 Z M54.7082346,26.1445153 C56.9096323,26.1445153 57.9753266,27.1946521 57.9753266,29.4660589 L57.9753266,43.7168034 C57.9753266,45.9804315 56.9174111,47.0305682 54.7082346,47.0305682 L51.1066545,47.0305682 L51.1066545,26.1445153 L54.7082346,26.1445153 Z"/></svg>