<svg xmlns="http://www.w3.org/2000/svg" width="129" height="30" viewBox="0 0 129 30"><g fill="none" fill-rule="evenodd" transform="translate(.783 .701)"><path fill="#FFF" fill-rule="nonzero" d="M78.6554344 14.4011107 78.6554344 12.6061952C78.6554344 8.52692921 80.7174018 7.72913563 86.7395186 7.69983677 92.2813261 7.72913563 94.2390664 8.42366273 94.2390664 11.940967L94.2390664 25.514505 96.2856639 25.514505 96.2856639 28.5735943 82.7491097 28.5735943C79.8970337 28.5735943 78.0353553 26.6153736 78.0353553 24.206623L78.0353553 21.4573332C78.0353553 19.0855663 79.2466951 17.0168746 83.4883056 16.9943001L88.7789114 16.9943001 88.7789114 12.863641C88.7789114 10.706092 88.6309762 10.4476857 86.4667029 10.4476857L86.4441284 10.4476857C83.850939 10.4476857 83.6809096 10.7877446 83.6809096 12.863641L83.6809096 14.4006304 78.6554344 14.4006304M84.9369181 19.2709657C83.8730333 19.2709657 83.2447888 20.1278373 83.2447888 21.1917222L83.2447888 23.8146907C83.2447888 24.8718513 83.6957992 25.7138333 84.9369181 25.7287229L86.8432654 25.7287229C87.892741 25.7287229 88.7500929 25.4035535 88.7500929 23.8146907L88.7645021 19.2709657 86.9614214 19.2709657C86.917233 19.2709657 84.9369181 19.2709657 84.9369181 19.2709657ZM65.7807464 12.8127282 65.7807464 8.06871423 58.2293251 8.06871423 58.2293251 10.8914914 60.2427813 10.8914914 60.2427813 25.50682 58.2293251 25.50682 58.2293251 28.5735943 67.6875739 28.5735943 67.6875739 25.50682 65.7807464 25.50682 65.7807464 17.6748982C65.7807464 16.9438676 70.2327323 11.3208878 70.2327323 11.9702659L70.2327323 19.7507946 75.4647404 19.7507946 75.4647404 10.9952382C75.4647404 8.99282913 74.1563782 7.70031708 71.7697218 7.70031708 68.932055 7.69983677 67.0146607 11.2685341 65.7807464 12.8127282"/><polyline fill="#FFF" fill-rule="nonzero" points="125.975 25.492 125.975 8.069 118.268 8.069 118.268 10.891 120.426 10.891 120.426 25.492 118.268 25.492 118.268 28.574 128 28.574 128 25.492 125.975 25.492"/><path fill="#FFF" fill-rule="nonzero" d="M46.3512786 12.8127282 46.3512786 8.06871423 38.7998574 8.06871423 38.7998574 10.8914914 40.8133136 10.8914914 40.8133136 25.50682 38.7998574 25.50682 38.7998574 28.5735943 48.2504212 28.5735943 48.2504212 25.50682 46.3512786 25.50682 46.3512786 17.6748982C46.3512786 16.9438676 50.7994221 11.3208878 50.7994221 11.9702659L50.7994221 19.7507946 56.0271075 19.7507946 56.0271075 10.9952382C56.0271075 8.99282913 54.7264301 7.70031708 52.3364116 7.70031708 49.5059495 7.69983677 47.585193 11.2685341 46.3512786 12.8127282M35.9103173 21.8569504 30.6125068 21.8569504 30.6125068 23.3939398C30.6125068 25.4780015 30.2652433 25.5663784 27.6826207 25.5956772L27.6456369 25.5956772C24.6859716 25.6105668 24.8526389 25.3151766 24.8857802 23.3939398L24.8857802 19.7507946 35.909837 19.7507946 35.909837 11.8372202C35.909837 8.96977429 33.7450834 7.76563913 28.0332464 7.74402522L27.2133586 7.74402522C21.0471491 7.77332408 19.4068932 9.17726787 19.4068932 12.7243513L19.4068932 24.3098895C19.4068932 28.2109608 21.711897 28.8689844 27.3276722 29.0241243L27.9405467 29.0241243C34.0702527 28.8833937 35.909837 28.4621625 35.909837 24.8194976L35.909837 21.8569504M24.9453386 12.1326104C24.9453386 11.0543162 25.2705079 10.5216533 26.5044222 10.5067637L28.8281581 10.5067637C29.7887765 10.5067637 30.3243213 10.9356798 30.3243213 11.7036943L30.3243213 17.6374341 24.9448583 17.6374341 24.9448583 12.1326104 24.9453386 12.1326104Z"/><line x1="123.183" x2="123.183" y1="3.857" y2=".148"/><path fill="#FFF" fill-rule="nonzero" d="M105.892328,12.8127282 L105.892328,8.06871423 L98.333222,8.06871423 L98.333222,10.8914914 L100.343316,10.8914914 L100.343316,25.50682 L98.333222,25.50682 L98.333222,28.5735943 L107.79099,28.5735943 L107.79099,25.50682 L105.892328,25.50682 L105.892328,17.6748982 C105.892328,16.9438676 110.333267,11.3208878 110.333267,11.9702659 L110.333267,19.7507946 L115.571999,19.7507946 L115.571999,10.9952382 C115.571999,8.99282913 114.255952,7.70031708 111.861611,7.70031708 C109.039794,7.69983677 107.118077,11.2685341 105.892328,12.8127282"/><polyline fill="#FFF" fill-rule="nonzero" points="12.801 18.606 12.801 15.872 9.857 15.872 9.857 25.515 14.959 25.515 14.959 28.574 0 28.574 0 25.515 3.979 25.515 3.979 3.857 .854 3.857 .854 .133 117.366 .133 117.366 3.857 9.857 3.857 9.857 12.554 12.801 12.554 12.801 9.983 16.189 9.983 16.189 18.606 12.801 18.606"/><rect width="5.556" height="3.665" x="120.344" fill="#FFF" fill-rule="nonzero"/></g></svg>