<svg xmlns="http://www.w3.org/2000/svg" width="128" height="128" viewBox="0 0 128 128"><g fill="#FFF"><path d="M16.516129,0 C7.39452903,0 0,7.39452903 0,16.516129 L0,111.483871 C0,120.605471 7.39452903,128 16.516129,128 L111.483871,128 C120.605471,128 128,120.605471 128,111.483871 L128,16.516129 C128,7.39452903 120.605471,0 111.483871,0 L16.516129,0 Z M16.516129,8.25806452 L111.483871,8.25806452 C116.044671,8.25806452 119.741935,11.955329 119.741935,16.516129 L119.741935,111.483871 C119.741935,116.044671 116.044671,119.741935 111.483871,119.741935 L16.516129,119.741935 C11.955329,119.741935 8.25806452,116.044671 8.25806452,111.483871 L8.25806452,16.516129 C8.25806452,11.955329 11.955329,8.25806452 16.516129,8.25806452 Z"/><polygon points="57.806 86.71 57.806 94.968 103.226 94.968 103.226 86.71"/><path d="M57.8064516 33.0322581 57.8064516 77.4193548 67.0967742 77.4193548 67.0967742 41.2903226 76.3870968 41.2903226 76.3870968 77.4193548 85.6774194 77.4193548 85.6774194 41.2903226 91.8709677 41.2903226C93.5812697 41.2903226 94.9677419 42.6767948 94.9677419 44.3870968L94.9677419 77.4193548 104.258065 77.4193548 104.258065 43.3548387C104.258065 37.6538323 99.6364903 33.0322581 93.9354839 33.0322581L57.8064516 33.0322581ZM34.0645161 33.0322581C28.3635097 33.0322581 23.7419355 37.6538323 23.7419355 43.3548387L23.7419355 67.0967742C23.7419355 72.7977806 28.3635097 77.4193548 34.0645161 77.4193548L42.3225806 77.4193548 42.3225806 79.483871C42.3225806 83.4745806 38.6253161 86.7096774 34.0645161 86.7096774L28.9032258 86.7096774 28.9032258 94.9677419 34.0645161 94.9677419C43.7562323 94.9677419 51.6129032 88.0353806 51.6129032 79.483871L51.6129032 33.0322581 34.0645161 33.0322581ZM36.1290323 41.2903226 42.3225806 41.2903226 42.3225806 69.1612903 36.1290323 69.1612903C34.4187303 69.1612903 33.0322581 67.7748181 33.0322581 66.0645161L33.0322581 44.3870968C33.0322581 42.6767948 34.4187303 41.2903226 36.1290323 41.2903226Z"/></g></svg>