<svg xmlns="http://www.w3.org/2000/svg" width="128" height="128" viewBox="0 0 128 128"><g fill="none" fill-rule="evenodd"><polygon fill="#000" points=".003 .003 127.991 .003 127.991 127.985 .003 127.985"/><path fill="#FFF" d="M0.00603225464,0.00536473057 C26.7785861,0.00536473057 53.5373721,0.00536473057 80.3093582,0.00536473057 C86.7737548,0.00536473057 93.2387514,-0.00820714236 99.6897481,0.0183711038 C97.902149,1.83247904 96.07375,3.6335781 94.2737509,5.44825716 C94.9851505,6.20035676 95.7379501,6.8993164 96.4505498,7.63841602 C98.0905489,6.5096766 99.9447479,5.60941707 101.960947,5.46125715 C103.775146,5.27295725 105.603545,5.743437 107.269544,6.46953662 C107.901144,6.73813648 108.492743,7.16791626 109.204743,7.23521623 C109.903743,7.19505625 110.427942,6.57697657 110.669942,5.95833689 C110.871342,5.52911711 110.682942,5.01791738 110.347543,4.70857754 C108.788543,3.13651836 107.215744,1.59101116 105.670145,0.0183711038 C113.115941,-0.0217789953 120.561537,0.0183711038 127.994133,0.00536473057 C127.994133,7.26235621 128.007333,14.5329324 127.994133,21.8035886 C126.462134,20.2987894 124.969735,18.7662102 123.450736,17.261431 C123.047536,16.8441112 122.389936,16.6292113 121.838537,16.8848112 C121.475537,17.0595511 121.125937,17.341731 120.964737,17.7313708 C120.762937,18.5111904 121.112937,19.27687 121.421737,19.9752496 C122.362736,21.9645886 122.779536,24.2091874 122.497336,26.3997862 C122.308936,27.8915855 121.771137,29.3561847 120.964737,30.633184 C120.749937,30.9419839 120.548537,31.2641837 120.360137,31.5875835 C121.139537,32.2589832 121.798337,33.0653828 122.591136,33.7241824 C124.365335,31.8963834 126.192934,30.1089843 127.994133,28.2941853 C127.994133,40.4297789 128.007333,52.5657726 127.994133,64.7013663 C127.644134,64.8223662 127.254534,65.0643661 126.891534,64.8891662 C126.407934,64.5803664 126.044934,64.1233666 125.641735,63.7337668 C121.287137,59.4059691 116.972739,55.0381713 112.605141,50.7245736 C110.871342,52.4583727 109.165143,54.2051718 107.403544,55.8987709 C108.331544,56.9467703 109.366543,57.8741699 110.334143,58.8817693 C113.828341,62.3765675 117.322139,65.8707657 120.830737,69.3643639 C121.125937,69.6737637 121.475537,69.9429636 121.636537,70.3461634 C121.690337,70.7895631 121.381537,71.1655629 121.260537,71.5687627 C121.085737,72.0391625 121.462537,72.6035622 121.959536,72.6165622 C122.402936,72.6979621 122.779536,72.4017623 123.061736,72.1065624 C124.701135,70.4529633 126.354134,68.8135642 127.994133,67.173765 C127.994133,87.4405545 127.994133,107.720144 127.994133,127.986533 C107.726944,127.986533 87.4455545,127.986533 67.164765,127.986533 C68.7239642,126.427934 70.2831634,124.881935 71.8421626,123.322736 C66.5337653,118.028139 61.2381681,112.732741 55.9425709,107.424544 C54.2091718,109.090943 52.5425726,110.824742 50.8223735,112.504341 C50.4591737,112.880941 50.0559739,113.243341 49.881774,113.754141 C49.8009741,114.25114 50.2579738,114.72154 50.7413736,114.74874 C51.1717733,114.69514 51.5343732,114.41234 51.9645729,114.31834 C52.3407727,114.29234 52.6369726,114.58754 52.9051724,114.82954 C56.0505708,118.000939 59.2089692,121.146137 62.3675675,124.304535 C63.1597671,125.136935 64.0205667,125.889534 64.7589663,126.750334 C65.0955661,127.126334 64.8671662,127.609734 64.6787663,127.986533 C52.5425726,127.986533 40.4195789,127.986533 28.2975853,127.986533 C31.1595838,125.123935 34.0227823,122.261336 36.8849808,119.398738 C37.4221805,118.888138 37.9735802,118.297338 38.0539802,117.517539 C38.1749801,116.617139 37.2615806,115.71634 36.3607811,115.90474 C35.6079815,116.05214 34.9903818,116.643739 34.2105822,116.643739 C33.7135824,116.603539 33.3367826,116.240539 33.0009828,115.91814 C26.1597864,109.090943 19.3328099,102.250747 12.5052335,95.4229503 C12.0482937,94.9665505 11.497474,94.5233508 11.3357341,93.8639511 C11.3091541,93.0851515 11.8599738,92.4529518 12.0618737,91.7409522 C12.3169136,90.8407527 11.470334,89.8591532 10.5558745,89.9269532 C9.92475483,89.9671531 9.36035512,90.3295529 8.93055535,90.7735527 C5.97343689,93.7705512 2.96315845,96.7269496 0.00603225464,99.7241481 C-0.0075403183,66.4883654 0.00603225464,33.2405827 0.00603225464,0.00536473057 Z"/><path fill="#000" d="M92.3245519 7.38353615C92.4455519 7.24949622 92.6603517 7.12791628 92.7815517 7.32979618 102.148747 16.6830913 111.516742 26.0505864 120.870937 35.4173815 117.591539 38.6965798 114.29914 41.9889781 111.019542 45.2817764 110.589342 45.6849762 110.064943 46.020976 109.473943 46.061176 108.653943 46.128976 107.833944 45.3893764 107.901344 44.5557768 107.928544 43.7363772 108.626943 43.1047775 108.640543 42.271178 108.667543 41.7469783 108.264344 41.3579785 107.928544 40.9941786 100.979947 34.0601823 94.044751 27.1125859 87.0963546 20.1637895 86.7065548 19.7876497 86.2767551 19.3171699 85.6853554 19.3578699 84.8115558 19.3708899 84.1533562 20.1771895 83.2665566 20.0833895 82.7553569 20.0963895 82.3385571 19.6932097 82.0835572 19.27701 81.7339574 18.5514903 82.0563573 17.6777908 82.581157 17.1405711 85.8333553 13.8878528 89.0857536 10.6356945 92.3245519 7.38353615ZM105.819345 10.1110547C106.087945 9.61399499 106.598544 9.15707522 107.202944 9.23737518 107.874544 9.29165515 108.358544 9.84187487 108.801743 10.2857946 111.489542 12.9871532 114.176941 15.6749518 116.864139 18.3627504 117.374739 18.8603902 117.979139 19.3438899 118.100138 20.0829895 118.167338 20.8485891 117.468539 21.5339888 116.729539 21.6149887 116.11154 21.6285887 115.54734 21.2925889 115.01034 20.9967891 113.867541 20.3249894 112.577941 19.7872497 111.220542 19.8545297 110.521742 19.8409697 109.850543 20.1231895 109.218543 20.4053894 108.479543 19.6125098 107.633144 18.9005501 106.934344 18.0805706 107.149144 17.4760709 107.431344 16.8981312 107.471944 16.2523315 107.566344 14.7882723 106.974944 13.390353 106.235545 12.1671937 105.859545 11.562674 105.563745 10.8094344 105.819345 10.1110547ZM46.5869757 17.233951C48.038775 15.7020118 49.5703742 14.2639726 51.0211734 12.7450534 52.4051727 14.0886727 53.748572 15.4464119 55.1059713 16.8036112 55.5493711 17.233951 55.1461713 17.9594706 54.6491715 18.1342105 54.2325718 18.1879305 53.8695719 17.9057507 53.4935721 17.7711707 52.0427729 17.0592111 50.2421738 16.9789112 48.7913746 17.7581507 48.4147748 17.9193307 48.1055749 18.2416505 47.7023752 18.3089505 47.2991754 17.9866106 46.9633755 17.5834308 46.5869757 17.233951ZM45.6757762 18.0927706C47.6511752 20.0013896 49.5597742 21.9771885 51.5085732 23.8987875 54.5595716 26.935986 57.59637 30.0003844 60.6609684 33.0375828 58.9135693 34.8115819 57.1529702 36.558981 55.3925711 38.30578 55.0295713 38.7083798 54.3039717 38.8837797 53.9543719 38.38618 53.5245721 37.9291802 53.9945719 37.3647805 54.1291718 36.8943808 54.2903717 36.544781 54.0087719 36.2361811 53.779772 35.9945812 50.2587738 32.4863831 46.7501756 28.9785849 43.2429775 25.4577867 42.9205776 25.1619869 42.6513778 24.7995871 42.261778 24.5975872 41.7243783 24.4765872 41.3075785 24.960787 40.7833788 24.987787 40.380179 24.947187 40.0041792 24.5445872 40.0577791 24.1271874 40.0843791 23.8047876 40.272779 23.5225877 40.5011789 23.2941879 42.221578 21.5603888 43.9689771 19.8537097 45.6757762 18.0927706ZM52.6887726 20.2437895C52.5145726 19.8004297 52.8233725 19.26321 53.2937722 19.19591 53.6431721 19.14219 53.9253719 19.4102299 54.1673718 19.6392498 55.617971 21.090389 57.0687703 22.5555882 58.5337695 23.9935875 58.7887694 24.2757874 59.1517692 24.5307872 59.1787692 24.947587 59.2325691 25.3643868 58.8293694 25.7675866 58.3997696 25.7267866 57.8349699 25.7267866 57.4051701 25.2833868 56.8947704 25.0951869 56.1421708 24.7461871 55.2285712 24.7191871 54.4895716 25.1223869 54.0999718 24.7325871 53.709972 24.3293873 53.3067722 23.9663875 53.4819721 23.3749878 53.6431721 22.7437881 53.4949721 22.1251885 53.3875722 21.4267888 52.9035724 20.8889891 52.6887726 20.2437895ZM78.4251592 21.2933889C78.788359 20.9303891 79.2447587 20.6617892 79.7559585 20.5945893 80.655558 20.4605893 81.5967575 21.3335889 81.4225576 22.2473884 81.3015577 23.053788 80.629558 23.6985877 80.682758 24.5461872 80.8173579 25.1365869 81.3015577 25.5397867 81.6905575 25.9571865 88.5587539 32.8109829 95.4265503 39.6511793 102.267147 46.5185758 102.643747 46.8549756 103.019946 47.2983754 103.557746 47.2983754 104.364146 47.2983754 104.982145 46.6937757 105.748545 46.5585757 106.635144 46.4115758 107.508944 47.2847754 107.400944 48.1719749 107.347744 48.7765746 106.984744 49.3007743 106.568544 49.7169741 103.113746 53.1573723 99.6731481 56.6249705 96.2193499 60.0655687 95.7761501 60.5087685 95.2117504 60.9119683 94.5533508 60.9119683 93.8267511 60.9521682 93.1283515 60.3347686 93.0343515 59.6221689 92.9399516 58.6811694 93.8137511 57.9821698 93.7865512 57.0411703 93.7463512 56.5979705 93.4375513 56.2353707 93.1417515 55.9125709 87.1071546 49.892174 81.0859578 43.8577772 75.0519609 37.8369803 80.0381583 47.0963755 85.0645557 56.3297707 90.0507531 65.5891658 90.1309531 65.7233658 90.198353 65.8713657 90.265553 66.0325656 89.9031532 66.3679654 89.5535534 66.7309652 89.2041535 67.093965 79.2181587 62.1759676 69.2455639 57.2023702 59.2731691 52.2707728 57.7009699 51.4915732 56.1419708 50.5775737 54.3677717 50.3627738 53.776372 50.2813738 53.3731722 50.7659736 52.9433724 51.0747734 52.4993727 51.4241732 51.907773 51.6389731 51.3575732 51.4643732 50.6987736 51.1691733 50.2417738 50.3893737 50.4435737 49.6767741 50.5777737 49.1933744 50.9135735 48.7901746 51.2631733 48.4399748 54.4887716 45.2285764 57.7009699 42.0035781 60.9267683 38.8045798 65.9525656 41.2639785 70.992563 43.6695772 76.0329604 46.129376 76.1941603 46.2499759 76.3683602 46.3709758 76.5165601 46.5321758 76.5973601 46.4375758 76.6647601 46.3437759 76.74496 46.2499759L76.5567601 46.2765759C73.9095615 41.2367785 71.127763 36.2643811 68.4793643 31.2247837 71.8125626 27.9187855 75.1055609 24.5993872 78.4251592 21.2933889ZM60.7809683 23.5631877C61.0229682 23.119788 61.7081679 23.066188 62.0305677 23.4421878 63.387367 24.8129871 64.7719663 26.1837864 66.1419655 27.5549856 64.6103663 29.0999848 63.0781671 30.632384 61.520568 32.1643832 61.1711681 31.7611835 60.7001684 31.4387836 60.4315685 30.9683839 60.8749683 30.2157843 61.345168 29.4493847 61.466168 28.5627851 61.6947679 27.3395858 61.493368 26.0497864 60.9693682 24.920987 60.8211683 24.4905872 60.4989685 23.9935875 60.7809683 23.5631877ZM38.2139801 25.5803867C38.48258 25.2981868 38.7783798 25.002587 39.1679796 24.908587 39.5581794 24.8283871 40.0417791 25.0697869 40.0953791 25.4995867 40.1899791 25.9701865 39.8403792 26.3601863 39.7465793 26.816586 39.6921793 27.1795858 39.9879792 27.4353857 40.2029791 27.6773856 43.7917772 31.2647837 47.3663753 34.8533818 50.9551735 38.42798 51.1971733 38.6569799 51.4523732 38.9391797 51.801773 39.0193797 52.2315728 38.9793797 52.5941726 38.6971798 53.0113724 38.6031799 53.5221721 38.5489799 53.9921719 39.1003796 53.830972 39.5837794 53.764172 39.9467792 53.4819721 40.215979 53.2399723 40.4709789 51.4923732 42.218378 49.7449741 43.9651771 47.998175 45.6991762 47.6893752 46.008376 47.2861754 46.3307759 46.8285756 46.2233759 46.5735757 46.115376 46.3585759 45.9139761 46.2641759 45.6589762 46.130176 45.0673765 46.7617756 44.5833768 46.6137757 43.9917771 46.4795758 43.7639772 46.2913759 43.5885773 46.116576 43.4009774 44.4771768 41.7745782 42.8507777 40.1215791 41.1975785 38.4957799 40.6197788 39.0867796 40.0417791 39.6647793 39.4501795 40.242579 39.0469797 39.8529792 38.6437799 39.4627794 38.2677801 39.0465797 38.8585798 38.46858 39.4371795 37.8777803 40.0287792 37.2991806 38.5763799 35.8753813 37.1383807 34.4231821 35.7007814 32.9849828 35.3913816 32.689783 35.1227817 32.3675831 34.7597819 32.1525832 34.1015822 31.9371834 33.4697826 32.8645829 32.8381829 32.3539831 32.3267832 31.9913833 32.4885831 31.2647837 32.9053829 30.8887839 34.6657819 29.1011848 36.452981 27.3543857 38.2139801 25.5803867Z"/><path fill="#000" d="M31.3363837 32.554583C31.7401835 32.2983832 32.3445832 32.4601831 32.5323831 32.9169828 32.720783 33.4677826 32.2235832 33.9383823 32.2099832 34.476182 32.1963832 34.7583819 32.4249831 34.9595818 32.599583 35.1479817 36.3225811 38.8711797 40.0323791 42.5931778 43.7551772 46.3023759 44.4265769 47.0277755 45.2871764 45.7781762 46.012776 46.3159759 46.4833758 46.6925757 46.3221759 47.4309753 45.9189761 47.7805751 44.171377 49.5415742 42.4109779 51.2747733 40.6769788 53.0351724 40.394779 53.3043722 40.1125791 53.6265721 39.7229793 53.747572 39.2925795 53.8685719 38.7683798 53.5995721 38.7151798 53.1431723 38.6343799 52.6059726 39.1183796 52.1885728 39.0913796 51.6643731 39.0233797 51.4359732 38.8763798 51.2481733 38.7151798 51.0733734 35.1937817 47.5661752 31.6721835 44.0449771 28.1641853 40.5235789 27.8289855 40.214779 27.5467857 39.8245793 27.1027859 39.6633793 26.6191861 39.6367793 26.2159863 39.9999792 25.7455866 40.0529791 25.3423868 40.0665791 24.992787 39.7035793 24.979187 39.3145795 24.939187 38.8971797 25.2347869 38.5617799 25.5169867 38.2795801 27.2639858 36.532381 29.0107849 34.7849819 30.745384 33.0381828 30.9331839 32.8633829 31.1077838 32.688583 31.3363837 32.554583ZM21.6179887 42.164178C22.4241883 41.3843784 23.2033879 40.5779789 24.0095875 39.7851793 25.4207868 41.1565786 26.804386 42.5803778 28.2155853 43.9647771 28.4573852 44.233377 28.752585 44.4753768 28.886585 44.8249766 29.0483849 45.4837763 28.2963853 46.2091759 27.6375856 45.9133761 26.9789859 45.6177762 26.4553862 45.0935765 25.8233865 44.7439767 24.7621871 44.085777 23.5255877 43.6689772 22.2631884 43.8171772 21.9001886 43.4411774 21.4969888 43.0911776 21.174789 42.6883778 21.2815889 42.4729779 21.4569888 42.3253779 21.6179887 42.164178ZM15.7577118 48.024175C17.263131 46.5459758 18.7414102 45.0541765 20.2331895 43.5623773 23.055788 46.3983758 25.8913865 49.2337744 28.726785 52.0561729 30.2859842 53.6011721 31.8049834 55.1743713 33.3771826 56.6927705 33.8211824 57.1897702 34.4119821 56.7735704 34.8961818 56.5981705 35.3795816 56.3833706 35.9445813 56.8137704 35.9309813 57.3237701 35.9309813 57.67317 35.7291814 57.9689698 35.5011815 58.2115697 33.6735825 60.0257687 31.8723834 61.8397678 30.0581843 63.6545668 29.8025845 63.9095667 29.4795846 64.1645666 29.1035848 64.1379666 28.6867851 64.1787666 28.2835853 63.7755668 28.3235852 63.371767 28.3507852 62.9419672 28.6867851 62.5925674 28.6867851 62.1621676 28.713785 61.7991678 28.4045852 61.5705679 28.1895853 61.3285681 23.9023875 57.0687703 19.6552898 52.7687725 15.354492 48.5213747 15.4890719 48.3465748 15.6100919 48.1853749 15.7577118 48.024175ZM116.622539 46.7063757C118.288138 48.3457748 119.941338 49.998574 121.580937 51.6651731 122.104536 52.1627728 121.728537 53.1569723 121.029737 53.2649723 120.384537 53.3587722 119.887538 52.8481725 119.390738 52.5121726 118.060339 51.5977731 116.487939 50.7383736 114.82234 51.0205734 114.37854 50.6173736 113.948941 50.2005738 113.585941 49.7305741 114.62054 48.7359746 115.61494 47.7139751 116.622539 46.7063757ZM14.3845325 49.4345742C14.8820522 49.6227741 15.1907521 50.1871739 15.5938719 50.5365737 15.379032 52.0957729 16.1174116 53.5603721 16.9909311 54.7835715 17.246491 55.1737713 17.5551909 55.5361711 17.7163108 55.9795708 17.8915907 56.5709705 17.313771 57.1891702 16.7223713 57.1217702 16.3865315 57.1217702 16.1581316 56.8395704 15.9432717 56.6383705 14.4783725 55.1595713 13.0010332 53.708572 11.536134 52.2303728 12.5034935 51.3159733 13.404153 50.3353738 14.3845325 49.4345742ZM44.2875769 57.0151703C46.9619755 56.1545707 49.864774 56.0607708 52.6199726 56.6251705 57.2975702 57.61977 61.436568 60.3613686 64.7431663 63.7609668 67.9819646 67.0403651 70.5623632 71.1531629 71.4361628 75.7353605 71.9197625 78.2485592 71.8121626 80.8825579 71.087163 83.3419566 70.3747633 85.7745553 69.083564 88.0191542 67.4577649 89.9541531 66.7587652 89.2151535 65.9929656 88.5297539 65.320566 87.7769543 65.320566 87.4139545 65.5491659 87.1047546 65.6169658 86.7557548 65.9793656 85.5733554 65.6169658 84.2427561 64.7159663 83.3819566 58.0773698 76.73016 51.4109732 70.0775635 44.7711767 63.425167 44.166577 62.8069673 43.4009774 62.3099675 42.5271778 62.2427676 41.8145782 62.1487676 41.1155786 62.4037675 40.4437789 62.6453674 40.1745791 62.7935673 40.0003792 62.4581675 39.8255793 62.3229675 39.2877795 61.7455678 38.6963798 61.2213681 38.1589801 60.6299684 38.1589801 60.5897684 38.1455801 60.5089685 38.1455801 60.4687685 39.9331792 58.9367693 42.0299781 57.7407699 44.2875769 57.0151703ZM62.4091675 56.2741707C63.0271672 56.4755706 63.5915669 56.7849704 64.1695666 57.0805703 66.3339654 58.1291697 68.4833643 59.2175692 70.6613632 60.2791686 70.8489631 60.3735685 71.023763 60.5211685 71.1855629 60.6687684 73.012762 62.5235674 74.854561 64.3511665 76.6953601 66.1925655 77.6901595 67.254565 78.9393589 68.0739645 80.2971582 68.5845643 81.2513577 68.9475641 82.3269571 68.9475641 83.2809566 68.6111643 83.7649564 68.4499643 84.2893561 68.2621644 84.7999558 68.4233644 85.3105556 68.6251643 85.6867554 69.135964 85.7267553 69.6867637 85.6867554 70.4257633 85.2161556 71.043763 84.7191559 71.5545627 83.0795567 73.2209619 81.4123576 74.874561 79.7463585 76.5139601 79.3029587 76.9171599 78.792359 77.3333597 78.1737593 77.4005597 77.2869597 77.5345596 76.4131602 76.5947601 76.6817601 75.7341605 76.9373599 74.860361 77.2869597 73.9737615 77.1393598 73.0597619 76.9239599 71.5273627 76.0501604 70.1701634 75.0825609 69.0013641 71.4405628 65.345966 67.7849647 61.7035679 64.1295666 58.0345698 63.5645669 57.4431701 62.9463672 56.9059704 62.4091675 56.2741707ZM103.399746 59.9305688C104.408546 58.9227693 105.429345 57.9145698 106.437745 56.8937704 106.881144 57.2563702 107.270744 57.6865699 107.687544 58.0897697 107.512744 59.433369 107.970344 60.7635683 108.668743 61.8927678 109.031143 62.5379674 109.555343 63.0887671 109.878343 63.7605668 110.053143 64.0835666 109.932143 64.4459664 109.811143 64.7683663 111.504742 65.9111657 112.996141 67.3623649 114.179141 69.015164 115.53634 70.937363 116.490539 73.2219619 116.436739 75.6139606 116.450339 77.8855594 115.46914 80.0621583 114.030941 81.7823574 113.641341 81.3791576 113.184341 81.0167578 112.847941 80.559758 112.915741 80.0621583 113.157341 79.5785585 113.036141 79.0815588 112.902141 78.4363591 112.404541 77.9793594 111.961142 77.5355596 108.413544 74.0011615 104.878545 70.4673633 101.343947 66.9325651 100.994547 66.5829653 100.577748 66.2607655 100.080148 66.2205655 99.6101481 66.1661655 99.1395484 66.3007655 98.7097486 66.4483654 98.2929488 66.0593656 97.876749 65.6419658 97.4735492 65.238766 99.2605483 63.7069668 101.585547 62.7257673 103.964746 62.8467673 104.878545 62.8201673 105.765945 63.0351672 106.652544 63.2363671 105.577545 62.1211676 104.434546 61.0727682 103.399746 59.9305688ZM33.0679828 67.8183647C33.8069824 65.7623657 34.9759818 63.8809667 36.3603811 62.2007676 37.0457807 62.9003672 37.7719803 63.5715669 38.44378 64.2841665 38.5777799 64.7143663 38.2289801 65.1175661 38.1615801 65.5473659 37.8121803 66.7033653 38.2689801 67.9665646 39.1161796 68.7995642 45.6473762 75.3445608 52.1927728 81.8761574 58.7381694 88.4205539 59.3699691 89.1065536 60.1355687 89.7511532 61.1031682 89.8993532 61.9633677 90.0339531 62.8105673 89.7381533 63.6033669 89.4423534 64.3289665 90.167953 65.0551661 90.8805527 65.7805657 91.6059523 64.1943666 92.9903516 62.3529675 94.078951 60.3911685 94.8451506 57.4341701 95.98695 54.1279718 96.1751499 51.0233734 95.4903503 46.3057759 94.4549508 42.152978 91.6195523 38.8333798 88.1655541 35.7693814 84.9541557 33.2957827 81.0159578 32.4225831 76.6209601 31.8317834 73.7051616 32.0199833 70.6143632 33.0679828 67.8183647ZM94.152551 71.7037626C94.3141509 69.6611637 95.2145504 67.7125647 96.5587497 66.1799655 96.9479495 66.5831653 97.3651493 66.9863651 97.7679491 67.3895649 97.6203492 67.8737646 97.3911493 68.3843644 97.5263492 68.8943641 97.6067492 69.3519639 97.915549 69.7149637 98.2383488 70.0371635 101.786547 73.5715617 105.307345 77.1195598 108.856143 80.653958 109.272343 81.0571578 109.675543 81.5411575 110.267143 81.7023574 110.804942 81.8503574 111.355742 81.6615575 111.879342 81.5003575 112.283142 81.9041573 112.699941 82.3073571 113.089541 82.7371569 111.395942 84.1345562 109.285943 85.1161557 107.054944 85.1161557 104.891145 85.2099556 102.767746 84.443756 100.966947 83.3151566 99.6629481 82.482157 98.4667487 81.4737576 97.4727492 80.3043582 97.942549 81.8769574 97.835749 83.6379564 97.0959494 85.1161557 96.3705498 86.5671549 95.2417504 87.7503543 94.125951 88.8925537 93.7227512 88.4893539 93.3059514 88.0719541 92.8891516 87.6693543 93.2391514 87.1045546 93.4675513 86.432555 93.2521514 85.7743553 92.9971516 85.1019557 92.4457519 84.6185559 91.9621521 84.1079562 90.9673526 83.0995567 89.9597531 82.0919572 88.9513537 81.0841578 88.360354 80.5327581 87.7281543 79.9011584 86.8815547 79.8475584 86.384355 79.7943584 85.9411552 80.0493583 85.5243555 80.2913582 85.1079557 79.8881584 84.7047559 79.4713586 84.2879561 79.0687588 85.9003553 77.4423597 87.7417543 75.7623605 90.1073531 75.4665607 92.0425521 75.1437609 93.991351 75.9771604 95.3621503 77.3077597 94.5019508 75.5875606 93.9647511 73.6519616 94.152551 71.7037626ZM23.3033879 76.3923602C23.7065877 76.0027604 24.2307874 75.7069606 24.7951871 75.6667606 25.7225866 75.6125606 26.5697862 76.5801601 26.3135863 77.4809596 26.1121864 78.1663593 25.6151867 78.770759 25.5879867 79.5105586 25.6417866 80.1551582 26.1795864 80.612158 26.6099861 81.0423578 33.5041825 87.9363542 40.412179 94.8443506 47.3069754 101.738347 47.6299752 102.047747 47.992375 102.356547 48.4493748 102.396547 49.2285744 102.396547 49.833774 101.819347 50.5729737 101.644547 51.4595732 101.469747 52.3469727 102.276147 52.3067728 103.162946 52.2795728 103.767946 51.9437729 104.318746 51.5269732 104.748545 48.059775 108.216144 44.5783768 111.697342 41.1111786 115.16434 40.6541788 115.60774 40.0897791 115.99734 39.4315795 115.99734 38.6249799 116.02454 37.8723803 115.25874 37.9389802 114.43834 38.0205802 113.632341 38.6917798 112.987141 38.7059798 112.153742 38.6787799 111.656542 38.2885801 111.279942 37.9797802 110.931142 34.8885818 107.826544 31.7839834 104.748545 28.706385 101.658147 28.5853851 101.564147 28.4241852 101.294947 28.2493853 101.482747 27.1743858 102.517547 26.1393864 103.606746 25.0637869 104.641145 24.3381873 103.915546 23.6125877 103.189946 22.8865881 102.450947 23.9213875 101.362347 24.996587 100.300348 26.0851864 99.2525483 26.0851864 99.1981483 26.0991864 99.0777484 26.0991864 99.0233484 23.1823879 96.1615499 20.3195894 93.2581514 17.4167909 90.3691529 16.9734112 89.9523531 16.5560514 89.4287534 15.9385117 89.2805535 15.0919121 89.2261535 14.4330925 89.8849532 13.6402129 90.0331531 12.6188734 90.207953 11.6914339 89.0521536 12.0409137 88.0975541 12.2156736 87.4257545 12.7529134 86.9415547 13.2234331 86.485355 16.5832114 83.1121567 19.9565496 79.7655585 23.3033879 76.3923602ZM83.3183566 80.0233583C84.9311558 81.5279575 86.450155 83.1407567 88.0359541 84.6863559 91.0467526 87.7099543 94.070551 90.7337527 97.0945494 93.7573512 97.3093493 93.9327511 97.5107492 94.1741509 97.7929491 94.2279509 98.3713488 94.2821509 98.8277485 93.7173512 99.4063482 93.8247511 99.755748 93.9457511 100.077548 94.2821509 100.037948 94.6713507 100.037948 95.1955504 99.5941481 95.5585502 99.2711483 95.90795 97.3765493 97.7763491 95.5081503 99.6707481 93.6137512 101.539147 93.1969515 101.996147 92.4169519 101.767747 92.161952 101.256947 91.7859522 100.625348 92.8071517 99.9529479 92.2699519 99.3755482 88.371754 95.4917503 84.474156 91.5939523 80.590158 87.6965543 80.3079582 87.4413545 80.0665583 87.1191546 79.7299585 86.9437547 79.1521588 86.7825548 78.695159 87.2667545 78.1579593 87.3339545 77.7411595 87.2937545 77.3379597 86.9307547 77.3643597 86.5003549 77.3243597 86.0299552 77.6737595 85.6679554 77.9689594 85.3587555 79.7571585 83.5841565 81.5447575 81.7971574 83.3183566 80.0233583ZM71.3291628 91.9973521C72.927362 90.4247529 74.4861612 88.7989537 76.1121604 87.2529546 77.5499596 88.7045538 79.0013589 90.142553 80.4391581 91.5937523 80.9225579 92.064152 80.4119581 92.7767517 79.9149584 92.9915516 79.5655586 93.0317515 79.2427587 92.8167517 78.9333589 92.6827517 77.6981595 92.077152 76.2733603 91.7819522 74.916361 92.131552 74.0565614 92.3061519 73.3039618 92.7897517 72.5513622 93.2329514 72.1483624 92.8167517 71.7457626 92.4005519 71.3291628 91.9973521ZM64.7999662 98.5413487C66.6553653 96.6599497 68.5369643 94.8187506 70.3913633 92.9503516 73.4015618 95.92095 76.3717602 98.9445485 79.3961586 101.914547 81.7079574 104.212746 83.9927563 106.537945 86.317555 108.822543 84.516956 110.676942 82.6625569 112.477941 80.8607579 114.31874 80.605758 114.60134 80.2427582 114.76254 79.9067584 114.91014 79.5709586 114.78974 79.1541588 114.66874 79.0465588 114.29274 78.8453589 113.660541 79.5035586 113.163341 79.4233586 112.545341 79.1541588 112.021142 78.683559 111.644542 78.2803592 111.228342 75.0145609 107.961944 71.7491626 104.696745 68.4827643 101.430547 67.9053646 100.893347 67.4211649 100.248548 66.7357652 99.845348 66.0503656 99.7103481 65.4321659 100.583948 64.7739663 100.113548 64.2095666 99.750948 64.3707665 98.9445485 64.7999662 98.5413487ZM77.8361595 95.2085504C77.6213596 94.6571507 78.1319593 94.011951 78.709759 94.105951 78.9783589 94.1731509 79.1795588 94.3479509 79.3677587 94.5361508 80.7783579 95.96115 82.2031572 97.3585493 83.6007565 98.7831485 84.0571562 99.2535483 84.6485559 99.6567481 84.8367558 100.328548 84.6621559 100.624348 84.473756 101.027547 84.0711562 101.067747 83.4119566 101.134947 82.9285568 100.610748 82.3371571 100.395348 81.5309575 99.9921479 80.550558 99.9921479 79.7443585 100.409348 79.3147587 99.9791479 78.8979589 99.5487481 78.4677591 99.1325484 78.763359 98.5009487 78.8979589 97.7753491 78.682559 97.1029494 78.5213591 96.4175498 78.0645593 95.8531501 77.8361595 95.2085504ZM86.479155 98.7157486C86.7613548 98.2859488 87.4465545 98.2187488 87.7823543 98.6219486 89.2337535 100.087148 90.7121528 101.538147 92.149352 103.016346 90.4967529 104.629146 88.9113537 106.322345 87.2181546 107.894944 86.8291548 107.478144 86.411955 107.074944 86.0087552 106.658144 87.4465545 104.884745 87.6483543 102.317347 86.6809549 100.274948 86.5057549 99.790748 86.1297551 99.1993483 86.479155 98.7157486ZM62.5689674 103.701746C64.9611662 103.500346 67.3403649 104.359946 69.3155639 105.663945 70.8611631 106.698944 72.2993623 107.894944 73.4009618 109.386743 74.7187611 111.147142 75.5245607 113.297541 75.5387607 115.51494 75.5783606 118.041539 74.5841612 120.594737 72.7833621 122.381736 72.3661623 121.978536 71.9629625 121.575937 71.5601627 121.159137 71.8017626 120.702737 72.0839625 120.218737 72.0035625 119.680938 71.8695626 118.874538 71.3181629 118.215738 70.7667631 117.664939 67.7435647 114.64134 64.7191663 111.617542 61.6951679 108.593343 61.0771682 107.988744 60.3781686 107.329944 59.464169 107.263144 58.9671693 107.209544 58.5231695 107.464544 58.1069697 107.706544 57.7167699 107.276344 57.1795702 106.953944 56.9375703 106.416745 58.4157696 104.897745 60.4317685 103.835746 62.5689674 103.701746Z"/><path fill="#FFF" d="M0.00603225464,104.064946 C0.543279715,103.849946 1.05451345,103.513546 1.64605114,103.527146 C2.35803877,103.661746 2.80197854,104.293346 3.29851828,104.763345 C10.0593548,111.496742 16.7924713,118.242938 23.5391877,124.975735 C23.9151875,125.393135 24.3993873,125.809334 24.4665873,126.400934 C24.4395873,126.978134 24.1301874,127.489334 23.8891876,128.000133 C15.9187317,127.986533 7.96295585,127.986533 0.00603225464,127.986533 C0.00603225464,120.016937 -0.0075403183,112.033942 0.00603225464,104.064946 Z"/></g></svg>