<svg xmlns="http://www.w3.org/2000/svg" width="164" height="20" viewBox="0 0 164 20"><path fill="#FFF" d="M128.1 19.3 128.1 16.8 130.6 16.5C131.5 16.4 131.8 15.6 131.9 15.4L138.2 5.3C138.7 4.5 138.2 3.8 137.6 3.7L134.3 3.3 134.3.8 148.5.8C149.3.8 149.8 1.4 150.1 1.8L158.4 14.5C159.1 15.5 159.6 16.3 160.4 16.4L163 16.7 163 19.3 147 19.3 147 16.8 149 16.6C150 16.5 150.8 16 150 14.9L149.2 13.7 137.9 13.7 137 15.1C136.5 16 137 16.5 137.8 16.6L139.8 16.8 139.8 19.3 128.1 19.3M140 10.3 147.2 10.3 143.5 4.6 140 10.3M117.5.8 99.2.8 99.2 3.3 101.5 3.5C102.3 3.5 102.7 4.2 102.7 5.1L102.7 15C102.7 15.7 102.4 16.3 101.7 16.4L99.2 16.7 99.2 19.1 117.5 19.1C125.9 19.1 129.5 15 129.5 9.6 129.6 4.9 125.9.8 117.5.8M114.7 15.7 110 15.7 110 4.3 114.7 4.3C119.2 4.3 121.1 5.3 121.1 10 121.1 14.7 119.2 15.7 114.7 15.7M0 19.3 14.8 19.3 14.8 16.8 12.3 16.5C11.7 16.4 11.1 16.1 11.1 14.8L11.1 11.8 22.5 11.8 22.5 14.6C22.5 15.4 22.4 16.2 21.4 16.3L18.8 16.6 18.8 19.3 33.6 19.3 33.6 16.8 31 16.5C30.5 16.4 29.9 16 29.9 15L29.9 5.3C29.9 4.3 30.3 3.7 31 3.6L33.6 3.3 33.6.8 18.8.8 18.8 3.3 21.4 3.6C22.2 3.7 22.5 4.4 22.5 5.3L22.5 8.2 11.1 8.2 11.1 5.3C11.1 4.2 11.5 3.7 12.3 3.6L14.8 3.3 14.8.8 0 .8 0 3.3 2.5 3.6C3.5 3.6 3.7 4.4 3.7 5.4L3.7 14.8C3.7 15.8 3.4 16.5 2.5 16.6L0 16.9 0 19.3M34.3 9.9C34.3 4.1 39 0 49.4 0 59.8 0 64.5 4.1 64.5 9.9 64.5 15.7 59.8 19.9 49.4 19.9 39 19.9 34.3 15.9 34.3 9.9M49.4 3.6C45.2 3.6 42.8 5.2 42.8 9.9 42.8 14.6 45.2 16.3 49.4 16.3 53.6 16.3 56 14.7 56 9.9 56 5.1 53.6 3.6 49.4 3.6M65.3 19.3 77.1 19.3 77.1 16.8 74.5 16.5C73.8 16.4 73.3 15.8 73.3 15L73.3 5.6 83.1 18.5C83.4 18.9 84 19.2 84.6 19.2L93.9 19.2 93.9 5.3C93.9 4.6 94.1 3.7 95 3.6L97.7 3.3 97.7.8 85.9.8 85.9 3.3 88.5 3.6C89.4 3.6 89.6 4.5 89.6 5.3L89.6 14.4 79.8 1.6C79.4 1.1 79 .8 78.3.8L65.3.8 65.3 3.3 67.8 3.6C68.7 3.6 69 4.2 69 5.4L69 14.8C69 15.9 68.7 16.4 67.8 16.6L65.4 16.9 65.4 19.3" transform="translate(.5)"/></svg>