<svg xmlns="http://www.w3.org/2000/svg" width="128" height="131" viewBox="0 0 128 131"><path fill="#FFF" d="M39.298557,108.595819 L39.298557,120.760411 C39.298557,124.215718 37.5840072,126.059444 34.4684999,126.059444 C31.3354766,126.059444 29.6106471,124.162541 29.6106471,120.612953 L29.6106471,108.609149 L25.3003466,108.609149 L25.3003466,120.760411 C25.3003466,126.739281 28.6213787,130.165485 34.4116905,130.165485 C40.2568068,130.165485 43.6088575,126.673636 43.6088575,120.585143 L43.6088575,108.595819 L39.298557,108.595819 Z M55.1569857,108.595747 L45.7954234,129.834279 L50.1951939,129.834279 L52.0022354,125.721017 L52.1315844,125.412735 L61.8569768,125.412735 L63.7643356,129.834279 L68.2837539,129.834279 L59.0092147,108.721503 L58.9258564,108.595747 L55.1569857,108.595747 Z M80.7855149,108.595819 L75.9615156,123.209275 L71.2656437,108.606706 L66.6785328,108.606706 L74.0831525,129.847573 L77.6525023,129.847573 L82.4862028,115.894085 L87.3162384,129.847573 L90.9158415,129.847573 L98.3023164,108.606706 L93.8324819,108.606706 L89.1269088,123.209275 L84.3016879,108.595819 L80.7855149,108.595819 Z M122.966297,108.595819 L122.966297,129.81617 L127.219796,129.81617 L127.219796,108.595819 L122.966297,108.595819 Z M0.965138661,108.597077 L0.965138661,129.846424 L5.27665359,129.846424 L5.27665359,121.21615 L15.011704,121.21615 L15.011704,129.846424 L19.3244226,129.846424 L19.3244226,108.597077 L15.011704,108.597077 L15.011704,117.169323 L5.27665359,117.169323 L5.27665359,108.597077 L0.965138661,108.597077 Z M101.778607,108.611449 L101.778607,129.8318 L117.825608,129.8318 L117.825608,125.962684 L106.032105,125.962684 L106.032105,120.70109 L113.874284,120.70109 L113.874284,116.830788 L106.032105,116.830788 L106.032105,112.480601 L117.414638,112.480601 L117.414638,108.611449 L101.778607,108.611449 Z M56.9833578,113.973361 L60.0571572,121.087879 L60.2554924,121.578651 L53.7344341,121.578651 L53.9374402,121.087879 L56.9833578,113.973361 Z M54.6544469,0.000287442233 C54.0131467,0.0570123704 52.9624533,0.240388164 51.8995945,0.447449731 L48.3210382,1.20344877 C37.9046203,3.89581238 35.4426237,13.348458 35.4426237,13.348458 C34.9339551,14.9379776 34.7028911,16.5669846 34.6349361,18.1017106 L34.6349361,20.1905533 C34.7731599,23.4178469 35.4908996,25.8276548 35.4908996,25.8276548 C38.9703339,41.2560448 56.0781088,66.6070844 59.7548902,71.9325625 C60.015744,72.1912605 60.2246498,72.0978418 60.2246498,72.0978418 C60.6214997,71.9882545 60.5904308,71.607645 60.5904308,71.607645 L60.9329555,68.0895564 C65.3608277,18.9995778 56.4500058,2.76514244 54.8841963,0.335372382 L54.6544469,0.000287442233 Z M73.366983,-2.04239991e-13 L73.0130645,0.530066045 C71.1045452,3.62172157 62.3059691,20.9742494 67.3768952,71.6503661 C67.4282755,72.0099204 67.6833805,72.0848351 67.6833805,72.0848351 C67.9109485,72.173008 68.0719807,72.0771172 68.1643956,71.986297 L68.2590195,71.8710499 L69.5254874,70.0177343 C74.7583402,62.2877016 88.6583907,40.9109792 92.259597,26.8433572 L92.617526,25.3349939 C92.9778191,23.6743714 94.0043933,18.1482537 92.7626224,13.9398477 L92.38562,12.7783852 C91.6678721,10.750099 88.6771572,3.87347562 80.4648174,1.45419575 L78.7702902,1.02178218 C77.6680836,0.766204079 75.5616381,0.308998155 73.366983,-2.04239991e-13 Z M19.5973957,16.9929021 L18.7763114,17.8243484 C16.4732805,20.2456992 10.0654897,27.6224221 9.24647574,35.5205101 L9.18291808,36.3999957 L9.18291808,37.9132353 L9.20339834,38.2585253 C9.63092554,46.311471 15.6890149,51.0775147 15.6890149,51.0775147 C25.4498956,60.590631 49.0846428,72.6014047 54.5767585,75.3266445 L54.7476148,75.3683351 C54.8238377,75.3767974 54.9124207,75.3718319 54.9926319,75.3304157 L55.1040784,75.2375374 C55.1040784,75.2375374 55.1907782,75.171785 55.2303374,75.0535744 L55.2303374,74.802781 L55.2135544,74.7582275 C40.1732437,41.9018556 19.5973957,16.9929021 19.5973957,16.9929021 Z M108.400076,16.9928662 L106.496274,19.3866907 C101.165056,26.2326527 85.6799325,47.0915142 73.4908542,73.2330167 L72.8581887,74.6118116 C72.8581887,74.6118116 72.6806572,74.9919899 72.9677401,75.2375374 L73.0663221,75.293216 C73.0965781,75.3066832 73.1324445,75.319698 73.1719678,75.328441 L73.3799323,75.328441 L73.4969212,75.2799351 L77.9258402,73.0331765 C86.6528779,68.5204377 103.245377,59.4617919 111.550941,51.7936893 L112.861665,50.5831575 C114.383479,49.1466603 118.516695,44.6696542 118.779302,38.2062467 C119.48968,27.189053 108.400076,16.9928662 108.400076,16.9928662 Z M126.863673,49.6126013 L116.498517,55.2805385 C105.486453,61.3784481 88.1504299,71.2057624 76.9371286,78.6813303 L76.1336037,79.2295351 C76.1336037,79.2295351 75.8197886,79.4350563 75.9293401,79.8033058 C75.9293401,79.8033058 76.0216427,79.9704489 76.1685468,80.0540205 L76.332255,80.1023535 L104.0051,80.0786503 L106.550841,80.0297743 C106.550841,80.0297743 109.235339,79.9225156 112.673165,78.7105164 L113.857327,78.2730587 C115.692414,77.5377223 121.856276,74.6058022 125.588513,67.1966031 L126.102541,66.1193794 C126.495275,65.2429155 127.816853,61.9933834 127.983083,57.6202427 L128,56.6013999 C127.985628,54.4571886 127.683562,52.0834906 126.863673,49.6126013 Z M1.12438525,49.6963188 C-1.91848901,59.1163038 2.17797961,66.706719 2.18459437,66.7189712 C5.65318203,74.0478454 11.6830926,77.2262643 13.8223665,78.1605157 L14.60253,78.4721967 C17.3197226,79.5885245 20.037365,79.9543338 21.3375065,80.0714248 L22.3680542,80.1389985 C24.901425,80.2228657 45.8265562,80.134079 51.6409456,80.106737 C51.8996437,80.1048327 52.0420066,79.8448052 52.0420066,79.8448052 L52.0828953,79.7610877 L52.0828953,79.5253851 L52.0122377,79.3855098 L51.9011599,79.254363 L50.2611862,78.1610371 C36.515723,69.0990131 14.427523,56.9143559 5.28933356,51.9464602 L1.12438525,49.6963188 Z M50.9428095,83.0026456 L11.6001599,84.3822246 C15.8667009,91.9879102 23.0520669,97.8988363 30.5371381,96.083459 C35.70259,94.7920888 47.4046256,86.6297714 51.2677342,83.8716194 C51.495101,83.6449712 51.4744972,83.4631582 51.4566436,83.3990678 C51.3490804,83.0211856 50.9428563,83.0215449 50.9428563,83.0215449 L50.9428095,83.0026456 Z M77.0004145,83.0313898 L76.8687051,83.0777485 C76.759965,83.115208 76.612458,83.1930761 76.5545485,83.3482949 L76.539791,83.4839837 C76.5386449,83.5631039 76.5495999,83.6647757 76.5983685,83.754982 L76.6991319,83.8810331 L77.7923612,84.6595662 C82.1216378,87.7221117 91.4435583,94.0811554 96.6677134,95.8887337 L97.5056585,96.1514819 C97.7833553,96.2296473 98.5288684,96.4098975 99.6151262,96.4493011 L100.454371,96.4493011 C104.13992,96.3199521 110.56038,94.4266779 116.394563,84.4027049 L77.0004145,83.0313898 Z" transform="translate(0 .646)"/></svg>