<svg xmlns="http://www.w3.org/2000/svg" width="128" height="46" viewBox="0 0 128 46"><g fill="none"><polygon fill="#FFF" points="0 45.444 0 0 128 0 128 45.444"/><path fill="#000" d="M63.7998772,43.9289941 C80.8262479,43.9289941 98.0507937,41.9760252 113.893195,35.4175042 C118.968802,33.3215644 125.727811,29.3299892 125.727811,23.1002288 C125.727811,16.8559537 118.95501,12.8788933 113.893195,10.7829535 C98.0507937,4.22515824 80.8255219,2.27218935 63.7998772,2.27218935 C46.8170616,2.27218935 29.3638521,4.09670209 13.6063834,10.7829535 C8.92930365,12.7642262 1.5147929,17.2122925 1.5147929,23.1002288 C1.5147929,28.9736503 8.91551124,33.4355057 13.6063834,35.4175042 C29.3631262,42.1037556 46.830854,43.9289941 63.7998772,43.9289941 L63.7998772,43.9289941 Z"/><path fill="#FFF" d="M82.6182392,24.8339299 C82.2877066,24.6177267 81.9301768,24.4594219 81.5281383,24.4594219 L75.5800107,24.4594219 L75.5800107,25.4385661 L83.43545,25.4385661 C83.8214362,25.4385661 84.1804253,25.2795285 84.5102283,25.078716 L84.5102283,31.0525215 L64.6301148,31.0525215 C64.9737812,30.7644949 65.2889911,30.4046447 65.2889911,29.9436554 L65.2889911,14.7559272 C65.2889911,14.2817458 64.9737812,13.9211628 64.6301148,13.6331361 L84.5094986,13.6331361 L84.5094986,19.0316212 C84.1804253,18.8161508 83.8214362,18.6571132 83.4347204,18.6571132 L75.579281,18.6571132 L75.579281,19.7945621 L81.5274086,19.7945621 C81.9294472,19.7945621 82.2869769,19.6501823 82.6175095,19.420787 L82.6175095,24.8339299 L82.6182392,24.8339299 Z M101.607447,27.5690842 L97.2083716,27.5690842 L96.3335182,30.1745165 C96.3043156,30.2676861 96.2897904,30.3648678 96.2904687,30.4625432 C96.2904687,30.6787464 96.3619746,30.8663669 96.4626667,31.0532544 L86.3285224,31.0532544 C86.5576333,30.8231262 86.7159679,30.5790731 86.8305234,30.2756557 L92.2343302,15.6339322 C92.3642083,15.2740821 92.4780341,14.8856491 92.4780341,14.5111411 C92.4780341,14.1945316 92.3642083,13.9065049 92.2343302,13.6331361 L108.61576,13.6331361 C108.487341,13.9211628 108.358922,14.2091895 108.358922,14.525799 C108.358922,14.9142319 108.472748,15.2887399 108.61576,15.6339322 L114.57848,30.2756557 C114.693765,30.592998 114.866693,30.8223933 115.12426,31.0532544 L102.468437,31.0532544 C102.553806,30.8377841 102.612178,30.6215808 102.612178,30.3914526 C102.612178,30.2617307 102.596856,30.1466666 102.553806,30.0316025 L101.607447,27.5690842 Z M46.0830766,24.6602344 L46.0830766,29.9289976 C46.0830766,30.4039118 46.3844231,30.749837 46.7280895,31.0517887 L34.7318719,31.0517887 C35.0616748,30.749837 35.3768847,30.4039118 35.3768847,29.9289976 L35.3768847,14.770585 C35.3768847,14.2817458 35.0616748,13.9497456 34.7318719,13.6331361 L46.7288191,13.6331361 C46.3844231,13.9358206 46.0838063,14.2810129 46.0838063,14.770585 L46.0838063,20.0107654 L49.5664379,14.770585 C49.66713,14.6122803 49.7524993,14.4253927 49.7524993,14.2231144 C49.7524993,14.021569 49.6525369,13.8200236 49.5664379,13.6331361 L61.4057802,13.6331361 C60.8967543,13.8997433 60.4628605,14.2909481 60.1442109,14.770585 L55.9873804,20.8316048 L61.7202605,29.9297305 C62.021607,30.4193026 62.4367793,30.7791527 62.9526436,31.0525215 L49.165129,31.0525215 C49.2650914,30.9088746 49.3942399,30.7505699 49.3942399,30.5783402 C49.3942399,30.348212 49.2796845,30.1173509 49.165129,29.9297305 L46.0830766,24.6602344 L46.0830766,24.6602344 Z M18.1775148,13.6331361 L30.4604858,13.6331361 C30.1168195,13.9358206 29.815473,14.2663551 29.815473,14.7559272 L29.815473,29.9297305 C29.815473,30.4046447 30.1168195,30.7505699 30.4604858,31.0525215 L18.1775148,31.0525215 C18.5073177,30.7505699 18.8079346,30.4046447 18.8079346,29.9297305 L18.8079346,14.7559272 C18.8079346,14.2663551 18.5073177,13.9358206 18.1775148,13.6331361 Z"/><polygon fill="#000" points="97.704 24.237 99.976 24.237 98.799 21.207"/></g></svg>