<svg xmlns="http://www.w3.org/2000/svg" width="128" height="31" viewBox="0 0 128 31"><path fill="#FFF" d="M27.3406352,0.000368230993 C24.1819221,-0.0277914778 21.1987325,1.56851358 21.1987325,1.56851358 C21.1987242,1.56851358 18.193221,3.38870799 17.0954189,6.11613511 C17.0385391,6.38114749 11.084195,17.9294968 11.084195,17.9294968 C3.53670724,15.7469479 -0.112362812,20.1691261 0.00263451364,21.8759959 C1.82608229,26.4503804 10.7426488,23.196483 11.6330459,22.1373535 C12.1257697,21.87296 12.4432543,22.189625 12.4432543,22.189625 C12.4432543,22.189625 14.6270577,23.6432915 14.8738796,23.7577703 C15.1203837,23.8722408 16.3636177,23.7054988 16.3636177,23.7054988 C17.3305319,23.6320093 19.05591,21.7373719 19.2646866,21.7191814 C19.5870889,21.7201181 19.9759973,23.8181962 21.3032756,23.7839061 C22.8958756,24.0916808 24.6225166,22.294168 24.6225166,22.294168 C24.8497931,21.9725937 24.9361456,22.2157607 24.9361456,22.2157607 C24.8995472,24.1873418 26.5007365,23.8394143 26.9747346,23.7839061 C28.5482242,23.1434755 32.4022906,19.3464729 31.966664,20.4646651 C31.8152773,20.7677311 30.6337404,22.9736977 30.6337404,22.9736977 C30.5014809,23.5612294 30.9212337,23.5225485 30.9212337,23.5225485 L33.6916239,23.4964128 C34.1654045,23.2132099 36.5891383,17.9935858 36.3051994,18.7135694 C37.1787609,17.1328706 39.1539968,16.5704375 39.1539968,16.5704375 C39.3437299,16.514093 39.2585399,16.7795235 39.2585399,16.7795235 L36.0177061,23.2089195 C35.9611442,23.3790068 36.2790637,23.5486843 36.2790637,23.5486843 L39.1017253,23.4964128 C39.4808987,23.4597224 41.8459797,18.6090264 41.8459797,18.6090264 C42.4896636,17.3782372 44.7731844,16.6749805 44.7731844,16.6749805 C45.1900099,16.6002364 44.9038631,17.0147453 44.9038631,17.0147453 L42.6823239,21.6669099 C42.3446583,23.7789884 44.1193723,23.9027757 44.8777274,23.8100418 C45.6361912,23.6984903 46.869272,23.2714362 49.2946701,21.4578238 C49.7877034,21.0804235 49.8957925,21.4601238 49.8957925,21.5362311 C49.9166007,24.1335983 52.7707257,23.8361776 52.7707257,23.8361776 C53.6239055,24.0471371 57.0873071,23.9655015 59.9841943,18.1908543 C58.9250647,22.1123719 61.0844051,23.1802747 61.1603033,23.3134625 C61.2363103,23.4461234 62.397156,23.8514409 62.8329917,23.7577703 C67.2508711,24.1493885 69.1055731,17.2761029 69.1055731,17.2761029 C70.0995765,16.5302929 70.3521441,16.3162976 70.7521257,16.0999939 C71.7382926,16.1971185 72.0029872,16.2249186 72.4770856,16.2829441 C72.8561586,16.4168596 72.5126302,16.7707419 72.3986783,16.8840665 C67.888801,20.3982845 69.8684193,23.1082403 70.0203245,23.0521049 C71.9939965,25.7308066 76.0906194,21.0613967 76.8678926,20.9873802 C77.8566605,24.9339797 80.8643633,23.2158193 80.997342,23.2350552 C80.7324216,24.0116008 79.9610112,25.9320561 79.2985179,27.1815544 C77.9156144,29.1306545 75.7440551,26.9463326 75.7440551,26.9463326 L75.1952042,26.9201968 C74.9301918,27.2606892 75.0906612,27.651998 75.0906612,27.651998 C75.6598938,28.5637219 76.3886674,29.8253387 78.645124,30.1348948 C80.9203064,30.2360841 82.2257225,27.7304052 82.2257225,27.7304052 C82.2257225,27.7304052 85.4153302,21.8452603 85.6233708,21.1441947 C86.5896494,20.2747062 88.266737,19.0192532 89.5175984,18.1124471 C90.3326158,17.9442332 87.477964,22.5982795 87.2699234,23.261191 C87.2132695,23.6403643 87.3483307,23.6532273 87.3483307,23.6532273 C87.3483391,23.6532273 89.5187442,23.7612161 89.9357705,23.7054988 C90.3526797,23.6498736 92.3783137,18.8376578 93.098197,17.9294968 C93.7231635,16.8884573 95.7379083,15.9170436 95.7379083,15.9170436 C96.1739531,15.8234817 96.0254016,16.3352157 96.0254016,16.3352157 L93.3595545,21.7191814 C92.7166233,23.9732377 94.526882,23.9849381 94.8492926,23.9668564 C95.7213905,23.9120842 98.9787421,22.0328104 98.9787421,22.0328104 C99.4334039,21.6926274 99.4230499,22.2418965 99.4230499,22.2418965 C99.3855232,22.962407 100.163633,24.1428065 100.808245,23.9929921 C103.121372,24.2077235 106.6199,20.3652405 106.714926,20.7260227 C106.734153,20.8018122 105.408138,23.4180055 105.408138,23.4180055 C105.465227,23.6267737 105.695631,23.7316346 105.695631,23.7316346 C105.695623,23.7316262 107.935361,23.7563067 108.466021,23.7577703 C108.996891,23.759443 111.411525,17.9890863 111.942077,17.6681392 C113.022115,16.5526735 114.203869,16.4466585 114.242024,16.4658944 C114.640215,16.4481138 111.988494,20.6836785 111.837534,21.5362311 C111.251666,23.9806561 112.987507,23.9407206 112.987507,23.9407206 C114.371548,24.1533695 117.765542,21.7458357 117.822622,21.9544032 C118.220312,21.5576582 118.26693,22.0328104 118.26693,22.0328104 L118.26693,22.2157607 C118.49618,24.1885963 119.652125,23.9668564 119.652125,23.9668564 C120.97952,24.311748 126.159928,19.9680857 126.159928,19.9680857 L125.375856,19.1056058 L122.135022,21.4578238 C121.8698,21.5900666 121.71685,21.3010093 121.71685,21.3010093 L125.34972,14.2966267 C125.520108,14.126531 125.271312,13.9307261 125.271312,13.9307261 L122.004343,13.9307261 C121.776749,14.1765026 121.638442,14.3488982 121.638442,14.3488982 L118.685102,20.0987645 L115.444268,21.6930456 C115.103031,21.7867162 115.182911,21.4316881 115.182911,21.4316881 C115.182902,21.4316964 117.883048,16.1330295 118.110115,15.3943284 C118.261611,15.0535182 118.188523,14.5057127 118.188523,14.5057127 C117.295834,12.4363881 113.689618,15.1154077 113.196593,15.1329709 C113.177458,15.151889 113.640901,14.1920837 113.640901,14.1920837 C113.773353,13.9079357 113.510222,13.9045904 113.510222,13.9045904 L110.478475,13.8784546 C110.478475,13.8784546 110.487465,13.663096 110.373932,13.8523189 C110.260189,14.0416504 108.309207,17.694275 108.309207,17.694275 L103.421821,21.3794165 C103.004686,21.4543697 103.108191,21.1703305 103.108191,21.1703305 L106.68879,14.2443552 L106.714926,13.9568619 L103.265006,13.8784546 L100.416209,19.3669633 C100.264713,19.5371594 97.2799179,21.222602 97.2799179,21.222602 C96.824838,21.3544349 96.8094743,20.9612445 96.8094743,20.9612445 L99.4491857,15.8386363 C100.04718,13.8402922 97.8638953,13.2527604 96.7833386,13.6432328 C96.0528839,13.9064721 95.3720078,14.1398122 95.3720078,14.1398122 C95.3720078,14.1398122 95.156231,14.1959476 95.345872,13.9307261 C95.6676554,13.4765912 99.0048778,6.87407203 99.0048778,6.87407203 C99.0807761,6.68443099 98.9003348,6.56044296 98.9003348,6.56044296 L95.8685871,6.5343072 C95.6220663,6.64700458 95.5810938,6.82180052 95.5810938,6.82180052 L91.2686941,15.0022921 L87.7142313,17.6681392 C87.4867373,17.8193084 87.4790095,17.5635962 87.4790095,17.5635962 L89.2562409,14.1920837 L89.2562409,13.8523189 L86.0676787,13.8261831 L85.5449635,14.2443552 C85.1842985,13.4849547 83.354369,13.4937363 83.2972885,13.512554 C79.467359,13.3879387 77.3122004,18.8181125 77.3122004,18.8181125 C75.1810784,20.6655968 74.1965089,21.2404747 73.4963801,21.3532808 C72.9140838,21.3859986 72.7384432,20.9089729 72.7384432,20.9089729 C71.9269886,18.4230402 77.0247071,16.0738581 77.0247071,16.0738581 C77.1953297,15.9792508 77.9299493,13.7741207 77.8349156,13.7739116 C77.7400992,13.7737025 71.566934,13.7668027 71.5100626,13.7477758 C71.1686251,13.6143789 69.5198813,15.1660065 69.0271658,15.5250072 C67.5833179,11.2928965 61.9888026,14.4936861 61.2125748,16.3874872 C60.8791913,16.4764575 60.7297951,16.4144593 60.5591809,16.4136229 C60.6153163,14.9730201 60.4240026,14.074686 59.5137507,13.617097 C59.0205083,13.350412 57.0047181,13.617097 57.0047181,13.617097 L60.4285021,6.79566476 C60.5989156,6.58741506 60.2716876,6.37749267 60.2716876,6.37749267 L57.1876684,6.37749267 C57.0549071,6.45308146 56.9001751,6.63885023 56.9001751,6.63885023 C56.9001751,6.63885023 51.072947,17.9246878 50.7321367,18.5306192 C50.3913348,19.1362411 46.1322437,21.4055523 46.1322437,21.4055523 C46.1696701,20.9887435 48.912879,16.2187547 49.0071768,15.2897854 C49.1190462,12.8823687 46.3674655,13.6432328 46.3674655,13.6432328 C46.3674571,13.6432328 44.8092475,14.6775815 43.3879893,15.3943284 C43.0826149,12.7578621 40.7744137,13.6693686 40.7744137,13.6693686 L38.1608381,15.3681927 L38.6312817,14.1398122 L38.7358247,13.6693686 L35.599534,13.5909613 C35.2397973,13.8554551 34.6063753,15.2897854 34.6063753,15.2897854 L33.6132166,17.1192883 L29.1440023,20.4908008 C28.708175,20.7359501 28.9349163,20.151036 28.9349163,20.151036 C28.9349163,20.151036 31.952237,14.2328555 32.0189355,14.1920837 C32.2651301,14.0408057 32.071207,13.6693686 32.071207,13.6693686 L29.0394593,13.6432328 C29.0394593,13.6432328 28.525944,14.5154394 28.4122012,14.6102558 C26.9698085,12.5772034 22.2096636,13.4022653 19.6567229,19.4192349 C19.3303313,19.8214077 19.0779728,20.1030466 18.898786,20.1771718 C15.9055185,23.6764442 14.19435,20.2033075 14.19435,20.2033075 L19.5521799,9.98422698 C19.5521799,9.98422698 21.9900145,4.53021744 23.5248148,2.9798444 C27.4097256,0.355287614 28.5167442,2.82302987 28.5167442,2.82302987 C28.8524277,3.60082996 29.8760126,6.40864649 24.5963808,7.76268773 C23.9037791,7.83115923 24.1259372,8.15472407 24.1259372,8.15472407 C25.6626109,9.46715719 27.5497212,9.33083308 27.5497212,9.33083308 C29.4079693,9.69610641 34.443606,6.92508903 32.6200579,2.48326504 C31.1967673,0.623678828 29.2358664,0.0172623836 27.3406352,0.000368230993 Z M107.080826,6.92634354 C104.312937,7.03224981 104.151004,10.747182 106.976283,11.1342002 C109.725238,11.2178347 110.247644,7.04918578 107.080826,6.92634354 Z M125.924706,6.92634354 C122.929022,6.93700693 123.152225,11.1640995 125.976978,11.1342002 C128.801822,10.9147686 128.560336,7.02837753 125.924706,6.92634354 Z M27.0270061,14.8454776 C27.9131211,14.8657338 27.7582553,15.9274477 27.6019927,16.1261296 C27.6970265,16.4487494 26.0599831,19.2101488 26.0599831,19.2101488 C24.1658643,21.574912 23.2634573,21.1441947 23.2634573,21.1441947 C23.2634489,21.1441947 22.6143454,21.0539783 23.1066427,19.7851354 C23.6367678,18.8954743 24.6666337,16.5805823 25.7463541,15.2375139 C26.3149343,14.9451865 26.7316344,14.8387283 27.0270061,14.8454776 Z M56.7433605,15.1068351 C57.6725306,15.2233964 57.2138042,16.0738581 57.2138042,16.0738581 L54.6525001,21.118059 C53.8380012,22.1208357 53.0843547,21.7714529 53.0843547,21.7714529 C52.6672364,21.4666054 53.371848,20.3078506 53.371848,20.3078506 L55.7763376,15.6034145 C56.2498088,15.1116441 56.7433605,15.1068351 56.7433605,15.1068351 Z M83.4018316,15.1329709 C84.1270172,15.0043328 84.421126,15.6034145 84.421126,15.6034145 C84.4211344,15.6034145 84.4633614,15.6998032 84.3688545,16.2306726 C84.1609226,17.045481 81.9120935,20.9351087 81.9120935,20.9351087 C80.965034,21.8806042 80.1348621,21.6930456 80.1348621,21.6930456 C79.660864,21.5589211 79.8473688,20.8567014 79.8473688,20.8567014 C79.8473771,20.8567014 81.6683995,17.1224246 82.5393516,15.551143 C82.8804797,15.300867 83.160103,15.1758503 83.4018316,15.1329709 Z M65.9692824,15.1591066 C66.3697574,15.0915049 66.7501686,15.2565909 66.6749478,16.0999939 C66.2018948,17.1035065 64.3355927,20.7902121 63.9568292,21.3010093 C63.881232,21.7370624 61.9753207,22.4478462 62.4670911,20.8567014 C62.4670995,20.8566931 65.1403566,15.8569271 65.1590739,15.6295503 C65.1684243,15.5158074 65.5688073,15.2267083 65.9692824,15.1591066 Z M5.77863657,19.2624203 C7.34136241,19.2251696 8.75811274,19.7328639 8.75811274,19.7328639 C8.75811274,19.7328723 8.39252996,20.9510996 4.94229238,21.5100953 C3.31173066,21.4110973 2.45981374,21.4185156 2.45939557,20.8305657 C3.25485925,19.6467456 4.56318592,19.2913913 5.77863657,19.2624203 Z"/></svg>