<svg xmlns="http://www.w3.org/2000/svg" width="128" height="128" viewBox="0 0 128 128"><path fill="#FFF" d="M93.76,7.2 C84.8,2.56 74.72,0 64,0 C53.28,0 43.2,2.56 34.24,7.2 L34.24,7.2 C13.92,17.92 0,39.36 0,64 C0,88.64 13.92,110.08 34.4,120.8 C43.2,125.28 53.28,128 64,128 C74.72,128 84.64,125.28 93.6,120.64 C114.08,110.08 128,88.64 128,64 C128,39.36 114.08,17.92 93.76,7.2 Z M6.4,64 C6.4,43.04 17.6,24.8 34.4,14.56 L34.4,14.56 C42.56,9.6 52,6.72 62.4,6.4 L55.2,58.72 L34.4,74.88 L34.4,74.88 L13.28,91.36 C8.96,83.2 6.4,73.92 6.4,64 Z M93.76,113.28 C84.96,118.56 74.88,121.6 64,121.6 C53.12,121.6 42.88,118.56 34.24,113.28 C26.4,108.64 20,102.24 15.2,94.56 L34.24,86.72 L34.24,86.72 L64,74.56 L93.76,86.56 L93.76,86.56 L112.96,94.4 C108.16,102.24 101.44,108.64 93.76,113.28 Z M93.76,74.88 L93.76,74.88 L73.12,58.88 L65.76,6.4 C75.84,6.72 85.44,9.6 93.6,14.56 L93.6,14.56 C110.4,24.64 121.6,43.04 121.6,64 C121.6,73.92 119.2,83.2 114.72,91.36 L93.76,74.88 Z"/></svg>