<svg xmlns="http://www.w3.org/2000/svg" width="128" height="33" viewBox="0 0 128 33"><path fill="#FFF" d="M92.5307878 31.9741625C87.4568978 31.7037342 84.1436636 30.7810967 80.3182386 28.5381331 74.9882532 25.4202545 73.6277464 20.107135 77.3091177 16.7824584 78.0934099 16.098434 79.0857795 15.5098549 81.9828587 14.0463609 86.3364804 11.8670275 87.4088799 11.2307257 88.3212197 10.244458 88.9774642 9.52861857 88.9934701 9.49680348 88.9294463 8.57416596 88.8494165 7.38110019 88.2411899 6.5061853 87.1207726 5.86988356 85.8242896 5.1540441 84.6398484 4.91543095 81.838805 4.81998569 78.2854814 4.69272534 75.1643188 4.94724603 69.4341843 5.7744383 69.2741247 5.79034584 68.9700114 5.20176673 68.4578207 3.81781044 68.0416656 2.72018994 67.6893758 1.74982979 67.6893758 1.65438453 67.6575225 1.32032611 72.4753172.604486654 76.7168971.302243327 80.0781492.0636301741 86.3044685.206798066 88.6093271.556764023 94.4515033 1.463494 99.9895662 4.62909516 101.606168 8.01740193 103.014693 10.976205 102.47049 13.6804874 100.069596 15.6371153 99.4773754 16.1143416 97.7007136 17.1165168 95.3638431 18.293675 91.2983287 20.3457482 89.5856907 21.4115536 89.0094761 22.2546534 88.5453032 22.9386778 88.5292972 23.9726681 88.9614582 24.7998603 90.0658696 26.9632863 93.1070024 27.7109408 99.4773754 27.3609749 102.198389 27.217807 105.847748 26.8360259 107.848494 26.48606L108.408702 26.3747072 109.112965 28.3472426C109.497108 29.4289555 109.849239 30.3834081 109.881251 30.4947609 109.977287 30.7333741 109.753203 30.7970043 107.448345 31.1787853 103.350818 31.8787172 97.092487 32.2127756 92.5307878 31.9741625ZM5.81048465 16.1620642C2.64130413 7.42882282.0163263332.238613153-2.4958209e-14.159075435-.0316915533.0636301741 2.33719085 0 6.25865159 0L12.5650007 0 15.6541514 8.44690561C19.3035108 18.3891203 19.5436002 18.8663466 22.4886972 21.6342592 24.5694723 23.590887 26.8583249 24.5294321 29.5793385 24.5612472 31.1639288 24.5771547 31.9962388 24.2590039 32.4924236 23.4795342 32.748519 23.0659381 32.7805309 22.7955099 32.7165071 21.8728723 32.6524832 20.9184197 32.1242865 19.3117578 28.9711119 10.7375919 26.9543607 5.23358182 25.2577287.556764023 25.1937049.365873501L25.0816631 0 31.3239884 0C37.2301884 0 37.5823196.0159075435 37.7263733.286335783 37.822409.445411219 39.1829158 4.13596132 40.783512 8.49462824 42.3681023 12.8373876 43.8726627 16.8142735 44.1287581 17.3074074 45.1851516 19.3912956 48.1462546 22.5091741 49.9069105 23.384089 52.211769 24.5294321 55.3809495 24.9271207 56.7254504 24.2271888 57.6217843 23.7499625 57.9739154 22.9864004 57.8618737 21.8092422 57.8138558 21.188848 56.6294146 17.7687261 54.0044368 10.6103315 51.9236617 4.94724603 50.2270297.286335783 50.2270297.238613153 50.2270297.190890522 53.060085.159075435 56.5173729.159075435L62.807716.159075435 67.0813079 11.6920445C70.7306673 21.5388139 71.3709058 23.3999965 71.4509356 24.3862642 71.7550489 27.9813691 69.7382976 30.5424836 65.752813 31.608289 64.1362109 32.0377927 59.6705474 31.99007 57.4457187 31.5128437 54.1164785 30.8129118 50.6751967 29.4766781 47.4419923 27.6314031L46.1775213 26.9155636 45.7293543 27.8382012C44.7369847 29.9220894 42.4001142 31.3855834 39.3909933 31.815087 34.3331093 32.5309265 27.8667005 30.9083571 21.8004409 27.3768824L20.9841368 26.9155636 20.5679818 27.8382012C19.7836896 29.5084932 17.6869086 31.051525 15.4620798 31.5764739 14.9018712 31.7037342 13.8134657 31.8469021 13.0131676 31.9105323L11.572631 32.0059776 5.81048465 16.1620642ZM123.694396 31.7991795C121.389538 31.6401041 118.124321 31.2424155 116.283636 30.8924495L114.859105 30.6220213 114.058807 28.4108727C113.626646 27.2018994 113.306527 26.1838166 113.338539 26.1520015 113.370551 26.1201865 114.234873 26.2315393 115.259254 26.4065222 117.69216 26.8201184 121.117436 27.1700843 124.030521 27.2973447L126.383398 27.4086975 126.543457 27.9018313C126.623487 28.1722596 126.991624 29.2062499 127.359762 30.1925176L128 31.9741625 126.767541 31.9582549C126.09529 31.9423474 124.702772 31.8628097 123.694396 31.7991795ZM121.853711 24.0681133C118.348405 23.7976851 116.683785 23.6227021 114.587004 23.2886437 113.226497 23.0818456 112.090074 22.8750476 112.058062 22.8432325 111.962026 22.7477872 103.847003.461318762 103.847003.286335783 103.847003.222705609 106.680058.159075435 110.137346.159075435L116.411683.159075435 120.733293 12.0261029C123.118182 18.5641033 125.086915 23.9726681 125.102921 24.0362983 125.150939 24.1635586 123.294247 24.1953737 121.853711 24.0681133Z" transform="matrix(1 0 0 -1 0 32.05)"/></svg>