<svg xmlns="http://www.w3.org/2000/svg" width="128" height="23" viewBox="0 0 128 23"><path fill="#FFF" d="M1.64167197,3.28334394 C2.56074974,3.28334394 3.28334394,2.5620424 3.28334394,1.64167197 C3.28334394,0.723886852 2.56074974,0 1.64167197,0 C0.723886852,0 0,0.723886852 0,1.64167197 C0,2.5620424 0.723886852,3.28334394 1.64167197,3.28334394 Z M14.7750477,3.28334394 C15.6941255,3.28334394 16.4167197,2.5620424 16.4167197,1.64167197 C16.4167197,0.723886852 15.6941255,0 14.7750477,0 C13.8572626,0 13.1333757,0.723886852 13.1333757,1.64167197 C13.1333757,2.5620424 13.8572626,3.28334394 14.7750477,3.28334394 Z M1.64167197,8.20835984 C2.56074974,8.20835984 3.28334394,7.4870583 3.28334394,6.56668787 C3.28334394,5.64890276 2.56074974,4.92501591 1.64167197,4.92501591 C0.723886852,4.92501591 0,5.64890276 0,6.56668787 C0,7.4870583 0.723886852,8.20835984 1.64167197,8.20835984 Z M4.92501591,8.20835984 C5.84409368,8.20835984 6.56668787,7.4870583 6.56668787,6.56668787 C6.56668787,5.64890276 5.84409368,4.92501591 4.92501591,4.92501591 C4.00723079,4.92501591 3.28334394,5.64890276 3.28334394,6.56668787 C3.28334394,7.4870583 4.00723079,8.20835984 4.92501591,8.20835984 Z M14.7750477,8.20835984 C15.6941255,8.20835984 16.4167197,7.4870583 16.4167197,6.56668787 C16.4167197,5.64890276 15.6941255,4.92501591 14.7750477,4.92501591 C13.8572626,4.92501591 13.1333757,5.64890276 13.1333757,6.56668787 C13.1333757,7.4870583 13.8572626,8.20835984 14.7750477,8.20835984 Z M1.64167197,13.1333757 C2.56074974,13.1333757 3.28334394,12.4120742 3.28334394,11.4917038 C3.28334394,10.5739187 2.56074974,9.85003181 1.64167197,9.85003181 C0.723886852,9.85003181 0,10.5739187 0,11.4917038 C0,12.4120742 0.723886852,13.1333757 1.64167197,13.1333757 Z M8.20835984,13.1333757 C9.12743761,13.1333757 9.85003181,12.4120742 9.85003181,11.4917038 C9.85003181,10.5739187 9.12743761,9.85003181 8.20835984,9.85003181 C7.29057473,9.85003181 6.56668787,10.5739187 6.56668787,11.4917038 C6.56668787,12.4120742 7.29057473,13.1333757 8.20835984,13.1333757 L8.20835984,13.1333757 Z M14.7750477,13.1333757 C15.6941255,13.1333757 16.4167197,12.4120742 16.4167197,11.4917038 C16.4167197,10.5739187 15.6941255,9.85003181 14.7750477,9.85003181 C13.8572626,9.85003181 13.1333757,10.5739187 13.1333757,11.4917038 C13.1333757,12.4120742 13.8572626,13.1333757 14.7750477,13.1333757 Z M1.64167197,18.0583917 C2.56074974,18.0583917 3.28334394,17.3370901 3.28334394,16.4167197 C3.28334394,15.4989346 2.56074974,14.7750477 1.64167197,14.7750477 C0.723886852,14.7750477 0,15.4989346 0,16.4167197 C0,17.3370901 0.723886852,18.0583917 1.64167197,18.0583917 Z M11.4917038,18.0583917 C12.4107816,18.0583917 13.1333757,17.3370901 13.1333757,16.4167197 C13.1333757,15.4989346 12.4107816,14.7750477 11.4917038,14.7750477 C10.5739187,14.7750477 9.85003181,15.4989346 9.85003181,16.4167197 C9.85003181,17.3370901 10.5739187,18.0583917 11.4917038,18.0583917 Z M14.7750477,18.0583917 C15.6941255,18.0583917 16.4167197,17.3370901 16.4167197,16.4167197 C16.4167197,15.4989346 15.6941255,14.7750477 14.7750477,14.7750477 C13.8572626,14.7750477 13.1333757,15.4989346 13.1333757,16.4167197 C13.1333757,17.3370901 13.8572626,18.0583917 14.7750477,18.0583917 Z M1.64167197,22.9834076 C2.56074974,22.9834076 3.28334394,22.262106 3.28334394,21.3417356 C3.28334394,20.4239505 2.56074974,19.7000636 1.64167197,19.7000636 C0.723886852,19.7000636 0,20.4239505 0,21.3417356 C0,22.262106 0.723886852,22.9834076 1.64167197,22.9834076 Z M14.7750477,22.9834076 C15.6941255,22.9834076 16.4167197,22.262106 16.4167197,21.3417356 C16.4167197,20.4239505 15.6941255,19.7000636 14.7750477,19.7000636 C13.8572626,19.7000636 13.1333757,20.4239505 13.1333757,21.3417356 C13.1333757,22.262106 13.8572626,22.9834076 14.7750477,22.9834076 Z M24.612153,3.28334394 C25.5325234,3.28334394 26.2538249,2.5620424 26.2538249,1.64167197 C26.2538249,0.723886852 25.5325234,0 24.612153,0 C23.6943679,0 22.970481,0.723886852 22.970481,1.64167197 C22.970481,2.5620424 23.6943679,3.28334394 24.612153,3.28334394 Z M27.8954969,3.28334394 C28.8158673,3.28334394 29.5371689,2.5620424 29.5371689,1.64167197 C29.5371689,0.723886852 28.8158673,0 27.8954969,0 C26.9777118,0 26.2538249,0.723886852 26.2538249,1.64167197 C26.2538249,2.5620424 26.9777118,3.28334394 27.8954969,3.28334394 Z M31.1788409,3.28334394 C32.0992113,3.28334394 32.8205128,2.5620424 32.8205128,1.64167197 C32.8205128,0.723886852 32.0992113,0 31.1788409,0 C30.2610557,0 29.5371689,0.723886852 29.5371689,1.64167197 C29.5371689,2.5620424 30.2610557,3.28334394 31.1788409,3.28334394 Z M21.328809,8.20835984 C22.2491795,8.20835984 22.970481,7.4870583 22.970481,6.56668787 C22.970481,5.64890276 22.2491795,4.92501591 21.328809,4.92501591 C20.4110239,4.92501591 19.6871371,5.64890276 19.6871371,6.56668787 C19.6871371,7.4870583 20.4110239,8.20835984 21.328809,8.20835984 Z M34.4621848,8.20835984 C35.3825552,8.20835984 36.1038568,7.4870583 36.1038568,6.56668787 C36.1038568,5.64890276 35.3825552,4.92501591 34.4621848,4.92501591 C33.5443997,4.92501591 32.8205128,5.64890276 32.8205128,6.56668787 C32.8205128,7.4870583 33.5443997,8.20835984 34.4621848,8.20835984 Z M21.328809,13.1333757 C22.2491795,13.1333757 22.970481,12.4120742 22.970481,11.4917038 C22.970481,10.5739187 22.2491795,9.85003181 21.328809,9.85003181 C20.4110239,9.85003181 19.6871371,10.5739187 19.6871371,11.4917038 C19.6871371,12.4120742 20.4110239,13.1333757 21.328809,13.1333757 Z M34.4621848,13.1333757 C35.3825552,13.1333757 36.1038568,12.4120742 36.1038568,11.4917038 C36.1038568,10.5739187 35.3825552,9.85003181 34.4621848,9.85003181 C33.5443997,9.85003181 32.8205128,10.5739187 32.8205128,11.4917038 C32.8205128,12.4120742 33.5443997,13.1333757 34.4621848,13.1333757 Z M21.328809,18.0583917 C22.2491795,18.0583917 22.970481,17.3370901 22.970481,16.4167197 C22.970481,15.4989346 22.2491795,14.7750477 21.328809,14.7750477 C20.4110239,14.7750477 19.6871371,15.4989346 19.6871371,16.4167197 C19.6871371,17.3370901 20.4110239,18.0583917 21.328809,18.0583917 Z M34.4621848,18.0583917 C35.3825552,18.0583917 36.1038568,17.3370901 36.1038568,16.4167197 C36.1038568,15.4989346 35.3825552,14.7750477 34.4621848,14.7750477 C33.5443997,14.7750477 32.8205128,15.4989346 32.8205128,16.4167197 C32.8205128,17.3370901 33.5443997,18.0583917 34.4621848,18.0583917 Z M24.612153,22.9834076 C25.5325234,22.9834076 26.2538249,22.262106 26.2538249,21.3417356 C26.2538249,20.4239505 25.5325234,19.7000636 24.612153,19.7000636 C23.6943679,19.7000636 22.970481,20.4239505 22.970481,21.3417356 C22.970481,22.262106 23.6943679,22.9834076 24.612153,22.9834076 Z M27.8954969,22.9834076 C28.8158673,22.9834076 29.5371689,22.262106 29.5371689,21.3417356 C29.5371689,20.4239505 28.8158673,19.7000636 27.8954969,19.7000636 C26.9777118,19.7000636 26.2538249,20.4239505 26.2538249,21.3417356 C26.2538249,22.262106 26.9777118,22.9834076 27.8954969,22.9834076 Z M31.1788409,22.9834076 C32.0992113,22.9834076 32.8205128,22.262106 32.8205128,21.3417356 C32.8205128,20.4239505 32.0992113,19.7000636 31.1788409,19.7000636 C30.2610557,19.7000636 29.5371689,20.4239505 29.5371689,21.3417356 C29.5371689,22.262106 30.2610557,22.9834076 31.1788409,22.9834076 Z M41.0159461,3.28334394 C41.9363165,3.28334394 42.6576181,2.5620424 42.6576181,1.64167197 C42.6576181,0.723886852 41.9363165,0 41.0159461,0 C40.098161,0 39.3742741,0.723886852 39.3742741,1.64167197 C39.3742741,2.5620424 40.098161,3.28334394 41.0159461,3.28334394 Z M44.29929,3.28334394 C45.2196605,3.28334394 45.940962,2.5620424 45.940962,1.64167197 C45.940962,0.723886852 45.2196605,0 44.29929,0 C43.3815049,0 42.6576181,0.723886852 42.6576181,1.64167197 C42.6576181,2.5620424 43.3815049,3.28334394 44.29929,3.28334394 Z M47.582634,3.28334394 C48.5030044,3.28334394 49.224306,2.5620424 49.224306,1.64167197 C49.224306,0.723886852 48.5030044,0 47.582634,0 C46.6648489,0 45.940962,0.723886852 45.940962,1.64167197 C45.940962,2.5620424 46.6648489,3.28334394 47.582634,3.28334394 Z M50.8659779,3.28334394 C51.7863484,3.28334394 52.5076499,2.5620424 52.5076499,1.64167197 C52.5076499,0.723886852 51.7863484,0 50.8659779,0 C49.9481928,0 49.224306,0.723886852 49.224306,1.64167197 C49.224306,2.5620424 49.9481928,3.28334394 50.8659779,3.28334394 Z M54.1493219,3.28334394 C55.0696923,3.28334394 55.7909938,2.5620424 55.7909938,1.64167197 C55.7909938,0.723886852 55.0696923,0 54.1493219,0 C53.2315367,0 52.5076499,0.723886852 52.5076499,1.64167197 C52.5076499,2.5620424 53.2315367,3.28334394 54.1493219,3.28334394 Z M47.582634,8.20835984 C48.5030044,8.20835984 49.224306,7.4870583 49.224306,6.56668787 C49.224306,5.64890276 48.5030044,4.92501591 47.582634,4.92501591 C46.6648489,4.92501591 45.940962,5.64890276 45.940962,6.56668787 C45.940962,7.4870583 46.6648489,8.20835984 47.582634,8.20835984 Z M47.582634,13.1333757 C48.5030044,13.1333757 49.224306,12.4120742 49.224306,11.4917038 C49.224306,10.5739187 48.5030044,9.85003181 47.582634,9.85003181 C46.6648489,9.85003181 45.940962,10.5739187 45.940962,11.4917038 C45.940962,12.4120742 46.6648489,13.1333757 47.582634,13.1333757 Z M47.582634,18.0583917 C48.5030044,18.0583917 49.224306,17.3370901 49.224306,16.4167197 C49.224306,15.4989346 48.5030044,14.7750477 47.582634,14.7750477 C46.6648489,14.7750477 45.940962,15.4989346 45.940962,16.4167197 C45.940962,17.3370901 46.6648489,18.0583917 47.582634,18.0583917 Z M47.582634,22.9834076 C48.5030044,22.9834076 49.224306,22.262106 49.224306,21.3417356 C49.224306,20.4239505 48.5030044,19.7000636 47.582634,19.7000636 C46.6648489,19.7000636 45.940962,20.4239505 45.940962,21.3417356 C45.940962,22.262106 46.6648489,22.9834076 47.582634,22.9834076 Z M60.7030832,3.28334394 C61.6234536,3.28334394 62.3447552,2.5620424 62.3447552,1.64167197 C62.3447552,0.723886852 61.6234536,0 60.7030832,0 C59.7852981,0 59.0614112,0.723886852 59.0614112,1.64167197 C59.0614112,2.5620424 59.7852981,3.28334394 60.7030832,3.28334394 Z M73.8364589,3.28334394 C74.7568294,3.28334394 75.4781309,2.5620424 75.4781309,1.64167197 C75.4781309,0.723886852 74.7568294,0 73.8364589,0 C72.9186738,0 72.194787,0.723886852 72.194787,1.64167197 C72.194787,2.5620424 72.9186738,3.28334394 73.8364589,3.28334394 Z M60.7030832,8.20835984 C61.6234536,8.20835984 62.3447552,7.4870583 62.3447552,6.56668787 C62.3447552,5.64890276 61.6234536,4.92501591 60.7030832,4.92501591 C59.7852981,4.92501591 59.0614112,5.64890276 59.0614112,6.56668787 C59.0614112,7.4870583 59.7852981,8.20835984 60.7030832,8.20835984 Z M73.8364589,8.20835984 C74.7568294,8.20835984 75.4781309,7.4870583 75.4781309,6.56668787 C75.4781309,5.64890276 74.7568294,4.92501591 73.8364589,4.92501591 C72.9186738,4.92501591 72.194787,5.64890276 72.194787,6.56668787 C72.194787,7.4870583 72.9186738,8.20835984 73.8364589,8.20835984 Z M60.7030832,13.1333757 C61.6234536,13.1333757 62.3447552,12.4120742 62.3447552,11.4917038 C62.3447552,10.5739187 61.6234536,9.85003181 60.7030832,9.85003181 C59.7852981,9.85003181 59.0614112,10.5739187 59.0614112,11.4917038 C59.0614112,12.4120742 59.7852981,13.1333757 60.7030832,13.1333757 Z M63.9864271,13.1333757 C64.9067975,13.1333757 65.6280991,12.4120742 65.6280991,11.4917038 C65.6280991,10.5739187 64.9067975,9.85003181 63.9864271,9.85003181 C63.068642,9.85003181 62.3447552,10.5739187 62.3447552,11.4917038 C62.3447552,12.4120742 63.068642,13.1333757 63.9864271,13.1333757 Z M67.2697711,13.1333757 C68.1901415,13.1333757 68.911443,12.4120742 68.911443,11.4917038 C68.911443,10.5739187 68.1901415,9.85003181 67.2697711,9.85003181 C66.3519859,9.85003181 65.6280991,10.5739187 65.6280991,11.4917038 C65.6280991,12.4120742 66.3519859,13.1333757 67.2697711,13.1333757 Z M70.553115,13.1333757 C71.4734854,13.1333757 72.194787,12.4120742 72.194787,11.4917038 C72.194787,10.5739187 71.4734854,9.85003181 70.553115,9.85003181 C69.6353299,9.85003181 68.911443,10.5739187 68.911443,11.4917038 C68.911443,12.4120742 69.6353299,13.1333757 70.553115,13.1333757 Z M73.8364589,13.1333757 C74.7568294,13.1333757 75.4781309,12.4120742 75.4781309,11.4917038 C75.4781309,10.5739187 74.7568294,9.85003181 73.8364589,9.85003181 C72.9186738,9.85003181 72.194787,10.5739187 72.194787,11.4917038 C72.194787,12.4120742 72.9186738,13.1333757 73.8364589,13.1333757 Z M60.7030832,18.0583917 C61.6234536,18.0583917 62.3447552,17.3370901 62.3447552,16.4167197 C62.3447552,15.4989346 61.6234536,14.7750477 60.7030832,14.7750477 C59.7852981,14.7750477 59.0614112,15.4989346 59.0614112,16.4167197 C59.0614112,17.3370901 59.7852981,18.0583917 60.7030832,18.0583917 Z M73.8364589,18.0583917 C74.7568294,18.0583917 75.4781309,17.3370901 75.4781309,16.4167197 C75.4781309,15.4989346 74.7568294,14.7750477 73.8364589,14.7750477 C72.9186738,14.7750477 72.194787,15.4989346 72.194787,16.4167197 C72.194787,17.3370901 72.9186738,18.0583917 73.8364589,18.0583917 Z M60.7030832,22.9834076 C61.6234536,22.9834076 62.3447552,22.262106 62.3447552,21.3417356 C62.3447552,20.4239505 61.6234536,19.7000636 60.7030832,19.7000636 C59.7852981,19.7000636 59.0614112,20.4239505 59.0614112,21.3417356 C59.0614112,22.262106 59.7852981,22.9834076 60.7030832,22.9834076 Z M73.8364589,22.9834076 C74.7568294,22.9834076 75.4781309,22.262106 75.4781309,21.3417356 C75.4781309,20.4239505 74.7568294,19.7000636 73.8364589,19.7000636 C72.9186738,19.7000636 72.194787,20.4239505 72.194787,21.3417356 C72.194787,22.262106 72.9186738,22.9834076 73.8364589,22.9834076 Z M80.3915129,3.28334394 C81.309298,3.28334394 82.0331849,2.5620424 82.0331849,1.64167197 C82.0331849,0.723886852 81.309298,0 80.3915129,0 C79.4711425,0 78.7498409,0.723886852 78.7498409,1.64167197 C78.7498409,2.5620424 79.4711425,3.28334394 80.3915129,3.28334394 Z M83.6748568,3.28334394 C84.592642,3.28334394 85.3165288,2.5620424 85.3165288,1.64167197 C85.3165288,0.723886852 84.592642,0 83.6748568,0 C82.7544864,0 82.0331849,0.723886852 82.0331849,1.64167197 C82.0331849,2.5620424 82.7544864,3.28334394 83.6748568,3.28334394 Z M86.9582008,3.28334394 C87.8759859,3.28334394 88.5998728,2.5620424 88.5998728,1.64167197 C88.5998728,0.723886852 87.8759859,0 86.9582008,0 C86.0378304,0 85.3165288,0.723886852 85.3165288,1.64167197 C85.3165288,2.5620424 86.0378304,3.28334394 86.9582008,3.28334394 Z M83.6748568,8.20835984 C84.592642,8.20835984 85.3165288,7.4870583 85.3165288,6.56668787 C85.3165288,5.64890276 84.592642,4.92501591 83.6748568,4.92501591 C82.7544864,4.92501591 82.0331849,5.64890276 82.0331849,6.56668787 C82.0331849,7.4870583 82.7544864,8.20835984 83.6748568,8.20835984 Z M83.6748568,13.1333757 C84.592642,13.1333757 85.3165288,12.4120742 85.3165288,11.4917038 C85.3165288,10.5739187 84.592642,9.85003181 83.6748568,9.85003181 C82.7544864,9.85003181 82.0331849,10.5739187 82.0331849,11.4917038 C82.0331849,12.4120742 82.7544864,13.1333757 83.6748568,13.1333757 Z M83.6748568,18.0583917 C84.592642,18.0583917 85.3165288,17.3370901 85.3165288,16.4167197 C85.3165288,15.4989346 84.592642,14.7750477 83.6748568,14.7750477 C82.7544864,14.7750477 82.0331849,15.4989346 82.0331849,16.4167197 C82.0331849,17.3370901 82.7544864,18.0583917 83.6748568,18.0583917 Z M80.3915129,22.9834076 C81.309298,22.9834076 82.0331849,22.262106 82.0331849,21.3417356 C82.0331849,20.4239505 81.309298,19.7000636 80.3915129,19.7000636 C79.4711425,19.7000636 78.7498409,20.4239505 78.7498409,21.3417356 C78.7498409,22.262106 79.4711425,22.9834076 80.3915129,22.9834076 Z M83.6748568,22.9834076 C84.592642,22.9834076 85.3165288,22.262106 85.3165288,21.3417356 C85.3165288,20.4239505 84.592642,19.7000636 83.6748568,19.7000636 C82.7544864,19.7000636 82.0331849,20.4239505 82.0331849,21.3417356 C82.0331849,22.262106 82.7544864,22.9834076 83.6748568,22.9834076 Z M86.9582008,22.9834076 C87.8759859,22.9834076 88.5998728,22.262106 88.5998728,21.3417356 C88.5998728,20.4239505 87.8759859,19.7000636 86.9582008,19.7000636 C86.0378304,19.7000636 85.3165288,20.4239505 85.3165288,21.3417356 C85.3165288,22.262106 86.0378304,22.9834076 86.9582008,22.9834076 Z M93.5365226,3.28334394 C94.456893,3.28334394 95.1781945,2.5620424 95.1781945,1.64167197 C95.1781945,0.723886852 94.456893,0 93.5365226,0 C92.6187374,0 91.8948506,0.723886852 91.8948506,1.64167197 C91.8948506,2.5620424 92.6187374,3.28334394 93.5365226,3.28334394 Z M106.669898,3.28334394 C107.590269,3.28334394 108.31157,2.5620424 108.31157,1.64167197 C108.31157,0.723886852 107.590269,0 106.669898,0 C105.752113,0 105.028226,0.723886852 105.028226,1.64167197 C105.028226,2.5620424 105.752113,3.28334394 106.669898,3.28334394 Z M93.5365226,8.20835984 C94.456893,8.20835984 95.1781945,7.4870583 95.1781945,6.56668787 C95.1781945,5.64890276 94.456893,4.92501591 93.5365226,4.92501591 C92.6187374,4.92501591 91.8948506,5.64890276 91.8948506,6.56668787 C91.8948506,7.4870583 92.6187374,8.20835984 93.5365226,8.20835984 Z M96.8198665,8.20835984 C97.7402369,8.20835984 98.4615385,7.4870583 98.4615385,6.56668787 C98.4615385,5.64890276 97.7402369,4.92501591 96.8198665,4.92501591 C95.9020814,4.92501591 95.1781945,5.64890276 95.1781945,6.56668787 C95.1781945,7.4870583 95.9020814,8.20835984 96.8198665,8.20835984 Z M106.669898,8.20835984 C107.590269,8.20835984 108.31157,7.4870583 108.31157,6.56668787 C108.31157,5.64890276 107.590269,4.92501591 106.669898,4.92501591 C105.752113,4.92501591 105.028226,5.64890276 105.028226,6.56668787 C105.028226,7.4870583 105.752113,8.20835984 106.669898,8.20835984 Z M93.5365226,13.1333757 C94.456893,13.1333757 95.1781945,12.4120742 95.1781945,11.4917038 C95.1781945,10.5739187 94.456893,9.85003181 93.5365226,9.85003181 C92.6187374,9.85003181 91.8948506,10.5739187 91.8948506,11.4917038 C91.8948506,12.4120742 92.6187374,13.1333757 93.5365226,13.1333757 Z M100.10321,13.1333757 C101.023581,13.1333757 101.744882,12.4120742 101.744882,11.4917038 C101.744882,10.5739187 101.023581,9.85003181 100.10321,9.85003181 C99.1854253,9.85003181 98.4615385,10.5739187 98.4615385,11.4917038 C98.4615385,12.4120742 99.1854253,13.1333757 100.10321,13.1333757 Z M106.669898,13.1333757 C107.590269,13.1333757 108.31157,12.4120742 108.31157,11.4917038 C108.31157,10.5739187 107.590269,9.85003181 106.669898,9.85003181 C105.752113,9.85003181 105.028226,10.5739187 105.028226,11.4917038 C105.028226,12.4120742 105.752113,13.1333757 106.669898,13.1333757 Z M93.5365226,18.0583917 C94.456893,18.0583917 95.1781945,17.3370901 95.1781945,16.4167197 C95.1781945,15.4989346 94.456893,14.7750477 93.5365226,14.7750477 C92.6187374,14.7750477 91.8948506,15.4989346 91.8948506,16.4167197 C91.8948506,17.3370901 92.6187374,18.0583917 93.5365226,18.0583917 Z M103.386554,18.0583917 C104.306925,18.0583917 105.028226,17.3370901 105.028226,16.4167197 C105.028226,15.4989346 104.306925,14.7750477 103.386554,14.7750477 C102.468769,14.7750477 101.744882,15.4989346 101.744882,16.4167197 C101.744882,17.3370901 102.468769,18.0583917 103.386554,18.0583917 Z M106.669898,18.0583917 C107.590269,18.0583917 108.31157,17.3370901 108.31157,16.4167197 C108.31157,15.4989346 107.590269,14.7750477 106.669898,14.7750477 C105.752113,14.7750477 105.028226,15.4989346 105.028226,16.4167197 C105.028226,17.3370901 105.752113,18.0583917 106.669898,18.0583917 Z M93.5365226,22.9834076 C94.456893,22.9834076 95.1781945,22.262106 95.1781945,21.3417356 C95.1781945,20.4239505 94.456893,19.7000636 93.5365226,19.7000636 C92.6187374,19.7000636 91.8948506,20.4239505 91.8948506,21.3417356 C91.8948506,22.262106 92.6187374,22.9834076 93.5365226,22.9834076 Z M106.669898,22.9834076 C107.590269,22.9834076 108.31157,22.262106 108.31157,21.3417356 C108.31157,20.4239505 107.590269,19.7000636 106.669898,19.7000636 C105.752113,19.7000636 105.028226,20.4239505 105.028226,21.3417356 C105.028226,22.262106 105.752113,22.9834076 106.669898,22.9834076 Z M116.508296,3.28334394 C117.426081,3.28334394 118.149968,2.5620424 118.149968,1.64167197 C118.149968,0.723886852 117.426081,0 116.508296,0 C115.587926,0 114.866624,0.723886852 114.866624,1.64167197 C114.866624,2.5620424 115.587926,3.28334394 116.508296,3.28334394 Z M119.79164,3.28334394 C120.709425,3.28334394 121.433312,2.5620424 121.433312,1.64167197 C121.433312,0.723886852 120.709425,0 119.79164,0 C118.87127,0 118.149968,0.723886852 118.149968,1.64167197 C118.149968,2.5620424 118.87127,3.28334394 119.79164,3.28334394 Z M123.074984,3.28334394 C123.992769,3.28334394 124.716656,2.5620424 124.716656,1.64167197 C124.716656,0.723886852 123.992769,0 123.074984,0 C122.154614,0 121.433312,0.723886852 121.433312,1.64167197 C121.433312,2.5620424 122.154614,3.28334394 123.074984,3.28334394 Z M126.358328,3.28334394 C127.276113,3.28334394 128,2.5620424 128,1.64167197 C128,0.723886852 127.276113,0 126.358328,0 C125.437958,0 124.716656,0.723886852 124.716656,1.64167197 C124.716656,2.5620424 125.437958,3.28334394 126.358328,3.28334394 Z M113.224952,8.20835984 C114.142737,8.20835984 114.866624,7.4870583 114.866624,6.56668787 C114.866624,5.64890276 114.142737,4.92501591 113.224952,4.92501591 C112.304582,4.92501591 111.58328,5.64890276 111.58328,6.56668787 C111.58328,7.4870583 112.304582,8.20835984 113.224952,8.20835984 Z M113.224952,13.1333757 C114.142737,13.1333757 114.866624,12.4120742 114.866624,11.4917038 C114.866624,10.5739187 114.142737,9.85003181 113.224952,9.85003181 C112.304582,9.85003181 111.58328,10.5739187 111.58328,11.4917038 C111.58328,12.4120742 112.304582,13.1333757 113.224952,13.1333757 Z M119.79164,13.1333757 C120.709425,13.1333757 121.433312,12.4120742 121.433312,11.4917038 C121.433312,10.5739187 120.709425,9.85003181 119.79164,9.85003181 C118.87127,9.85003181 118.149968,10.5739187 118.149968,11.4917038 C118.149968,12.4120742 118.87127,13.1333757 119.79164,13.1333757 Z M123.074984,13.1333757 C123.992769,13.1333757 124.716656,12.4120742 124.716656,11.4917038 C124.716656,10.5739187 123.992769,9.85003181 123.074984,9.85003181 C122.154614,9.85003181 121.433312,10.5739187 121.433312,11.4917038 C121.433312,12.4120742 122.154614,13.1333757 123.074984,13.1333757 Z M126.358328,13.1333757 C127.276113,13.1333757 128,12.4120742 128,11.4917038 C128,10.5739187 127.276113,9.85003181 126.358328,9.85003181 C125.437958,9.85003181 124.716656,10.5739187 124.716656,11.4917038 C124.716656,12.4120742 125.437958,13.1333757 126.358328,13.1333757 Z M113.224952,18.0583917 C114.142737,18.0583917 114.866624,17.3370901 114.866624,16.4167197 C114.866624,15.4989346 114.142737,14.7750477 113.224952,14.7750477 C112.304582,14.7750477 111.58328,15.4989346 111.58328,16.4167197 C111.58328,17.3370901 112.304582,18.0583917 113.224952,18.0583917 Z M126.358328,18.0583917 C127.276113,18.0583917 128,17.3370901 128,16.4167197 C128,15.4989346 127.276113,14.7750477 126.358328,14.7750477 C125.437958,14.7750477 124.716656,15.4989346 124.716656,16.4167197 C124.716656,17.3370901 125.437958,18.0583917 126.358328,18.0583917 Z M116.508296,22.9834076 C117.426081,22.9834076 118.149968,22.262106 118.149968,21.3417356 C118.149968,20.4239505 117.426081,19.7000636 116.508296,19.7000636 C115.587926,19.7000636 114.866624,20.4239505 114.866624,21.3417356 C114.866624,22.262106 115.587926,22.9834076 116.508296,22.9834076 Z M119.79164,22.9834076 C120.709425,22.9834076 121.433312,22.262106 121.433312,21.3417356 C121.433312,20.4239505 120.709425,19.7000636 119.79164,19.7000636 C118.87127,19.7000636 118.149968,20.4239505 118.149968,21.3417356 C118.149968,22.262106 118.87127,22.9834076 119.79164,22.9834076 Z M123.074984,22.9834076 C123.992769,22.9834076 124.716656,22.262106 124.716656,21.3417356 C124.716656,20.4239505 123.992769,19.7000636 123.074984,19.7000636 C122.154614,19.7000636 121.433312,20.4239505 121.433312,21.3417356 C121.433312,22.262106 122.154614,22.9834076 123.074984,22.9834076 Z"/></svg>