<svg xmlns="http://www.w3.org/2000/svg" width="128" height="128" viewBox="0 0 128 128"><path fill="#FFF" d="M72.3934426,16.7868852 L72.3934426,27.9081967 L12,27.908 L12,116.878 L100.091803,116.878689 L100.091803,55.6065574 L111.213115,55.6065574 L111.213115,128 L0,128 L0,16.7868852 L72.3934426,16.7868852 Z M61.0622951,44.4852459 L61.0622951,88.9704918 L72.3934426,88.9704918 L72.3934426,100.091803 L38.8196721,100.091803 L38.8196721,89.1803279 L49.9409836,89.1803279 L49.9409836,55.8163934 L38.8196721,55.8163934 L38.8196721,44.4852459 L61.0622951,44.4852459 Z M111.213115,1.42108547e-14 L111.213115,16.7868852 L128,16.7868852 L128,27.6983607 L111.213115,27.6983607 L111.213115,44.695082 L100.091803,44.695082 L100.091803,27.9081967 L83.304918,27.9081967 L83.304918,16.7868852 L100.091803,16.7868852 L100.091803,1.42108547e-14 L111.213115,1.42108547e-14 Z"/></svg>