<svg xmlns="http://www.w3.org/2000/svg" width="128" height="21" viewBox="0 0 128 21"><path fill="#FFF" d="M0,14.7572626 L0,13.3140695 L4.91624309,13.3140695 L4.91624309,15.146594 C4.900504,15.6275451 5.09401044,16.0917057 5.44672432,16.4190503 C5.79943819,16.746395 6.27672598,16.9047812 6.75516761,16.8532525 C7.59161067,16.9580391 8.3672121,16.3997177 8.53329242,15.5732587 C8.66496996,15.1107315 8.65381591,14.6192099 8.50129257,14.1631321 C7.54769714,11.7076772 1.04639498,10.5930159 0.221865603,6.75516761 C0.0534952684,5.91107672 0.0430071279,5.04309268 0.190932418,4.19517989 C0.697596655,1.11466132 3.33011737,0 6.59623504,0 C9.1967559,0 12.782872,0.623997008 12.782872,4.7551772 L12.782872,6.10023742 L8.21329395,6.10023742 L8.21329395,4.91944308 C8.24837472,4.45599392 8.0791071,4.00036805 7.74994925,3.67223561 C7.4207914,3.34410317 6.96463961,3.17625799 6.50130216,3.2127846 C5.69211404,3.13225265 4.95844413,3.69123925 4.82131022,4.49277846 C4.77007117,4.81969669 4.7809274,5.15334458 4.85331006,5.47624041 C5.38664084,7.67249655 12.3380742,8.85435755 13.0986039,12.8223385 C13.2890434,13.8513052 13.2995097,14.905512 13.129537,15.9380569 C12.6847392,19.0857752 9.95835225,20.2665695 6.66023473,20.2665695 C3.19998466,20.2665695 0,18.9865756 0,14.7572626 Z M59.5591811,14.6911296 L59.5591811,13.2490031 L64.4114245,13.2490031 L64.4114245,15.0527278 C64.3877839,15.5303573 64.5744117,15.9943991 64.922165,16.3226618 C65.2699183,16.6509245 65.7439419,16.8105064 66.2194158,16.7593863 C67.0468692,16.8755148 67.8229453,16.3310962 67.9954073,15.5135256 C68.126876,15.061875 68.1160755,14.5806957 67.9644741,14.1353989 C67.0439452,11.7098105 60.6045094,10.5951492 59.7821134,6.75730093 C59.6137919,5.9250964 59.6029379,5.06871627 59.7501135,4.23251304 C60.2578444,1.18292766 62.8903651,0.0725329856 66.0924831,0.0725329856 C68.6620708,0.0725329856 72.2140538,0.72852984 72.2140538,4.79464368 L72.2140538,6.10663739 L67.6786088,6.10663739 L67.6786088,4.95250959 C67.7151357,4.49436962 67.5508761,4.04295217 67.2284631,3.71542154 C66.9060501,3.3878909 66.4572752,3.21654312 65.9986169,3.2458511 C65.2039159,3.15224211 64.4766677,3.70167671 64.3495581,4.4917118 C64.2978408,4.81855509 64.3083359,5.15222668 64.3804913,5.47517375 C64.8871556,7.67356321 71.7692559,8.82129104 72.5329856,12.7562055 C72.7231878,13.77407 72.733657,14.8173811 72.5639187,15.8388574 C72.1201875,18.9876423 69.4247338,20.1353701 66.1586161,20.1353701 C62.7314326,20.1353701 59.5591811,18.8564429 59.5591811,14.6911296 L59.5591811,14.6911296 Z M76.9382978,15.3812596 C76.8936873,14.9668255 76.8829851,14.5494412 76.9062979,14.1332656 L76.9062979,0.557863992 L81.5366757,0.557863992 L81.5366757,14.5599302 C81.5307202,14.801062 81.5410548,15.0423208 81.5676089,15.2820601 C81.7613025,16.0886146 82.4826476,16.6572383 83.3121339,16.6572383 C84.1416201,16.6572383 84.8629653,16.0886146 85.0566588,15.2820601 C85.0841426,15.0423901 85.0948353,14.8010918 85.0886587,14.5599302 L85.0886587,0.557863992 L89.7190365,0.557863992 L89.7190365,14.1332656 C89.7190365,14.4948638 89.6870366,15.1828605 89.6870366,15.3801929 C89.3670382,18.9204426 86.6737178,20.0735038 83.3126672,20.0735038 C79.9516167,20.0735038 77.2561629,18.9215093 76.9382978,15.3801929 L76.9382978,15.3812596 Z M115.059715,15.1839272 C115.013276,14.7703183 114.992259,14.3542497 114.996782,13.9380665 L114.996782,5.97330469 C114.996782,5.64477293 115.027715,5.0549091 115.059715,4.72637734 C115.471446,1.18612765 118.2309,0.0703996625 121.498084,0.0703996625 C124.733269,0.0703996625 127.586588,1.18506098 127.904453,4.72637734 C127.942459,5.14087076 127.952793,5.55743663 127.935387,5.97330469 L127.935387,6.59623504 L123.306075,6.59623504 L123.306075,5.54664007 C123.306758,5.3045315 123.285696,5.06285078 123.243142,4.8245102 C123.012409,4.00822377 122.267421,3.44462545 121.419151,3.44462545 C120.570882,3.44462545 119.825893,4.00822377 119.59516,4.8245102 C119.541675,5.11604645 119.520569,5.41260019 119.532227,5.70877263 L119.532227,14.3668644 C119.526872,14.6080176 119.537562,14.84926 119.564227,15.0889943 C119.779841,15.9629285 120.601697,16.5481554 121.498084,16.4660544 C122.381455,16.5506329 123.187197,15.957581 123.369008,15.0889943 C123.411704,14.8507743 123.422465,14.6079272 123.401008,14.3668644 L123.401008,11.6084777 L121.530084,11.6084777 L121.530084,8.85329088 L127.999386,8.85329088 L127.999386,13.9359332 C128.003997,14.3521472 127.982622,14.7682432 127.935387,15.1817939 C127.615388,18.6249774 124.735402,19.8388382 121.497017,19.8388382 C118.258633,19.8388382 115.376513,18.626044 115.059715,15.1839272 Z M50.5266911,19.4793733 L50.394425,1.96799056 L47.2232402,19.4793733 L42.5928624,19.4793733 L39.4526108,1.96799056 L39.3267448,19.4793733 L34.7593,19.4793733 L35.1390315,0.5909305 L42.5928624,0.5909305 L44.9064514,15.3471264 L47.2232402,0.5909305 L54.6760045,0.5909305 L55.0877359,19.4793733 L50.5266911,19.4793733 Z M26.1694745,19.4793733 L23.6916197,1.96799056 L21.1529652,19.4793733 L16.2068556,19.4793733 L19.5668395,0.5909305 L27.7182671,0.5909305 L31.0803843,19.4793733 L26.1694745,19.4793733 Z M103.678436,19.2831075 L99.0757916,3.57544952 L99.3296571,19.2831075 L94.826212,19.2831075 L94.826212,0.5909305 L101.613379,0.5909305 L105.926959,15.8068575 L105.672027,0.5909305 L110.206405,0.5909305 L110.206405,19.2831075 L103.678436,19.2831075 Z"/></svg>