<svg xmlns="http://www.w3.org/2000/svg" width="128" height="23" viewBox="0 0 128 23"><path fill="#FFF" d="M45.6013002,22.5279945 C40.9600214,22.5279945 36.6592224,21.1455948 33.7920231,18.5676754 C31.7178317,16.7039456 30.547118,14.0369572 30.5792239,11.2486372 C30.5727633,8.47300394 31.7396968,5.82392548 33.7920231,3.95519903 C36.4544225,1.53599962 41.1648213,0 45.6013002,0 C50.508819,0 54.438418,1.2364797 57.4412973,3.96031903 C59.4858495,5.82870423 60.6383615,8.47910929 60.6105765,11.2486372 C60.5967539,14.0184919 59.4518706,16.6624508 57.4412973,18.5676754 C54.643218,21.1609548 50.2502591,22.5279945 45.6013002,22.5279945 L45.6013002,19.5635152 C48.0614596,19.5635152 50.344979,18.7135954 51.9398587,17.1263958 C53.5347383,15.5391962 54.2592181,13.6140767 54.2592181,11.2383972 C54.2592181,8.9702378 53.4630583,6.85055832 51.9398587,5.35039869 C50.365459,3.80159907 48.0281796,2.92863928 45.6013002,2.92863928 C43.1744208,2.92863928 40.8269014,3.79391907 39.2525018,5.35039869 C37.7344221,6.85311832 36.9485023,8.9804778 36.9485023,11.2383972 C36.902493,13.429441 37.7316751,15.5484618 39.2525018,17.1263958 C40.8269014,18.6956754 43.1590608,19.5635152 45.6013002,19.5635152 L45.6013002,22.5279945 Z M11.7120285,0 C9.23138914,0 6.41282983,0.465919886 4.03203041,1.53599962 C1.80995096,2.52927938 1.56258763e-05,4.12415899 1.56258763e-05,6.76863834 C-0.00330700806,8.15348177 0.523368551,9.48711588 1.47203104,10.4959974 C2.11459088,11.0899173 3.15139063,12.098557 5.85986996,12.6924769 C7.07074967,12.9484768 9.65890903,13.3606367 12.2368284,13.6319967 C14.8147478,13.9033566 17.3133072,14.1439965 18.3373069,14.4179165 C19.1513867,14.6252764 20.5209864,14.9068763 20.5209864,16.442876 C20.5209864,17.9788756 19.0797067,18.4396755 18.8288268,18.5395155 C18.5779468,18.6393554 16.8473873,19.4329552 13.739548,19.4329552 C11.6804161,19.3757934 9.63999073,19.0249471 7.68002952,18.3910355 C6.5203498,17.9763156 5.3043501,17.4310357 4.17027038,16.0460761 C3.71259372,15.393874 3.45868254,14.6205586 3.44067056,13.8239966 L0.624671247,13.8239966 L0.624671247,21.7087947 L3.75299048,21.7087947 L3.75299048,20.6412749 C3.75198419,20.480044 3.83818418,20.3308554 3.9783702,20.2512042 C4.11855622,20.1715531 4.29084171,20.173875 4.42883031,20.257275 C5.90268172,20.8986003 7.43574402,21.3941875 9.00610919,21.7369547 C10.6496288,22.0799946 11.7120285,22.3283145 13.754908,22.3283145 C15.91059,22.3692994 18.0589981,22.0659642 20.1190665,21.4297547 C21.4870346,21.0547974 22.7705285,20.4213058 23.9001855,19.5635152 C25.1882769,18.5741019 25.9378809,17.0379347 25.9253047,15.4137562 C25.9358232,13.8917048 25.3483847,12.4263262 24.2893054,11.3331172 C23.7004118,10.7615892 23.0181616,10.2949231 22.2720259,9.95327756 C21.4699229,9.59087968 20.6372098,9.30045813 19.7837065,9.08543777 C18.1606669,8.68863787 14.5152278,8.19199799 12.7718683,8.01791803 C10.9440287,7.82847808 7.77218949,7.56479814 6.5049898,7.17311824 C6.1209899,7.05279827 5.33763009,6.68159836 5.33763009,5.77279858 C5.33763009,5.12511874 5.69603,4.57727888 6.40258983,4.13439899 C7.52642955,3.43039916 9.794589,2.99263927 12.1600284,2.99263927 C14.4496324,2.96499955 16.7204572,3.40853363 18.8313868,4.29567895 C19.39852,4.54274938 19.9318774,4.86104336 20.4185864,5.24287871 C21.2119912,5.92052217 21.7614221,6.83953754 21.982746,7.85919807 L24.5094654,7.85919807 L24.5094654,0.995839756 L21.6934661,0.995839756 L21.6934661,1.79199956 C21.6934661,2.0479995 21.4374661,2.38591941 20.9254663,2.10687948 C19.6557066,1.44639965 16.0870675,0.0179199956 11.7120285,0 Z M73.5334534,1.25951969 L87.29601,13.6780766 L87.15521,5.3171187 C87.13985,4.21887897 86.9401701,3.76063908 85.7523304,3.76063908 L83.166731,3.76063908 L83.166731,1.25951969 L94.9427281,1.25951969 L94.9427281,3.76063908 L92.4160087,3.76063908 C91.207689,3.76063908 91.136009,4.14975898 91.115529,5.3171187 L91.328009,21.2940748 L87.29601,21.2940748 L71.4419339,7.14751825 L71.4419339,17.1852758 C71.4547339,18.2783955 71.5059339,18.7929554 72.6297736,18.7929554 L75.4457729,18.7929554 L75.4457729,21.2940748 L63.9027357,21.2940748 L63.9027357,18.7929554 L66.6060951,18.7929554 C67.6147348,18.7929554 67.5737748,17.8303956 67.5737748,17.1289558 L67.5737748,5.41183867 C67.5737748,4.64383886 67.4662548,3.76319908 65.8841752,3.76319908 L63.6928158,3.76319908 L63.6928158,1.25951969 L73.5334534,1.25951969 Z M108.377605,18.7878354 C108.610392,18.7878521 108.842952,18.7733171 109.073925,18.7443154 C109.316763,18.6714311 109.515247,18.4954168 109.616645,18.2630355 C109.652013,18.0851477 109.670017,17.9042449 109.670404,17.7228757 L109.670404,13.7676766 C109.670404,13.6345567 109.670404,13.6319967 109.501445,13.4220767 C109.332485,13.2121568 102.292486,5.23007872 101.972486,4.8716788 C101.573126,4.43647891 100.871687,3.76319908 99.8041669,3.76319908 L97.3593675,3.76319908 L97.3593675,1.25951969 L111.157764,1.25951969 L111.157764,3.75807908 L109.493765,3.75807908 C109.109765,3.75807908 108.853765,4.12415899 109.181445,4.52607889 C109.181445,4.52607889 113.825283,10.0812775 113.868803,10.1401575 C113.912323,10.1990375 113.950723,10.2118375 114.009603,10.1580775 C114.068483,10.1043175 118.768642,4.57727888 118.804482,4.52607889 C118.917939,4.37718566 118.934203,4.17582166 118.846111,4.01065017 C118.75802,3.84547867 118.581737,3.74680601 118.394882,3.75807908 L116.687363,3.75807908 L116.687363,1.25951969 L128,1.25951969 L128,3.76319908 L125.473281,3.76319908 C124.556801,3.76319908 124.193281,3.93215904 123.494401,4.71039884 L115.878403,13.3990367 C115.803832,13.506601 115.771064,13.6376749 115.786243,13.7676766 L115.786243,17.7203157 C115.78757,17.9017629 115.806431,18.0826573 115.842563,18.2604755 C115.942238,18.4931375 116.140149,18.669475 116.382723,18.7417554 C116.611859,18.7720276 116.842799,18.7865683 117.073923,18.7852754 L119.656962,18.7852754 L119.656962,21.2889548 L105.930245,21.2889548 L105.930245,18.7852754 L108.377605,18.7878354 Z"/></svg>