<svg xmlns="http://www.w3.org/2000/svg" width="128" height="17" viewBox="0 0 128 17"><path fill="#FFF" d="M0.579272752,0 L0,2.25916373 L5.3679275,2.25916373 L3.39840015,10.1372732 L1.95021827,15.9493098 L5.46447296,15.9493098 L6.91265484,10.1372732 L8.8821822,2.25916373 L14.2308006,2.25916373 L14.7907643,0 L0.579272752,0 Z M107.860586,0.173781826 C107.574812,1.3477746 107.312208,2.26379791 107.049605,3.05083649 L105.736586,3.05083649 L106.161386,2.78050921 C106.893587,2.30550555 107.254281,2.06143863 107.262005,2.02745463 C106.871189,1.14464296 106.540617,0.535248023 106.238623,0.231709101 C106.230096,0.176840386 105.67248,0.517483658 104.59735,1.21647278 L104.230477,1.44818188 C104.238201,1.46517388 104.282256,1.53082479 104.365641,1.6412728 C104.744099,2.13326845 105.063858,2.59668666 105.311786,3.05083649 L104.230477,3.05083649 L103.882914,4.6728002 L106.315859,4.6728002 L106.142077,5.00105476 L105.968295,5.32930932 L103.342259,5.32930932 L103.014004,6.95127302 L104.829059,6.95127302 C104.054378,7.89664616 103.132948,8.65587964 102.067859,9.22974585 L103.767059,1.11992732 L99.0749497,1.11992732 L97.3178223,9.50007313 C97.2706773,9.71942442 97.2174151,9.92796261 97.1633496,10.1372732 C96.7547692,11.7584645 96.146919,13.2128253 95.3289859,14.5011279 C95.8248434,14.9390581 96.2287896,15.4086552 96.5647678,15.9106916 C97.5479867,14.5080792 98.3203504,12.7123336 98.9011679,10.5041459 L99.9245497,10.5041459 L99.345277,13.2460369 C99.2996766,13.6214057 98.9181599,13.7905533 98.2253497,13.7287642 C98.3697817,14.3999483 98.4315708,15.0719046 98.3798224,15.7755279 C100.05199,15.7647149 100.896183,15.3878014 100.928622,14.6169824 L101.874768,10.1372732 L101.932664,9.82832769 C102.036933,9.93259679 102.134251,10.0353212 102.222301,10.1372732 C102.447831,10.4029663 102.623157,10.6640252 102.743646,10.9289459 C103.000071,10.8022783 103.304382,10.6076426 103.651174,10.311055 L103.033283,12.3192005 L108.652228,12.3192005 L108.555683,12.840546 C108.333242,13.9249446 108.020435,14.4516966 107.628846,14.3852733 L107.937792,12.840546 L101.913355,12.840546 L101.565792,14.4432006 L106.470301,14.4432006 C106.750669,15.0479614 106.870385,15.667397 106.817865,16.3161825 C108.382673,16.2652065 109.341177,16.024229 109.714228,15.582437 C109.830855,15.4534523 109.953661,15.2294668 110.081101,14.8486915 C110.336753,14.0832791 110.636431,12.9641242 111.007937,11.4889096 L111.220337,10.6393095 L109.134956,10.6393095 L109.25081,10.1372732 L109.405283,9.36490949 C109.776017,9.68930223 110.105044,9.94186515 110.390047,10.1372732 C110.600902,10.2817052 110.787041,10.3921532 110.95001,10.4655277 C111.039604,10.353535 111.131516,10.243087 111.220337,10.1372732 C111.757903,9.48462586 112.268435,8.94088184 112.745756,8.49600036 C111.486803,8.13762362 110.564601,7.62322942 109.984556,6.95127302 L112.745756,6.95127302 L113.07401,5.32930932 L108.111574,5.32930932 C108.24442,5.13467367 108.367998,4.92536312 108.459137,4.6728002 L112.552665,4.6728002 L112.880919,3.05083649 L111.413428,3.05083649 C112.05449,2.42444956 112.618316,1.90928299 113.131938,1.50610916 L111.413459,0.44410911 C110.862764,1.14696005 110.268816,1.83127426 109.617714,2.49087283 L110.660405,3.12807286 L109.173605,3.12807286 L109.386005,2.45225465 L109.656332,1.77643644 C109.881862,1.20720442 110.067229,0.77468076 110.196987,0.502036385 C110.209344,0.390043653 110.136001,0.333661105 109.90735,0.308945468 C109.474054,0.240977465 108.793602,0.196180372 107.860586,0.173781826 Z M118.248878,0.308945468 C117.725215,0.482727293 116.911144,0.800168761 115.777314,1.27440005 C116.134146,2.29160301 116.391343,3.30648887 116.568987,4.32523655 C116.969844,4.17308091 117.839525,3.87417617 119.156405,3.39840015 C118.607255,1.42114915 118.292903,0.386954198 118.248878,0.308945468 Z M120.160478,1.1778546 L119.754987,3.05083649 L121.299714,3.05083649 L120.565969,6.5457821 L118.63506,6.5457821 L118.229569,8.418764 L120.179787,8.418764 L119.812914,10.1372732 L118.63506,15.7176007 L120.797678,15.7176007 L121.956223,10.1372732 L122.323096,8.418764 L123.867823,8.418764 L123.558878,9.82832769 C123.53651,9.93259679 123.52026,10.0345488 123.500982,10.1372732 C123.105531,12.2079802 123.308663,13.8276268 124.099563,14.9838552 C124.581518,15.6689418 125.163108,15.9585781 125.856691,15.8527643 C126.574989,15.8898378 127.29406,14.7305199 128,12.3771278 C127.357393,12.0851743 126.765763,11.8279772 126.242873,11.6047641 C125.89222,12.6829838 125.674413,13.0328646 125.586364,12.6474551 C125.44811,12.0975322 125.476688,11.2610623 125.6636,10.1372732 C125.723844,9.77426224 125.801081,9.38421858 125.895309,8.95941856 L127.536582,1.1778546 L120.160509,1.1778546 L120.160478,1.1778546 Z M88.0880765,1.37094551 L87.354331,4.34454564 L84.5352036,4.34454564 L83.994549,6.5457821 L94.305604,6.5457821 L88.0880765,1.37094551 Z M100.523132,2.78050921 L101.546513,2.78050921 L101.063786,5.07829113 L100.059713,5.07829113 L100.523132,2.78050921 Z M123.443023,3.05083649 L125.064987,3.05083649 L124.331242,6.5457821 L122.709278,6.5457821 L123.443023,3.05083649 Z M18.8263644,3.68803652 C16.6838276,3.68803652 14.8255206,4.24800018 13.2460369,5.3679275 C11.6750492,6.50407446 10.6547568,7.99241925 10.1952004,9.82832769 C10.1681986,9.93568624 10.1395903,10.0322317 10.1179641,10.1372732 C9.76499387,11.8418798 10.0778012,13.2321344 11.0641096,14.2887279 C12.1152965,15.4009316 13.7372602,15.9493098 15.9300007,15.9493098 C19.6674685,15.9493098 22.5321653,13.6692922 22.8233464,13.4198188 L21.2013827,13.052946 C20.8198351,13.1409955 18.7421768,13.7426668 16.6637462,13.5549824 C14.0415715,13.3194115 13.4468515,11.3993154 13.5936006,10.4462186 L24.1170556,10.4462186 L24.213601,10.1372732 L24.2908374,9.8090186 C24.7681581,7.89510143 24.5155952,6.38976464 23.5377828,5.31000023 C22.5522468,4.22096745 20.9905274,3.68803652 18.8263644,3.68803652 Z M50.0105476,3.68803652 C47.756018,3.68803652 45.716978,4.27271582 43.8702564,5.46447296 C42.0204454,6.65700247 40.8858432,8.13453417 40.4525472,9.86694588 C40.4286348,9.96194661 40.3938475,10.0438172 40.3753108,10.1372732 C40.0516904,11.7453343 40.4803523,13.1054667 41.6497109,14.2114915 C42.8901269,15.3715817 44.6457095,15.9493098 46.9210929,15.9493098 C48.2997621,15.9493098 49.7463992,15.6635352 51.2656386,15.0997097 L52.1538568,11.5661459 C51.1436051,12.3439162 50.2963221,12.8606275 49.6243658,13.1301824 C48.9307832,13.4082333 48.1808181,13.5549824 47.365202,13.5549824 C46.0869402,13.5549824 45.1199408,13.2120529 44.4688383,12.5122914 C43.892655,11.8820427 43.6864339,11.0818739 43.8509473,10.1372732 C43.8694841,10.0330041 43.9011819,9.93568624 43.9281837,9.82832769 C44.1946492,8.76401056 44.835711,7.86961343 45.8590929,7.16367303 C46.8801576,6.45773264 48.0363861,6.10167299 49.3154203,6.10167299 C50.130264,6.10167299 50.7898625,6.23992608 51.3235658,6.52647301 C51.8673099,6.80375156 52.4373142,7.32432468 53.0227659,8.07120034 L53.9109841,4.49901837 C52.7593899,3.95141253 51.4602742,3.68803652 50.0105476,3.68803652 Z M62.735239,3.68803652 C60.5919299,3.68803652 58.7336229,4.24800018 57.1549115,5.3679275 C55.5831515,6.50407446 54.5628591,7.99241925 54.104075,9.82832769 C54.0770732,9.93568624 54.0492063,10.0322317 54.0268387,10.1372732 C53.6730961,11.8418798 53.985131,13.2321344 54.9729842,14.2887279 C56.0226264,15.4009316 57.6469072,15.9493098 59.8388753,15.9493098 C63.5747984,15.9493098 66.4418123,13.6692922 66.732221,13.4198188 L65.1102573,13.052946 C64.7287097,13.1409955 62.6510514,13.7426668 60.5726208,13.5549824 C57.9512185,13.3194115 57.3541814,11.3993154 57.5024752,10.4462186 L68.0259302,10.4462186 L68.1224756,10.1372732 L68.199712,9.8090186 C68.6785775,7.89510143 68.4422342,6.38976464 67.4659665,5.31000023 C66.4804305,4.22096745 64.9001744,3.68803652 62.735239,3.68803652 Z M35.354947,4.01629108 C33.8658298,4.01629108 32.4099243,4.47661983 30.9910922,5.40654569 L27.8437103,4.34454564 L26.3955284,10.1372732 L24.9473465,15.9493098 L28.3650558,15.9493098 L29.7553104,10.3496732 C29.7731056,10.2778433 29.7954733,10.2021517 29.8132067,10.1372732 C30.168494,8.80262874 30.6450424,7.8510767 31.2227704,7.29883668 C31.8422061,6.71184029 32.7026192,6.42992755 33.8294978,6.42992755 C34.8660099,6.42992755 35.5371939,6.64078283 35.8183343,7.08643667 C36.1110601,7.52204978 36.1048812,8.31758436 35.8183343,9.46145495 L35.6638615,10.1372732 L34.1963706,15.9493098 L37.6140798,15.9493098 L39.0622617,10.1372732 L39.3905162,8.82425492 C39.8006414,7.18761631 39.6878763,6.01594062 39.0429526,5.29069114 C38.2991664,4.4410911 37.066474,4.01629108 35.3549161,4.01629108 L35.354947,4.01629108 Z M78.9741852,4.01629108 C77.4842957,4.01629108 76.0307072,4.47661983 74.6103305,5.40654569 L71.4629485,4.34454564 L70.0147666,10.1372732 L68.5665847,15.9493098 L71.984294,15.9493098 L73.3745486,10.3496732 C73.3930853,10.2778433 73.41397,10.2021517 73.432445,10.1372732 C73.789277,8.80262874 74.2627359,7.8510767 74.8420087,7.29883668 C75.4622167,6.71184029 76.3203127,6.42992755 77.4487361,6.42992755 C78.4844757,6.42992755 79.1556598,6.64078283 79.4375725,7.08643667 C79.729526,7.52204978 79.7241194,8.31758436 79.4375725,9.46145495 L79.2637907,10.1372732 L77.8156088,15.9493098 L81.233318,15.9493098 L82.6814999,10.1372732 L83.0097545,8.82425492 C83.4198796,7.18761631 83.3063421,6.01594062 82.6621908,5.29069114 C81.919177,4.4410911 80.6841675,4.01629108 78.9741543,4.01629108 L78.9741852,4.01629108 Z M113.672623,5.23276386 L113.267132,7.12505485 L115.178732,7.12505485 L114.541532,10.1372732 L114.136041,12.1454187 C114.047992,12.5655845 113.712014,13.0035147 113.131968,13.477746 C112.961276,13.6183162 112.856235,13.7086828 112.842332,13.7480733 C113.054732,14.4130784 113.43319,15.0618639 113.962259,15.6596734 C114.003226,15.6704865 114.229497,15.4712167 114.618769,15.0804006 C115.199586,14.4648268 116.673256,13.1077838 119.05986,11.0061823 C119.052136,10.9791187 118.920834,10.6972368 118.673678,10.1758913 L118.6544,10.1372732 L118.306836,9.36490949 L117.920654,9.69316405 C117.735287,9.85613278 117.556098,10.0059713 117.399309,10.1372732 C116.982232,10.4987394 116.665563,10.7636601 116.453163,10.9289459 L116.626945,10.1372732 L117.650327,5.23276386 L113.672654,5.23276386 L113.672623,5.23276386 Z M18.2857099,6.10167299 C20.097675,6.10167299 21.0662191,6.81379229 21.1820736,8.24498217 L14.3659643,8.24498217 C14.5590552,7.91132107 14.7830406,7.6193676 15.0610916,7.35676395 C15.3368254,7.09570503 15.6480879,6.86322357 15.987928,6.68094574 C16.3370363,6.48939955 16.7023644,6.35191882 17.0885462,6.25614572 C17.4762727,6.15264899 17.8732677,6.10167299 18.2857099,6.10167299 Z M62.1945845,6.10167299 C64.0065496,6.10167299 64.9766384,6.81379229 65.0909482,8.24498217 L58.2748389,8.24498217 C58.4694745,7.91132107 58.6942323,7.6193676 58.9699662,7.35676395 C59.2472447,7.09570503 59.5608244,6.86322357 59.8968026,6.68094574 C60.2490004,6.48939955 60.611239,6.35191882 60.9974208,6.25614572 C61.3866921,6.15264899 61.7813699,6.10167299 62.1945845,6.10167299 Z M99.7121497,6.68094574 L100.716222,6.68094574 L100.272113,8.82425492 L99.2680406,8.82425492 L99.7121497,6.68094574 Z M107.107532,6.95127302 L107.706114,6.95127302 C107.785667,7.18066503 107.896115,7.40928468 108.034368,7.62709123 L106.566877,7.62709123 L106.837205,7.27952758 L107.107532,6.95127302 Z M86.6785128,7.04781848 L85.9061491,10.1372732 L84.4386582,15.9493098 L87.8370583,15.9493098 L89.3045493,10.1372732 L90.0769129,7.04781848 L86.6785128,7.04781848 Z M105.02215,9.15250948 L107.435786,9.15250948 L107.242695,10.1372732 L107.107532,10.6972368 L105.44695,10.6972368 C105.508739,10.4902434 105.564349,10.3048761 105.620732,10.1372732 C105.684838,9.94418224 105.736586,9.77966878 105.794514,9.63523678 C105.713415,9.58889496 105.663984,9.55800041 105.620732,9.55800041 L104.616659,9.55800041 L105.02215,9.15250948 Z"/></svg>