<svg xmlns="http://www.w3.org/2000/svg" width="128" height="35" viewBox="0 0 128 35"><path fill="#FFF" d="M21.0537955 10.6614215C23.4835712 12.4117595 26.458978 13.4416994 29.6727273 13.4416994L29.6727273 8.53408574C27.8788326 8.14888377 26.2907439 7.20384974 25.0967078 5.88937082 23.0528505 4.60367136 21.5803179 2.4825863 21.1485643 0L16.6430405 0 16.6430405 24.9021741C16.6328406 27.805253 14.2957679 30.1559226 11.4137097 30.1559226 9.71535858 30.1559226 8.2065452 29.3398102 7.25098061 28.0755976 5.54462449 27.2073956 4.37447425 25.4250226 4.37447425 23.3667054 4.37447425 20.4555527 6.71542029 18.0952465 9.60367592 18.0952465 10.1570538 18.0952465 10.6904192 18.1821058 11.1907317 18.3421508L11.1907317 13.3808849C4.98827699 13.5100669 0 18.6190066 0 24.9023044 0 28.0388745 1.24219524 30.8823109 3.25829321 32.9599012 5.07710667 34.1910369 7.26660327 34.9090909 9.62226818 34.9090909 15.93576 34.9090909 21.0539246 29.7494942 21.0539246 23.3848065L21.0539246 10.6614215 21.0537955 10.6614215ZM38.4 9.89090909 38.4 13.9802505 43.245458 13.9802505 43.245458 29.5624474 48.092864 29.5624474 48.092864 14.0906587 52.0371767 14.0906587 53.3896089 9.89090909 38.4 9.89090909 38.4 9.89090909ZM78.071952 9.89090909 78.071952 13.9802505 82.91741 13.9802505 82.91741 29.5624474 87.764816 29.5624474 87.764816 14.0906587 91.7089988 14.0906587 93.0613012 9.89090909 78.071952 9.89090909 78.071952 9.89090909ZM54.2920529 12.2115362C54.2920529 10.9301587 55.3499474 9.89090909 56.6569263 9.89090909 57.965074 9.89090909 59.0241372 10.9301587 59.0241372 12.2115362 59.0241372 13.493042 57.9657233 14.5322916 56.6569263 14.5322916 55.3499474 14.5316497 54.2920529 13.493042 54.2920529 12.2115362ZM54.2920529 16.1904693 59.0241372 16.1904693 59.0241372 29.5624474 54.2920529 29.5624474 54.2920529 16.1904693ZM61.0531752 9.89090909 61.0531752 29.562319 65.7870777 29.562319 65.7870777 24.4791751 67.2523641 23.151837 71.8726332 29.6727273 76.9439295 29.6727273 70.2938432 20.1686322 76.2673237 14.4212415 70.5196815 14.4212415 65.7870777 19.0626241 65.7870777 9.89090909 61.0531752 9.89090909ZM112.107298 9.89090909 112.107298 29.562319 116.84185 29.562319 116.84185 24.4791751 118.306487 23.151837 122.928054 29.6727273 128 29.6727273 121.349914 20.1686322 127.323135 14.4212415 121.575752 14.4212415 116.84185 19.0626241 116.84185 9.89090909 112.107298 9.89090909ZM101.584274 29.6727273C106.211584 29.6727273 109.963636 26.0257951 109.963636 21.527532 109.963636 17.0293984 106.211584 13.3818182 101.584274 13.3818182L101.469874 13.3818182C96.8422997 13.3818182 93.0909091 17.0292688 93.0909091 21.527532 93.0909091 26.0257951 96.8422997 29.6727273 101.469874 29.6727273L101.584274 29.6727273ZM97.4523883 21.527532C97.4523883 19.3394505 99.2774964 17.5670539 101.528066 17.5670539 103.777049 17.5670539 105.602025 19.3394505 105.602025 21.527532 105.602025 23.7156135 103.777049 25.489047 101.528066 25.489047 99.2774964 25.4886581 97.4523883 23.7156135 97.4523883 21.527532Z"/></svg>