<svg xmlns="http://www.w3.org/2000/svg" width="253" height="165" viewBox="0 0 253 165">
  <path fill-rule="evenodd" d="M118.271,156.034 C105.039,147.746 95.291,119.144 95.291,85.161 C95.291,83.914 95.299,82.685 95.327,81.456 L95.327,81.456 L95.343,81.474 L95.343,81.474 C58.54,75.69 31.949,59.844 31.268,41.106 L31.268,41.106 L31.16,41.322 L31.16,41.322 C22.155,52.513 17.015,65.452 17.015,79.239 C17.015,119.808 61.548,153.049 118.033,155.989 L118.033,155.989 L118.271,156.034 L118.271,156.034 L118.271,156.034 Z M0,82.199 C0,36.805 56.49,0 126.179,0 C195.866,0 252.358,36.805 252.358,82.199 C252.358,127.593 195.865,164.399 126.179,164.399 C56.49,164.399 0,127.592 0,82.199 L0,82.199 L0,82.199 L0,82.199 Z M126.179,11.863 C139.632,11.863 151.075,32.27 155.314,60.744 L155.314,60.744 L155.33,60.701 L155.33,60.701 C181.502,56.627 199.827,47.229 199.827,36.293 C199.827,21.615 166.85,9.73 126.179,9.73 C85.505,9.73 52.531,21.616 52.531,36.293 C52.531,47.229 70.853,56.627 97.028,60.701 L97.028,60.701 L97.044,60.744 L97.044,60.744 C101.283,32.271 112.729,11.863 126.179,11.863 L126.179,11.863 L126.179,11.863 L126.179,11.863 Z M134.323,155.988 C190.808,153.049 235.347,119.807 235.347,79.238 C235.347,65.452 230.201,52.513 221.197,41.321 L221.197,41.321 L221.087,41.105 L221.087,41.105 C220.406,59.843 193.822,75.689 157.015,81.473 L157.015,81.473 L157.031,81.455 L157.031,81.455 C157.056,82.684 157.069,83.913 157.069,85.16 C157.069,119.143 147.314,147.745 134.09,156.033 L134.09,156.033 L134.323,155.988 L134.323,155.988 L134.323,155.988 Z M126.179,62.86 C132.206,62.86 138.065,62.603 143.671,62.109 L143.671,62.109 L143.663,62.118 L143.663,62.118 C140.873,43.865 134.097,30.983 126.179,30.983 C118.261,30.983 111.486,43.865 108.692,62.118 L108.692,62.118 L108.685,62.109 L108.685,62.109 C114.291,62.603 120.152,62.86 126.179,62.86 L126.179,62.86 L126.179,62.86 L126.179,62.86 Z M126.179,130.454 C136.307,130.454 144.569,109.377 145.01,82.941 L145.01,82.941 L145.064,82.96 L145.064,82.96 C138.959,83.525 132.644,83.82 126.18,83.82 C119.71,83.82 113.401,83.525 107.296,82.96 L107.296,82.96 L107.353,82.941 L107.353,82.941 C107.787,109.376 116.047,130.454 126.179,130.454 L126.179,130.454 L126.179,130.454 L126.179,130.454 Z"/>
</svg>
