<svg xmlns="http://www.w3.org/2000/svg" width="129" height="84" viewBox="0 0 129 84"><path fill="#FFF" d="M59.9889364,79.1429319 C53.277455,74.9391262 48.3331141,60.4317359 48.3331141,43.1950166 C48.3331141,42.5625183 48.3371718,41.9391499 48.3513738,41.3157815 L48.3513738,41.3157815 L48.3594893,41.3249114 L48.3594893,41.3249114 C29.6924211,38.3911744 16.205042,30.3538307 15.859628,20.8496184 L15.859628,20.8496184 L15.8048487,20.959177 L15.8048487,20.959177 C11.2373691,26.6354306 8.63027921,33.1982977 8.63027921,40.1912838 C8.63027921,60.7685273 31.2181266,77.6288923 59.868219,79.1201071 L59.868219,79.1201071 L59.9889364,79.1429319 L59.9889364,79.1429319 L59.9889364,79.1429319 Z M0,41.692643 C0,18.6680826 28.6526284,-2.88318881e-14 64,-2.88318881e-14 C99.3463572,-2.88318881e-14 128,18.6680826 128,41.692643 C128,64.7172033 99.3458499,83.3857932 64,83.3857932 C28.6526284,83.3857932 0,64.7166961 0,41.692643 L0,41.692643 L0,41.692643 L0,41.692643 Z M64,6.01710269 C70.823576,6.01710269 76.627648,16.3678584 78.7777364,30.810325 L78.7777364,30.810325 L78.7858518,30.7885147 L78.7858518,30.7885147 C92.0607074,28.722117 101.355439,23.9553016 101.355439,18.4083881 C101.355439,10.9634725 84.6289795,4.93521109 64,4.93521109 C43.3694989,4.93521109 26.6445605,10.9639797 26.6445605,18.4083881 C26.6445605,23.9553016 35.9377709,28.722117 49.2141482,30.7885147 L49.2141482,30.7885147 L49.2222636,30.810325 L49.2222636,30.810325 C51.372352,16.3683656 57.1779456,6.01710269 64,6.01710269 L64,6.01710269 L64,6.01710269 L64,6.01710269 Z M68.1307666,79.1195999 C96.7808589,77.6288923 119.37175,60.76802 119.37175,40.1907766 C119.37175,33.1982977 116.761616,26.6354306 112.194644,20.9586698 L112.194644,20.9586698 L112.13885,20.8491112 L112.13885,20.8491112 C111.793436,30.3533235 98.3096078,38.3906672 79.6405107,41.3244042 L79.6405107,41.3244042 L79.6486262,41.3152743 L79.6486262,41.3152743 C79.6613066,41.9386427 79.6679004,42.5620111 79.6679004,43.1945094 C79.6679004,60.4312287 74.7200089,74.9386189 68.0125853,79.1424247 L68.0125853,79.1424247 L68.1307666,79.1195999 L68.1307666,79.1195999 L68.1307666,79.1195999 Z M64,31.8835939 C67.0569905,31.8835939 70.0287687,31.7532394 72.8722212,31.5026748 L72.8722212,31.5026748 L72.8681635,31.5072397 L72.8681635,31.5072397 C71.453031,22.2490272 68.0161358,15.7150714 64,15.7150714 C59.9838642,15.7150714 56.5474762,22.2490272 55.1303149,31.5072397 L55.1303149,31.5072397 L55.1267644,31.5026748 L55.1267644,31.5026748 C57.9702169,31.7532394 60.9430095,31.8835939 64,31.8835939 L64,31.8835939 L64,31.8835939 L64,31.8835939 Z M64,66.1683481 C69.137083,66.1683481 73.3277011,55.4777578 73.5513834,42.0689972 L73.5513834,42.0689972 L73.578773,42.0786343 L73.578773,42.0786343 C70.4822197,42.3652113 67.279151,42.51484 64.0005072,42.51484 C60.7188201,42.51484 57.5187947,42.3652113 54.4222414,42.0786343 L54.4222414,42.0786343 L54.4511527,42.0689972 L54.4511527,42.0689972 C54.6712844,55.4772506 58.8608881,66.1683481 64,66.1683481 L64,66.1683481 L64,66.1683481 L64,66.1683481 Z" transform="translate(.421 .6)"/></svg>