<svg xmlns="http://www.w3.org/2000/svg" width="128" height="33" viewBox="0 0 128 33"><g fill="#FFF" transform="translate(0 .459)"><path d="M115.068297,5.71016355 C105.353205,5.71016355 97.932563,10.7687169 97.932563,19.5726002 C97.932563,26.993717 104.692544,32.2380363 113.754597,32.2380363 C120.651283,32.2380363 126.360495,27.2514078 128,24.0976714 C128,23.1240666 127.014011,22.7168102 126.102328,22.7168102 C124.522839,25.1460589 120.060166,26.9932406 118.227273,26.9213158 C107.257546,26.5240622 105.48467,22.1280746 105.353205,17.5363181 C105.149339,12.5444501 110.538461,8.20323963 115.13784,8.54333446 C117.820017,8.72767157 118.748847,13.1208012 121.098074,14.7026709 C121.838281,15.1099273 123.53685,15.0327629 124.657163,14.8393757 C125.51121,14.7026709 127.798515,14.1834785 127.798515,12.2091185 C127.798515,10.5705664 125.764614,8.72719525 123.80502,7.54781879 C121.838281,6.63661235 117.432766,5.71016355 115.068297,5.71016355"/><path d="M50.2221081,24.7530922 C50.2221081,28.823751 49.1765783,30.9867351 45.8908996,31.1805986 L45.968064,31.8436406 C51.4691227,31.7817186 57.0663987,31.8436406 62.4359922,31.7197966 L62.4979142,31.3792254 C60.0172221,31.3792254 58.1024021,28.7542078 58.1024021,25.4856774 L58.1024021,14.5140469 C58.1024021,11.8171044 61.3828412,10.1109144 63.6182268,10.3095412 C67.08729,10.6324884 69.00211,12.8650156 69.00211,14.8393757 L69.00211,25.6076162 C69.00211,28.8909126 68.0161206,30.9271946 65.458264,31.1186766 L65.458264,31.7193203 L80.5529519,31.7193203 L80.5529519,31.2572867 C78.3175663,30.9867351 76.7456991,28.9475951 76.7456991,25.8734046 L76.7456991,14.5659661 C76.7456991,12.1471964 78.8439036,10.5029285 82.5939976,10.443388 C85.8772946,10.3767028 87.8416522,12.8107148 87.8416522,15.1099273 L87.8416522,25.3442094 C87.8416522,28.823751 86.7961224,30.9867351 84.1739622,31.2572867 L84.1739622,31.7193203 C89.686929,31.7812423 94.2115248,31.7812423 99.6578063,31.7193203 L99.6578063,31.3792254 C96.7770025,31.3792254 95.7938711,29.4815535 95.7938711,25.4856774 L95.7938711,14.1834785 C95.7938711,10.443388 93.7547307,5.97595195 88.0426607,5.97595195 C84.1734859,5.97595195 81.3326933,7.86838436 79.7131938,8.41710879 C78.5933575,8.8591368 77.8012317,9.39071359 77.5354433,9.39071359 C77.021014,9.39071359 76.4351363,9.06300317 75.7025509,8.27564077 C74.3193078,6.81999681 71.8333761,5.97595195 69.1983552,5.97595195 C65.8455149,5.97595195 62.4979142,7.86838436 60.9184259,8.41710879 C60.7326598,8.46950435 59.5551884,9.06300317 59.413244,9.06300317 C59.1526951,9.06300317 58.1024021,9.06300317 58.1024021,8.93630117 C58.1024021,5.78208837 58.3010289,7.35395522 58.1719453,5.12380959 L56.0013397,5.12380959 C55.3530635,5.12380959 54.2232245,6.31128354 52.9142878,6.81999681 C51.3376575,7.49066 48.183444,7.41873518 46.8840339,7.75168516 L46.8840339,9.97897285 L50.2868881,10.6324884 L50.2868881,14.9732225 L50.2221081,24.7530922 Z"/><path d="M35.4527491,31.7817186 C41.2338859,31.511167 46.8068695,30.2693922 46.8068695,24.686407 C46.8068695,20.6262273 42.3484826,18.0559868 37.62526,16.0220864 C34.5929854,14.775072 30.2046181,12.9374168 30.2046181,11.4870124 C30.2046181,9.78558559 33.5474556,6.49990767 36.763591,9.12492519 L42.348959,13.7919408 L44.9115788,13.2584587 L43.4740348,6.31175986 C42.1550954,6.37130028 41.2338859,6.44370142 36.4358805,5.64395462 C30.5228021,4.79419388 23.5017955,7.75168516 23.5017955,13.257506 C23.5017955,16.9480588 28.8266146,19.5011517 33.031121,21.2073417 C35.3255708,22.1880913 39.4033752,23.643259 39.4033752,25.8734046 C39.4033752,28.0263858 35.586596,28.6275058 33.4255168,28.6275058 C29.7483003,28.6275058 25.6700195,23.7004177 25.6700195,23.7004177 L23.2488678,23.7004177 L24.5597097,31.0643758 C25.009359,30.6618826 26.6636301,30.718565 26.9937222,30.8652726 C28.1683357,31.3125402 32.4347642,31.9803454 35.4522728,31.7817186 M21.5288641,9.45978046 L21.5288641,6.03977927 L14.3768685,6.10694085 C13.4675672,6.10694085 13.5194865,5.91307727 13.5194865,4.7313192 L13.5918876,0.0647799669 L9.97849846,0 C8.87104661,2.4935524 7.49018513,4.13782039 6.70758582,4.46314919 L0,7.41825886 L0,9.52170249 L2.50831891,9.58648246 C3.62291562,9.58648246 4.08018606,9.52170249 4.08018606,10.8377837 L4.08018606,24.6859306 C4.08018606,28.8904363 6.37273049,31.9798691 12.2958117,32.1165739 C16.7432431,32.2380363 19.4454256,30.2684395 21.34024,28.4260211 L20.8186659,26.6502879 C20.0265401,27.1837699 19.381122,27.6434219 18.3203498,27.6434219 C13.2689404,27.6434219 13.4032636,23.6994651 13.4032636,20.2227814 L13.4032636,10.8377837 C13.4032636,9.45978046 13.5199628,9.45978046 14.4487934,9.45978046 L21.5288641,9.45978046 Z"/></g></svg>