<svg xmlns="http://www.w3.org/2000/svg" width="378" height="379" viewBox="0 0 378 379">
  <g fill="none">
    <path fill="#E60000" d="M119.441406,13.328125 C166.90625,-5.589844 222.195312,-4.28125 268.394531,17.691406 C255.230469,15.691406 241.839844,17.199219 228.808594,19.402344 C193.417969,26.085938 159.785156,42.738281 133.496094,67.476562 C108.289062,92.253906 90.625,125.128906 85.636719,160.300781 C82.335938,185.222656 85.394531,211.363281 96.578125,234.046875 C108.101562,257.847656 128.386719,277.367188 152.835938,287.441406 C176.394531,297.410156 203.722656,297.300781 227.585938,288.402344 C263.390625,275.261719 289.117188,239.78125 292.058594,201.875 C293.910156,177.03125 287.867188,150.601562 271.175781,131.546875 C255.242188,112.894531 231.9375,102.621094 208.617188,96.773438 C207.367188,73.773438 218.203125,51.050781 235.386719,36.09375 C244.929688,27.488281 256.773438,22.003906 269.019531,18.492188 L269.949219,18.171875 C305.007812,34.984375 334.796875,62.710938 353.777344,96.75 C370.039062,125.730469 378.519531,159.125 377.679688,192.390625 C377.519531,235.40625 361.441406,277.996094 333.878906,310.886719 C307.816406,342.253906 271.363281,364.816406 231.632812,373.851562 C191.796875,383.042969 148.9375,379.078125 111.65625,362.148438 C75.175781,345.855469 44.269531,317.53125 24.609375,282.691406 C8.253906,253.738281 -0.398438,220.355469 0.320312,187.050781 C0.398438,145.554688 15.132812,104.378906 40.859375,71.929688 C61.410156,46.019531 88.671875,25.417969 119.441406,13.328125 Z"/>
    <path fill="#FFF" d="M228.808594,19.402344 C241.839844,17.199219 255.230469,15.691406 268.394531,17.691406 L270.285156,18.011719 L269.019531,18.492188 C256.773438,22.003906 244.929688,27.488281 235.386719,36.09375 C218.203125,51.050781 207.367188,73.773438 208.617188,96.773438 C231.9375,102.621094 255.242188,112.894531 271.175781,131.546875 C287.867188,150.601562 293.910156,177.03125 292.058594,201.875 C289.117188,239.78125 263.390625,275.261719 227.585938,288.402344 C203.722656,297.300781 176.394531,297.410156 152.835938,287.441406 C128.386719,277.367188 108.101562,257.847656 96.578125,234.046875 C85.394531,211.363281 82.335938,185.222656 85.636719,160.300781 C90.625,125.128906 108.289062,92.253906 133.496094,67.476562 C159.785156,42.738281 193.417969,26.085938 228.808594,19.402344 Z"/>
  </g>
</svg>
