<svg xmlns="http://www.w3.org/2000/svg" width="128" height="129" viewBox="0 0 128 129"><path fill="#FFF" d="M40.409306,4.49716214 C56.5051488,-1.93535036 75.2542686,-1.49040052 90.9209242,5.98077064 C86.4568482,5.30072803 81.9159422,5.81341657 77.4969042,6.56252601 C65.4955599,8.83509036 54.0903087,14.4972417 45.175403,22.9087843 C36.6274254,31.3336092 30.6373506,42.5118095 28.9457705,54.4709964 C27.8264399,62.9449648 28.8636419,71.8333342 32.6561198,79.5462394 C36.5638421,87.639012 43.4427586,94.2760688 51.7337536,97.7015175 C59.7227277,101.091105 68.9899909,101.053915 77.0822883,98.0282569 C89.2240455,93.5601645 97.9482017,81.4960491 98.9456643,68.6071165 C99.573549,60.1597123 97.5243131,51.1730553 91.8640762,44.6940557 C86.4608222,38.3518614 78.5579501,34.8586739 70.6497797,32.8703463 C70.2258911,25.0498563 73.9004748,17.3236688 79.7276176,12.2379597 C82.9637418,9.31191686 86.9800857,7.44711251 91.1328685,6.25305358 L91.4481358,6.14414033 C103.336884,11.8607485 113.438678,21.2883706 119.875161,32.8623769 C125.389686,42.7163538 128.265505,54.0712058 127.980705,65.382227 C127.926394,80.0084559 122.474127,94.4899102 113.127385,105.673423 C104.289309,116.338935 91.9276595,124.010666 78.4546271,127.082811 C64.9458293,130.208086 50.411751,128.859954 37.7692753,123.1035 C25.3983531,117.563543 14.917709,107.932706 8.25073709,96.0864163 C2.70442039,86.241737 -0.229683189,74.8908697 0.0140527217,63.5665663 C0.0405460946,49.4570106 5.03713192,35.4563675 13.7612881,24.422942 C20.7302806,15.6129367 29.9750248,8.60796667 40.409306,4.49716214 Z"/></svg>