<svg xmlns="http://www.w3.org/2000/svg" width="128" height="128" viewBox="0 0 128 128"><path fill="#FFF" d="M123.14076,0 C125.82455,0 128,2.17560158 128,4.8595785 L128,123.149339 C128,125.833316 125.82455,128.007692 123.14076,128.007692 L4.85923998,128.007692 C2.17545,128.007692 -8.49687291e-14,125.833316 -8.49687291e-14,123.149339 L-8.49687291e-14,4.8595785 C-8.49687291e-14,2.17560158 2.17545,0 4.85923998,0 Z M100.368687,40.2713618 L90.2986565,40.2713618 C89.8674862,40.2713618 89.5183853,40.614362 89.5183853,41.0333123 L89.5183853,86.9818704 C89.5183853,87.4044959 89.8674862,87.7474959 90.2986565,87.7474959 L100.368687,87.7474959 C100.796183,87.7474959 101.150183,87.4044959 101.150183,86.9818704 L101.150183,41.0333123 C101.150183,40.614362 100.796183,40.2713618 100.368687,40.2713618 Z M37.699558,40.2713618 L27.6270774,40.2713618 C27.1959072,40.2713618 26.8492561,40.614362 26.8492561,41.0333123 L26.8492561,86.9818704 C26.8492561,87.4044959 27.1959072,87.7474959 27.6270774,87.7474959 L65.9853078,87.7474959 C69.6870025,87.7474959 72.9979494,87.1398957 76.627374,83.5873931 C80.096335,80.1843406 80.4197126,76.3182379 80.4197126,73.6293608 L80.4197126,41.0333123 C80.4197126,40.614362 80.0681618,40.2713618 79.6394415,40.2713618 L69.5730853,40.2713618 C69.1419151,40.2713618 68.7915892,40.614362 68.7915892,41.0333123 L68.7915892,70.1699583 C68.7915892,73.1846855 67.0595587,77.8580639 60.9582544,77.8580639 L39.2613253,77.8580639 C38.830155,77.8580639 38.4835039,77.5126137 38.4835039,77.0961133 L38.4835039,41.0333123 C38.4835039,40.614362 38.1282784,40.2713618 37.699558,40.2713618 Z M58.9297942,40.2689118 L48.3550983,40.2689118 C47.9239281,40.2689118 47.5699275,40.611912 47.5699275,41.0296373 L47.5699275,68.6828074 C47.5699275,69.1029825 47.9239281,69.4459827 48.3550983,69.4459827 L58.9297942,69.4459827 C59.3572898,69.4459827 59.7076156,69.1029825 59.7076156,68.6828074 L59.7076156,41.0296373 C59.7076156,40.611912 59.3572898,40.2689118 58.9297942,40.2689118 Z" transform="matrix(1 0 0 -1 -.005 128.002)"/></svg>