<svg xmlns="http://www.w3.org/2000/svg" width="55" height="55" viewBox="0 0 55 55">
  <g fill="none" fill-rule="evenodd" transform="matrix(1 0 0 -1 .524 54.237)">
    <path fill="#FF6700" d="M51.3773566,0.324106042 L2.47974488,0.324106042 C1.37026539,0.324106042 0.470933783,1.22350031 0.470933783,2.33305708 L0.470933783,51.2340754 C0.470933783,52.3436321 1.37026539,53.24252 2.47974488,53.24252 L51.3773566,53.24252 C52.4868361,53.24252 53.3861677,52.3436321 53.3861677,51.2340754 L53.3861677,2.33305708 C53.3861677,1.22350031 52.4868361,0.324106042 51.3773566,0.324106042"/>
    <g fill="#FFF" fill-rule="nonzero" transform="translate(11.14 16.712)">
      <path d="M30.8233757 19.8869441L26.6604223 19.8869441C26.4821764 19.8869441 26.337858 19.7451478 26.337858 19.5704343L26.337858.575288224C26.337858.402094058 26.4821764.260297665 26.6604223.260297665L30.8233757.260297665C31.0001024.260297665 31.1464464.402094058 31.1464464.575288224L31.1464464 19.5704343C31.1464464 19.7451478 31.0001024 19.8869441 30.8233757 19.8869441M16.6092775 19.8869441L.751974912 19.8869441C.573729007 19.8869441.43042335 19.7451478.43042335 19.5704343L.43042335.575288224C.43042335.402094058.573729007.260297665.751974912.260297665L4.91594104.260297665C5.09317418.260297665 5.2400245.402094058 5.2400245.575288224L5.2400245 15.4836597C5.2400245 15.6558411 5.38333016 15.7986503 5.56157606 15.7986503L14.5310923 15.7986503C17.0533731 15.7986503 17.769395 13.8666744 17.769395 12.6203854L17.769395.575288224C17.769395.402094058 17.9142198.260297665 18.0924657.260297665L22.2539.260297665C22.4311331.260297665 22.5764643.402094058 22.5764643.575288224L22.5764643 14.0505033C22.5764643 15.1620858 22.4427799 16.7603337 21.0087105 18.1671565 19.5083054 19.635762 18.1395591 19.8869441 16.6092775 19.8869441"/>
      <path d="M13.6925263,12.3210937 L9.32094424,12.3210937 C9.14269834,12.3210937 8.9963544,12.1792973 8.9963544,12.0055968 L8.9963544,0.573768977 C8.9963544,0.401081226 9.14269834,0.259284833 9.32094424,0.259284833 L13.6925263,0.259284833 C13.8692531,0.259284833 14.0140779,0.401081226 14.0140779,0.573768977 L14.0140779,12.0055968 C14.0140779,12.1792973 13.8692531,12.3210937 13.6925263,12.3210937"/>
    </g>
  </g>
</svg>
